G04 EAGLE Gerber RS-274X export*
G75*
%MOIN*%
%FSLAX34Y34*%
%LPD*%
%IN*%
%IPPOS*%
%AMOC8*
5,1,8,0,0,1.08239X$1,22.5*%
G01*
%ADD10C,0.010000*%


D10*
X0Y1181D02*
X4Y1078D01*
X18Y976D01*
X40Y875D01*
X71Y777D01*
X111Y682D01*
X158Y591D01*
X214Y504D01*
X276Y422D01*
X346Y346D01*
X422Y276D01*
X504Y214D01*
X591Y158D01*
X682Y111D01*
X777Y71D01*
X875Y40D01*
X976Y18D01*
X1078Y4D01*
X1181Y0D01*
X24409Y0D01*
X24512Y4D01*
X24615Y18D01*
X24715Y40D01*
X24813Y71D01*
X24909Y111D01*
X25000Y158D01*
X25087Y214D01*
X25169Y276D01*
X25245Y346D01*
X25314Y422D01*
X25377Y504D01*
X25432Y591D01*
X25480Y682D01*
X25519Y777D01*
X25550Y875D01*
X25573Y976D01*
X25586Y1078D01*
X25591Y1181D01*
X25591Y20866D01*
X25586Y20969D01*
X25573Y21071D01*
X25550Y21172D01*
X25519Y21270D01*
X25480Y21365D01*
X25432Y21457D01*
X25377Y21544D01*
X25314Y21625D01*
X25245Y21701D01*
X25169Y21771D01*
X25087Y21834D01*
X25000Y21889D01*
X24909Y21937D01*
X24813Y21976D01*
X24715Y22007D01*
X24615Y22029D01*
X24512Y22043D01*
X24409Y22047D01*
X1181Y22047D01*
X1078Y22043D01*
X976Y22029D01*
X875Y22007D01*
X777Y21976D01*
X682Y21937D01*
X591Y21889D01*
X504Y21834D01*
X422Y21771D01*
X346Y21701D01*
X276Y21625D01*
X214Y21544D01*
X158Y21457D01*
X111Y21365D01*
X71Y21270D01*
X40Y21172D01*
X18Y21071D01*
X4Y20969D01*
X0Y20866D01*
X0Y15157D01*
X3Y15089D01*
X12Y15021D01*
X27Y14954D01*
X47Y14888D01*
X74Y14825D01*
X105Y14764D01*
X142Y14706D01*
X184Y14651D01*
X231Y14601D01*
X281Y14554D01*
X336Y14512D01*
X394Y14476D01*
X455Y14444D01*
X518Y14418D01*
X584Y14397D01*
X651Y14382D01*
X719Y14373D01*
X787Y14370D01*
X1181Y14370D01*
X1250Y14367D01*
X1318Y14358D01*
X1385Y14343D01*
X1450Y14323D01*
X1514Y14296D01*
X1575Y14265D01*
X1633Y14228D01*
X1687Y14186D01*
X1738Y14139D01*
X1784Y14089D01*
X1826Y14034D01*
X1863Y13976D01*
X1895Y13915D01*
X1921Y13852D01*
X1942Y13786D01*
X1957Y13719D01*
X1966Y13651D01*
X1969Y13583D01*
X1969Y8465D01*
X1966Y8396D01*
X1957Y8328D01*
X1942Y8261D01*
X1921Y8195D01*
X1895Y8132D01*
X1863Y8071D01*
X1826Y8013D01*
X1784Y7958D01*
X1738Y7908D01*
X1687Y7861D01*
X1633Y7820D01*
X1575Y7783D01*
X1514Y7751D01*
X1450Y7725D01*
X1385Y7704D01*
X1318Y7689D01*
X1250Y7680D01*
X1181Y7677D01*
X787Y7677D01*
X719Y7674D01*
X651Y7665D01*
X584Y7650D01*
X518Y7630D01*
X455Y7603D01*
X394Y7572D01*
X336Y7535D01*
X281Y7493D01*
X231Y7447D01*
X184Y7396D01*
X142Y7341D01*
X105Y7283D01*
X74Y7223D01*
X47Y7159D01*
X27Y7094D01*
X12Y7026D01*
X3Y6958D01*
X0Y6890D01*
X0Y1181D01*
X1919Y1359D02*
X1917Y1320D01*
X1911Y1282D01*
X1903Y1244D01*
X1892Y1207D01*
X1878Y1171D01*
X1862Y1135D01*
X1844Y1102D01*
X1823Y1069D01*
X1800Y1038D01*
X1774Y1009D01*
X1747Y981D01*
X1718Y956D01*
X1687Y933D01*
X1654Y912D01*
X1620Y894D01*
X1585Y878D01*
X1549Y864D01*
X1512Y853D01*
X1474Y845D01*
X1436Y839D01*
X1397Y837D01*
X1359Y837D01*
X1320Y839D01*
X1282Y845D01*
X1244Y853D01*
X1207Y864D01*
X1171Y878D01*
X1135Y894D01*
X1102Y912D01*
X1069Y933D01*
X1038Y956D01*
X1009Y981D01*
X981Y1009D01*
X956Y1038D01*
X933Y1069D01*
X912Y1102D01*
X894Y1135D01*
X878Y1171D01*
X864Y1207D01*
X853Y1244D01*
X845Y1282D01*
X839Y1320D01*
X837Y1359D01*
X837Y1397D01*
X839Y1436D01*
X845Y1474D01*
X853Y1512D01*
X864Y1549D01*
X878Y1585D01*
X894Y1620D01*
X912Y1654D01*
X933Y1687D01*
X956Y1718D01*
X981Y1747D01*
X1009Y1774D01*
X1038Y1800D01*
X1069Y1823D01*
X1102Y1844D01*
X1135Y1862D01*
X1171Y1878D01*
X1207Y1892D01*
X1244Y1903D01*
X1282Y1911D01*
X1320Y1917D01*
X1359Y1919D01*
X1397Y1919D01*
X1436Y1917D01*
X1474Y1911D01*
X1512Y1903D01*
X1549Y1892D01*
X1585Y1878D01*
X1620Y1862D01*
X1654Y1844D01*
X1687Y1823D01*
X1718Y1800D01*
X1747Y1774D01*
X1774Y1747D01*
X1800Y1718D01*
X1823Y1687D01*
X1844Y1654D01*
X1862Y1620D01*
X1878Y1585D01*
X1892Y1549D01*
X1903Y1512D01*
X1911Y1474D01*
X1917Y1436D01*
X1919Y1397D01*
X1919Y1359D01*
X1919Y20650D02*
X1917Y20611D01*
X1911Y20573D01*
X1903Y20535D01*
X1892Y20498D01*
X1878Y20462D01*
X1862Y20427D01*
X1844Y20393D01*
X1823Y20360D01*
X1800Y20329D01*
X1774Y20300D01*
X1747Y20273D01*
X1718Y20248D01*
X1687Y20224D01*
X1654Y20203D01*
X1620Y20185D01*
X1585Y20169D01*
X1549Y20155D01*
X1512Y20144D01*
X1474Y20136D01*
X1436Y20131D01*
X1397Y20128D01*
X1359Y20128D01*
X1320Y20131D01*
X1282Y20136D01*
X1244Y20144D01*
X1207Y20155D01*
X1171Y20169D01*
X1135Y20185D01*
X1102Y20203D01*
X1069Y20224D01*
X1038Y20248D01*
X1009Y20273D01*
X981Y20300D01*
X956Y20329D01*
X933Y20360D01*
X912Y20393D01*
X894Y20427D01*
X878Y20462D01*
X864Y20498D01*
X853Y20535D01*
X845Y20573D01*
X839Y20611D01*
X837Y20650D01*
X837Y20689D01*
X839Y20727D01*
X845Y20765D01*
X853Y20803D01*
X864Y20840D01*
X878Y20877D01*
X894Y20912D01*
X912Y20946D01*
X933Y20978D01*
X956Y21009D01*
X981Y21038D01*
X1009Y21066D01*
X1038Y21091D01*
X1069Y21114D01*
X1102Y21135D01*
X1135Y21154D01*
X1171Y21170D01*
X1207Y21183D01*
X1244Y21194D01*
X1282Y21202D01*
X1320Y21208D01*
X1359Y21211D01*
X1397Y21211D01*
X1436Y21208D01*
X1474Y21202D01*
X1512Y21194D01*
X1549Y21183D01*
X1585Y21170D01*
X1620Y21154D01*
X1654Y21135D01*
X1687Y21114D01*
X1718Y21091D01*
X1747Y21066D01*
X1774Y21038D01*
X1800Y21009D01*
X1823Y20978D01*
X1844Y20946D01*
X1862Y20912D01*
X1878Y20877D01*
X1892Y20840D01*
X1903Y20803D01*
X1911Y20765D01*
X1917Y20727D01*
X1919Y20689D01*
X1919Y20650D01*
X24754Y1359D02*
X24751Y1320D01*
X24746Y1282D01*
X24737Y1244D01*
X24727Y1207D01*
X24713Y1171D01*
X24697Y1135D01*
X24678Y1102D01*
X24658Y1069D01*
X24634Y1038D01*
X24609Y1009D01*
X24582Y981D01*
X24552Y956D01*
X24522Y933D01*
X24489Y912D01*
X24455Y894D01*
X24420Y878D01*
X24384Y864D01*
X24347Y853D01*
X24309Y845D01*
X24271Y839D01*
X24232Y837D01*
X24193Y837D01*
X24155Y839D01*
X24116Y845D01*
X24079Y853D01*
X24042Y864D01*
X24005Y878D01*
X23970Y894D01*
X23936Y912D01*
X23904Y933D01*
X23873Y956D01*
X23843Y981D01*
X23816Y1009D01*
X23791Y1038D01*
X23768Y1069D01*
X23747Y1102D01*
X23728Y1135D01*
X23712Y1171D01*
X23699Y1207D01*
X23688Y1244D01*
X23680Y1282D01*
X23674Y1320D01*
X23671Y1359D01*
X23671Y1397D01*
X23674Y1436D01*
X23680Y1474D01*
X23688Y1512D01*
X23699Y1549D01*
X23712Y1585D01*
X23728Y1620D01*
X23747Y1654D01*
X23768Y1687D01*
X23791Y1718D01*
X23816Y1747D01*
X23843Y1774D01*
X23873Y1800D01*
X23904Y1823D01*
X23936Y1844D01*
X23970Y1862D01*
X24005Y1878D01*
X24042Y1892D01*
X24079Y1903D01*
X24116Y1911D01*
X24155Y1917D01*
X24193Y1919D01*
X24232Y1919D01*
X24271Y1917D01*
X24309Y1911D01*
X24347Y1903D01*
X24384Y1892D01*
X24420Y1878D01*
X24455Y1862D01*
X24489Y1844D01*
X24522Y1823D01*
X24552Y1800D01*
X24582Y1774D01*
X24609Y1747D01*
X24634Y1718D01*
X24658Y1687D01*
X24678Y1654D01*
X24697Y1620D01*
X24713Y1585D01*
X24727Y1549D01*
X24737Y1512D01*
X24746Y1474D01*
X24751Y1436D01*
X24754Y1397D01*
X24754Y1359D01*
X24754Y20650D02*
X24751Y20611D01*
X24746Y20573D01*
X24737Y20535D01*
X24727Y20498D01*
X24713Y20462D01*
X24697Y20427D01*
X24678Y20393D01*
X24658Y20360D01*
X24634Y20329D01*
X24609Y20300D01*
X24582Y20273D01*
X24552Y20248D01*
X24522Y20224D01*
X24489Y20203D01*
X24455Y20185D01*
X24420Y20169D01*
X24384Y20155D01*
X24347Y20144D01*
X24309Y20136D01*
X24271Y20131D01*
X24232Y20128D01*
X24193Y20128D01*
X24155Y20131D01*
X24116Y20136D01*
X24079Y20144D01*
X24042Y20155D01*
X24005Y20169D01*
X23970Y20185D01*
X23936Y20203D01*
X23904Y20224D01*
X23873Y20248D01*
X23843Y20273D01*
X23816Y20300D01*
X23791Y20329D01*
X23768Y20360D01*
X23747Y20393D01*
X23728Y20427D01*
X23712Y20462D01*
X23699Y20498D01*
X23688Y20535D01*
X23680Y20573D01*
X23674Y20611D01*
X23671Y20650D01*
X23671Y20689D01*
X23674Y20727D01*
X23680Y20765D01*
X23688Y20803D01*
X23699Y20840D01*
X23712Y20877D01*
X23728Y20912D01*
X23747Y20946D01*
X23768Y20978D01*
X23791Y21009D01*
X23816Y21038D01*
X23843Y21066D01*
X23873Y21091D01*
X23904Y21114D01*
X23936Y21135D01*
X23970Y21154D01*
X24005Y21170D01*
X24042Y21183D01*
X24079Y21194D01*
X24116Y21202D01*
X24155Y21208D01*
X24193Y21211D01*
X24232Y21211D01*
X24271Y21208D01*
X24309Y21202D01*
X24347Y21194D01*
X24384Y21183D01*
X24420Y21170D01*
X24455Y21154D01*
X24489Y21135D01*
X24522Y21114D01*
X24552Y21091D01*
X24582Y21066D01*
X24609Y21038D01*
X24634Y21009D01*
X24658Y20978D01*
X24678Y20946D01*
X24697Y20912D01*
X24713Y20877D01*
X24727Y20840D01*
X24737Y20803D01*
X24746Y20765D01*
X24751Y20727D01*
X24754Y20689D01*
X24754Y20650D01*
M02*
