G04 EAGLE Gerber RS-274X export*
G75*
%MOIN*%
%FSLAX34Y34*%
%LPD*%
%INSilkscreen Top*%
%IPPOS*%
%AMOC8*
5,1,8,0,0,1.08239X$1,22.5*%
G01*
%ADD10C,0.002000*%
%ADD11C,0.004000*%
%ADD12C,0.005000*%
%ADD13C,0.001969*%
%ADD14C,0.007874*%
%ADD15C,0.003937*%
%ADD16C,0.008000*%
%ADD17C,0.006000*%
%ADD18C,0.020000*%
%ADD19C,0.000866*%
%ADD20C,0.009843*%


D10*
X5690Y2710D02*
X5470Y2710D01*
X5592Y2783D01*
X5470Y2857D01*
X5690Y2857D01*
X5629Y2960D02*
X5531Y2960D01*
X5516Y2962D01*
X5503Y2967D01*
X5491Y2975D01*
X5481Y2986D01*
X5474Y2999D01*
X5470Y3014D01*
X5470Y3028D01*
X5474Y3043D01*
X5481Y3056D01*
X5491Y3067D01*
X5503Y3075D01*
X5516Y3080D01*
X5531Y3082D01*
X5629Y3082D01*
X5644Y3080D01*
X5657Y3075D01*
X5669Y3067D01*
X5679Y3056D01*
X5686Y3043D01*
X5690Y3028D01*
X5690Y3014D01*
X5686Y2999D01*
X5679Y2986D01*
X5669Y2975D01*
X5657Y2967D01*
X5644Y2962D01*
X5629Y2960D01*
X5690Y3183D02*
X5470Y3183D01*
X5470Y3244D01*
X5472Y3258D01*
X5476Y3270D01*
X5483Y3282D01*
X5493Y3292D01*
X5505Y3299D01*
X5517Y3303D01*
X5531Y3305D01*
X5629Y3305D01*
X5643Y3303D01*
X5655Y3299D01*
X5667Y3292D01*
X5677Y3282D01*
X5684Y3270D01*
X5688Y3258D01*
X5690Y3244D01*
X5690Y3183D01*
X5690Y3414D02*
X5690Y3512D01*
X5690Y3414D02*
X5470Y3414D01*
X5470Y3512D01*
X5568Y3487D02*
X5568Y3414D01*
X5470Y3661D02*
X5471Y3673D01*
X5475Y3685D01*
X5482Y3695D01*
X5491Y3704D01*
X5501Y3711D01*
X5513Y3715D01*
X5525Y3716D01*
X5470Y3661D02*
X5472Y3646D01*
X5476Y3632D01*
X5484Y3619D01*
X5494Y3608D01*
X5506Y3599D01*
X5519Y3593D01*
X5568Y3698D02*
X5559Y3705D01*
X5548Y3711D01*
X5537Y3715D01*
X5525Y3716D01*
X5568Y3697D02*
X5690Y3593D01*
X5690Y3716D01*
X6470Y2710D02*
X6690Y2710D01*
X6592Y2783D02*
X6470Y2710D01*
X6592Y2783D02*
X6470Y2857D01*
X6690Y2857D01*
X6629Y2960D02*
X6531Y2960D01*
X6516Y2962D01*
X6503Y2967D01*
X6491Y2975D01*
X6481Y2986D01*
X6474Y2999D01*
X6470Y3014D01*
X6470Y3028D01*
X6474Y3043D01*
X6481Y3056D01*
X6491Y3067D01*
X6503Y3075D01*
X6516Y3080D01*
X6531Y3082D01*
X6629Y3082D01*
X6644Y3080D01*
X6657Y3075D01*
X6669Y3067D01*
X6679Y3056D01*
X6686Y3043D01*
X6690Y3028D01*
X6690Y3014D01*
X6686Y2999D01*
X6679Y2986D01*
X6669Y2975D01*
X6657Y2967D01*
X6644Y2962D01*
X6629Y2960D01*
X6690Y3183D02*
X6470Y3183D01*
X6470Y3244D01*
X6472Y3258D01*
X6476Y3270D01*
X6483Y3282D01*
X6493Y3292D01*
X6505Y3299D01*
X6517Y3303D01*
X6531Y3305D01*
X6629Y3305D01*
X6643Y3303D01*
X6655Y3299D01*
X6667Y3292D01*
X6677Y3282D01*
X6684Y3270D01*
X6688Y3258D01*
X6690Y3244D01*
X6690Y3183D01*
X6690Y3414D02*
X6690Y3512D01*
X6690Y3414D02*
X6470Y3414D01*
X6470Y3512D01*
X6568Y3487D02*
X6568Y3414D01*
X6519Y3593D02*
X6470Y3655D01*
X6690Y3655D01*
X6690Y3716D02*
X6690Y3593D01*
X7470Y2710D02*
X7690Y2710D01*
X7592Y2783D02*
X7470Y2710D01*
X7592Y2783D02*
X7470Y2857D01*
X7690Y2857D01*
X7629Y2960D02*
X7531Y2960D01*
X7516Y2962D01*
X7503Y2967D01*
X7491Y2975D01*
X7481Y2986D01*
X7474Y2999D01*
X7470Y3014D01*
X7470Y3028D01*
X7474Y3043D01*
X7481Y3056D01*
X7491Y3067D01*
X7503Y3075D01*
X7516Y3080D01*
X7531Y3082D01*
X7629Y3082D01*
X7644Y3080D01*
X7657Y3075D01*
X7669Y3067D01*
X7679Y3056D01*
X7686Y3043D01*
X7690Y3028D01*
X7690Y3014D01*
X7686Y2999D01*
X7679Y2986D01*
X7669Y2975D01*
X7657Y2967D01*
X7644Y2962D01*
X7629Y2960D01*
X7690Y3183D02*
X7470Y3183D01*
X7470Y3244D01*
X7472Y3258D01*
X7476Y3270D01*
X7483Y3282D01*
X7493Y3292D01*
X7505Y3299D01*
X7517Y3303D01*
X7531Y3305D01*
X7629Y3305D01*
X7643Y3303D01*
X7655Y3299D01*
X7667Y3292D01*
X7677Y3282D01*
X7684Y3270D01*
X7688Y3258D01*
X7690Y3244D01*
X7690Y3183D01*
X7690Y3414D02*
X7690Y3512D01*
X7690Y3414D02*
X7470Y3414D01*
X7470Y3512D01*
X7568Y3487D02*
X7568Y3414D01*
X7580Y3594D02*
X7560Y3595D01*
X7539Y3599D01*
X7520Y3604D01*
X7501Y3612D01*
X7500Y3612D02*
X7490Y3617D01*
X7482Y3625D01*
X7475Y3634D01*
X7471Y3644D01*
X7470Y3655D01*
X7471Y3666D01*
X7475Y3676D01*
X7482Y3685D01*
X7490Y3693D01*
X7500Y3698D01*
X7501Y3697D02*
X7520Y3705D01*
X7539Y3710D01*
X7560Y3714D01*
X7580Y3715D01*
X7580Y3594D02*
X7600Y3595D01*
X7621Y3599D01*
X7640Y3604D01*
X7659Y3612D01*
X7660Y3612D02*
X7670Y3617D01*
X7678Y3625D01*
X7685Y3634D01*
X7689Y3644D01*
X7690Y3655D01*
X7659Y3697D02*
X7640Y3705D01*
X7621Y3710D01*
X7600Y3714D01*
X7580Y3715D01*
X7660Y3698D02*
X7670Y3693D01*
X7678Y3685D01*
X7685Y3676D01*
X7689Y3666D01*
X7690Y3655D01*
X7641Y3606D02*
X7519Y3703D01*
X9510Y2030D02*
X9510Y1810D01*
X9510Y2030D02*
X9571Y2030D01*
X9585Y2028D01*
X9597Y2024D01*
X9609Y2017D01*
X9619Y2007D01*
X9626Y1995D01*
X9630Y1983D01*
X9632Y1969D01*
X9632Y1871D01*
X9630Y1857D01*
X9626Y1845D01*
X9619Y1833D01*
X9609Y1823D01*
X9597Y1816D01*
X9585Y1812D01*
X9571Y1810D01*
X9510Y1810D01*
X9741Y1810D02*
X9839Y1810D01*
X9741Y1810D02*
X9741Y2030D01*
X9839Y2030D01*
X9814Y1932D02*
X9741Y1932D01*
X9969Y1810D02*
X10018Y1810D01*
X9969Y1810D02*
X9956Y1812D01*
X9945Y1817D01*
X9934Y1824D01*
X9927Y1835D01*
X9922Y1846D01*
X9920Y1859D01*
X9920Y1981D01*
X9922Y1994D01*
X9927Y2005D01*
X9934Y2016D01*
X9944Y2023D01*
X9956Y2028D01*
X9969Y2030D01*
X10018Y2030D01*
X10162Y2030D02*
X10088Y1810D01*
X10235Y1810D02*
X10162Y2030D01*
X10217Y1865D02*
X10107Y1865D01*
X10304Y2030D02*
X10378Y1926D01*
X10451Y2030D01*
X10378Y1926D02*
X10378Y1810D01*
X9583Y2910D02*
X9510Y3130D01*
X9657Y3130D02*
X9583Y2910D01*
X9786Y2910D02*
X9835Y2910D01*
X9786Y2910D02*
X9773Y2912D01*
X9762Y2917D01*
X9751Y2924D01*
X9744Y2935D01*
X9739Y2946D01*
X9737Y2959D01*
X9738Y2959D02*
X9738Y3081D01*
X9737Y3081D02*
X9739Y3094D01*
X9744Y3105D01*
X9751Y3116D01*
X9761Y3123D01*
X9773Y3128D01*
X9786Y3130D01*
X9835Y3130D01*
X9966Y2910D02*
X10015Y2910D01*
X9966Y2910D02*
X9953Y2912D01*
X9942Y2917D01*
X9931Y2924D01*
X9924Y2935D01*
X9919Y2946D01*
X9917Y2959D01*
X9918Y2959D02*
X9918Y3081D01*
X9917Y3081D02*
X9919Y3094D01*
X9924Y3105D01*
X9931Y3116D01*
X9941Y3123D01*
X9953Y3128D01*
X9966Y3130D01*
X10015Y3130D01*
X9632Y932D02*
X9596Y932D01*
X9632Y932D02*
X9632Y810D01*
X9559Y810D01*
X9546Y812D01*
X9535Y817D01*
X9524Y824D01*
X9517Y835D01*
X9512Y846D01*
X9510Y859D01*
X9510Y981D01*
X9512Y994D01*
X9517Y1005D01*
X9524Y1016D01*
X9534Y1023D01*
X9546Y1028D01*
X9559Y1030D01*
X9632Y1030D01*
X9740Y1030D02*
X9740Y810D01*
X9863Y810D02*
X9740Y1030D01*
X9863Y1030D02*
X9863Y810D01*
X9971Y810D02*
X9971Y1030D01*
X10032Y1030D01*
X10046Y1028D01*
X10058Y1024D01*
X10070Y1017D01*
X10080Y1007D01*
X10087Y995D01*
X10091Y983D01*
X10093Y969D01*
X10093Y871D01*
X10091Y857D01*
X10087Y845D01*
X10080Y833D01*
X10070Y823D01*
X10058Y816D01*
X10046Y812D01*
X10032Y810D01*
X9971Y810D01*
X6483Y110D02*
X6410Y330D01*
X6557Y330D02*
X6483Y110D01*
X6686Y110D02*
X6735Y110D01*
X6686Y110D02*
X6673Y112D01*
X6662Y117D01*
X6651Y124D01*
X6644Y135D01*
X6639Y146D01*
X6637Y159D01*
X6638Y159D02*
X6638Y281D01*
X6637Y281D02*
X6639Y294D01*
X6644Y305D01*
X6651Y316D01*
X6661Y323D01*
X6673Y328D01*
X6686Y330D01*
X6735Y330D01*
X6866Y110D02*
X6915Y110D01*
X6866Y110D02*
X6853Y112D01*
X6842Y117D01*
X6831Y124D01*
X6824Y135D01*
X6819Y146D01*
X6817Y159D01*
X6818Y159D02*
X6818Y281D01*
X6817Y281D02*
X6819Y294D01*
X6824Y305D01*
X6831Y316D01*
X6841Y323D01*
X6853Y328D01*
X6866Y330D01*
X6915Y330D01*
D11*
X16020Y3999D02*
X16327Y3999D01*
X16173Y3846D02*
X16173Y4152D01*
X12327Y7799D02*
X12020Y7799D01*
X12173Y7646D02*
X12173Y7952D01*
X11577Y10799D02*
X11270Y10799D01*
X11423Y10646D02*
X11423Y10952D01*
D10*
X23210Y3030D02*
X23210Y2810D01*
X23308Y2810D01*
X23377Y2810D02*
X23451Y3030D01*
X23524Y2810D01*
X23506Y2865D02*
X23396Y2865D01*
X23606Y2981D02*
X23667Y3030D01*
X23667Y2810D01*
X23606Y2810D02*
X23728Y2810D01*
X23210Y18960D02*
X23210Y19180D01*
X23271Y19180D01*
X23286Y19178D01*
X23299Y19173D01*
X23311Y19165D01*
X23321Y19154D01*
X23328Y19141D01*
X23332Y19126D01*
X23332Y19112D01*
X23328Y19097D01*
X23321Y19084D01*
X23311Y19073D01*
X23299Y19065D01*
X23286Y19060D01*
X23271Y19058D01*
X23210Y19058D01*
X23283Y19058D02*
X23332Y18960D01*
X23435Y19082D02*
X23496Y19082D01*
X23511Y19080D01*
X23524Y19075D01*
X23536Y19067D01*
X23546Y19056D01*
X23553Y19043D01*
X23557Y19028D01*
X23557Y19014D01*
X23553Y18999D01*
X23546Y18986D01*
X23536Y18975D01*
X23524Y18967D01*
X23511Y18962D01*
X23496Y18960D01*
X23435Y18960D01*
X23435Y19180D01*
X23496Y19180D01*
X23509Y19178D01*
X23521Y19173D01*
X23531Y19166D01*
X23538Y19156D01*
X23543Y19144D01*
X23545Y19131D01*
X23543Y19118D01*
X23538Y19107D01*
X23531Y19096D01*
X23521Y19089D01*
X23509Y19084D01*
X23496Y19082D01*
X23708Y19180D02*
X23720Y19179D01*
X23732Y19175D01*
X23742Y19168D01*
X23751Y19159D01*
X23758Y19149D01*
X23762Y19137D01*
X23763Y19125D01*
X23708Y19180D02*
X23693Y19178D01*
X23679Y19174D01*
X23666Y19166D01*
X23655Y19156D01*
X23646Y19144D01*
X23640Y19131D01*
X23745Y19082D02*
X23752Y19091D01*
X23758Y19102D01*
X23762Y19113D01*
X23763Y19125D01*
X23744Y19082D02*
X23641Y18960D01*
X23763Y18960D01*
D11*
X4130Y4120D02*
X3670Y4120D01*
X3670Y4248D01*
X3672Y4269D01*
X3677Y4290D01*
X3685Y4309D01*
X3697Y4327D01*
X3711Y4342D01*
X3728Y4355D01*
X3747Y4365D01*
X3767Y4372D01*
X3787Y4376D01*
X3809Y4376D01*
X3829Y4372D01*
X3849Y4365D01*
X3868Y4355D01*
X3885Y4342D01*
X3899Y4327D01*
X3911Y4309D01*
X3919Y4290D01*
X3924Y4269D01*
X3926Y4248D01*
X3926Y4120D01*
X3926Y4273D02*
X4130Y4376D01*
X4130Y4583D02*
X4130Y4787D01*
X4130Y4583D02*
X3670Y4583D01*
X3670Y4787D01*
X3874Y4736D02*
X3874Y4583D01*
X4130Y5095D02*
X4128Y5113D01*
X4124Y5130D01*
X4116Y5146D01*
X4106Y5161D01*
X4094Y5173D01*
X4079Y5183D01*
X4063Y5191D01*
X4046Y5195D01*
X4028Y5197D01*
X4130Y5095D02*
X4128Y5067D01*
X4123Y5039D01*
X4113Y5012D01*
X4101Y4986D01*
X4085Y4963D01*
X4066Y4942D01*
X3772Y4955D02*
X3754Y4957D01*
X3737Y4961D01*
X3721Y4969D01*
X3706Y4979D01*
X3694Y4991D01*
X3684Y5006D01*
X3676Y5022D01*
X3672Y5039D01*
X3670Y5057D01*
X3672Y5082D01*
X3676Y5106D01*
X3684Y5129D01*
X3695Y5152D01*
X3708Y5172D01*
X3772Y4955D02*
X3790Y4957D01*
X3807Y4961D01*
X3824Y4969D01*
X3838Y4979D01*
X3851Y4992D01*
X3862Y5006D01*
X3938Y5147D02*
X3949Y5161D01*
X3962Y5174D01*
X3976Y5184D01*
X3993Y5192D01*
X4010Y5196D01*
X4028Y5198D01*
X3938Y5147D02*
X3862Y5006D01*
X4130Y5393D02*
X4130Y5597D01*
X4130Y5393D02*
X3670Y5393D01*
X3670Y5597D01*
X3874Y5546D02*
X3874Y5393D01*
X3670Y5865D02*
X4130Y5865D01*
X3670Y5737D02*
X3670Y5993D01*
D10*
X3183Y21810D02*
X3110Y21810D01*
X3183Y21810D02*
X3196Y21812D01*
X3207Y21817D01*
X3218Y21824D01*
X3225Y21834D01*
X3230Y21846D01*
X3232Y21859D01*
X3232Y21883D01*
X3230Y21896D01*
X3225Y21908D01*
X3218Y21918D01*
X3208Y21925D01*
X3196Y21930D01*
X3183Y21932D01*
X3110Y21932D01*
X3110Y22030D01*
X3232Y22030D01*
X3314Y22030D02*
X3387Y21810D01*
X3460Y22030D01*
X5096Y21932D02*
X5132Y21932D01*
X5132Y21810D01*
X5059Y21810D01*
X5046Y21812D01*
X5035Y21817D01*
X5024Y21824D01*
X5017Y21835D01*
X5012Y21846D01*
X5010Y21859D01*
X5010Y21981D01*
X5012Y21994D01*
X5017Y22005D01*
X5024Y22016D01*
X5034Y22023D01*
X5046Y22028D01*
X5059Y22030D01*
X5132Y22030D01*
X5240Y22030D02*
X5240Y21810D01*
X5363Y21810D02*
X5240Y22030D01*
X5363Y22030D02*
X5363Y21810D01*
X5471Y21810D02*
X5471Y22030D01*
X5532Y22030D01*
X5546Y22028D01*
X5558Y22024D01*
X5570Y22017D01*
X5580Y22007D01*
X5587Y21995D01*
X5591Y21983D01*
X5593Y21969D01*
X5593Y21871D01*
X5591Y21857D01*
X5587Y21845D01*
X5580Y21833D01*
X5570Y21823D01*
X5558Y21816D01*
X5546Y21812D01*
X5532Y21810D01*
X5471Y21810D01*
X6121Y21810D02*
X6121Y22030D01*
X6060Y22030D02*
X6182Y22030D01*
X6396Y22030D02*
X6249Y21810D01*
X6396Y21810D02*
X6249Y22030D01*
X7010Y22030D02*
X7010Y21810D01*
X7010Y22030D02*
X7071Y22030D01*
X7086Y22028D01*
X7099Y22023D01*
X7111Y22015D01*
X7121Y22004D01*
X7128Y21991D01*
X7132Y21976D01*
X7132Y21962D01*
X7128Y21947D01*
X7121Y21934D01*
X7111Y21923D01*
X7099Y21915D01*
X7086Y21910D01*
X7071Y21908D01*
X7010Y21908D01*
X7083Y21908D02*
X7132Y21810D01*
X7212Y21810D02*
X7359Y22030D01*
X7212Y22030D02*
X7359Y21810D01*
X2571Y19360D02*
X2510Y19360D01*
X2571Y19360D02*
X2586Y19362D01*
X2599Y19367D01*
X2611Y19375D01*
X2621Y19386D01*
X2628Y19399D01*
X2632Y19414D01*
X2632Y19428D01*
X2628Y19443D01*
X2621Y19456D01*
X2611Y19467D01*
X2599Y19475D01*
X2586Y19480D01*
X2571Y19482D01*
X2583Y19580D02*
X2510Y19580D01*
X2583Y19580D02*
X2596Y19578D01*
X2608Y19573D01*
X2618Y19566D01*
X2625Y19556D01*
X2630Y19544D01*
X2632Y19531D01*
X2630Y19518D01*
X2625Y19507D01*
X2618Y19496D01*
X2608Y19489D01*
X2596Y19484D01*
X2583Y19482D01*
X2534Y19482D01*
X2714Y19580D02*
X2787Y19360D01*
X2860Y19580D01*
X2942Y19360D02*
X3003Y19360D01*
X3018Y19362D01*
X3031Y19367D01*
X3043Y19375D01*
X3053Y19386D01*
X3060Y19399D01*
X3064Y19414D01*
X3064Y19428D01*
X3060Y19443D01*
X3053Y19456D01*
X3043Y19467D01*
X3031Y19475D01*
X3018Y19480D01*
X3003Y19482D01*
X3015Y19580D02*
X2942Y19580D01*
X3015Y19580D02*
X3028Y19578D01*
X3040Y19573D01*
X3050Y19566D01*
X3057Y19556D01*
X3062Y19544D01*
X3064Y19531D01*
X3062Y19518D01*
X3057Y19507D01*
X3050Y19496D01*
X3040Y19489D01*
X3028Y19484D01*
X3015Y19482D01*
X2966Y19482D01*
X440Y16009D02*
X220Y15960D01*
X293Y16058D02*
X440Y16009D01*
X440Y16107D02*
X293Y16058D01*
X220Y16156D02*
X440Y16107D01*
X440Y16252D02*
X220Y16252D01*
X220Y16313D01*
X222Y16328D01*
X227Y16341D01*
X235Y16353D01*
X246Y16363D01*
X259Y16370D01*
X274Y16374D01*
X288Y16374D01*
X303Y16370D01*
X316Y16363D01*
X327Y16353D01*
X335Y16341D01*
X340Y16328D01*
X342Y16313D01*
X342Y16252D01*
D12*
X2611Y10997D02*
X2611Y10603D01*
X2989Y10603D02*
X2989Y10997D01*
D10*
X2452Y10790D02*
X2452Y10741D01*
X2450Y10728D01*
X2445Y10717D01*
X2438Y10706D01*
X2428Y10699D01*
X2416Y10694D01*
X2403Y10692D01*
X2403Y10693D02*
X2281Y10693D01*
X2281Y10692D02*
X2268Y10694D01*
X2257Y10699D01*
X2246Y10706D01*
X2239Y10716D01*
X2234Y10728D01*
X2232Y10741D01*
X2232Y10790D01*
X2281Y10873D02*
X2232Y10934D01*
X2452Y10934D01*
X2452Y10873D02*
X2452Y10995D01*
X20739Y15990D02*
X20788Y15990D01*
X20739Y15990D02*
X20726Y15992D01*
X20715Y15997D01*
X20704Y16004D01*
X20697Y16015D01*
X20692Y16026D01*
X20690Y16039D01*
X20691Y16039D02*
X20691Y16161D01*
X20690Y16161D02*
X20692Y16174D01*
X20697Y16185D01*
X20704Y16196D01*
X20714Y16203D01*
X20726Y16208D01*
X20739Y16210D01*
X20788Y16210D01*
X20871Y16161D02*
X20932Y16210D01*
X20932Y15990D01*
X20871Y15990D02*
X20993Y15990D01*
X21087Y16161D02*
X21148Y16210D01*
X21148Y15990D01*
X21087Y15990D02*
X21209Y15990D01*
X15910Y8938D02*
X15910Y8889D01*
X15908Y8876D01*
X15903Y8865D01*
X15896Y8854D01*
X15886Y8847D01*
X15874Y8842D01*
X15861Y8840D01*
X15861Y8841D02*
X15739Y8841D01*
X15739Y8840D02*
X15726Y8842D01*
X15715Y8847D01*
X15704Y8854D01*
X15697Y8864D01*
X15692Y8876D01*
X15690Y8889D01*
X15690Y8938D01*
X15739Y9021D02*
X15690Y9082D01*
X15910Y9082D01*
X15910Y9021D02*
X15910Y9143D01*
X15745Y9359D02*
X15733Y9358D01*
X15721Y9354D01*
X15711Y9347D01*
X15702Y9338D01*
X15695Y9328D01*
X15691Y9316D01*
X15690Y9304D01*
X15692Y9289D01*
X15696Y9275D01*
X15704Y9262D01*
X15714Y9251D01*
X15726Y9242D01*
X15739Y9236D01*
X15788Y9341D02*
X15779Y9348D01*
X15768Y9354D01*
X15757Y9358D01*
X15745Y9359D01*
X15788Y9341D02*
X15910Y9237D01*
X15910Y9359D01*
X21039Y13040D02*
X21088Y13040D01*
X21039Y13040D02*
X21026Y13042D01*
X21015Y13047D01*
X21004Y13054D01*
X20997Y13065D01*
X20992Y13076D01*
X20990Y13089D01*
X20991Y13089D02*
X20991Y13211D01*
X20990Y13211D02*
X20992Y13224D01*
X20997Y13235D01*
X21004Y13246D01*
X21014Y13253D01*
X21026Y13258D01*
X21039Y13260D01*
X21088Y13260D01*
X21171Y13211D02*
X21232Y13260D01*
X21232Y13040D01*
X21171Y13040D02*
X21293Y13040D01*
X21387Y13040D02*
X21448Y13040D01*
X21463Y13042D01*
X21476Y13047D01*
X21488Y13055D01*
X21498Y13066D01*
X21505Y13079D01*
X21509Y13094D01*
X21509Y13108D01*
X21505Y13123D01*
X21498Y13136D01*
X21488Y13147D01*
X21476Y13155D01*
X21463Y13160D01*
X21448Y13162D01*
X21461Y13260D02*
X21387Y13260D01*
X21461Y13260D02*
X21474Y13258D01*
X21486Y13253D01*
X21496Y13246D01*
X21503Y13236D01*
X21508Y13224D01*
X21510Y13211D01*
X21508Y13198D01*
X21503Y13187D01*
X21496Y13176D01*
X21486Y13169D01*
X21474Y13164D01*
X21461Y13162D01*
X21412Y13162D01*
X21088Y13640D02*
X21039Y13640D01*
X21026Y13642D01*
X21015Y13647D01*
X21004Y13654D01*
X20997Y13665D01*
X20992Y13676D01*
X20990Y13689D01*
X20991Y13689D02*
X20991Y13811D01*
X20990Y13811D02*
X20992Y13824D01*
X20997Y13835D01*
X21004Y13846D01*
X21014Y13853D01*
X21026Y13858D01*
X21039Y13860D01*
X21088Y13860D01*
X21171Y13811D02*
X21232Y13860D01*
X21232Y13640D01*
X21171Y13640D02*
X21293Y13640D01*
X21387Y13689D02*
X21436Y13860D01*
X21387Y13689D02*
X21509Y13689D01*
X21473Y13738D02*
X21473Y13640D01*
X20138Y8340D02*
X20089Y8340D01*
X20076Y8342D01*
X20065Y8347D01*
X20054Y8354D01*
X20047Y8365D01*
X20042Y8376D01*
X20040Y8389D01*
X20041Y8389D02*
X20041Y8511D01*
X20040Y8511D02*
X20042Y8524D01*
X20047Y8535D01*
X20054Y8546D01*
X20064Y8553D01*
X20076Y8558D01*
X20089Y8560D01*
X20138Y8560D01*
X20221Y8511D02*
X20282Y8560D01*
X20282Y8340D01*
X20221Y8340D02*
X20343Y8340D01*
X20437Y8340D02*
X20511Y8340D01*
X20524Y8342D01*
X20535Y8347D01*
X20546Y8354D01*
X20553Y8364D01*
X20558Y8376D01*
X20560Y8389D01*
X20559Y8389D02*
X20559Y8413D01*
X20560Y8413D02*
X20558Y8426D01*
X20553Y8438D01*
X20546Y8448D01*
X20536Y8455D01*
X20524Y8460D01*
X20511Y8462D01*
X20437Y8462D01*
X20437Y8560D01*
X20559Y8560D01*
D13*
X10827Y7457D02*
X10829Y7561D01*
X10835Y7664D01*
X10845Y7767D01*
X10859Y7870D01*
X10877Y7972D01*
X10898Y8074D01*
X10924Y8174D01*
X10953Y8274D01*
X10986Y8372D01*
X11023Y8469D01*
X11064Y8564D01*
X11108Y8658D01*
X11156Y8750D01*
X11207Y8840D01*
X11262Y8928D01*
X11320Y9014D01*
X11381Y9098D01*
X11446Y9179D01*
X11513Y9258D01*
X11584Y9334D01*
X11657Y9407D01*
X11733Y9478D01*
X11812Y9545D01*
X11893Y9610D01*
X11977Y9671D01*
X12063Y9729D01*
X12151Y9784D01*
X12241Y9835D01*
X12333Y9883D01*
X12427Y9927D01*
X12522Y9968D01*
X12619Y10005D01*
X12717Y10038D01*
X12817Y10067D01*
X12917Y10093D01*
X13019Y10114D01*
X13121Y10132D01*
X13224Y10146D01*
X13327Y10156D01*
X13430Y10162D01*
X13534Y10164D01*
X13638Y10162D01*
X13741Y10156D01*
X13844Y10146D01*
X13947Y10132D01*
X14049Y10114D01*
X14151Y10093D01*
X14251Y10067D01*
X14351Y10038D01*
X14449Y10005D01*
X14546Y9968D01*
X14641Y9927D01*
X14735Y9883D01*
X14827Y9835D01*
X14917Y9784D01*
X15005Y9729D01*
X15091Y9671D01*
X15175Y9610D01*
X15256Y9545D01*
X15335Y9478D01*
X15411Y9407D01*
X15484Y9334D01*
X15555Y9258D01*
X15622Y9179D01*
X15687Y9098D01*
X15748Y9014D01*
X15806Y8928D01*
X15861Y8840D01*
X15912Y8750D01*
X15960Y8658D01*
X16004Y8564D01*
X16045Y8469D01*
X16082Y8372D01*
X16115Y8274D01*
X16144Y8174D01*
X16170Y8074D01*
X16191Y7972D01*
X16209Y7870D01*
X16223Y7767D01*
X16233Y7664D01*
X16239Y7561D01*
X16241Y7457D01*
X16239Y7353D01*
X16233Y7250D01*
X16223Y7147D01*
X16209Y7044D01*
X16191Y6942D01*
X16170Y6840D01*
X16144Y6740D01*
X16115Y6640D01*
X16082Y6542D01*
X16045Y6445D01*
X16004Y6350D01*
X15960Y6256D01*
X15912Y6164D01*
X15861Y6074D01*
X15806Y5986D01*
X15748Y5900D01*
X15687Y5816D01*
X15622Y5735D01*
X15555Y5656D01*
X15484Y5580D01*
X15411Y5507D01*
X15335Y5436D01*
X15256Y5369D01*
X15175Y5304D01*
X15091Y5243D01*
X15005Y5185D01*
X14917Y5130D01*
X14827Y5079D01*
X14735Y5031D01*
X14641Y4987D01*
X14546Y4946D01*
X14449Y4909D01*
X14351Y4876D01*
X14251Y4847D01*
X14151Y4821D01*
X14049Y4800D01*
X13947Y4782D01*
X13844Y4768D01*
X13741Y4758D01*
X13638Y4752D01*
X13534Y4750D01*
X13430Y4752D01*
X13327Y4758D01*
X13224Y4768D01*
X13121Y4782D01*
X13019Y4800D01*
X12917Y4821D01*
X12817Y4847D01*
X12717Y4876D01*
X12619Y4909D01*
X12522Y4946D01*
X12427Y4987D01*
X12333Y5031D01*
X12241Y5079D01*
X12151Y5130D01*
X12063Y5185D01*
X11977Y5243D01*
X11893Y5304D01*
X11812Y5369D01*
X11733Y5436D01*
X11657Y5507D01*
X11584Y5580D01*
X11513Y5656D01*
X11446Y5735D01*
X11381Y5816D01*
X11320Y5900D01*
X11262Y5986D01*
X11207Y6074D01*
X11156Y6164D01*
X11108Y6256D01*
X11064Y6350D01*
X11023Y6445D01*
X10986Y6542D01*
X10953Y6640D01*
X10924Y6740D01*
X10898Y6840D01*
X10877Y6942D01*
X10859Y7044D01*
X10845Y7147D01*
X10835Y7250D01*
X10829Y7353D01*
X10827Y7457D01*
D14*
X11024Y7457D02*
X11026Y7557D01*
X11032Y7656D01*
X11042Y7756D01*
X11056Y7855D01*
X11073Y7953D01*
X11095Y8050D01*
X11121Y8147D01*
X11150Y8242D01*
X11183Y8336D01*
X11220Y8429D01*
X11260Y8520D01*
X11304Y8610D01*
X11352Y8698D01*
X11403Y8783D01*
X11457Y8867D01*
X11515Y8948D01*
X11576Y9028D01*
X11640Y9104D01*
X11707Y9178D01*
X11777Y9249D01*
X11850Y9318D01*
X11925Y9383D01*
X12003Y9446D01*
X12083Y9505D01*
X12166Y9561D01*
X12250Y9614D01*
X12337Y9663D01*
X12426Y9709D01*
X12516Y9751D01*
X12608Y9790D01*
X12702Y9825D01*
X12796Y9856D01*
X12892Y9884D01*
X12989Y9907D01*
X13087Y9927D01*
X13186Y9943D01*
X13285Y9955D01*
X13384Y9963D01*
X13484Y9967D01*
X13584Y9967D01*
X13684Y9963D01*
X13783Y9955D01*
X13882Y9943D01*
X13981Y9927D01*
X14079Y9907D01*
X14176Y9884D01*
X14272Y9856D01*
X14366Y9825D01*
X14460Y9790D01*
X14552Y9751D01*
X14642Y9709D01*
X14731Y9663D01*
X14818Y9614D01*
X14902Y9561D01*
X14985Y9505D01*
X15065Y9446D01*
X15143Y9383D01*
X15218Y9318D01*
X15291Y9249D01*
X15361Y9178D01*
X15428Y9104D01*
X15492Y9028D01*
X15553Y8948D01*
X15611Y8867D01*
X15665Y8783D01*
X15716Y8698D01*
X15764Y8610D01*
X15808Y8520D01*
X15848Y8429D01*
X15885Y8336D01*
X15918Y8242D01*
X15947Y8147D01*
X15973Y8050D01*
X15995Y7953D01*
X16012Y7855D01*
X16026Y7756D01*
X16036Y7656D01*
X16042Y7557D01*
X16044Y7457D01*
X16042Y7357D01*
X16036Y7258D01*
X16026Y7158D01*
X16012Y7059D01*
X15995Y6961D01*
X15973Y6864D01*
X15947Y6767D01*
X15918Y6672D01*
X15885Y6578D01*
X15848Y6485D01*
X15808Y6394D01*
X15764Y6304D01*
X15716Y6216D01*
X15665Y6131D01*
X15611Y6047D01*
X15553Y5966D01*
X15492Y5886D01*
X15428Y5810D01*
X15361Y5736D01*
X15291Y5665D01*
X15218Y5596D01*
X15143Y5531D01*
X15065Y5468D01*
X14985Y5409D01*
X14902Y5353D01*
X14818Y5300D01*
X14731Y5251D01*
X14642Y5205D01*
X14552Y5163D01*
X14460Y5124D01*
X14366Y5089D01*
X14272Y5058D01*
X14176Y5030D01*
X14079Y5007D01*
X13981Y4987D01*
X13882Y4971D01*
X13783Y4959D01*
X13684Y4951D01*
X13584Y4947D01*
X13484Y4947D01*
X13384Y4951D01*
X13285Y4959D01*
X13186Y4971D01*
X13087Y4987D01*
X12989Y5007D01*
X12892Y5030D01*
X12796Y5058D01*
X12702Y5089D01*
X12608Y5124D01*
X12516Y5163D01*
X12426Y5205D01*
X12337Y5251D01*
X12250Y5300D01*
X12166Y5353D01*
X12083Y5409D01*
X12003Y5468D01*
X11925Y5531D01*
X11850Y5596D01*
X11777Y5665D01*
X11707Y5736D01*
X11640Y5810D01*
X11576Y5886D01*
X11515Y5966D01*
X11457Y6047D01*
X11403Y6131D01*
X11352Y6216D01*
X11304Y6304D01*
X11260Y6394D01*
X11220Y6485D01*
X11183Y6578D01*
X11150Y6672D01*
X11121Y6767D01*
X11095Y6864D01*
X11073Y6961D01*
X11056Y7059D01*
X11042Y7158D01*
X11032Y7258D01*
X11026Y7357D01*
X11024Y7457D01*
D11*
X13111Y8727D02*
X13214Y8727D01*
X13111Y8728D02*
X13093Y8730D01*
X13076Y8734D01*
X13060Y8742D01*
X13045Y8752D01*
X13033Y8764D01*
X13023Y8779D01*
X13015Y8795D01*
X13011Y8812D01*
X13009Y8830D01*
X13009Y9085D01*
X13011Y9105D01*
X13017Y9124D01*
X13026Y9142D01*
X13039Y9157D01*
X13054Y9170D01*
X13072Y9179D01*
X13091Y9185D01*
X13111Y9187D01*
X13214Y9187D01*
X13385Y9085D02*
X13513Y9187D01*
X13513Y8727D01*
X13385Y8727D02*
X13641Y8727D01*
X13835Y8983D02*
X13989Y8983D01*
X14007Y8981D01*
X14024Y8977D01*
X14040Y8969D01*
X14055Y8959D01*
X14067Y8947D01*
X14077Y8932D01*
X14085Y8916D01*
X14089Y8899D01*
X14091Y8881D01*
X14091Y8855D01*
X14089Y8834D01*
X14084Y8813D01*
X14076Y8794D01*
X14064Y8776D01*
X14050Y8761D01*
X14033Y8748D01*
X14014Y8738D01*
X13994Y8731D01*
X13974Y8727D01*
X13952Y8727D01*
X13932Y8731D01*
X13912Y8738D01*
X13893Y8748D01*
X13876Y8761D01*
X13862Y8776D01*
X13850Y8794D01*
X13842Y8813D01*
X13837Y8834D01*
X13835Y8855D01*
X13835Y8983D01*
X13836Y8983D02*
X13838Y9010D01*
X13843Y9036D01*
X13852Y9061D01*
X13863Y9085D01*
X13878Y9107D01*
X13896Y9127D01*
X13916Y9145D01*
X13938Y9160D01*
X13962Y9171D01*
X13987Y9180D01*
X14013Y9185D01*
X14040Y9187D01*
D10*
X21039Y14290D02*
X21088Y14290D01*
X21039Y14290D02*
X21026Y14292D01*
X21015Y14297D01*
X21004Y14304D01*
X20997Y14315D01*
X20992Y14326D01*
X20990Y14339D01*
X20991Y14339D02*
X20991Y14461D01*
X20990Y14461D02*
X20992Y14474D01*
X20997Y14485D01*
X21004Y14496D01*
X21014Y14503D01*
X21026Y14508D01*
X21039Y14510D01*
X21088Y14510D01*
X21171Y14461D02*
X21232Y14510D01*
X21232Y14290D01*
X21171Y14290D02*
X21293Y14290D01*
X21387Y14486D02*
X21387Y14510D01*
X21509Y14510D01*
X21448Y14290D01*
X16538Y17690D02*
X16489Y17690D01*
X16476Y17692D01*
X16465Y17697D01*
X16454Y17704D01*
X16447Y17715D01*
X16442Y17726D01*
X16440Y17739D01*
X16441Y17739D02*
X16441Y17861D01*
X16440Y17861D02*
X16442Y17874D01*
X16447Y17885D01*
X16454Y17896D01*
X16464Y17903D01*
X16476Y17908D01*
X16489Y17910D01*
X16538Y17910D01*
X16621Y17861D02*
X16682Y17910D01*
X16682Y17690D01*
X16621Y17690D02*
X16743Y17690D01*
X16837Y17751D02*
X16839Y17766D01*
X16844Y17779D01*
X16852Y17791D01*
X16863Y17801D01*
X16876Y17808D01*
X16891Y17812D01*
X16905Y17812D01*
X16920Y17808D01*
X16933Y17801D01*
X16944Y17791D01*
X16952Y17779D01*
X16957Y17766D01*
X16959Y17751D01*
X16957Y17736D01*
X16952Y17723D01*
X16944Y17711D01*
X16933Y17701D01*
X16920Y17694D01*
X16905Y17690D01*
X16891Y17690D01*
X16876Y17694D01*
X16863Y17701D01*
X16852Y17711D01*
X16844Y17723D01*
X16839Y17736D01*
X16837Y17751D01*
X16849Y17861D02*
X16851Y17874D01*
X16856Y17886D01*
X16863Y17896D01*
X16874Y17903D01*
X16885Y17908D01*
X16898Y17910D01*
X16911Y17908D01*
X16923Y17903D01*
X16933Y17896D01*
X16940Y17886D01*
X16945Y17874D01*
X16947Y17861D01*
X16945Y17848D01*
X16940Y17837D01*
X16933Y17826D01*
X16923Y17819D01*
X16911Y17814D01*
X16898Y17812D01*
X16885Y17814D01*
X16874Y17819D01*
X16863Y17826D01*
X16856Y17837D01*
X16851Y17848D01*
X16849Y17861D01*
X4110Y18289D02*
X4110Y18338D01*
X4110Y18289D02*
X4108Y18276D01*
X4103Y18265D01*
X4096Y18254D01*
X4086Y18247D01*
X4074Y18242D01*
X4061Y18240D01*
X4061Y18241D02*
X3939Y18241D01*
X3939Y18240D02*
X3926Y18242D01*
X3915Y18247D01*
X3904Y18254D01*
X3897Y18264D01*
X3892Y18276D01*
X3890Y18289D01*
X3890Y18338D01*
X3939Y18421D02*
X3890Y18482D01*
X4110Y18482D01*
X4110Y18421D02*
X4110Y18543D01*
X4012Y18686D02*
X4012Y18759D01*
X4012Y18686D02*
X4010Y18673D01*
X4005Y18662D01*
X3998Y18651D01*
X3988Y18644D01*
X3976Y18639D01*
X3963Y18637D01*
X3951Y18637D01*
X3936Y18639D01*
X3923Y18644D01*
X3911Y18652D01*
X3901Y18663D01*
X3894Y18676D01*
X3890Y18691D01*
X3890Y18705D01*
X3894Y18720D01*
X3901Y18733D01*
X3911Y18744D01*
X3923Y18752D01*
X3936Y18757D01*
X3951Y18759D01*
X4012Y18759D01*
X4012Y18760D02*
X4029Y18759D01*
X4046Y18754D01*
X4061Y18747D01*
X4075Y18737D01*
X4087Y18725D01*
X4097Y18711D01*
X4104Y18696D01*
X4109Y18679D01*
X4110Y18662D01*
D12*
X5389Y10997D02*
X5389Y10603D01*
X5011Y10603D02*
X5011Y10997D01*
D10*
X4868Y10802D02*
X4868Y10753D01*
X4866Y10740D01*
X4861Y10729D01*
X4854Y10718D01*
X4844Y10711D01*
X4832Y10706D01*
X4819Y10704D01*
X4819Y10705D02*
X4697Y10705D01*
X4697Y10704D02*
X4684Y10706D01*
X4673Y10711D01*
X4662Y10718D01*
X4655Y10728D01*
X4650Y10740D01*
X4648Y10753D01*
X4648Y10802D01*
X4648Y10952D02*
X4649Y10964D01*
X4653Y10976D01*
X4660Y10986D01*
X4669Y10995D01*
X4679Y11002D01*
X4691Y11006D01*
X4703Y11007D01*
X4648Y10952D02*
X4650Y10937D01*
X4654Y10923D01*
X4662Y10910D01*
X4672Y10899D01*
X4684Y10890D01*
X4697Y10884D01*
X4746Y10989D02*
X4737Y10996D01*
X4726Y11002D01*
X4715Y11006D01*
X4703Y11007D01*
X4746Y10989D02*
X4868Y10885D01*
X4868Y11007D01*
X11310Y14397D02*
X11310Y14446D01*
X11310Y14397D02*
X11308Y14384D01*
X11303Y14373D01*
X11296Y14362D01*
X11286Y14355D01*
X11274Y14350D01*
X11261Y14348D01*
X11261Y14349D02*
X11139Y14349D01*
X11139Y14348D02*
X11126Y14350D01*
X11115Y14355D01*
X11104Y14362D01*
X11097Y14372D01*
X11092Y14384D01*
X11090Y14397D01*
X11090Y14446D01*
X11310Y14529D02*
X11310Y14590D01*
X11308Y14605D01*
X11303Y14618D01*
X11295Y14630D01*
X11284Y14640D01*
X11271Y14647D01*
X11256Y14651D01*
X11242Y14651D01*
X11227Y14647D01*
X11214Y14640D01*
X11203Y14630D01*
X11195Y14618D01*
X11190Y14605D01*
X11188Y14590D01*
X11090Y14603D02*
X11090Y14529D01*
X11090Y14603D02*
X11092Y14616D01*
X11097Y14628D01*
X11104Y14638D01*
X11115Y14645D01*
X11126Y14650D01*
X11139Y14652D01*
X11152Y14650D01*
X11164Y14645D01*
X11174Y14638D01*
X11181Y14628D01*
X11186Y14616D01*
X11188Y14603D01*
X11188Y14554D01*
X11310Y13446D02*
X11310Y13397D01*
X11308Y13384D01*
X11303Y13373D01*
X11296Y13362D01*
X11286Y13355D01*
X11274Y13350D01*
X11261Y13348D01*
X11261Y13349D02*
X11139Y13349D01*
X11139Y13348D02*
X11126Y13350D01*
X11115Y13355D01*
X11104Y13362D01*
X11097Y13372D01*
X11092Y13384D01*
X11090Y13397D01*
X11090Y13446D01*
X11090Y13578D02*
X11261Y13529D01*
X11261Y13651D01*
X11212Y13615D02*
X11310Y13615D01*
D13*
X10619Y11494D02*
X10621Y11563D01*
X10627Y11631D01*
X10637Y11699D01*
X10651Y11766D01*
X10669Y11833D01*
X10690Y11898D01*
X10716Y11962D01*
X10745Y12024D01*
X10777Y12084D01*
X10813Y12143D01*
X10853Y12199D01*
X10895Y12253D01*
X10941Y12304D01*
X10990Y12353D01*
X11041Y12399D01*
X11095Y12441D01*
X11151Y12481D01*
X11209Y12517D01*
X11270Y12549D01*
X11332Y12578D01*
X11396Y12604D01*
X11461Y12625D01*
X11528Y12643D01*
X11595Y12657D01*
X11663Y12667D01*
X11731Y12673D01*
X11800Y12675D01*
X11869Y12673D01*
X11937Y12667D01*
X12005Y12657D01*
X12072Y12643D01*
X12139Y12625D01*
X12204Y12604D01*
X12268Y12578D01*
X12330Y12549D01*
X12390Y12517D01*
X12449Y12481D01*
X12505Y12441D01*
X12559Y12399D01*
X12610Y12353D01*
X12659Y12304D01*
X12705Y12253D01*
X12747Y12199D01*
X12787Y12143D01*
X12823Y12084D01*
X12855Y12024D01*
X12884Y11962D01*
X12910Y11898D01*
X12931Y11833D01*
X12949Y11766D01*
X12963Y11699D01*
X12973Y11631D01*
X12979Y11563D01*
X12981Y11494D01*
X12979Y11425D01*
X12973Y11357D01*
X12963Y11289D01*
X12949Y11222D01*
X12931Y11155D01*
X12910Y11090D01*
X12884Y11026D01*
X12855Y10964D01*
X12823Y10903D01*
X12787Y10845D01*
X12747Y10789D01*
X12705Y10735D01*
X12659Y10684D01*
X12610Y10635D01*
X12559Y10589D01*
X12505Y10547D01*
X12449Y10507D01*
X12391Y10471D01*
X12330Y10439D01*
X12268Y10410D01*
X12204Y10384D01*
X12139Y10363D01*
X12072Y10345D01*
X12005Y10331D01*
X11937Y10321D01*
X11869Y10315D01*
X11800Y10313D01*
X11731Y10315D01*
X11663Y10321D01*
X11595Y10331D01*
X11528Y10345D01*
X11461Y10363D01*
X11396Y10384D01*
X11332Y10410D01*
X11270Y10439D01*
X11209Y10471D01*
X11151Y10507D01*
X11095Y10547D01*
X11041Y10589D01*
X10990Y10635D01*
X10941Y10684D01*
X10895Y10735D01*
X10853Y10789D01*
X10813Y10845D01*
X10777Y10903D01*
X10745Y10964D01*
X10716Y11026D01*
X10690Y11090D01*
X10669Y11155D01*
X10651Y11222D01*
X10637Y11289D01*
X10627Y11357D01*
X10621Y11425D01*
X10619Y11494D01*
D14*
X10816Y11494D02*
X10818Y11556D01*
X10824Y11619D01*
X10834Y11680D01*
X10848Y11741D01*
X10865Y11801D01*
X10886Y11860D01*
X10912Y11917D01*
X10940Y11972D01*
X10972Y12026D01*
X11008Y12077D01*
X11046Y12127D01*
X11088Y12173D01*
X11132Y12217D01*
X11180Y12258D01*
X11229Y12296D01*
X11281Y12330D01*
X11335Y12361D01*
X11391Y12389D01*
X11449Y12413D01*
X11508Y12434D01*
X11568Y12450D01*
X11629Y12463D01*
X11691Y12472D01*
X11753Y12477D01*
X11816Y12478D01*
X11878Y12475D01*
X11940Y12468D01*
X12002Y12457D01*
X12062Y12442D01*
X12122Y12424D01*
X12180Y12402D01*
X12237Y12376D01*
X12292Y12346D01*
X12345Y12313D01*
X12396Y12277D01*
X12444Y12238D01*
X12490Y12195D01*
X12533Y12150D01*
X12573Y12102D01*
X12610Y12052D01*
X12644Y11999D01*
X12675Y11945D01*
X12701Y11889D01*
X12725Y11831D01*
X12744Y11771D01*
X12760Y11711D01*
X12772Y11649D01*
X12780Y11588D01*
X12784Y11525D01*
X12784Y11463D01*
X12780Y11400D01*
X12772Y11339D01*
X12760Y11277D01*
X12744Y11217D01*
X12725Y11157D01*
X12701Y11099D01*
X12675Y11043D01*
X12644Y10989D01*
X12610Y10936D01*
X12573Y10886D01*
X12533Y10838D01*
X12490Y10793D01*
X12444Y10750D01*
X12396Y10711D01*
X12345Y10675D01*
X12292Y10642D01*
X12237Y10612D01*
X12180Y10586D01*
X12122Y10564D01*
X12062Y10546D01*
X12002Y10531D01*
X11940Y10520D01*
X11878Y10513D01*
X11816Y10510D01*
X11753Y10511D01*
X11691Y10516D01*
X11629Y10525D01*
X11568Y10538D01*
X11508Y10554D01*
X11449Y10575D01*
X11391Y10599D01*
X11335Y10627D01*
X11281Y10658D01*
X11229Y10692D01*
X11180Y10730D01*
X11132Y10771D01*
X11088Y10815D01*
X11046Y10861D01*
X11008Y10911D01*
X10972Y10962D01*
X10940Y11016D01*
X10912Y11071D01*
X10886Y11128D01*
X10865Y11187D01*
X10848Y11247D01*
X10834Y11308D01*
X10824Y11369D01*
X10818Y11432D01*
X10816Y11494D01*
D10*
X12560Y11546D02*
X12560Y11497D01*
X12558Y11484D01*
X12553Y11473D01*
X12546Y11462D01*
X12536Y11455D01*
X12524Y11450D01*
X12511Y11448D01*
X12511Y11449D02*
X12389Y11449D01*
X12389Y11448D02*
X12376Y11450D01*
X12365Y11455D01*
X12354Y11462D01*
X12347Y11472D01*
X12342Y11484D01*
X12340Y11497D01*
X12340Y11546D01*
X12560Y11629D02*
X12560Y11703D01*
X12558Y11716D01*
X12553Y11728D01*
X12546Y11738D01*
X12536Y11745D01*
X12524Y11750D01*
X12511Y11752D01*
X12511Y11751D02*
X12487Y11751D01*
X12487Y11752D02*
X12474Y11750D01*
X12463Y11745D01*
X12452Y11738D01*
X12445Y11728D01*
X12440Y11716D01*
X12438Y11703D01*
X12438Y11629D01*
X12340Y11629D01*
X12340Y11751D01*
D12*
X6011Y12803D02*
X6011Y13197D01*
X6389Y13197D02*
X6389Y12803D01*
D10*
X5902Y12841D02*
X5902Y12890D01*
X5902Y12841D02*
X5900Y12828D01*
X5895Y12817D01*
X5888Y12806D01*
X5878Y12799D01*
X5866Y12794D01*
X5853Y12792D01*
X5853Y12793D02*
X5731Y12793D01*
X5731Y12792D02*
X5718Y12794D01*
X5707Y12799D01*
X5696Y12806D01*
X5689Y12816D01*
X5684Y12828D01*
X5682Y12841D01*
X5682Y12890D01*
X5780Y12973D02*
X5780Y13047D01*
X5782Y13060D01*
X5787Y13072D01*
X5794Y13082D01*
X5805Y13089D01*
X5816Y13094D01*
X5829Y13096D01*
X5829Y13095D02*
X5841Y13095D01*
X5856Y13093D01*
X5869Y13088D01*
X5881Y13080D01*
X5891Y13069D01*
X5898Y13056D01*
X5902Y13041D01*
X5902Y13027D01*
X5898Y13012D01*
X5891Y12999D01*
X5881Y12988D01*
X5869Y12980D01*
X5856Y12975D01*
X5841Y12973D01*
X5780Y12973D01*
X5761Y12975D01*
X5742Y12980D01*
X5726Y12990D01*
X5711Y13002D01*
X5699Y13017D01*
X5689Y13033D01*
X5684Y13052D01*
X5682Y13071D01*
X20447Y4840D02*
X20496Y4840D01*
X20447Y4840D02*
X20434Y4842D01*
X20423Y4847D01*
X20412Y4854D01*
X20405Y4865D01*
X20400Y4876D01*
X20398Y4889D01*
X20399Y4889D02*
X20399Y5011D01*
X20398Y5011D02*
X20400Y5024D01*
X20405Y5035D01*
X20412Y5046D01*
X20422Y5053D01*
X20434Y5058D01*
X20447Y5060D01*
X20496Y5060D01*
X20579Y5060D02*
X20579Y5036D01*
X20579Y5060D02*
X20701Y5060D01*
X20640Y4840D01*
X20110Y6047D02*
X20110Y6096D01*
X20110Y6047D02*
X20108Y6034D01*
X20103Y6023D01*
X20096Y6012D01*
X20086Y6005D01*
X20074Y6000D01*
X20061Y5998D01*
X20061Y5999D02*
X19939Y5999D01*
X19939Y5998D02*
X19926Y6000D01*
X19915Y6005D01*
X19904Y6012D01*
X19897Y6022D01*
X19892Y6034D01*
X19890Y6047D01*
X19890Y6096D01*
X20049Y6179D02*
X20034Y6181D01*
X20021Y6186D01*
X20009Y6194D01*
X19999Y6205D01*
X19992Y6218D01*
X19988Y6233D01*
X19988Y6247D01*
X19992Y6262D01*
X19999Y6275D01*
X20009Y6286D01*
X20021Y6294D01*
X20034Y6299D01*
X20049Y6301D01*
X20064Y6299D01*
X20077Y6294D01*
X20089Y6286D01*
X20099Y6275D01*
X20106Y6262D01*
X20110Y6247D01*
X20110Y6233D01*
X20106Y6218D01*
X20099Y6205D01*
X20089Y6194D01*
X20077Y6186D01*
X20064Y6181D01*
X20049Y6179D01*
X19939Y6191D02*
X19926Y6193D01*
X19915Y6198D01*
X19904Y6205D01*
X19897Y6216D01*
X19892Y6227D01*
X19890Y6240D01*
X19892Y6253D01*
X19897Y6265D01*
X19904Y6275D01*
X19915Y6282D01*
X19926Y6287D01*
X19939Y6289D01*
X19952Y6287D01*
X19964Y6282D01*
X19974Y6275D01*
X19981Y6265D01*
X19986Y6253D01*
X19988Y6240D01*
X19986Y6227D01*
X19981Y6216D01*
X19974Y6205D01*
X19964Y6198D01*
X19952Y6193D01*
X19939Y6191D01*
X20297Y6790D02*
X20346Y6790D01*
X20297Y6790D02*
X20284Y6792D01*
X20273Y6797D01*
X20262Y6804D01*
X20255Y6815D01*
X20250Y6826D01*
X20248Y6839D01*
X20249Y6839D02*
X20249Y6961D01*
X20248Y6961D02*
X20250Y6974D01*
X20255Y6985D01*
X20262Y6996D01*
X20272Y7003D01*
X20284Y7008D01*
X20297Y7010D01*
X20346Y7010D01*
X20478Y6888D02*
X20551Y6888D01*
X20478Y6888D02*
X20465Y6890D01*
X20453Y6895D01*
X20443Y6902D01*
X20436Y6913D01*
X20431Y6924D01*
X20429Y6937D01*
X20429Y6949D01*
X20431Y6964D01*
X20436Y6977D01*
X20444Y6989D01*
X20455Y6999D01*
X20468Y7006D01*
X20483Y7010D01*
X20497Y7010D01*
X20512Y7006D01*
X20525Y6999D01*
X20536Y6989D01*
X20544Y6977D01*
X20549Y6964D01*
X20551Y6949D01*
X20551Y6888D01*
X20552Y6888D02*
X20551Y6871D01*
X20546Y6854D01*
X20539Y6839D01*
X20529Y6825D01*
X20517Y6813D01*
X20503Y6803D01*
X20488Y6796D01*
X20471Y6791D01*
X20454Y6790D01*
D14*
X4316Y16887D02*
X4316Y18344D01*
X6284Y18344D01*
X6284Y16887D01*
X4316Y16887D01*
X4306Y16749D02*
X4306Y16169D01*
D11*
X4570Y17210D02*
X5030Y17210D01*
X5030Y17159D02*
X5030Y17261D01*
X4570Y17261D02*
X4570Y17159D01*
X5030Y17543D02*
X5030Y17645D01*
X5030Y17543D02*
X5028Y17525D01*
X5024Y17508D01*
X5016Y17492D01*
X5006Y17477D01*
X4994Y17465D01*
X4979Y17455D01*
X4963Y17447D01*
X4946Y17443D01*
X4928Y17441D01*
X4672Y17441D01*
X4652Y17443D01*
X4633Y17449D01*
X4615Y17458D01*
X4600Y17471D01*
X4587Y17486D01*
X4578Y17504D01*
X4572Y17523D01*
X4570Y17543D01*
X4570Y17645D01*
X4672Y17817D02*
X4570Y17945D01*
X5030Y17945D01*
X5030Y18072D02*
X5030Y17817D01*
D14*
X4744Y14180D02*
X3287Y14180D01*
X4744Y14180D02*
X4744Y11620D01*
X3287Y11620D01*
X3287Y14180D01*
X3149Y14278D02*
X2569Y14278D01*
D11*
X3610Y13630D02*
X3610Y13170D01*
X3559Y13170D02*
X3661Y13170D01*
X3661Y13630D02*
X3559Y13630D01*
X3943Y13170D02*
X4045Y13170D01*
X3943Y13170D02*
X3925Y13172D01*
X3908Y13176D01*
X3892Y13184D01*
X3877Y13194D01*
X3865Y13206D01*
X3855Y13221D01*
X3847Y13237D01*
X3843Y13254D01*
X3841Y13272D01*
X3841Y13528D01*
X3843Y13548D01*
X3849Y13567D01*
X3858Y13585D01*
X3871Y13600D01*
X3886Y13613D01*
X3904Y13622D01*
X3923Y13628D01*
X3943Y13630D01*
X4045Y13630D01*
X4357Y13630D02*
X4377Y13628D01*
X4396Y13623D01*
X4415Y13615D01*
X4431Y13603D01*
X4445Y13589D01*
X4457Y13573D01*
X4465Y13554D01*
X4470Y13535D01*
X4472Y13515D01*
X4357Y13630D02*
X4334Y13628D01*
X4311Y13623D01*
X4290Y13614D01*
X4270Y13602D01*
X4252Y13587D01*
X4237Y13569D01*
X4225Y13549D01*
X4216Y13528D01*
X4435Y13425D02*
X4448Y13440D01*
X4459Y13457D01*
X4467Y13476D01*
X4471Y13495D01*
X4473Y13515D01*
X4434Y13426D02*
X4217Y13170D01*
X4472Y13170D01*
D14*
X13272Y19080D02*
X14728Y19080D01*
X14728Y16520D01*
X13272Y16520D01*
X13272Y19080D01*
X13134Y19178D02*
X12553Y19178D01*
D11*
X13594Y18530D02*
X13594Y18070D01*
X13543Y18070D02*
X13645Y18070D01*
X13645Y18530D02*
X13543Y18530D01*
X13927Y18070D02*
X14030Y18070D01*
X13927Y18070D02*
X13909Y18072D01*
X13892Y18076D01*
X13876Y18084D01*
X13861Y18094D01*
X13849Y18106D01*
X13839Y18121D01*
X13831Y18137D01*
X13827Y18154D01*
X13825Y18172D01*
X13825Y18428D01*
X13827Y18448D01*
X13833Y18467D01*
X13842Y18485D01*
X13855Y18500D01*
X13870Y18513D01*
X13888Y18522D01*
X13907Y18528D01*
X13927Y18530D01*
X14030Y18530D01*
X14201Y18070D02*
X14329Y18070D01*
X14350Y18072D01*
X14371Y18077D01*
X14390Y18085D01*
X14408Y18097D01*
X14423Y18111D01*
X14436Y18128D01*
X14446Y18147D01*
X14453Y18167D01*
X14457Y18187D01*
X14457Y18209D01*
X14453Y18229D01*
X14446Y18249D01*
X14436Y18268D01*
X14423Y18285D01*
X14408Y18299D01*
X14390Y18311D01*
X14371Y18319D01*
X14350Y18324D01*
X14329Y18326D01*
X14355Y18530D02*
X14201Y18530D01*
X14355Y18530D02*
X14374Y18528D01*
X14392Y18523D01*
X14409Y18515D01*
X14424Y18503D01*
X14436Y18489D01*
X14446Y18473D01*
X14453Y18456D01*
X14457Y18437D01*
X14457Y18419D01*
X14453Y18400D01*
X14446Y18383D01*
X14436Y18367D01*
X14424Y18353D01*
X14409Y18341D01*
X14392Y18333D01*
X14374Y18328D01*
X14355Y18326D01*
X14253Y18326D01*
D14*
X18942Y5262D02*
X19523Y5262D01*
X19335Y13210D02*
X18754Y13210D01*
X2398Y18965D02*
X1138Y18965D01*
X2398Y18965D02*
X2398Y17035D01*
X1138Y17035D01*
X1138Y18965D01*
X1000Y19026D02*
X400Y19026D01*
D11*
X1362Y18730D02*
X1362Y18270D01*
X1311Y18270D02*
X1413Y18270D01*
X1413Y18730D02*
X1311Y18730D01*
X1695Y18270D02*
X1797Y18270D01*
X1695Y18270D02*
X1677Y18272D01*
X1660Y18276D01*
X1644Y18284D01*
X1629Y18294D01*
X1617Y18306D01*
X1607Y18321D01*
X1599Y18337D01*
X1595Y18354D01*
X1593Y18372D01*
X1593Y18628D01*
X1595Y18648D01*
X1601Y18667D01*
X1610Y18685D01*
X1623Y18700D01*
X1638Y18713D01*
X1656Y18722D01*
X1675Y18728D01*
X1695Y18730D01*
X1797Y18730D01*
X1969Y18526D02*
X2123Y18526D01*
X2123Y18525D02*
X2141Y18523D01*
X2158Y18519D01*
X2174Y18511D01*
X2189Y18501D01*
X2201Y18489D01*
X2211Y18474D01*
X2219Y18458D01*
X2223Y18441D01*
X2225Y18423D01*
X2225Y18398D01*
X2223Y18377D01*
X2218Y18356D01*
X2210Y18337D01*
X2198Y18319D01*
X2184Y18304D01*
X2167Y18291D01*
X2148Y18281D01*
X2128Y18274D01*
X2108Y18270D01*
X2086Y18270D01*
X2066Y18274D01*
X2046Y18281D01*
X2027Y18291D01*
X2010Y18304D01*
X1996Y18319D01*
X1984Y18337D01*
X1976Y18356D01*
X1971Y18377D01*
X1969Y18398D01*
X1969Y18526D01*
X1970Y18526D02*
X1972Y18553D01*
X1977Y18579D01*
X1986Y18604D01*
X1997Y18628D01*
X2012Y18650D01*
X2030Y18670D01*
X2050Y18688D01*
X2072Y18703D01*
X2096Y18714D01*
X2121Y18723D01*
X2147Y18728D01*
X2174Y18730D01*
D15*
X18778Y3761D02*
X19565Y3761D01*
X19565Y3367D01*
X16809Y3761D02*
X16022Y3761D01*
X16022Y-1948D01*
X19565Y-1948D01*
X19565Y1202D01*
X21581Y3111D02*
X21581Y18859D01*
X25125Y18859D01*
X25125Y3111D01*
X21581Y3111D01*
D16*
X500Y14890D02*
X500Y15390D01*
X750Y15640D01*
X1250Y15640D02*
X1500Y15390D01*
X750Y15640D02*
X500Y15890D01*
X500Y16390D01*
X750Y16640D01*
X1250Y16640D02*
X1500Y16390D01*
X1500Y15890D01*
X1250Y15640D01*
X1250Y14640D02*
X750Y14640D01*
X500Y14890D01*
X1250Y14640D02*
X1500Y14890D01*
X1500Y15390D01*
X1250Y16640D02*
X750Y16640D01*
D12*
X383Y14728D02*
X235Y14728D01*
X383Y14728D02*
X394Y14727D01*
X404Y14722D01*
X413Y14716D01*
X419Y14707D01*
X424Y14697D01*
X425Y14686D01*
X425Y14665D01*
X383Y14844D02*
X235Y14887D01*
X383Y14844D02*
X383Y14950D01*
X341Y14918D02*
X425Y14918D01*
D14*
X2975Y2795D02*
X2975Y1880D01*
X3625Y1880D01*
X3625Y2795D01*
D11*
X3530Y364D02*
X3070Y364D01*
X3070Y492D01*
X3072Y513D01*
X3077Y534D01*
X3085Y553D01*
X3097Y571D01*
X3111Y586D01*
X3128Y599D01*
X3147Y609D01*
X3167Y616D01*
X3187Y620D01*
X3209Y620D01*
X3229Y616D01*
X3249Y609D01*
X3268Y599D01*
X3285Y586D01*
X3299Y571D01*
X3311Y553D01*
X3319Y534D01*
X3324Y513D01*
X3326Y492D01*
X3326Y364D01*
X3070Y776D02*
X3530Y878D01*
X3223Y980D01*
X3530Y1082D01*
X3070Y1185D01*
X3070Y1380D02*
X3530Y1380D01*
X3070Y1380D02*
X3070Y1508D01*
X3072Y1529D01*
X3077Y1550D01*
X3085Y1569D01*
X3097Y1587D01*
X3111Y1602D01*
X3128Y1615D01*
X3147Y1625D01*
X3167Y1632D01*
X3187Y1636D01*
X3209Y1636D01*
X3229Y1632D01*
X3249Y1625D01*
X3268Y1615D01*
X3285Y1602D01*
X3299Y1587D01*
X3311Y1569D01*
X3319Y1550D01*
X3324Y1529D01*
X3326Y1508D01*
X3326Y1380D01*
X3326Y1534D02*
X3530Y1636D01*
D14*
X3820Y8375D02*
X2905Y8375D01*
X3820Y8375D02*
X3820Y9025D01*
X2905Y9025D01*
D11*
X2977Y8230D02*
X2977Y7770D01*
X2849Y8230D02*
X3105Y8230D01*
X3551Y8230D02*
X3244Y7770D01*
X3551Y7770D02*
X3244Y8230D01*
D14*
X4805Y8375D02*
X5720Y8375D01*
X5720Y9025D01*
X4805Y9025D01*
D11*
X4636Y8230D02*
X4636Y7770D01*
X4636Y8230D02*
X4764Y8230D01*
X4785Y8228D01*
X4806Y8223D01*
X4825Y8215D01*
X4843Y8203D01*
X4858Y8189D01*
X4871Y8172D01*
X4881Y8153D01*
X4888Y8133D01*
X4892Y8113D01*
X4892Y8091D01*
X4888Y8071D01*
X4881Y8051D01*
X4871Y8032D01*
X4858Y8015D01*
X4843Y8001D01*
X4825Y7989D01*
X4806Y7981D01*
X4785Y7976D01*
X4764Y7974D01*
X4636Y7974D01*
X4789Y7974D02*
X4891Y7770D01*
X5057Y7770D02*
X5364Y8230D01*
X5057Y8230D02*
X5364Y7770D01*
D14*
X18037Y9570D02*
X18037Y10112D01*
D10*
X17560Y10381D02*
X17560Y10601D01*
X17621Y10601D01*
X17636Y10599D01*
X17649Y10594D01*
X17661Y10586D01*
X17671Y10575D01*
X17678Y10562D01*
X17682Y10547D01*
X17682Y10533D01*
X17678Y10518D01*
X17671Y10505D01*
X17661Y10494D01*
X17649Y10486D01*
X17636Y10481D01*
X17621Y10479D01*
X17560Y10479D01*
X17634Y10479D02*
X17683Y10381D01*
X17775Y10552D02*
X17836Y10601D01*
X17836Y10381D01*
X17775Y10381D02*
X17897Y10381D01*
X17991Y10491D02*
X17992Y10511D01*
X17996Y10532D01*
X18001Y10551D01*
X18009Y10570D01*
X18009Y10571D02*
X18014Y10581D01*
X18022Y10589D01*
X18031Y10596D01*
X18041Y10600D01*
X18052Y10601D01*
X18063Y10600D01*
X18073Y10596D01*
X18082Y10589D01*
X18090Y10581D01*
X18095Y10571D01*
X18095Y10570D02*
X18103Y10551D01*
X18108Y10532D01*
X18112Y10511D01*
X18113Y10491D01*
X17991Y10491D02*
X17992Y10471D01*
X17996Y10450D01*
X18001Y10431D01*
X18009Y10412D01*
X18009Y10411D02*
X18014Y10401D01*
X18022Y10393D01*
X18031Y10386D01*
X18041Y10382D01*
X18052Y10381D01*
X18095Y10412D02*
X18103Y10431D01*
X18108Y10450D01*
X18112Y10471D01*
X18113Y10491D01*
X18095Y10411D02*
X18090Y10401D01*
X18082Y10393D01*
X18073Y10386D01*
X18063Y10382D01*
X18052Y10381D01*
X18003Y10430D02*
X18101Y10552D01*
D14*
X14450Y4371D02*
X14450Y3829D01*
D10*
X14224Y3990D02*
X14224Y4210D01*
X14285Y4210D01*
X14300Y4208D01*
X14313Y4203D01*
X14325Y4195D01*
X14335Y4184D01*
X14342Y4171D01*
X14346Y4156D01*
X14346Y4142D01*
X14342Y4127D01*
X14335Y4114D01*
X14325Y4103D01*
X14313Y4095D01*
X14300Y4090D01*
X14285Y4088D01*
X14224Y4088D01*
X14297Y4088D02*
X14346Y3990D01*
X14438Y4161D02*
X14499Y4210D01*
X14499Y3990D01*
X14438Y3990D02*
X14560Y3990D01*
X14654Y4161D02*
X14715Y4210D01*
X14715Y3990D01*
X14654Y3990D02*
X14776Y3990D01*
D14*
X15324Y11800D02*
X15876Y11800D01*
D10*
X16090Y11524D02*
X16310Y11524D01*
X16090Y11524D02*
X16090Y11585D01*
X16092Y11600D01*
X16097Y11613D01*
X16105Y11625D01*
X16116Y11635D01*
X16129Y11642D01*
X16144Y11646D01*
X16158Y11646D01*
X16173Y11642D01*
X16186Y11635D01*
X16197Y11625D01*
X16205Y11613D01*
X16210Y11600D01*
X16212Y11585D01*
X16212Y11524D01*
X16212Y11597D02*
X16310Y11646D01*
X16139Y11738D02*
X16090Y11799D01*
X16310Y11799D01*
X16310Y11738D02*
X16310Y11860D01*
X16145Y12076D02*
X16133Y12075D01*
X16121Y12071D01*
X16111Y12064D01*
X16102Y12055D01*
X16095Y12045D01*
X16091Y12033D01*
X16090Y12021D01*
X16092Y12006D01*
X16096Y11992D01*
X16104Y11979D01*
X16114Y11968D01*
X16126Y11959D01*
X16139Y11953D01*
X16188Y12058D02*
X16179Y12065D01*
X16168Y12071D01*
X16157Y12075D01*
X16145Y12076D01*
X16188Y12058D02*
X16310Y11954D01*
X16310Y12076D01*
D14*
X18050Y17379D02*
X18050Y17921D01*
D10*
X17774Y17160D02*
X17774Y16940D01*
X17774Y17160D02*
X17835Y17160D01*
X17850Y17158D01*
X17863Y17153D01*
X17875Y17145D01*
X17885Y17134D01*
X17892Y17121D01*
X17896Y17106D01*
X17896Y17092D01*
X17892Y17077D01*
X17885Y17064D01*
X17875Y17053D01*
X17863Y17045D01*
X17850Y17040D01*
X17835Y17038D01*
X17774Y17038D01*
X17847Y17038D02*
X17896Y16940D01*
X17988Y17111D02*
X18049Y17160D01*
X18049Y16940D01*
X17988Y16940D02*
X18110Y16940D01*
X18204Y16940D02*
X18278Y16940D01*
X18291Y16942D01*
X18302Y16947D01*
X18313Y16954D01*
X18320Y16964D01*
X18325Y16976D01*
X18327Y16989D01*
X18326Y16989D02*
X18326Y17013D01*
X18327Y17013D02*
X18325Y17026D01*
X18320Y17038D01*
X18313Y17048D01*
X18303Y17055D01*
X18291Y17060D01*
X18278Y17062D01*
X18204Y17062D01*
X18204Y17160D01*
X18326Y17160D01*
D14*
X17100Y12521D02*
X17100Y11979D01*
D10*
X16824Y12790D02*
X16824Y13010D01*
X16885Y13010D01*
X16900Y13008D01*
X16913Y13003D01*
X16925Y12995D01*
X16935Y12984D01*
X16942Y12971D01*
X16946Y12956D01*
X16946Y12942D01*
X16942Y12927D01*
X16935Y12914D01*
X16925Y12903D01*
X16913Y12895D01*
X16900Y12890D01*
X16885Y12888D01*
X16824Y12888D01*
X16897Y12888D02*
X16946Y12790D01*
X17038Y12961D02*
X17099Y13010D01*
X17099Y12790D01*
X17038Y12790D02*
X17160Y12790D01*
X17254Y12912D02*
X17328Y12912D01*
X17341Y12910D01*
X17353Y12905D01*
X17363Y12898D01*
X17370Y12888D01*
X17375Y12876D01*
X17377Y12863D01*
X17376Y12863D02*
X17376Y12851D01*
X17374Y12836D01*
X17369Y12823D01*
X17361Y12811D01*
X17350Y12801D01*
X17337Y12794D01*
X17322Y12790D01*
X17308Y12790D01*
X17293Y12794D01*
X17280Y12801D01*
X17269Y12811D01*
X17261Y12823D01*
X17256Y12836D01*
X17254Y12851D01*
X17254Y12912D01*
X17256Y12931D01*
X17261Y12950D01*
X17271Y12966D01*
X17283Y12981D01*
X17298Y12993D01*
X17314Y13003D01*
X17333Y13008D01*
X17352Y13010D01*
D14*
X2612Y15129D02*
X2612Y15671D01*
D10*
X3590Y15136D02*
X3810Y15136D01*
X3590Y15136D02*
X3590Y15197D01*
X3592Y15212D01*
X3597Y15225D01*
X3605Y15237D01*
X3616Y15247D01*
X3629Y15254D01*
X3644Y15258D01*
X3658Y15258D01*
X3673Y15254D01*
X3686Y15247D01*
X3697Y15237D01*
X3705Y15225D01*
X3710Y15212D01*
X3712Y15197D01*
X3712Y15136D01*
X3712Y15209D02*
X3810Y15258D01*
X3645Y15472D02*
X3633Y15471D01*
X3621Y15467D01*
X3611Y15460D01*
X3602Y15451D01*
X3595Y15441D01*
X3591Y15429D01*
X3590Y15417D01*
X3592Y15402D01*
X3596Y15388D01*
X3604Y15375D01*
X3614Y15364D01*
X3626Y15355D01*
X3639Y15349D01*
X3688Y15454D02*
X3679Y15461D01*
X3668Y15467D01*
X3657Y15471D01*
X3645Y15472D01*
X3688Y15454D02*
X3810Y15350D01*
X3810Y15472D01*
X3639Y15566D02*
X3590Y15627D01*
X3810Y15627D01*
X3810Y15566D02*
X3810Y15688D01*
D14*
X5200Y15576D02*
X5200Y15024D01*
D10*
X4924Y15790D02*
X4924Y16010D01*
X4985Y16010D01*
X5000Y16008D01*
X5013Y16003D01*
X5025Y15995D01*
X5035Y15984D01*
X5042Y15971D01*
X5046Y15956D01*
X5046Y15942D01*
X5042Y15927D01*
X5035Y15914D01*
X5025Y15903D01*
X5013Y15895D01*
X5000Y15890D01*
X4985Y15888D01*
X4924Y15888D01*
X4997Y15888D02*
X5046Y15790D01*
X5260Y15955D02*
X5259Y15967D01*
X5255Y15979D01*
X5248Y15989D01*
X5239Y15998D01*
X5229Y16005D01*
X5217Y16009D01*
X5205Y16010D01*
X5190Y16008D01*
X5176Y16004D01*
X5163Y15996D01*
X5152Y15986D01*
X5143Y15974D01*
X5137Y15961D01*
X5242Y15912D02*
X5249Y15921D01*
X5255Y15932D01*
X5259Y15943D01*
X5260Y15955D01*
X5242Y15912D02*
X5138Y15790D01*
X5260Y15790D01*
X5476Y15955D02*
X5475Y15967D01*
X5471Y15979D01*
X5464Y15989D01*
X5455Y15998D01*
X5445Y16005D01*
X5433Y16009D01*
X5421Y16010D01*
X5406Y16008D01*
X5392Y16004D01*
X5379Y15996D01*
X5368Y15986D01*
X5359Y15974D01*
X5353Y15961D01*
X5458Y15912D02*
X5465Y15921D01*
X5471Y15932D01*
X5475Y15943D01*
X5476Y15955D01*
X5458Y15912D02*
X5354Y15790D01*
X5476Y15790D01*
D14*
X2600Y16024D02*
X2600Y16576D01*
D10*
X3590Y16024D02*
X3810Y16024D01*
X3590Y16024D02*
X3590Y16085D01*
X3592Y16100D01*
X3597Y16113D01*
X3605Y16125D01*
X3616Y16135D01*
X3629Y16142D01*
X3644Y16146D01*
X3658Y16146D01*
X3673Y16142D01*
X3686Y16135D01*
X3697Y16125D01*
X3705Y16113D01*
X3710Y16100D01*
X3712Y16085D01*
X3712Y16024D01*
X3712Y16097D02*
X3810Y16146D01*
X3645Y16360D02*
X3633Y16359D01*
X3621Y16355D01*
X3611Y16348D01*
X3602Y16339D01*
X3595Y16329D01*
X3591Y16317D01*
X3590Y16305D01*
X3592Y16290D01*
X3596Y16276D01*
X3604Y16263D01*
X3614Y16252D01*
X3626Y16243D01*
X3639Y16237D01*
X3688Y16342D02*
X3679Y16349D01*
X3668Y16355D01*
X3657Y16359D01*
X3645Y16360D01*
X3688Y16342D02*
X3810Y16238D01*
X3810Y16360D01*
X3810Y16454D02*
X3810Y16515D01*
X3808Y16530D01*
X3803Y16543D01*
X3795Y16555D01*
X3784Y16565D01*
X3771Y16572D01*
X3756Y16576D01*
X3742Y16576D01*
X3727Y16572D01*
X3714Y16565D01*
X3703Y16555D01*
X3695Y16543D01*
X3690Y16530D01*
X3688Y16515D01*
X3590Y16528D02*
X3590Y16454D01*
X3590Y16528D02*
X3592Y16541D01*
X3597Y16553D01*
X3604Y16563D01*
X3615Y16570D01*
X3626Y16575D01*
X3639Y16577D01*
X3652Y16575D01*
X3664Y16570D01*
X3674Y16563D01*
X3681Y16553D01*
X3686Y16541D01*
X3688Y16528D01*
X3688Y16479D01*
D14*
X5250Y6721D02*
X5250Y6179D01*
D10*
X5082Y6990D02*
X5082Y7210D01*
X5143Y7210D01*
X5158Y7208D01*
X5171Y7203D01*
X5183Y7195D01*
X5193Y7184D01*
X5200Y7171D01*
X5204Y7156D01*
X5204Y7142D01*
X5200Y7127D01*
X5193Y7114D01*
X5183Y7103D01*
X5171Y7095D01*
X5158Y7090D01*
X5143Y7088D01*
X5082Y7088D01*
X5155Y7088D02*
X5204Y6990D01*
X5296Y6990D02*
X5357Y6990D01*
X5372Y6992D01*
X5385Y6997D01*
X5397Y7005D01*
X5407Y7016D01*
X5414Y7029D01*
X5418Y7044D01*
X5418Y7058D01*
X5414Y7073D01*
X5407Y7086D01*
X5397Y7097D01*
X5385Y7105D01*
X5372Y7110D01*
X5357Y7112D01*
X5370Y7210D02*
X5296Y7210D01*
X5370Y7210D02*
X5383Y7208D01*
X5395Y7203D01*
X5405Y7196D01*
X5412Y7186D01*
X5417Y7174D01*
X5419Y7161D01*
X5417Y7148D01*
X5412Y7137D01*
X5405Y7126D01*
X5395Y7119D01*
X5383Y7114D01*
X5370Y7112D01*
X5321Y7112D01*
D14*
X3100Y9324D02*
X3100Y9876D01*
D10*
X2932Y9990D02*
X2932Y10210D01*
X2993Y10210D01*
X3008Y10208D01*
X3021Y10203D01*
X3033Y10195D01*
X3043Y10184D01*
X3050Y10171D01*
X3054Y10156D01*
X3054Y10142D01*
X3050Y10127D01*
X3043Y10114D01*
X3033Y10103D01*
X3021Y10095D01*
X3008Y10090D01*
X2993Y10088D01*
X2932Y10088D01*
X3005Y10088D02*
X3054Y9990D01*
X3146Y10039D02*
X3195Y10210D01*
X3146Y10039D02*
X3268Y10039D01*
X3232Y10088D02*
X3232Y9990D01*
D14*
X5100Y9876D02*
X5100Y9324D01*
D10*
X4932Y10090D02*
X4932Y10310D01*
X4993Y10310D01*
X5008Y10308D01*
X5021Y10303D01*
X5033Y10295D01*
X5043Y10284D01*
X5050Y10271D01*
X5054Y10256D01*
X5054Y10242D01*
X5050Y10227D01*
X5043Y10214D01*
X5033Y10203D01*
X5021Y10195D01*
X5008Y10190D01*
X4993Y10188D01*
X4932Y10188D01*
X5005Y10188D02*
X5054Y10090D01*
X5146Y10090D02*
X5220Y10090D01*
X5233Y10092D01*
X5244Y10097D01*
X5255Y10104D01*
X5262Y10114D01*
X5267Y10126D01*
X5269Y10139D01*
X5268Y10139D02*
X5268Y10163D01*
X5269Y10163D02*
X5267Y10176D01*
X5262Y10188D01*
X5255Y10198D01*
X5245Y10205D01*
X5233Y10210D01*
X5220Y10212D01*
X5146Y10212D01*
X5146Y10310D01*
X5268Y10310D01*
D14*
X4776Y2000D02*
X4224Y2000D01*
D10*
X4390Y2182D02*
X4610Y2182D01*
X4390Y2182D02*
X4390Y2243D01*
X4392Y2258D01*
X4397Y2271D01*
X4405Y2283D01*
X4416Y2293D01*
X4429Y2300D01*
X4444Y2304D01*
X4458Y2304D01*
X4473Y2300D01*
X4486Y2293D01*
X4497Y2283D01*
X4505Y2271D01*
X4510Y2258D01*
X4512Y2243D01*
X4512Y2182D01*
X4512Y2255D02*
X4610Y2304D01*
X4488Y2396D02*
X4488Y2470D01*
X4490Y2483D01*
X4495Y2495D01*
X4502Y2505D01*
X4513Y2512D01*
X4524Y2517D01*
X4537Y2519D01*
X4537Y2518D02*
X4549Y2518D01*
X4564Y2516D01*
X4577Y2511D01*
X4589Y2503D01*
X4599Y2492D01*
X4606Y2479D01*
X4610Y2464D01*
X4610Y2450D01*
X4606Y2435D01*
X4599Y2422D01*
X4589Y2411D01*
X4577Y2403D01*
X4564Y2398D01*
X4549Y2396D01*
X4488Y2396D01*
X4469Y2398D01*
X4450Y2403D01*
X4434Y2413D01*
X4419Y2425D01*
X4407Y2440D01*
X4397Y2456D01*
X4392Y2475D01*
X4390Y2494D01*
D14*
X18374Y11250D02*
X18926Y11250D01*
D10*
X18160Y11182D02*
X17940Y11182D01*
X17940Y11243D01*
X17942Y11258D01*
X17947Y11271D01*
X17955Y11283D01*
X17966Y11293D01*
X17979Y11300D01*
X17994Y11304D01*
X18008Y11304D01*
X18023Y11300D01*
X18036Y11293D01*
X18047Y11283D01*
X18055Y11271D01*
X18060Y11258D01*
X18062Y11243D01*
X18062Y11182D01*
X18062Y11255D02*
X18160Y11304D01*
X17964Y11396D02*
X17940Y11396D01*
X17940Y11518D01*
X18160Y11457D01*
D14*
X705Y6146D02*
X705Y4413D01*
X1413Y6461D02*
X2358Y6461D01*
X3067Y6146D02*
X3067Y4413D01*
X2358Y4098D02*
X1413Y4098D01*
D15*
X1000Y3548D02*
X1008Y3546D01*
X1014Y3542D01*
X1018Y3536D01*
X1020Y3528D01*
X1018Y3520D01*
X1014Y3514D01*
X1008Y3510D01*
X1000Y3508D01*
X992Y3510D01*
X986Y3514D01*
X982Y3520D01*
X980Y3528D01*
X982Y3536D01*
X986Y3542D01*
X992Y3546D01*
X1000Y3548D01*
D11*
X2116Y5088D02*
X2114Y5106D01*
X2110Y5123D01*
X2102Y5139D01*
X2092Y5154D01*
X2080Y5166D01*
X2065Y5176D01*
X2049Y5184D01*
X2032Y5188D01*
X2014Y5190D01*
X2116Y5088D02*
X2114Y5060D01*
X2109Y5032D01*
X2099Y5005D01*
X2087Y4979D01*
X2071Y4956D01*
X2052Y4935D01*
X1758Y4947D02*
X1740Y4949D01*
X1723Y4953D01*
X1707Y4961D01*
X1692Y4971D01*
X1680Y4983D01*
X1670Y4998D01*
X1662Y5014D01*
X1658Y5031D01*
X1656Y5049D01*
X1655Y5049D02*
X1657Y5074D01*
X1661Y5098D01*
X1669Y5121D01*
X1680Y5144D01*
X1693Y5164D01*
X1758Y4947D02*
X1776Y4949D01*
X1793Y4953D01*
X1810Y4961D01*
X1824Y4971D01*
X1837Y4984D01*
X1848Y4998D01*
X1924Y5139D02*
X1935Y5153D01*
X1948Y5166D01*
X1962Y5176D01*
X1979Y5184D01*
X1996Y5188D01*
X2014Y5190D01*
X1924Y5139D02*
X1847Y4998D01*
X1758Y5369D02*
X1656Y5497D01*
X2116Y5497D01*
X2116Y5369D02*
X2116Y5625D01*
D17*
X7563Y5375D02*
X7563Y19076D01*
X9437Y19076D02*
X9437Y5375D01*
X9437Y19076D02*
X7563Y19076D01*
X7563Y5375D02*
X9437Y5375D01*
D18*
X10626Y5493D03*
D12*
X8653Y5725D02*
X8328Y5725D01*
X8653Y5725D02*
X8674Y5727D01*
X8694Y5732D01*
X8712Y5740D01*
X8730Y5751D01*
X8745Y5765D01*
X8758Y5782D01*
X8767Y5800D01*
X8774Y5819D01*
X8778Y5840D01*
X8778Y5860D01*
X8774Y5881D01*
X8767Y5900D01*
X8758Y5918D01*
X8745Y5935D01*
X8730Y5949D01*
X8712Y5960D01*
X8694Y5968D01*
X8674Y5973D01*
X8653Y5975D01*
X8328Y5975D01*
X8428Y6190D02*
X8328Y6315D01*
X8778Y6315D01*
X8778Y6190D02*
X8778Y6440D01*
X2795Y20669D02*
X2795Y21669D01*
X2795Y20669D02*
X2795Y19669D01*
X3170Y19669D01*
X3420Y19669D01*
X3795Y19669D01*
X22795Y19669D01*
X22795Y21669D01*
X2795Y21669D01*
X2795Y20669D02*
X3795Y20669D01*
X3795Y19669D01*
X3170Y19669D02*
X3170Y19544D01*
X3420Y19544D01*
X3420Y19669D01*
D11*
X3290Y19424D02*
X3190Y19344D01*
X3290Y19424D02*
X3290Y19064D01*
X3190Y19064D02*
X3390Y19064D01*
D12*
X12195Y14369D02*
X12195Y14031D01*
X11605Y14031D02*
X11605Y14369D01*
D10*
X12461Y14077D02*
X12565Y14150D01*
X12461Y14224D01*
X12565Y14150D02*
X12681Y14150D01*
X12510Y14305D02*
X12461Y14366D01*
X12681Y14366D01*
X12681Y14305D02*
X12681Y14427D01*
D16*
X7850Y2500D02*
X8100Y2250D01*
X7350Y2500D02*
X7100Y2250D01*
X6850Y2500D01*
X6350Y2500D02*
X6100Y2250D01*
X5850Y2500D01*
X5350Y2500D02*
X5100Y2250D01*
X8100Y2250D02*
X8100Y750D01*
X7850Y500D01*
X7350Y500D01*
X7100Y750D01*
X6850Y500D01*
X6350Y500D01*
X6100Y750D01*
X5850Y500D01*
X5350Y500D01*
X5100Y750D01*
X7100Y750D02*
X7100Y2250D01*
X6100Y2250D02*
X6100Y750D01*
X5100Y750D02*
X5100Y2250D01*
X5350Y2500D02*
X5850Y2500D01*
X6350Y2500D02*
X6850Y2500D01*
X7350Y2500D02*
X7850Y2500D01*
X7850Y2632D02*
X7350Y2632D01*
D14*
X11091Y2648D02*
X11091Y1152D01*
X12509Y1152D02*
X12509Y2648D01*
D19*
X11394Y867D02*
X11393Y865D01*
X11391Y863D01*
X11389Y863D01*
X11387Y865D01*
X11386Y867D01*
X11387Y869D01*
X11389Y871D01*
X11391Y871D01*
X11393Y869D01*
X11394Y867D01*
D11*
X11355Y1704D02*
X11202Y2164D01*
X11509Y2164D02*
X11355Y1704D01*
X11695Y1704D02*
X11695Y2164D01*
X11823Y2164D01*
X11844Y2162D01*
X11865Y2157D01*
X11884Y2149D01*
X11902Y2137D01*
X11917Y2123D01*
X11930Y2106D01*
X11940Y2087D01*
X11947Y2067D01*
X11951Y2047D01*
X11951Y2025D01*
X11947Y2005D01*
X11940Y1985D01*
X11930Y1966D01*
X11917Y1949D01*
X11902Y1935D01*
X11884Y1923D01*
X11865Y1915D01*
X11844Y1910D01*
X11823Y1908D01*
X11695Y1908D01*
X11849Y1908D02*
X11951Y1704D01*
X12143Y1704D02*
X12270Y1704D01*
X12291Y1706D01*
X12312Y1711D01*
X12331Y1719D01*
X12349Y1731D01*
X12364Y1745D01*
X12377Y1762D01*
X12387Y1781D01*
X12394Y1801D01*
X12398Y1821D01*
X12398Y1843D01*
X12394Y1863D01*
X12387Y1883D01*
X12377Y1902D01*
X12364Y1919D01*
X12349Y1933D01*
X12331Y1945D01*
X12312Y1953D01*
X12291Y1958D01*
X12270Y1960D01*
X12296Y2164D02*
X12143Y2164D01*
X12296Y2164D02*
X12315Y2162D01*
X12333Y2157D01*
X12350Y2149D01*
X12365Y2137D01*
X12377Y2123D01*
X12387Y2107D01*
X12394Y2090D01*
X12398Y2071D01*
X12398Y2053D01*
X12394Y2034D01*
X12387Y2017D01*
X12377Y2001D01*
X12365Y1987D01*
X12350Y1975D01*
X12333Y1967D01*
X12315Y1962D01*
X12296Y1960D01*
X12296Y1959D02*
X12194Y1959D01*
D14*
X13591Y2648D02*
X13591Y1152D01*
X15009Y1152D02*
X15009Y2648D01*
D19*
X13894Y867D02*
X13893Y865D01*
X13891Y863D01*
X13889Y863D01*
X13887Y865D01*
X13886Y867D01*
X13887Y869D01*
X13889Y871D01*
X13891Y871D01*
X13893Y869D01*
X13894Y867D01*
D11*
X13855Y1604D02*
X13702Y2064D01*
X14009Y2064D02*
X13855Y1604D01*
X14195Y1604D02*
X14195Y2064D01*
X14323Y2064D01*
X14344Y2062D01*
X14365Y2057D01*
X14384Y2049D01*
X14402Y2037D01*
X14417Y2023D01*
X14430Y2006D01*
X14440Y1987D01*
X14447Y1967D01*
X14451Y1947D01*
X14451Y1925D01*
X14447Y1905D01*
X14440Y1885D01*
X14430Y1866D01*
X14417Y1849D01*
X14402Y1835D01*
X14384Y1823D01*
X14365Y1815D01*
X14344Y1810D01*
X14323Y1808D01*
X14195Y1808D01*
X14349Y1808D02*
X14451Y1604D01*
X14643Y1706D02*
X14745Y2064D01*
X14643Y1706D02*
X14898Y1706D01*
X14821Y1808D02*
X14821Y1604D01*
D16*
X8550Y2500D02*
X8300Y2750D01*
X8300Y3250D01*
X8550Y3500D01*
X9050Y3500D02*
X9300Y3250D01*
X9300Y2750D01*
X9050Y2500D01*
X8300Y1250D02*
X8300Y750D01*
X8300Y1250D02*
X8550Y1500D01*
X9050Y1500D02*
X9300Y1250D01*
X8550Y1500D02*
X8300Y1750D01*
X8300Y2250D01*
X8550Y2500D01*
X9050Y2500D02*
X9300Y2250D01*
X9300Y1750D01*
X9050Y1500D01*
X9050Y500D02*
X8550Y500D01*
X8300Y750D01*
X9050Y500D02*
X9300Y750D01*
X9300Y1250D01*
X9050Y3500D02*
X8550Y3500D01*
D15*
X13377Y13149D02*
X13369Y13151D01*
X13363Y13155D01*
X13359Y13161D01*
X13357Y13169D01*
X13359Y13177D01*
X13363Y13183D01*
X13369Y13187D01*
X13377Y13189D01*
X13385Y13187D01*
X13391Y13183D01*
X13395Y13177D01*
X13397Y13169D01*
X13395Y13161D01*
X13391Y13155D01*
X13385Y13151D01*
X13377Y13149D01*
D14*
X13352Y13621D02*
X13352Y13779D01*
X14848Y13779D02*
X14848Y13621D01*
D10*
X13816Y12760D02*
X13816Y12540D01*
X13816Y12760D02*
X13878Y12760D01*
X13893Y12758D01*
X13906Y12753D01*
X13918Y12745D01*
X13928Y12734D01*
X13935Y12721D01*
X13939Y12706D01*
X13939Y12692D01*
X13935Y12677D01*
X13928Y12664D01*
X13918Y12653D01*
X13906Y12645D01*
X13893Y12640D01*
X13878Y12638D01*
X13816Y12638D01*
X13890Y12638D02*
X13939Y12540D01*
X14038Y12540D02*
X14038Y12760D01*
X14160Y12540D01*
X14160Y12760D01*
X14261Y12711D02*
X14322Y12760D01*
X14322Y12540D01*
X14261Y12540D02*
X14384Y12540D01*
D13*
X10012Y4200D02*
X10014Y4223D01*
X10020Y4246D01*
X10030Y4267D01*
X10043Y4287D01*
X10059Y4304D01*
X10078Y4318D01*
X10099Y4328D01*
X10121Y4335D01*
X10144Y4338D01*
X10168Y4337D01*
X10190Y4332D01*
X10212Y4323D01*
X10232Y4311D01*
X10250Y4295D01*
X10264Y4277D01*
X10276Y4257D01*
X10284Y4235D01*
X10288Y4212D01*
X10288Y4188D01*
X10284Y4165D01*
X10276Y4143D01*
X10264Y4123D01*
X10250Y4105D01*
X10232Y4089D01*
X10212Y4077D01*
X10190Y4068D01*
X10168Y4063D01*
X10144Y4062D01*
X10121Y4065D01*
X10099Y4072D01*
X10078Y4082D01*
X10059Y4096D01*
X10043Y4113D01*
X10030Y4133D01*
X10020Y4154D01*
X10014Y4177D01*
X10012Y4200D01*
D14*
X10150Y3531D02*
X10150Y4869D01*
D20*
X9550Y4948D02*
X9552Y4961D01*
X9557Y4973D01*
X9566Y4984D01*
X9576Y4992D01*
X9589Y4996D01*
X9602Y4997D01*
X9615Y4994D01*
X9627Y4988D01*
X9637Y4979D01*
X9644Y4968D01*
X9648Y4955D01*
X9648Y4941D01*
X9644Y4928D01*
X9637Y4917D01*
X9627Y4908D01*
X9615Y4902D01*
X9602Y4899D01*
X9589Y4900D01*
X9576Y4904D01*
X9566Y4912D01*
X9557Y4923D01*
X9552Y4935D01*
X9550Y4948D01*
D10*
X9866Y4990D02*
X9866Y5210D01*
X9928Y5210D01*
X9943Y5208D01*
X9956Y5203D01*
X9968Y5195D01*
X9978Y5184D01*
X9985Y5171D01*
X9989Y5156D01*
X9989Y5142D01*
X9985Y5127D01*
X9978Y5114D01*
X9968Y5103D01*
X9956Y5095D01*
X9943Y5090D01*
X9928Y5088D01*
X9866Y5088D01*
X9940Y5088D02*
X9989Y4990D01*
X10088Y4990D02*
X10088Y5210D01*
X10210Y4990D01*
X10210Y5210D01*
X10379Y5210D02*
X10391Y5209D01*
X10403Y5205D01*
X10413Y5198D01*
X10422Y5189D01*
X10429Y5179D01*
X10433Y5167D01*
X10434Y5155D01*
X10379Y5210D02*
X10364Y5208D01*
X10350Y5204D01*
X10337Y5196D01*
X10326Y5186D01*
X10317Y5174D01*
X10311Y5161D01*
X10416Y5112D02*
X10423Y5121D01*
X10429Y5132D01*
X10433Y5143D01*
X10434Y5155D01*
X10415Y5112D02*
X10311Y4990D01*
X10434Y4990D01*
M02*
