G04 EAGLE Gerber RS-274X export*
G75*
%MOIN*%
%FSLAX34Y34*%
%LPD*%
%INSoldermask Top*%
%IPPOS*%
%AMOC8*
5,1,8,0,0,1.08239X$1,22.5*%
G01*
%ADD10C,0.016281*%
%ADD11R,0.033740X0.042008*%
%ADD12R,0.029409X0.030591*%
%ADD13R,0.045157X0.062874*%
%ADD14R,0.052244X0.052244*%
%ADD15C,0.052244*%
%ADD16R,0.030591X0.029409*%
%ADD17R,0.042008X0.033740*%
%ADD18R,0.029409X0.027047*%
%ADD19R,0.048307X0.048307*%
%ADD20C,0.048307*%
%ADD21R,0.022717X0.063071*%
%ADD22R,0.063071X0.022717*%
%ADD23R,0.127047X0.208937*%
%ADD24R,0.065039X0.032559*%
%ADD25C,0.191732*%
%ADD26C,0.081772*%
%ADD27C,0.079000*%
%ADD28R,0.042402X0.042402*%
%ADD29R,0.048307X0.073898*%
%ADD30R,0.075866X0.046339*%
%ADD31R,0.046339X0.073898*%
%ADD32R,0.046339X0.075866*%
%ADD33R,0.064055X0.064055*%
%ADD34C,0.064055*%
%ADD35R,0.055197X0.055197*%
%ADD36C,0.055197*%
%ADD37C,0.113268*%
%ADD38R,0.075000X0.075000*%
%ADD39C,0.075000*%
%ADD40C,0.251969*%
%ADD41R,0.075866X0.044370*%
%ADD42R,0.067992X0.064055*%
%ADD43R,0.021732X0.024685*%
%ADD44R,0.014843X0.024685*%
%ADD45R,0.040433X0.020748*%
%ADD46C,0.025000*%
%ADD47C,0.027000*%
%ADD48C,0.035000*%


D10*
X2738Y10681D02*
X2862Y10681D01*
X2862Y10581D01*
X2738Y10581D01*
X2738Y10681D01*
X2738Y11019D02*
X2862Y11019D01*
X2862Y10919D01*
X2738Y10919D01*
X2738Y11019D01*
D11*
X20280Y16100D03*
X19720Y16100D03*
D12*
X16200Y9273D03*
X16200Y8927D03*
D13*
X20619Y13150D03*
X19981Y13150D03*
D11*
X20020Y13750D03*
X20580Y13750D03*
X20580Y8000D03*
X20020Y8000D03*
D14*
X12550Y7457D03*
D15*
X14519Y7457D03*
D11*
X20580Y14400D03*
X20020Y14400D03*
D16*
X16527Y17400D03*
X16873Y17400D03*
D17*
X3600Y18220D03*
X3600Y18780D03*
D10*
X5138Y10919D02*
X5262Y10919D01*
X5138Y10919D02*
X5138Y11019D01*
X5262Y11019D01*
X5262Y10919D01*
X5262Y10581D02*
X5138Y10581D01*
X5138Y10681D01*
X5262Y10681D01*
X5262Y10581D01*
D18*
X10900Y14311D03*
X10900Y14689D03*
X10900Y13311D03*
X10900Y13689D03*
D19*
X11800Y11100D03*
D20*
X11800Y11887D03*
D10*
X6262Y12881D02*
X6138Y12881D01*
X6262Y12881D02*
X6262Y12781D01*
X6138Y12781D01*
X6138Y12881D01*
X6138Y13219D02*
X6262Y13219D01*
X6262Y13119D01*
X6138Y13119D01*
X6138Y13219D01*
D13*
X20869Y5400D03*
X20231Y5400D03*
D11*
X20370Y6150D03*
X20930Y6150D03*
X20680Y7300D03*
X20120Y7300D03*
D21*
X4532Y16459D03*
X4788Y16459D03*
X5044Y16459D03*
X5300Y16459D03*
X5556Y16459D03*
X5812Y16459D03*
X6068Y16459D03*
X6068Y18772D03*
X5812Y18772D03*
X5556Y18772D03*
X5300Y18772D03*
X5044Y18772D03*
X4788Y18772D03*
X4532Y18772D03*
D22*
X2859Y14052D03*
X2859Y13796D03*
X2859Y13540D03*
X2859Y13284D03*
X2859Y13028D03*
X2859Y12772D03*
X2859Y12516D03*
X2859Y12260D03*
X2859Y12004D03*
X2859Y11748D03*
X5172Y11748D03*
X5172Y12004D03*
X5172Y12260D03*
X5172Y12516D03*
X5172Y12772D03*
X5172Y13028D03*
X5172Y13284D03*
X5172Y13540D03*
X5172Y13796D03*
X5172Y14052D03*
X12843Y18952D03*
X12843Y18696D03*
X12843Y18440D03*
X12843Y18184D03*
X12843Y17928D03*
X12843Y17672D03*
X12843Y17416D03*
X12843Y17160D03*
X12843Y16904D03*
X12843Y16648D03*
X15157Y16648D03*
X15157Y16904D03*
X15157Y17160D03*
X15157Y17416D03*
X15157Y17672D03*
X15157Y17928D03*
X15157Y18184D03*
X15157Y18440D03*
X15157Y18696D03*
X15157Y18952D03*
X19232Y5489D03*
X19232Y5744D03*
X19232Y6000D03*
X19232Y6256D03*
X19232Y6512D03*
X19232Y6768D03*
X19232Y7024D03*
X19232Y7280D03*
X19232Y7536D03*
X19232Y7792D03*
X19232Y8048D03*
X19232Y8304D03*
X19232Y8559D03*
X19232Y8815D03*
X16919Y8815D03*
X16919Y8559D03*
X16919Y8304D03*
X16919Y8048D03*
X16919Y7792D03*
X16919Y7536D03*
X16919Y7280D03*
X16919Y7024D03*
X16919Y6768D03*
X16919Y6512D03*
X16919Y6256D03*
X16919Y6000D03*
X16919Y5744D03*
X16919Y5489D03*
D23*
X18076Y7152D03*
D22*
X19044Y13437D03*
X19044Y13693D03*
X19044Y13948D03*
X19044Y14204D03*
X19044Y14460D03*
X19044Y14716D03*
X19044Y14972D03*
X19044Y15228D03*
X19044Y15484D03*
X19044Y15740D03*
X19044Y15996D03*
X19044Y16252D03*
X19044Y16507D03*
X19044Y16763D03*
X16731Y16763D03*
X16731Y16507D03*
X16731Y16252D03*
X16731Y15996D03*
X16731Y15740D03*
X16731Y15484D03*
X16731Y15228D03*
X16731Y14972D03*
X16731Y14716D03*
X16731Y14460D03*
X16731Y14204D03*
X16731Y13948D03*
X16731Y13693D03*
X16731Y13437D03*
D23*
X17888Y15100D03*
D24*
X700Y18750D03*
X700Y18250D03*
X700Y17750D03*
X700Y17250D03*
X2836Y17250D03*
X2836Y17750D03*
X2836Y18250D03*
X2836Y18750D03*
D25*
X17794Y3446D03*
X17794Y1084D03*
X19644Y2265D03*
D26*
X23550Y4095D03*
X23550Y6063D03*
X23550Y8032D03*
X23550Y10000D03*
X23550Y11969D03*
X23550Y13937D03*
X23550Y15906D03*
X23550Y17874D03*
D27*
X1000Y15140D03*
X1000Y16140D03*
D28*
X3300Y2205D03*
X3300Y2795D03*
X3495Y8700D03*
X2905Y8700D03*
X5395Y8700D03*
X4805Y8700D03*
D29*
X17466Y9841D03*
X18608Y9841D03*
X13879Y4100D03*
X15021Y4100D03*
D30*
X15600Y12410D03*
X15600Y11190D03*
D29*
X17479Y17650D03*
X18621Y17650D03*
X16529Y12250D03*
X17671Y12250D03*
D31*
X2041Y15400D03*
X3183Y15400D03*
D32*
X4609Y15300D03*
X5791Y15300D03*
X3191Y16300D03*
X2009Y16300D03*
D31*
X4679Y6450D03*
X5821Y6450D03*
D32*
X2509Y9600D03*
X3691Y9600D03*
X4509Y9600D03*
X5691Y9600D03*
D30*
X4500Y1409D03*
X4500Y2591D03*
X18650Y10640D03*
X18650Y11860D03*
D33*
X1000Y4000D03*
D34*
X1000Y6559D03*
X2772Y4000D03*
X2772Y6559D03*
D35*
X10059Y5726D03*
D36*
X10059Y6726D03*
X10059Y11726D03*
X10059Y12726D03*
X10059Y7726D03*
X10059Y8726D03*
X10059Y10726D03*
X10059Y9726D03*
X10059Y13726D03*
X10059Y14726D03*
X10059Y15726D03*
X10059Y16726D03*
X10059Y17726D03*
X10059Y18726D03*
X6941Y18726D03*
X6941Y17726D03*
X6941Y16726D03*
X6941Y15726D03*
X6941Y14726D03*
X6941Y13726D03*
X6941Y12726D03*
X6941Y11726D03*
X6941Y10726D03*
X6941Y9726D03*
X6941Y8726D03*
X6941Y7726D03*
X6941Y6726D03*
X6941Y5726D03*
D37*
X1378Y1378D03*
X1378Y20669D03*
X24213Y1378D03*
X24213Y20669D03*
D38*
X3295Y20169D03*
D39*
X3295Y21169D03*
X4295Y20169D03*
X4295Y21169D03*
X5295Y20169D03*
X5295Y21169D03*
X6295Y20169D03*
X6295Y21169D03*
X7295Y20169D03*
X7295Y21169D03*
X8295Y20169D03*
X8295Y21169D03*
X9295Y20169D03*
X9295Y21169D03*
X10295Y20169D03*
X10295Y21169D03*
X11295Y20169D03*
X11295Y21169D03*
X12295Y20169D03*
X12295Y21169D03*
X13295Y20169D03*
X13295Y21169D03*
X14295Y20169D03*
X14295Y21169D03*
X15295Y20169D03*
X15295Y21169D03*
X16295Y20169D03*
X16295Y21169D03*
X17295Y20169D03*
X17295Y21169D03*
X18295Y20169D03*
X18295Y21169D03*
X19295Y20169D03*
X19295Y21169D03*
X20295Y20169D03*
X20295Y21169D03*
X21295Y20169D03*
X21295Y21169D03*
X22295Y20169D03*
X22295Y21169D03*
D40*
X1378Y20669D03*
X24213Y20669D03*
X1378Y1378D03*
X24213Y1378D03*
D41*
X11900Y14692D03*
X11900Y13708D03*
D27*
X7600Y2000D03*
X7600Y1000D03*
X6600Y2000D03*
X6600Y1000D03*
X5600Y2000D03*
X5600Y1000D03*
D14*
X11406Y1231D03*
D42*
X11800Y2510D03*
D14*
X12194Y1231D03*
X13906Y1231D03*
D42*
X14300Y2510D03*
D14*
X14694Y1231D03*
D27*
X8800Y1000D03*
X8800Y2000D03*
X8800Y3000D03*
D43*
X13377Y13405D03*
D44*
X13608Y13405D03*
X13805Y13405D03*
X14002Y13405D03*
X14198Y13405D03*
X14395Y13405D03*
X14592Y13405D03*
D43*
X14823Y13405D03*
X14823Y13995D03*
D44*
X14592Y13995D03*
X14395Y13995D03*
X14198Y13995D03*
X14002Y13995D03*
X13805Y13995D03*
X13608Y13995D03*
D43*
X13377Y13995D03*
D45*
X9835Y4672D03*
X10465Y4672D03*
X9835Y4357D03*
X10465Y4357D03*
X9835Y4043D03*
X10465Y4043D03*
X9835Y3728D03*
X10465Y3728D03*
D46*
X4920Y10620D03*
X5820Y6960D03*
X4860Y1800D03*
X4620Y19260D03*
X14280Y13140D03*
X15660Y18600D03*
X10860Y4680D03*
X13320Y18720D03*
X13800Y18540D03*
X3360Y11760D03*
X5400Y14940D03*
X13260Y16260D03*
X4080Y16200D03*
X4740Y16920D03*
X5040Y16920D03*
X5520Y17100D03*
X5760Y16920D03*
X3360Y13260D03*
X2580Y20400D03*
X2400Y13020D03*
X2880Y21720D03*
X3600Y21600D03*
X12660Y21540D03*
X13380Y19320D03*
X5700Y20700D03*
X11940Y20760D03*
X6660Y14100D03*
X15420Y16260D03*
X6120Y14340D03*
X15120Y16260D03*
X13620Y18960D03*
X11880Y18180D03*
X13800Y21600D03*
X15900Y21720D03*
X12360Y16920D03*
X3300Y17760D03*
X3600Y15420D03*
X12120Y17400D03*
X13860Y19560D03*
X13320Y17940D03*
X15900Y18960D03*
X16440Y8580D03*
X17220Y16500D03*
X17400Y8640D03*
X3660Y8340D03*
X3980Y17400D03*
X4680Y18300D03*
X4920Y17280D03*
X6000Y17340D03*
X9360Y16620D03*
X7560Y8760D03*
X15960Y15240D03*
X14280Y14820D03*
X8820Y10620D03*
X7260Y9060D03*
X14680Y14340D03*
X16260Y15360D03*
X15240Y12000D03*
X14400Y11160D03*
X7740Y9240D03*
X5640Y13020D03*
X5640Y13320D03*
X6600Y16020D03*
X4680Y13560D03*
X4140Y16680D03*
X18120Y10740D03*
X5978Y18160D03*
D47*
X6160Y9620D03*
D46*
X6120Y14040D03*
X4140Y10020D03*
X13740Y17160D03*
X16440Y7380D03*
X14940Y6480D03*
D48*
X20000Y8400D03*
X17200Y11200D03*
X20000Y6230D03*
D47*
X19600Y14118D03*
D46*
X3360Y12660D03*
X4080Y19080D03*
D47*
X19950Y6550D03*
X19750Y6815D03*
X19700Y7300D03*
X19750Y7650D03*
X21000Y8950D03*
D46*
X16440Y6000D03*
X10200Y4920D03*
X16260Y13980D03*
X15120Y8400D03*
X15240Y8100D03*
X15180Y13320D03*
X10260Y5220D03*
X10680Y5580D03*
X14940Y7800D03*
X14580Y13140D03*
X16260Y14460D03*
X15240Y7800D03*
X16440Y7800D03*
X15360Y1560D03*
X15120Y1080D03*
X16260Y15660D03*
X16560Y9780D03*
X17160Y9180D03*
D47*
X17950Y13280D03*
X18584Y13566D03*
X19600Y14600D03*
X19650Y14950D03*
X19600Y15300D03*
X22250Y15300D03*
X19600Y15600D03*
D46*
X18840Y9060D03*
X18360Y8580D03*
D47*
X6100Y8700D03*
X6100Y7900D03*
X19650Y9250D03*
X20550Y9300D03*
X3270Y18506D03*
X3750Y19350D03*
X3306Y19350D03*
X15750Y9600D03*
X14650Y8750D03*
X5650Y11746D03*
X6250Y12100D03*
X6150Y9300D03*
X21050Y7300D03*
X21650Y7300D03*
X14100Y13700D03*
X14010Y13136D03*
X4000Y18250D03*
X4250Y17400D03*
X6100Y17900D03*
X6400Y17350D03*
X7700Y17350D03*
D46*
X12240Y1680D03*
X15900Y8880D03*
X11400Y1920D03*
X21120Y7800D03*
X13140Y13800D03*
X15420Y15780D03*
X13740Y14580D03*
X13140Y12120D03*
X14400Y12240D03*
X13140Y11520D03*
X13800Y14280D03*
X13800Y13680D03*
X16920Y17040D03*
X14700Y1680D03*
X15600Y3000D03*
X19500Y16440D03*
M02*
