M48
;GenerationSoftware,Autodesk,EAGLE,9.7.0*%
;CreationDate,2023-09-19T22:01:55Z*%
FMAT,2
ICI,OFF
METRIC,TZ,000.000
T11C0.254
T10C0.305
T9C0.508
T8C0.700
T7C0.800
T6C0.850
T5C1.000
T4C1.016
T3C1.300
T2C2.750
T1C3.162
%
G90
M71
T1
X49896Y5752
X45196Y8753
X45196Y2752
T2
X3500Y3500
X61500Y3500
X61500Y52500
X3500Y52500
T3
X59817Y15401
X59817Y30401
X59817Y35401
X59817Y40401
X59817Y45401
X59817Y25401
X59817Y20401
X59817Y10401
T4
X19304Y5080
X2540Y40996
X22352Y7620
X2540Y38456
X19304Y2540
X16764Y5080
X16764Y2540
X14224Y5080
X14224Y2540
X22352Y2540
X22352Y5080
T5
X38850Y53770
X38850Y51230
X36310Y53770
X36310Y51230
X33770Y53770
X33770Y51230
X31230Y53770
X31230Y51230
X28690Y51230
X26150Y53770
X26150Y51230
X23610Y53770
X23610Y51230
X21070Y53770
X21070Y51230
X18530Y53770
X28690Y53770
X18530Y51230
X15990Y53770
X15990Y51230
X13450Y53770
X13450Y51230
X10910Y53770
X10910Y51230
X8370Y53770
X8370Y51230
X41390Y53770
X7040Y16660
X7040Y10160
X2540Y16660
X2540Y10160
X56630Y53770
X56630Y51230
X54090Y53770
X54090Y51230
X51550Y53770
X51550Y51230
X49010Y53770
X49010Y51230
X46470Y53770
X46470Y51230
X43930Y53770
X43930Y51230
X41390Y51230
T6
X17630Y45023
X17630Y39943
X25550Y47563
X25550Y32323
X25550Y29783
X25550Y17083
X25550Y14543
X25550Y45023
X17630Y37403
X17630Y47563
X17630Y34863
X17630Y32323
X17630Y29783
X17630Y27243
X17630Y24703
X17630Y22163
X17630Y19623
X17630Y17083
X17630Y14543
X25550Y42483
X25550Y39943
X17630Y42483
X25550Y37403
X25550Y34863
X25550Y24703
X25550Y27243
X25550Y22163
X25550Y19623
T7
X36877Y18942
X31877Y18942
T8
X29972Y28194
X29972Y30194
T9
X50800Y21336
X43688Y28448
X50800Y15824
T10
X47202Y34459
X49784Y37084
X49911Y37973
X49784Y38862
X56515Y38862
X49784Y39624
X15494Y22098
X15494Y20066
X49911Y23495
X52197Y23622
X8305Y47004
X9525Y49149
X8397Y49149
X40005Y24384
X37211Y22225
X14351Y29834
X15875Y30734
X15621Y23622
X53467Y18542
X54991Y18542
X35814Y34798
X35585Y33366
X10160Y46355
X10795Y44196
X15494Y45466
X16256Y44069
X19558Y44069
X15646Y24435
X49784Y35861
X50673Y16637
X50165Y17310
X50038Y18542
X50165Y19431
X53340Y22733
X45593Y33731
T11
X36576Y31090
X33376Y29261
X35052Y36271
X35052Y34747
X42977Y43282
X37338Y4267
X39624Y7620
X49530Y41758
X46634Y21793
X47854Y23012
X43586Y23317
X42062Y24841
X41300Y39776
X38405Y2743
X39014Y3962
X41758Y19812
X41300Y36728
X38710Y19812
X37033Y33376
X37948Y19812
X27127Y14173
X26060Y13259
X38557Y33833
X38710Y20574
X38405Y21336
X41300Y35509
X25908Y12497
X41758Y15240
X10363Y48463
X8534Y32156
X37948Y16459
X41758Y18745
X34900Y43586
X10516Y25451
X15545Y35662
X15185Y46126
X46025Y27280
X10516Y42367
X11887Y34442
X16764Y40691
X14326Y33833
X14326Y33071
X19660Y23470
X36576Y28346
X38710Y30480
X41300Y39014
X37287Y36424
X18440Y23012
X22403Y26975
X36271Y37643
X40538Y38710
X19202Y22250
X23774Y42215
X15240Y44044
X12497Y43891
X11887Y46482
X10109Y44196
X9296Y21184
X44196Y21946
X43739Y41910
X41758Y21793
X40386Y48158
X33833Y45568
X35204Y49682
X30785Y44196
X9144Y39167
X8382Y45110
X31394Y42977
X40386Y55169
X35052Y54864
X34595Y48158
X38405Y41300
X15545Y36424
X39167Y41300
X16916Y35814
X30328Y52730
X14478Y52578
X33985Y49073
X30175Y46177
X32156Y54712
X9144Y54864
X7315Y55169
X6096Y33071
X6553Y51816
X8534Y33680
X14630Y42977
X14021Y43434
X12802Y42977
X12040Y42977
X10363Y41148
X33680Y41300
X13716Y37948
X8534Y29870
X35052Y47092
X33833Y47549
X27584Y11887
X39776Y47244
X36271Y33376
X11735Y48920
X12344Y4572
X14783Y17678
X12497Y26975
X31090Y4267
X40386Y22555
X28956Y4877
X53645Y19812
X33376Y35052
X39167Y40081
X34900Y37033
X33376Y30785
M30