M48
;GenerationSoftware,Autodesk,EAGLE,9.6.2*%
;CreationDate,2023-09-19T18:27:02Z*%
FMAT,2
ICI,OFF
INCH,TZ,000.000
T12C0.010
T11C0.012
T10C0.020
T9C0.028
T8C0.031
T7C0.033
T6C0.039
T5C0.040
T4C0.051
T3C0.108
T2C0.124
%
G90
M72
T2
X1779Y345
X1779Y108
X1964Y226
T3
X138Y138
X138Y2067
X2421Y138
X2421Y2067
T4
X2355Y409
X2355Y606
X2355Y803
X2355Y1000
X2355Y1197
X2355Y1394
X2355Y1591
X2355Y1787
T5
X880Y300
X100Y1614
X880Y200
X880Y100
X560Y100
X560Y200
X660Y100
X660Y200
X760Y200
X760Y100
X100Y1514
T6
X730Y2017
X630Y2117
X630Y2017
X530Y2117
X530Y2017
X430Y2117
X430Y2017
X330Y2117
X330Y2017
X830Y2117
X100Y400
X100Y656
X277Y400
X277Y656
X830Y2017
X2230Y2117
X2230Y2017
X2130Y2117
X2130Y2017
X2030Y2117
X2030Y2017
X1930Y2117
X1930Y2017
X1830Y2117
X1830Y2017
X1730Y2117
X1730Y2017
X1630Y2117
X1630Y2017
X1530Y2117
X1430Y2117
X730Y2117
X930Y2017
X930Y2117
X1030Y2017
X1030Y2117
X1130Y2017
X1130Y2117
X1230Y2017
X1230Y2117
X1330Y2017
X1330Y2117
X1430Y2017
X1530Y2017
T7
X694Y1473
X1006Y573
X1006Y673
X1006Y1173
X1006Y1273
X1006Y773
X694Y1773
X694Y873
X694Y973
X694Y1073
X694Y1173
X694Y1273
X694Y1373
X694Y773
X694Y1573
X694Y1673
X694Y1873
X1006Y1873
X1006Y1773
X1006Y1673
X1006Y1573
X1006Y1473
X1006Y1373
X1006Y973
X1006Y1073
X1006Y873
X694Y673
X694Y573
T8
X1452Y746
X1255Y746
T9
X1180Y1189
X1180Y1110
T10
X1720Y1120
X2000Y840
X2000Y623
T11
X1410Y1370
X770Y1735
X640Y1735
X610Y1790
X425Y1740
X400Y1825
X1401Y1314
X2165Y730
X2105Y730
X615Y930
X625Y1210
X565Y1175
X1465Y875
X331Y1935
X2100Y895
X1975Y765
X1970Y730
X1975Y682
X1995Y655
X1795Y1328
X1858Y1357
X1960Y1460
X1965Y1495
X1960Y1412
X616Y962
X1960Y1530
X2055Y930
X610Y870
X2225Y1530
X1575Y960
X610Y790
X1965Y925
X1960Y1560
X327Y1851
X375Y1935
T12
X726Y906
X1468Y1434
X1212Y1740
X1386Y1956
X1332Y1794
X360Y1542
X330Y1776
X1236Y1692
X1590Y2172
X582Y696
X1590Y1896
X1644Y858
X1722Y1650
X1740Y864
X366Y834
X398Y1740
X468Y1830
X492Y1728
X600Y1734
X936Y1662
X756Y876
X1596Y1524
X1428Y1482
X882Y1062
X336Y1326
X486Y180
X462Y1926
X1428Y1314
X1566Y1860
X1086Y468
X1332Y1872
X1380Y1854
X336Y1176
X540Y1494
X1326Y1626
X408Y1620
X474Y1692
X504Y1692
X552Y1710
X576Y1692
X1380Y2160
X258Y2040
X240Y1302
X288Y2172
X360Y2160
X1266Y2154
X1338Y1932
X570Y2070
X1194Y2076
X666Y1410
X1542Y1626
X612Y1434
X1512Y1626
X1362Y1896
X1188Y1818
X1380Y1428
X1626Y1446
X1524Y780
X1644Y780
X1536Y156
X1512Y108
X1626Y1566
X1656Y978
X1716Y918
X1950Y1644
X1560Y300
X1470Y168
X1692Y1704
X1380Y1368
X1458Y1314
X1314Y1152
X1440Y1224
X1314Y1212
X1374Y1458
X1542Y1578
X1314Y1380
X2112Y780
X1140Y192
X1590Y888
X1224Y168
X1884Y906
X1836Y858
X492Y1062
X1644Y738
X1524Y1200
X1440Y1116
X774Y924
X564Y1302
X564Y1332
X660Y1602
X468Y1356
X414Y1668
X1812Y1074
X598Y1816
X612Y1404
X414Y1002
X1374Y1716
X1626Y1536
X1494Y648
X336Y1266
X408Y1908
X1644Y600
X1020Y492
X1626Y1398
X1512Y840
X1524Y810
X1518Y1332
X1026Y522
X1068Y558
X1494Y780
M30