G04 EAGLE Gerber RS-274X export*
G75*
%MOMM*%
%FSLAX34Y34*%
%LPD*%
%INBottom Copper*%
%IPPOS*%
%AMOC8*
5,1,8,0,0,1.08239X$1,22.5*%
G01*
G04 Define Apertures*
%ADD10R,1.200000X1.200000*%
%ADD11C,1.200000*%
%ADD12R,1.100000X1.100000*%
%ADD13C,1.100000*%
%ADD14C,4.743000*%
%ADD15C,1.950000*%
%ADD16C,1.879600*%
%ADD17R,1.500000X1.500000*%
%ADD18C,1.500000*%
%ADD19R,1.275000X1.275000*%
%ADD20C,1.275000*%
%ADD21R,1.778000X1.778000*%
%ADD22C,1.778000*%
%ADD23C,0.152400*%
%ADD24C,0.508000*%
%ADD25C,0.558800*%
%ADD26C,0.762000*%
%ADD27C,0.762000*%
%ADD28C,0.508000*%
D10*
X318770Y189420D03*
D11*
X368770Y189420D03*
D12*
X299720Y281940D03*
D13*
X299720Y301940D03*
D14*
X451960Y87525D03*
X451960Y27525D03*
X498960Y57525D03*
D15*
X598170Y104010D03*
X598170Y154010D03*
X598170Y204010D03*
X598170Y254010D03*
X598170Y304010D03*
X598170Y354010D03*
X598170Y404010D03*
X598170Y454010D03*
D16*
X25400Y384558D03*
X25400Y409958D03*
D17*
X25400Y101600D03*
D18*
X25400Y166600D03*
X70400Y101600D03*
X70400Y166600D03*
D19*
X255500Y145431D03*
D20*
X255500Y170831D03*
X255500Y297831D03*
X255500Y323231D03*
X255500Y196231D03*
X255500Y221631D03*
X255500Y272431D03*
X255500Y247031D03*
X255500Y348631D03*
X255500Y374031D03*
X255500Y399431D03*
X255500Y424831D03*
X255500Y450231D03*
X255500Y475631D03*
X176300Y475631D03*
X176300Y450231D03*
X176300Y424831D03*
X176300Y399431D03*
X176300Y374031D03*
X176300Y348631D03*
X176300Y323231D03*
X176300Y297831D03*
X176300Y272431D03*
X176300Y247031D03*
X176300Y221631D03*
X176300Y196231D03*
X176300Y170831D03*
X176300Y145431D03*
D21*
X83700Y512300D03*
D22*
X83700Y537700D03*
X109100Y512300D03*
X109100Y537700D03*
X134500Y512300D03*
X134500Y537700D03*
X159900Y512300D03*
X159900Y537700D03*
X185300Y512300D03*
X185300Y537700D03*
X210700Y512300D03*
X210700Y537700D03*
X236100Y512300D03*
X236100Y537700D03*
X261500Y512300D03*
X261500Y537700D03*
X286900Y512300D03*
X286900Y537700D03*
X312300Y512300D03*
X312300Y537700D03*
X337700Y512300D03*
X337700Y537700D03*
X363100Y512300D03*
X363100Y537700D03*
X388500Y512300D03*
X388500Y537700D03*
X413900Y512300D03*
X413900Y537700D03*
X439300Y512300D03*
X439300Y537700D03*
X464700Y512300D03*
X464700Y537700D03*
X490100Y512300D03*
X490100Y537700D03*
X515500Y512300D03*
X515500Y537700D03*
X540900Y512300D03*
X540900Y537700D03*
X566300Y512300D03*
X566300Y537700D03*
D16*
X193040Y50800D03*
X193040Y25400D03*
X167640Y50800D03*
X167640Y25400D03*
X142240Y50800D03*
X142240Y25400D03*
X223520Y25400D03*
X223520Y50800D03*
X223520Y76200D03*
D23*
X124968Y269748D02*
X124968Y297180D01*
X175260Y347472D01*
X176300Y348631D01*
X147828Y246888D02*
X147828Y176784D01*
X147828Y246888D02*
X124968Y269748D01*
X123444Y152400D02*
X123444Y45720D01*
X123444Y152400D02*
X147828Y176784D01*
X225552Y298704D02*
X254508Y298704D01*
X225552Y298704D02*
X176784Y347472D01*
X254508Y298704D02*
X255500Y297831D01*
X176784Y347472D02*
X176300Y348631D01*
X115824Y489204D02*
X96012Y509016D01*
X96012Y524256D01*
X83820Y536448D01*
X83700Y537700D01*
X299720Y282702D02*
X345600Y328582D01*
X299720Y282702D02*
X299720Y281940D01*
X397764Y419100D02*
X397764Y472440D01*
X348996Y353568D02*
X344424Y348996D01*
X344424Y329758D01*
X115824Y469392D02*
X115824Y489204D01*
X126492Y416052D02*
X332232Y416052D01*
X335280Y419100D01*
X397764Y419100D01*
X117348Y489204D02*
X115824Y489204D01*
X176784Y260604D02*
X277368Y260604D01*
X298704Y281940D01*
X299720Y281940D01*
D24*
X124968Y269748D03*
X147828Y176784D03*
X123444Y45720D03*
X117348Y489204D03*
X362712Y333756D03*
X397764Y472440D03*
D23*
X148209Y249555D02*
X148209Y246888D01*
X147828Y246888D01*
X165735Y249555D02*
X176784Y260604D01*
X165735Y249555D02*
X148209Y249555D01*
X348996Y353568D02*
X351068Y353568D01*
X369610Y372110D02*
X369791Y372110D01*
X397764Y400083D01*
X397764Y419100D01*
X369610Y372110D02*
X351068Y353568D01*
X345600Y328582D02*
X357955Y328582D01*
X360930Y331558D01*
X360930Y331974D01*
X362712Y333756D01*
X345600Y328582D02*
X344424Y329758D01*
X116078Y438593D02*
X116078Y445327D01*
X115824Y445581D01*
X115570Y426974D02*
X126492Y416052D01*
X115570Y426974D02*
X115570Y438085D01*
X116078Y438593D01*
X114046Y467614D02*
X115824Y469392D01*
X114046Y462240D02*
X115824Y460462D01*
X114046Y462240D02*
X114046Y467614D01*
X115824Y460462D02*
X115824Y445581D01*
X266700Y118872D02*
X275844Y118872D01*
X266700Y118872D02*
X224028Y76200D01*
X223520Y76200D01*
X167640Y25908D02*
X143256Y25908D01*
X142240Y25400D01*
X167640Y25908D02*
X192024Y25908D01*
X193040Y25400D01*
X167640Y25400D02*
X167640Y25908D01*
X222504Y67056D02*
X222504Y76200D01*
X222504Y67056D02*
X211836Y56388D01*
X211836Y44196D01*
X193040Y25400D01*
X222504Y76200D02*
X223520Y76200D01*
X338328Y475488D02*
X345948Y475488D01*
X350520Y470916D01*
X85344Y303276D02*
X85344Y298704D01*
X85344Y303276D02*
X124968Y342900D01*
X124968Y379476D02*
X124968Y413004D01*
X124968Y379476D02*
X124968Y342900D01*
X124968Y413004D02*
X114300Y423672D01*
X109728Y486156D02*
X83820Y512064D01*
X83700Y512300D01*
X124968Y379476D02*
X137160Y379476D01*
X124968Y413004D02*
X336804Y413004D01*
X114300Y422148D02*
X103632Y411480D01*
X114300Y422148D02*
X114300Y423672D01*
X135636Y25908D02*
X141732Y25908D01*
X135636Y25908D02*
X99060Y62484D01*
X99060Y284988D01*
X85344Y298704D01*
X141732Y25908D02*
X142240Y25400D01*
D24*
X275844Y118872D03*
X338328Y475488D03*
X350520Y470916D03*
X85344Y298704D03*
X137160Y379476D03*
X336804Y413004D03*
X103632Y411480D03*
D23*
X113030Y444064D02*
X112776Y444318D01*
X113030Y444064D02*
X113030Y439856D01*
X112522Y439348D01*
X112522Y425450D01*
X114300Y423672D01*
X109728Y462247D02*
X109728Y486156D01*
X109728Y462247D02*
X112776Y459199D01*
X112776Y444318D01*
X120396Y429768D02*
X126492Y423672D01*
X129540Y423672D01*
X134112Y428244D01*
X134112Y495300D01*
X146304Y507492D01*
X146304Y516636D01*
X138684Y524256D01*
X120396Y524256D01*
X109728Y513588D01*
X109100Y512300D01*
D24*
X120396Y429768D03*
D23*
X128016Y429768D02*
X128016Y434340D01*
X131064Y437388D01*
X131064Y509016D01*
X134112Y512064D01*
X134500Y512300D01*
D24*
X128016Y429768D03*
D23*
X140208Y434340D02*
X140208Y493776D01*
X158496Y512064D01*
X159900Y512300D01*
D24*
X140208Y434340D03*
D23*
X198120Y499872D02*
X210312Y512064D01*
X210700Y512300D01*
D24*
X146304Y429768D03*
D23*
X183628Y499872D02*
X198120Y499872D01*
X183628Y499872D02*
X146304Y462548D01*
X146304Y429768D01*
X85344Y441960D02*
X85344Y336804D01*
X85344Y441960D02*
X65532Y461772D01*
X65532Y518160D01*
D24*
X85344Y336804D03*
X65532Y518160D03*
D23*
X60960Y515112D02*
X60960Y330708D01*
X60960Y515112D02*
X59436Y516636D01*
X59436Y537972D01*
X73152Y551688D01*
X91440Y548640D02*
X103632Y548640D01*
X105156Y550164D01*
X318516Y550164D01*
X321564Y547116D01*
D24*
X60960Y330708D03*
X73152Y551688D03*
X91440Y548640D03*
X321564Y547116D03*
D23*
X345948Y496824D02*
X339852Y490728D01*
X345948Y496824D02*
X345948Y498348D01*
X359664Y512064D01*
X362712Y512064D01*
X363100Y512300D01*
D24*
X339852Y490728D03*
D23*
X301752Y525780D02*
X144780Y525780D01*
X301752Y525780D02*
X303276Y527304D01*
D24*
X144780Y525780D03*
X303276Y527304D03*
D23*
X324612Y358140D02*
X169164Y358140D01*
X324612Y358140D02*
X373380Y406908D01*
X385572Y406908D01*
X391668Y413004D01*
D24*
X169164Y358140D03*
X391668Y413004D03*
D23*
X326136Y364236D02*
X155448Y364236D01*
X326136Y364236D02*
X374904Y413004D01*
X384048Y413004D01*
D24*
X155448Y364236D03*
X384048Y413004D03*
D23*
X364236Y481584D02*
X345948Y481584D01*
X364236Y481584D02*
X376428Y493776D01*
X496824Y493776D01*
X515112Y512064D01*
X515500Y512300D01*
D24*
X345948Y481584D03*
D23*
X301752Y464820D02*
X301752Y461772D01*
X301752Y464820D02*
X298704Y467868D01*
X298704Y484632D01*
X307848Y493776D01*
X307848Y499872D01*
X300228Y507492D01*
X300228Y516636D01*
X309372Y525780D01*
X316992Y525780D01*
X326136Y534924D01*
X326136Y542544D01*
X333756Y550164D01*
X348996Y550164D01*
X350520Y548640D01*
X403860Y551688D02*
X544068Y551688D01*
X553212Y542544D01*
X553212Y528828D01*
X541020Y516636D01*
X541020Y513588D01*
X540900Y512300D01*
D24*
X301752Y461772D03*
X350520Y548640D03*
X403860Y551688D03*
D23*
X313944Y472440D02*
X313944Y429768D01*
X313944Y472440D02*
X350520Y509016D01*
X350520Y524256D01*
X362712Y536448D01*
X363100Y537700D01*
D24*
X313944Y429768D03*
D23*
X83820Y448056D02*
X83820Y451104D01*
X83820Y448056D02*
X88392Y443484D01*
X88392Y394716D01*
X91440Y391668D01*
X409956Y537972D02*
X413004Y537972D01*
X409956Y537972D02*
X393192Y554736D01*
X83820Y554736D01*
X71628Y542544D01*
X71628Y463296D01*
X83820Y451104D01*
X413004Y537972D02*
X413900Y537700D01*
D24*
X83820Y451104D03*
X91440Y391668D03*
D23*
X307848Y441960D02*
X307848Y464820D01*
X310896Y467868D01*
X310896Y473964D01*
X329184Y492252D01*
X329184Y504444D01*
X326136Y507492D01*
X326136Y516636D01*
X335280Y525780D01*
X342900Y525780D01*
X350520Y533400D01*
X350520Y541020D01*
X359664Y550164D01*
X393192Y550164D01*
X402336Y541020D01*
X402336Y533400D01*
X409956Y525780D01*
X452628Y525780D01*
X463296Y536448D01*
X464700Y537700D01*
D24*
X307848Y441960D03*
D23*
X352044Y496824D02*
X466344Y496824D01*
X478536Y509016D01*
X478536Y516636D01*
X487680Y525780D01*
X504444Y525780D01*
X515112Y536448D01*
X515500Y537700D01*
D24*
X352044Y496824D03*
D23*
X342900Y455676D02*
X338328Y455676D01*
X342900Y455676D02*
X374904Y487680D01*
X507492Y487680D01*
X528828Y509016D01*
X528828Y525780D01*
X539496Y536448D01*
X540900Y537700D01*
D24*
X338328Y455676D03*
D23*
X403860Y481584D02*
X527304Y481584D01*
X554736Y509016D01*
X554736Y525780D01*
X565404Y536448D01*
X566300Y537700D01*
D24*
X403860Y481584D03*
D23*
X409956Y225552D02*
X417576Y217932D01*
X409956Y225552D02*
X409956Y227076D01*
X405384Y231648D01*
X402336Y231648D01*
X393192Y222504D01*
X393192Y196596D01*
X332232Y135636D01*
X265176Y135636D01*
X256032Y144780D01*
X255500Y145431D01*
X437388Y294132D02*
X437388Y419100D01*
X437388Y294132D02*
X429768Y286512D01*
X429768Y231648D01*
X441960Y219456D01*
D24*
X417576Y217932D03*
X437388Y419100D03*
X441960Y219456D03*
D23*
X94488Y408432D02*
X94488Y420624D01*
X94488Y408432D02*
X100584Y402336D01*
X100584Y323088D01*
X79248Y301752D01*
X79248Y225552D01*
X92964Y211836D01*
D24*
X92964Y211836D03*
X101092Y441960D03*
D23*
X101092Y427228D02*
X94488Y420624D01*
X101092Y427228D02*
X101092Y441960D01*
X192024Y222504D02*
X192024Y187452D01*
X176784Y172212D01*
X176300Y170831D01*
D24*
X118872Y464820D03*
X124968Y438912D03*
X152400Y440436D03*
X237744Y422148D03*
X192024Y222504D03*
D23*
X124968Y438912D02*
X119126Y444754D01*
X119126Y446589D01*
X118872Y446843D01*
X118872Y464820D01*
X152400Y440436D02*
X155630Y440436D01*
X162574Y433492D01*
X193294Y422148D02*
X237744Y422148D01*
X193294Y422148D02*
X181950Y433492D01*
X162574Y433492D01*
X397764Y387096D02*
X405384Y387096D01*
X397764Y387096D02*
X374904Y364236D01*
X362712Y376428D02*
X347472Y376428D01*
X252984Y281940D01*
X236220Y281940D01*
X224028Y269748D01*
X184404Y230124D02*
X184404Y227076D01*
X185928Y225552D01*
X185928Y205740D01*
X176784Y196596D01*
X176300Y196231D01*
D24*
X405384Y387096D03*
X362712Y376428D03*
X224028Y269748D03*
X184404Y230124D03*
X372872Y364236D03*
D23*
X374904Y364236D01*
X406908Y396240D02*
X413004Y390144D01*
X406908Y396240D02*
X406908Y399288D01*
X411480Y403860D01*
X414528Y403860D01*
X422148Y396240D01*
X422148Y339852D01*
X387096Y304800D01*
X365760Y283464D02*
X330708Y283464D01*
X259080Y211836D01*
X219456Y211836D01*
X196596Y234696D01*
D24*
X413004Y390144D03*
X387096Y304800D03*
X365760Y283464D03*
X196596Y234696D03*
D23*
X143256Y330708D02*
X149352Y336804D01*
X149352Y373380D01*
X175260Y399288D01*
X176300Y399431D01*
D24*
X143256Y330708D03*
D23*
X143256Y338328D02*
X143256Y382524D01*
X167640Y406908D01*
D24*
X143256Y338328D03*
X167640Y406908D03*
D23*
X118872Y388620D02*
X118872Y344424D01*
X118872Y388620D02*
X97536Y409956D01*
X97536Y416052D01*
X105156Y423672D01*
D24*
X118872Y344424D03*
X105156Y423672D03*
D23*
X460248Y298704D02*
X460248Y272796D01*
X460248Y298704D02*
X504444Y342900D01*
X504444Y361188D01*
X499872Y365760D01*
X495300Y365760D01*
X443484Y417576D01*
X443484Y434340D01*
X399288Y478536D01*
X370332Y478536D01*
X315468Y423672D01*
X307848Y423672D01*
X256032Y475488D01*
X255500Y475631D01*
X254508Y475488D02*
X188976Y475488D01*
X254508Y475488D02*
X255500Y475631D01*
D24*
X460248Y272796D03*
X151845Y461264D03*
D23*
X174752Y461264D02*
X188976Y475488D01*
X174752Y461264D02*
X151845Y461264D01*
X249936Y172212D02*
X254508Y172212D01*
X249936Y172212D02*
X185928Y236220D01*
X254508Y172212D02*
X255500Y170831D01*
X185928Y236220D02*
X185928Y237735D01*
X167004Y237735D01*
D25*
X156464Y244348D03*
D23*
X156972Y243840D01*
X160899Y243840D01*
X167004Y237735D01*
X155448Y332232D02*
X155448Y356616D01*
X155448Y332232D02*
X105156Y281940D01*
X105156Y254508D01*
D24*
X155448Y356616D03*
X105156Y254508D03*
D23*
X332232Y435864D02*
X348996Y435864D01*
X332232Y435864D02*
X316992Y420624D01*
X259080Y420624D01*
X256032Y423672D01*
X255500Y424831D01*
D24*
X348996Y435864D03*
D23*
X402336Y187452D02*
X417576Y187452D01*
X402336Y187452D02*
X379476Y164592D01*
D24*
X417576Y187452D03*
X379476Y164592D03*
D26*
X508000Y213360D03*
D27*
X436880Y284480D01*
D26*
X436880Y284480D03*
D27*
X497840Y345440D01*
X497840Y358608D01*
D28*
X508000Y153116D02*
X506842Y151958D01*
D26*
X508000Y158242D03*
D28*
X508000Y153116D01*
D25*
X497840Y358608D03*
D27*
X506842Y151958D02*
X506842Y142407D01*
X451960Y87525D01*
D23*
X85344Y321564D02*
X85344Y329184D01*
X97536Y341376D01*
X97536Y400812D01*
X91440Y406908D01*
X91440Y472440D01*
X103632Y484632D01*
D24*
X85344Y321564D03*
X103632Y484632D03*
D25*
X506730Y166370D03*
D28*
X598170Y134474D02*
X598170Y104010D01*
X566274Y166370D02*
X506730Y166370D01*
X566274Y166370D02*
X598170Y134474D01*
X570570Y173990D02*
X502920Y173990D01*
X590550Y154010D02*
X598170Y154010D01*
X590550Y154010D02*
X570570Y173990D01*
D25*
X501650Y173101D03*
D28*
X502031Y173101D01*
X502920Y173990D01*
D25*
X500380Y185420D03*
D28*
X573230Y254010D02*
X598170Y254010D01*
X573230Y254010D02*
X504640Y185420D01*
X500380Y185420D01*
D25*
X501650Y194310D03*
D28*
X504190Y194310D02*
X533400Y223520D01*
X504190Y194310D02*
X501650Y194310D01*
X533400Y223520D02*
X533400Y227330D01*
D25*
X533400Y227330D03*
D23*
X417576Y152400D02*
X417576Y109728D01*
X379476Y71628D01*
X379476Y41148D01*
X374904Y36576D01*
X309372Y36576D01*
X281940Y64008D01*
X281940Y120396D01*
X277368Y124968D01*
X259080Y124968D01*
X413004Y342900D02*
X413004Y355092D01*
X413004Y342900D02*
X377952Y307848D01*
D24*
X417576Y152400D03*
X259080Y124968D03*
X413004Y355092D03*
X384048Y213360D03*
D23*
X405765Y238125D02*
X405765Y249555D01*
X384048Y238125D02*
X384048Y213360D01*
X377952Y249555D02*
X377952Y307848D01*
X384048Y238125D02*
X405765Y238125D01*
X405765Y249555D02*
X377952Y249555D01*
X384048Y205740D02*
X387096Y205740D01*
X384048Y205740D02*
X374904Y214884D01*
X374904Y327660D02*
X385572Y338328D01*
X176784Y50292D02*
X167640Y50292D01*
X176784Y50292D02*
X188976Y38100D01*
X198120Y38100D01*
X208788Y48768D01*
X208788Y82296D01*
X259080Y132588D01*
X260604Y132588D01*
X271272Y141732D02*
X307848Y141732D01*
X364236Y198120D01*
X379476Y198120D01*
X167640Y50800D02*
X167640Y50292D01*
D24*
X387096Y205740D03*
X385572Y338328D03*
X260604Y132588D03*
X271272Y141732D03*
X379476Y198120D03*
D23*
X374904Y248666D02*
X374904Y327660D01*
X374904Y216535D02*
X366395Y216535D01*
X374904Y216535D02*
X374904Y214884D01*
X374904Y248666D02*
X366395Y248666D01*
X366395Y216535D01*
X371856Y333756D02*
X373380Y333756D01*
X406908Y367284D01*
X413004Y367284D01*
X371856Y213360D02*
X387096Y198120D01*
X371856Y333756D02*
X370332Y333756D01*
X193548Y100584D02*
X193548Y51816D01*
X193548Y100584D02*
X254508Y161544D01*
X320040Y161544D01*
X371856Y213360D01*
X193548Y51816D02*
X193040Y50800D01*
D24*
X370332Y333756D03*
X413004Y367284D03*
X387096Y198120D03*
D23*
X371856Y251714D02*
X371856Y333756D01*
X371856Y213487D02*
X363347Y213487D01*
X371856Y213487D02*
X371856Y213360D01*
X371856Y251714D02*
X363347Y251714D01*
X363347Y213487D01*
X417576Y198120D02*
X417576Y195072D01*
X422148Y190500D02*
X423672Y188976D01*
X422148Y190500D02*
X417576Y195072D01*
X423672Y188976D02*
X423672Y111252D01*
X390144Y77724D01*
X390144Y39624D01*
X384048Y27432D02*
X246888Y27432D01*
X223520Y50800D01*
X419100Y391668D02*
X413004Y397764D01*
X419100Y391668D02*
X419100Y344424D01*
X381000Y306324D01*
X381000Y288036D01*
X420624Y248412D01*
X435864Y233172D02*
X448056Y220980D01*
X448056Y216408D01*
X422148Y190500D01*
D24*
X417576Y198120D03*
X390144Y39624D03*
X384048Y27432D03*
X413004Y397764D03*
X420624Y248412D03*
X435864Y233172D03*
D25*
X455930Y337312D03*
X472024Y344586D03*
D28*
X463204Y344586D02*
X455930Y337312D01*
X463204Y344586D02*
X472024Y344586D01*
D25*
X497840Y370840D03*
D28*
X559280Y370840D01*
X598170Y331950D02*
X598170Y304010D01*
X598170Y331950D02*
X559280Y370840D01*
D25*
X499110Y379730D03*
D28*
X562290Y379730D01*
X588010Y354010D02*
X598170Y354010D01*
X588010Y354010D02*
X562290Y379730D01*
D25*
X497840Y388620D03*
D28*
X565150Y388620D01*
D25*
X565150Y388620D03*
X497840Y396240D03*
D28*
X565000Y396240D01*
X572770Y404010D02*
X598170Y404010D01*
X572770Y404010D02*
X565000Y396240D01*
D23*
X478536Y230124D02*
X466344Y217932D01*
D24*
X478536Y230124D03*
X466344Y217932D03*
D25*
X154940Y220980D03*
D27*
X154940Y200660D01*
D25*
X154940Y200660D03*
X499110Y234950D03*
D28*
X499110Y236220D01*
X521970Y236220D01*
D25*
X521970Y236220D03*
X83049Y470042D03*
D28*
X83968Y491490D02*
X95250Y491490D01*
D25*
X95250Y491490D03*
X83968Y491490D03*
X400050Y243840D03*
D28*
X372110Y243840D01*
X372110Y222250D01*
D25*
X372110Y222250D03*
X143510Y298342D03*
D28*
X158750Y298342D01*
X158750Y307340D01*
D25*
X158750Y307340D03*
D27*
X154940Y234950D02*
X154940Y220980D01*
X154940Y234950D02*
X156210Y236220D01*
D25*
X156210Y236220D03*
X534670Y185420D03*
D27*
X549910Y185420D01*
D25*
X549910Y185420D03*
X358140Y347980D03*
D23*
X358140Y336550D01*
X355850Y334260D01*
D25*
X355850Y333662D03*
D23*
X355850Y334260D02*
X355850Y334260D01*
X355850Y333662D01*
D25*
X101600Y463550D03*
D28*
X107950Y457200D02*
X107950Y441960D01*
D25*
X107950Y441960D03*
X154940Y454660D03*
D28*
X162560Y447040D01*
X162560Y440690D01*
D25*
X162560Y440690D03*
D28*
X107950Y457200D02*
X101600Y463550D01*
X83049Y470042D02*
X83049Y490571D01*
X83968Y491490D01*
D25*
X195580Y440690D03*
D28*
X171078Y440690D02*
X162560Y440690D01*
X171078Y440690D02*
X171976Y439792D01*
X194682Y439792D02*
X195580Y440690D01*
X194682Y439792D02*
X171976Y439792D01*
D23*
X310896Y109728D02*
X310896Y42672D01*
X310896Y109728D02*
X403860Y202692D01*
X403860Y225552D01*
D24*
X310896Y42672D03*
X403860Y225552D03*
D23*
X292608Y48768D02*
X289560Y48768D01*
X292608Y48768D02*
X307848Y33528D01*
X420624Y33528D01*
X448056Y60960D01*
X464820Y60960D01*
X495300Y91440D01*
X603504Y91440D01*
X611124Y99060D01*
X611124Y158496D01*
X571500Y198120D01*
X536448Y198120D01*
D24*
X289560Y48768D03*
X536448Y198120D03*
D23*
X333756Y347472D02*
X333756Y350520D01*
X333756Y347472D02*
X265176Y278892D01*
X265176Y269748D01*
X259080Y263652D01*
X184404Y263652D01*
X176784Y271272D01*
X176300Y272431D01*
D24*
X333756Y350520D03*
X391668Y400812D03*
X348996Y370332D03*
D23*
X363441Y370332D01*
X391668Y398559D01*
X391668Y400812D01*
X333756Y307848D02*
X333756Y300228D01*
X289560Y256032D01*
X184404Y256032D01*
X176784Y248412D01*
X176300Y247031D01*
X336804Y310896D02*
X365760Y310896D01*
X336804Y310896D02*
X333756Y307848D01*
D24*
X333756Y307848D03*
X365760Y310896D03*
D23*
X333756Y292608D02*
X330708Y292608D01*
X260604Y222504D01*
X256032Y222504D01*
X255500Y221631D01*
D24*
X333756Y292608D03*
D23*
X338328Y362712D02*
X350520Y362712D01*
X338328Y362712D02*
X256032Y280416D01*
X256032Y272796D01*
X255500Y272431D01*
D24*
X350520Y362712D03*
D23*
X413004Y409956D02*
X429768Y426720D01*
X429768Y432816D01*
X373380Y166116D02*
X373380Y42672D01*
X373380Y166116D02*
X426720Y219456D01*
X426720Y396240D01*
X413004Y409956D01*
D24*
X350520Y347472D03*
X429768Y432816D03*
X373380Y42672D03*
D23*
X372110Y369062D02*
X413004Y409956D01*
X372110Y369062D02*
X370873Y369062D01*
X368046Y366235D01*
X353060Y350084D02*
X353060Y350012D01*
X350520Y347472D01*
X368046Y365070D02*
X368046Y366235D01*
X368046Y365070D02*
X353060Y350084D01*
X499872Y179832D02*
X396240Y76200D01*
X499872Y179832D02*
X510540Y179832D01*
X571500Y240792D01*
X601980Y240792D01*
X611124Y249936D01*
X611124Y408432D01*
X601980Y417576D01*
X495300Y417576D01*
D24*
X396240Y76200D03*
X495300Y417576D03*
M02*
