G04 EAGLE Gerber RS-274X export*
G75*
%MOMM*%
%FSLAX34Y34*%
%LPD*%
%INTop Copper*%
%IPPOS*%
%AMOC8*
5,1,8,0,0,1.08239X$1,22.5*%
G01*
G04 Define Apertures*
%ADD10C,0.286200*%
%ADD11R,0.730000X0.940000*%
%ADD12R,0.620000X0.650000*%
%ADD13R,1.020000X1.470000*%
%ADD14R,1.200000X1.200000*%
%ADD15C,1.200000*%
%ADD16R,0.650000X0.620000*%
%ADD17R,0.940000X0.730000*%
%ADD18R,0.620000X0.560000*%
%ADD19R,1.100000X1.100000*%
%ADD20C,1.100000*%
%ADD21R,0.450000X1.475000*%
%ADD22R,1.475000X0.450000*%
%ADD23R,3.100000X5.180000*%
%ADD24R,1.525000X0.700000*%
%ADD25C,4.743000*%
%ADD26C,1.950000*%
%ADD27C,1.879600*%
%ADD28R,0.950000X0.950000*%
%ADD29R,1.100000X1.750000*%
%ADD30R,1.800000X1.050000*%
%ADD31R,1.050000X1.750000*%
%ADD32R,1.050000X1.800000*%
%ADD33R,1.500000X1.500000*%
%ADD34C,1.500000*%
%ADD35R,1.275000X1.275000*%
%ADD36C,1.275000*%
%ADD37R,1.778000X1.778000*%
%ADD38C,1.778000*%
%ADD39R,1.800000X1.000000*%
%ADD40R,1.600000X1.500000*%
%ADD41R,0.425000X0.500000*%
%ADD42R,0.250000X0.500000*%
%ADD43R,0.900000X0.400000*%
%ADD44C,0.152400*%
%ADD45C,0.508000*%
%ADD46C,0.558800*%
%ADD47C,0.508000*%
%ADD48C,0.762000*%
%ADD49C,0.762000*%
%ADD50C,0.635000*%
%ADD51C,0.482600*%
%ADD52C,0.304800*%
%ADD53C,2.540000*%
G36*
X437979Y3870D02*
X437682Y3810D01*
X30000Y3810D01*
X29881Y3819D01*
X22023Y5064D01*
X21796Y5138D01*
X14708Y8749D01*
X14515Y8890D01*
X8890Y14515D01*
X8749Y14708D01*
X5138Y21796D01*
X5064Y22023D01*
X3819Y29881D01*
X3810Y30000D01*
X3810Y175000D01*
X3825Y175149D01*
X4999Y181053D01*
X5113Y181327D01*
X8457Y186333D01*
X8667Y186543D01*
X13673Y189887D01*
X13947Y190001D01*
X19851Y191175D01*
X20000Y191190D01*
X33771Y191190D01*
X40944Y193521D01*
X47046Y197954D01*
X51479Y204056D01*
X53810Y211229D01*
X53810Y285541D01*
X53857Y285805D01*
X54016Y286063D01*
X54264Y286238D01*
X54560Y286303D01*
X54858Y286248D01*
X55111Y286080D01*
X64585Y276606D01*
X65834Y276606D01*
X66109Y276555D01*
X66364Y276391D01*
X66435Y276288D01*
X67146Y275577D01*
X67304Y275347D01*
X67369Y275051D01*
X67313Y274752D01*
X67146Y274500D01*
X65580Y272934D01*
X65580Y272720D01*
X76660Y272720D01*
X76660Y272934D01*
X75094Y274500D01*
X74936Y274730D01*
X74871Y275026D01*
X74927Y275324D01*
X75094Y275577D01*
X75644Y276127D01*
X75644Y281113D01*
X73832Y282925D01*
X73679Y283145D01*
X73609Y283440D01*
X73660Y283739D01*
X73823Y283994D01*
X74073Y284166D01*
X74371Y284226D01*
X91701Y284226D01*
X91987Y284170D01*
X92240Y284003D01*
X120578Y255665D01*
X120731Y255445D01*
X120801Y255150D01*
X120750Y254851D01*
X120587Y254596D01*
X120337Y254424D01*
X120039Y254364D01*
X109982Y254364D01*
X109707Y254415D01*
X109452Y254579D01*
X109280Y254829D01*
X109220Y255126D01*
X109220Y256191D01*
X106839Y258572D01*
X103473Y258572D01*
X101092Y256191D01*
X101092Y254733D01*
X101045Y254470D01*
X100886Y254212D01*
X100638Y254036D01*
X100342Y253971D01*
X100044Y254027D01*
X99791Y254194D01*
X99621Y254364D01*
X87859Y254364D01*
X86966Y253471D01*
X86966Y234209D01*
X87859Y233316D01*
X90795Y233316D01*
X91081Y233260D01*
X91334Y233093D01*
X94856Y229571D01*
X95009Y229351D01*
X95079Y229056D01*
X95028Y228757D01*
X94865Y228502D01*
X94615Y228330D01*
X94317Y228270D01*
X92590Y228270D01*
X92590Y224790D01*
X96070Y224790D01*
X96070Y226517D01*
X96117Y226781D01*
X96276Y227039D01*
X96524Y227214D01*
X96820Y227279D01*
X97118Y227224D01*
X97371Y227056D01*
X116401Y208026D01*
X175521Y208026D01*
X175807Y207970D01*
X176060Y207803D01*
X178432Y205431D01*
X178585Y205211D01*
X178655Y204916D01*
X178604Y204617D01*
X178441Y204362D01*
X178191Y204190D01*
X177893Y204130D01*
X174729Y204130D01*
X171826Y202927D01*
X169604Y200705D01*
X168401Y197802D01*
X168401Y194660D01*
X169604Y191757D01*
X171826Y189535D01*
X174729Y188332D01*
X177871Y188332D01*
X180774Y189535D01*
X182996Y191757D01*
X184199Y194660D01*
X184199Y197824D01*
X184246Y198088D01*
X184405Y198346D01*
X184653Y198521D01*
X184949Y198586D01*
X185247Y198531D01*
X185500Y198363D01*
X192601Y191262D01*
X246311Y191262D01*
X247412Y192363D01*
X247637Y192519D01*
X247933Y192586D01*
X248231Y192533D01*
X248485Y192367D01*
X248655Y192116D01*
X248804Y191757D01*
X251026Y189535D01*
X253929Y188332D01*
X257071Y188332D01*
X259974Y189535D01*
X262196Y191757D01*
X263399Y194660D01*
X263399Y197802D01*
X262196Y200705D01*
X259974Y202927D01*
X257071Y204130D01*
X253929Y204130D01*
X251026Y202927D01*
X248804Y200705D01*
X247612Y197828D01*
X247455Y197590D01*
X247205Y197418D01*
X246908Y197358D01*
X245941Y197358D01*
X244640Y196057D01*
X244399Y195894D01*
X244101Y195834D01*
X194811Y195834D01*
X194525Y195890D01*
X194272Y196057D01*
X177777Y212552D01*
X177621Y212777D01*
X177554Y213073D01*
X177607Y213372D01*
X177772Y213626D01*
X178024Y213795D01*
X180774Y214935D01*
X182996Y217157D01*
X183438Y218224D01*
X183595Y218462D01*
X183605Y218469D01*
X183604Y218471D01*
X186659Y221526D01*
X186879Y221679D01*
X187174Y221749D01*
X187473Y221698D01*
X187728Y221535D01*
X187900Y221285D01*
X187960Y220987D01*
X187960Y220821D01*
X190341Y218440D01*
X193707Y218440D01*
X196088Y220821D01*
X196088Y223019D01*
X196144Y223305D01*
X196311Y223558D01*
X240253Y267500D01*
X240484Y267658D01*
X240780Y267723D01*
X241078Y267668D01*
X241331Y267500D01*
X248989Y259842D01*
X266961Y259842D01*
X267247Y259786D01*
X267500Y259619D01*
X307124Y219995D01*
X307277Y219775D01*
X307347Y219480D01*
X307296Y219181D01*
X307133Y218926D01*
X306883Y218754D01*
X306585Y218694D01*
X264915Y218694D01*
X264629Y218750D01*
X264376Y218917D01*
X263622Y219671D01*
X263459Y219912D01*
X263399Y220210D01*
X263399Y223202D01*
X262196Y226105D01*
X259974Y228327D01*
X257071Y229530D01*
X253929Y229530D01*
X251026Y228327D01*
X248804Y226105D01*
X247601Y223202D01*
X247601Y220060D01*
X248804Y217157D01*
X251026Y214935D01*
X253929Y213732D01*
X257071Y213732D01*
X259974Y214935D01*
X260395Y215355D01*
X260625Y215513D01*
X260921Y215578D01*
X261220Y215522D01*
X261472Y215355D01*
X262705Y214122D01*
X308109Y214122D01*
X308395Y214066D01*
X308648Y213899D01*
X324302Y198245D01*
X324455Y198025D01*
X324525Y197730D01*
X324474Y197431D01*
X324311Y197176D01*
X324061Y197004D01*
X323763Y196944D01*
X312139Y196944D01*
X311246Y196051D01*
X311246Y182789D01*
X312139Y181896D01*
X312740Y181896D01*
X313015Y181845D01*
X313270Y181681D01*
X313442Y181431D01*
X313502Y181134D01*
X313502Y99740D01*
X314314Y97779D01*
X329090Y83003D01*
X331051Y82191D01*
X426675Y82191D01*
X427046Y82095D01*
X427276Y81898D01*
X427411Y81626D01*
X428441Y77783D01*
X431764Y72028D01*
X436463Y67329D01*
X442218Y64006D01*
X448637Y62286D01*
X455283Y62286D01*
X461702Y64006D01*
X467457Y67329D01*
X472156Y72028D01*
X475479Y77783D01*
X477199Y84202D01*
X477199Y90848D01*
X475479Y97267D01*
X472156Y103022D01*
X467457Y107721D01*
X461702Y111044D01*
X455283Y112764D01*
X448637Y112764D01*
X442218Y111044D01*
X436463Y107721D01*
X431764Y103022D01*
X428441Y97267D01*
X427411Y93424D01*
X427223Y93091D01*
X426972Y92919D01*
X426675Y92859D01*
X388494Y92859D01*
X388231Y92906D01*
X387973Y93065D01*
X387797Y93313D01*
X387732Y93609D01*
X387788Y93907D01*
X387955Y94160D01*
X388554Y94759D01*
X388554Y107615D01*
X388610Y107901D01*
X388777Y108154D01*
X407654Y127031D01*
X407895Y127194D01*
X408193Y127254D01*
X458147Y127254D01*
X478305Y147412D01*
X478525Y147565D01*
X478820Y147635D01*
X479119Y147584D01*
X479374Y147421D01*
X479546Y147171D01*
X479606Y146873D01*
X479606Y142913D01*
X479659Y142672D01*
X479606Y142388D01*
X479606Y136529D01*
X480499Y135636D01*
X492737Y135636D01*
X493023Y135580D01*
X493276Y135413D01*
X504975Y123714D01*
X521495Y123714D01*
X525844Y128063D01*
X526085Y128226D01*
X526383Y128286D01*
X535801Y128286D01*
X536694Y129179D01*
X536694Y144652D01*
X536745Y144927D01*
X536909Y145182D01*
X537159Y145354D01*
X537456Y145414D01*
X537785Y145414D01*
X541356Y148985D01*
X541356Y149380D01*
X541412Y149666D01*
X541579Y149919D01*
X545338Y153677D01*
X545338Y202933D01*
X484457Y263813D01*
X484294Y264055D01*
X484234Y264352D01*
X484234Y276131D01*
X483341Y277024D01*
X464079Y277024D01*
X463462Y276407D01*
X463231Y276249D01*
X462935Y276184D01*
X462637Y276240D01*
X462384Y276407D01*
X461931Y276860D01*
X458565Y276860D01*
X456184Y274479D01*
X456184Y271113D01*
X457739Y269558D01*
X457902Y269316D01*
X457962Y269019D01*
X457962Y231387D01*
X457906Y231101D01*
X457739Y230848D01*
X447325Y220434D01*
X447105Y220281D01*
X446810Y220211D01*
X446511Y220262D01*
X446256Y220425D01*
X446084Y220675D01*
X446024Y220973D01*
X446024Y221139D01*
X443643Y223520D01*
X440277Y223520D01*
X439945Y223188D01*
X439725Y223035D01*
X439430Y222965D01*
X439131Y223016D01*
X438876Y223180D01*
X438704Y223430D01*
X438644Y223727D01*
X438644Y226791D01*
X437705Y227730D01*
X437700Y227731D01*
X437442Y227890D01*
X437266Y228138D01*
X437201Y228434D01*
X437257Y228732D01*
X437424Y228985D01*
X439928Y231489D01*
X439928Y234855D01*
X437408Y237375D01*
X437284Y237553D01*
X437230Y237468D01*
X436980Y237296D01*
X436682Y237236D01*
X435349Y237236D01*
X435063Y237292D01*
X434810Y237459D01*
X424911Y247358D01*
X424748Y247599D01*
X424688Y247897D01*
X424688Y250095D01*
X422307Y252476D01*
X418941Y252476D01*
X416560Y250095D01*
X416560Y246729D01*
X418941Y244348D01*
X421139Y244348D01*
X421425Y244292D01*
X421678Y244125D01*
X431577Y234226D01*
X431740Y233985D01*
X431800Y233687D01*
X431800Y231489D01*
X434304Y228985D01*
X434457Y228765D01*
X434527Y228470D01*
X434476Y228171D01*
X434312Y227916D01*
X434062Y227744D01*
X433765Y227684D01*
X421739Y227684D01*
X420747Y226692D01*
X420516Y226534D01*
X420220Y226469D01*
X419922Y226524D01*
X419669Y226692D01*
X418523Y227838D01*
X416866Y227838D01*
X416591Y227889D01*
X416336Y228053D01*
X416164Y228303D01*
X416104Y228600D01*
X416104Y229906D01*
X416160Y230192D01*
X416327Y230445D01*
X417120Y231238D01*
X417120Y232440D01*
X405840Y232440D01*
X405840Y231693D01*
X405793Y231429D01*
X405634Y231171D01*
X405386Y230996D01*
X405090Y230931D01*
X404792Y230986D01*
X404539Y231154D01*
X342361Y293332D01*
X342198Y293573D01*
X342138Y293871D01*
X342138Y335752D01*
X342194Y336038D01*
X342361Y336291D01*
X342604Y336533D01*
X342834Y336691D01*
X343130Y336757D01*
X343428Y336701D01*
X343681Y336533D01*
X343759Y336456D01*
X347521Y336456D01*
X347601Y336536D01*
X347832Y336694D01*
X348128Y336759D01*
X348426Y336703D01*
X348679Y336536D01*
X348759Y336456D01*
X352521Y336456D01*
X352601Y336536D01*
X352832Y336694D01*
X353128Y336759D01*
X353426Y336703D01*
X353679Y336536D01*
X353759Y336456D01*
X357656Y336456D01*
X357862Y336505D01*
X358161Y336454D01*
X358416Y336290D01*
X358588Y336040D01*
X358648Y335743D01*
X358648Y332073D01*
X361029Y329692D01*
X364395Y329692D01*
X365983Y331280D01*
X366214Y331438D01*
X366510Y331503D01*
X366808Y331447D01*
X367061Y331280D01*
X368649Y329692D01*
X372015Y329692D01*
X374396Y332073D01*
X374396Y335694D01*
X374447Y335969D01*
X374611Y336224D01*
X374861Y336396D01*
X375158Y336456D01*
X379266Y336456D01*
X380153Y337343D01*
X380395Y337506D01*
X380692Y337566D01*
X380746Y337566D01*
X381021Y337515D01*
X381276Y337351D01*
X381448Y337101D01*
X381508Y336804D01*
X381508Y336645D01*
X383889Y334264D01*
X384055Y334264D01*
X384319Y334217D01*
X384577Y334058D01*
X384752Y333810D01*
X384817Y333514D01*
X384762Y333216D01*
X384594Y332963D01*
X366814Y315183D01*
X366573Y315020D01*
X366275Y314960D01*
X364077Y314960D01*
X361696Y312579D01*
X361696Y309213D01*
X364077Y306832D01*
X367443Y306832D01*
X369824Y309213D01*
X369824Y311411D01*
X369880Y311697D01*
X370047Y311950D01*
X404584Y346487D01*
X404825Y346650D01*
X405123Y346710D01*
X415308Y346710D01*
X415583Y346659D01*
X415838Y346495D01*
X416010Y346245D01*
X416070Y345948D01*
X416070Y345924D01*
X416014Y345638D01*
X415847Y345385D01*
X415054Y344592D01*
X415054Y343540D01*
X434884Y343540D01*
X434884Y344592D01*
X434091Y345385D01*
X433928Y345627D01*
X433868Y345924D01*
X433868Y350787D01*
X433815Y351028D01*
X433868Y351312D01*
X433868Y357287D01*
X433815Y357528D01*
X433868Y357812D01*
X433868Y363787D01*
X433815Y364028D01*
X433868Y364312D01*
X433868Y370287D01*
X433815Y370528D01*
X433868Y370812D01*
X433868Y376787D01*
X433815Y377028D01*
X433868Y377312D01*
X433868Y383287D01*
X433815Y383528D01*
X433868Y383812D01*
X433868Y389787D01*
X433815Y390028D01*
X433868Y390312D01*
X433868Y396287D01*
X433815Y396528D01*
X433868Y396812D01*
X433868Y402787D01*
X433815Y403028D01*
X433868Y403312D01*
X433868Y409287D01*
X433815Y409528D01*
X433868Y409812D01*
X433868Y415033D01*
X433915Y415296D01*
X434074Y415554D01*
X434322Y415730D01*
X434618Y415795D01*
X434916Y415739D01*
X435169Y415572D01*
X435705Y415036D01*
X439071Y415036D01*
X441452Y417417D01*
X441452Y420783D01*
X439071Y423164D01*
X435705Y423164D01*
X435169Y422628D01*
X434949Y422475D01*
X434654Y422405D01*
X434355Y422456D01*
X434100Y422620D01*
X433928Y422870D01*
X433868Y423167D01*
X433868Y428671D01*
X433158Y429381D01*
X433000Y429612D01*
X432935Y429908D01*
X432991Y430206D01*
X433158Y430459D01*
X433832Y431133D01*
X433832Y434499D01*
X432277Y436054D01*
X432114Y436296D01*
X432054Y436593D01*
X432054Y436613D01*
X432110Y436899D01*
X432277Y437152D01*
X433354Y438229D01*
X433354Y445691D01*
X432461Y446584D01*
X425414Y446584D01*
X425128Y446640D01*
X424875Y446807D01*
X424082Y447600D01*
X422880Y447600D01*
X422880Y436320D01*
X424082Y436320D01*
X424875Y437113D01*
X425117Y437276D01*
X425414Y437336D01*
X426701Y437336D01*
X426964Y437289D01*
X427222Y437130D01*
X427398Y436882D01*
X427463Y436586D01*
X427407Y436288D01*
X427240Y436035D01*
X425704Y434499D01*
X425704Y431133D01*
X425972Y430865D01*
X426125Y430645D01*
X426195Y430350D01*
X426144Y430051D01*
X425980Y429796D01*
X425730Y429624D01*
X425433Y429564D01*
X416963Y429564D01*
X416591Y429192D01*
X416371Y429039D01*
X416076Y428969D01*
X415777Y429020D01*
X415522Y429184D01*
X415350Y429434D01*
X415290Y429731D01*
X415290Y435558D01*
X415341Y435833D01*
X415505Y436088D01*
X415755Y436260D01*
X416052Y436320D01*
X416680Y436320D01*
X416680Y447600D01*
X416097Y447600D01*
X415833Y447647D01*
X415575Y447806D01*
X415400Y448054D01*
X415335Y448350D01*
X415390Y448648D01*
X415558Y448901D01*
X462496Y495839D01*
X462737Y496002D01*
X463035Y496062D01*
X473387Y496062D01*
X481960Y504635D01*
X482190Y504793D01*
X482487Y504858D01*
X482785Y504802D01*
X483037Y504635D01*
X484201Y503471D01*
X488029Y501886D01*
X492171Y501886D01*
X495999Y503471D01*
X498929Y506401D01*
X500514Y510229D01*
X500514Y514371D01*
X498929Y518199D01*
X495999Y521129D01*
X492171Y522714D01*
X488029Y522714D01*
X484201Y521129D01*
X481271Y518199D01*
X479686Y514371D01*
X479686Y510229D01*
X479902Y509708D01*
X479960Y509428D01*
X479904Y509130D01*
X479737Y508877D01*
X471716Y500857D01*
X471475Y500694D01*
X471177Y500634D01*
X467580Y500634D01*
X467322Y500679D01*
X467063Y500836D01*
X466885Y501082D01*
X466818Y501378D01*
X466871Y501676D01*
X467037Y501931D01*
X467288Y502100D01*
X470599Y503471D01*
X473529Y506401D01*
X475114Y510229D01*
X475114Y514371D01*
X473529Y518199D01*
X470599Y521129D01*
X466771Y522714D01*
X462629Y522714D01*
X458801Y521129D01*
X455871Y518199D01*
X454286Y514371D01*
X454286Y510229D01*
X455871Y506401D01*
X458407Y503865D01*
X458565Y503635D01*
X458630Y503339D01*
X458574Y503041D01*
X458407Y502788D01*
X407670Y452051D01*
X407670Y432555D01*
X407614Y432269D01*
X407447Y432016D01*
X396196Y420765D01*
X396020Y420642D01*
X396020Y420620D01*
X395988Y420620D01*
X395976Y420612D01*
X395681Y420542D01*
X395382Y420593D01*
X395340Y420620D01*
X375065Y420620D01*
X375065Y419568D01*
X376553Y418080D01*
X381537Y418080D01*
X381800Y418033D01*
X382058Y417874D01*
X382234Y417626D01*
X382299Y417330D01*
X382243Y417032D01*
X382076Y416779D01*
X379984Y414687D01*
X379984Y411321D01*
X382365Y408940D01*
X384563Y408940D01*
X384849Y408884D01*
X385102Y408717D01*
X388925Y404894D01*
X389083Y404664D01*
X389148Y404367D01*
X389093Y404069D01*
X388925Y403816D01*
X387604Y402495D01*
X387604Y402329D01*
X387557Y402065D01*
X387398Y401807D01*
X387150Y401632D01*
X386854Y401567D01*
X386556Y401622D01*
X386303Y401790D01*
X353283Y434810D01*
X353120Y435051D01*
X353060Y435349D01*
X353060Y437547D01*
X350679Y439928D01*
X350513Y439928D01*
X350249Y439975D01*
X349991Y440134D01*
X349816Y440382D01*
X349751Y440678D01*
X349806Y440976D01*
X349974Y441229D01*
X352806Y444061D01*
X352806Y467139D01*
X352862Y467425D01*
X353029Y467678D01*
X354584Y469233D01*
X354584Y472599D01*
X352203Y474980D01*
X352037Y474980D01*
X351773Y475027D01*
X351515Y475186D01*
X351340Y475434D01*
X351275Y475730D01*
X351330Y476028D01*
X351498Y476281D01*
X360388Y485171D01*
X360629Y485334D01*
X360927Y485394D01*
X375384Y485394D01*
X375647Y485347D01*
X375905Y485188D01*
X376081Y484940D01*
X376146Y484644D01*
X376090Y484346D01*
X376081Y484332D01*
X376081Y478373D01*
X376134Y478132D01*
X376081Y477848D01*
X376081Y471873D01*
X376134Y471632D01*
X376081Y471348D01*
X376081Y465373D01*
X376134Y465132D01*
X376081Y464848D01*
X376081Y458873D01*
X376134Y458632D01*
X376081Y458348D01*
X376081Y452373D01*
X376134Y452132D01*
X376081Y451848D01*
X376081Y445873D01*
X376134Y445632D01*
X376081Y445348D01*
X376081Y439373D01*
X376134Y439132D01*
X376081Y438848D01*
X376081Y432873D01*
X376134Y432632D01*
X376081Y432348D01*
X376081Y427504D01*
X376025Y427218D01*
X375858Y426965D01*
X375065Y426172D01*
X375065Y425120D01*
X394895Y425120D01*
X394895Y426172D01*
X394102Y426965D01*
X393939Y427207D01*
X393879Y427504D01*
X393879Y432367D01*
X393826Y432608D01*
X393879Y432892D01*
X393879Y438867D01*
X393826Y439108D01*
X393879Y439392D01*
X393879Y445367D01*
X393826Y445608D01*
X393879Y445892D01*
X393879Y451867D01*
X393826Y452108D01*
X393879Y452392D01*
X393879Y458367D01*
X393826Y458608D01*
X393879Y458892D01*
X393879Y464867D01*
X393826Y465108D01*
X393879Y465392D01*
X393879Y468738D01*
X393926Y469001D01*
X394085Y469259D01*
X394333Y469435D01*
X394629Y469500D01*
X394927Y469444D01*
X395180Y469277D01*
X396081Y468376D01*
X399447Y468376D01*
X401828Y470757D01*
X401828Y474123D01*
X399447Y476504D01*
X397249Y476504D01*
X396963Y476560D01*
X396710Y476727D01*
X395663Y477774D01*
X394641Y477774D01*
X394366Y477825D01*
X394111Y477989D01*
X393939Y478239D01*
X393879Y478536D01*
X393879Y484334D01*
X393814Y484608D01*
X393865Y484907D01*
X394029Y485162D01*
X394279Y485334D01*
X394576Y485394D01*
X396501Y485394D01*
X396787Y485338D01*
X397040Y485171D01*
X399573Y482638D01*
X399736Y482397D01*
X399796Y482099D01*
X399796Y479901D01*
X402177Y477520D01*
X405543Y477520D01*
X407924Y479901D01*
X407924Y483267D01*
X405543Y485648D01*
X403345Y485648D01*
X403059Y485704D01*
X402806Y485871D01*
X398711Y489966D01*
X358717Y489966D01*
X351313Y482562D01*
X351093Y482409D01*
X350798Y482339D01*
X350499Y482390D01*
X350244Y482553D01*
X350072Y482803D01*
X350012Y483101D01*
X350012Y483267D01*
X347631Y485648D01*
X347465Y485648D01*
X347201Y485695D01*
X346943Y485854D01*
X346768Y486102D01*
X346703Y486398D01*
X346758Y486696D01*
X346926Y486949D01*
X352514Y492537D01*
X352755Y492700D01*
X353053Y492760D01*
X353727Y492760D01*
X356108Y495141D01*
X356108Y495307D01*
X356155Y495571D01*
X356314Y495829D01*
X356562Y496004D01*
X356858Y496069D01*
X356897Y496062D01*
X397187Y496062D01*
X405760Y504635D01*
X405990Y504793D01*
X406287Y504858D01*
X406585Y504802D01*
X406837Y504635D01*
X408001Y503471D01*
X411829Y501886D01*
X415971Y501886D01*
X419799Y503471D01*
X422729Y506401D01*
X424314Y510229D01*
X424314Y514371D01*
X422729Y518199D01*
X419799Y521129D01*
X415971Y522714D01*
X411829Y522714D01*
X408001Y521129D01*
X405071Y518199D01*
X403486Y514371D01*
X403486Y510229D01*
X403702Y509708D01*
X403760Y509428D01*
X403704Y509130D01*
X403537Y508877D01*
X395516Y500857D01*
X395275Y500694D01*
X394977Y500634D01*
X391380Y500634D01*
X391122Y500679D01*
X390863Y500836D01*
X390685Y501082D01*
X390618Y501378D01*
X390671Y501676D01*
X390837Y501931D01*
X391088Y502100D01*
X394399Y503471D01*
X397329Y506401D01*
X398914Y510229D01*
X398914Y514371D01*
X397329Y518199D01*
X394399Y521129D01*
X390571Y522714D01*
X386429Y522714D01*
X382601Y521129D01*
X379671Y518199D01*
X378086Y514371D01*
X378086Y510229D01*
X379671Y506401D01*
X382601Y503471D01*
X385912Y502100D01*
X386133Y501960D01*
X386312Y501715D01*
X386382Y501420D01*
X386331Y501121D01*
X386168Y500866D01*
X385918Y500694D01*
X385620Y500634D01*
X365980Y500634D01*
X365722Y500679D01*
X365463Y500836D01*
X365285Y501082D01*
X365218Y501378D01*
X365271Y501676D01*
X365437Y501931D01*
X365688Y502100D01*
X368999Y503471D01*
X371929Y506401D01*
X373514Y510229D01*
X373514Y514371D01*
X371929Y518199D01*
X368999Y521129D01*
X365171Y522714D01*
X361029Y522714D01*
X357201Y521129D01*
X354271Y518199D01*
X352686Y514371D01*
X352686Y510229D01*
X354318Y506288D01*
X354319Y506287D01*
X354319Y506287D01*
X354329Y506261D01*
X354325Y506259D01*
X354388Y505992D01*
X354338Y505693D01*
X354174Y505438D01*
X353924Y505266D01*
X353627Y505206D01*
X349573Y505206D01*
X345224Y500857D01*
X344983Y500694D01*
X344685Y500634D01*
X340580Y500634D01*
X340322Y500679D01*
X340063Y500836D01*
X339885Y501082D01*
X339818Y501378D01*
X339871Y501676D01*
X340037Y501931D01*
X340288Y502100D01*
X343599Y503471D01*
X346529Y506401D01*
X348114Y510229D01*
X348114Y514371D01*
X346529Y518199D01*
X343599Y521129D01*
X339771Y522714D01*
X335629Y522714D01*
X334918Y522420D01*
X334639Y522362D01*
X334341Y522418D01*
X334088Y522585D01*
X327121Y529552D01*
X326958Y529793D01*
X326898Y530091D01*
X326898Y532734D01*
X326943Y532992D01*
X327100Y533251D01*
X327346Y533429D01*
X327642Y533496D01*
X327940Y533443D01*
X328195Y533278D01*
X328364Y533026D01*
X328871Y531801D01*
X331801Y528871D01*
X335629Y527286D01*
X339771Y527286D01*
X343599Y528871D01*
X346529Y531801D01*
X348114Y535629D01*
X348114Y539771D01*
X346529Y543599D01*
X343599Y546529D01*
X339771Y548114D01*
X335629Y548114D01*
X331801Y546529D01*
X328871Y543599D01*
X328364Y542374D01*
X328224Y542153D01*
X327979Y541974D01*
X327684Y541904D01*
X327385Y541955D01*
X327130Y542118D01*
X326958Y542368D01*
X326898Y542666D01*
X326898Y545015D01*
X325851Y546062D01*
X325688Y546303D01*
X325628Y546601D01*
X325628Y548799D01*
X323247Y551180D01*
X319881Y551180D01*
X317500Y548799D01*
X317500Y547959D01*
X317451Y547690D01*
X317290Y547433D01*
X317041Y547259D01*
X316744Y547197D01*
X316446Y547255D01*
X314371Y548114D01*
X310229Y548114D01*
X306401Y546529D01*
X303471Y543599D01*
X301886Y539771D01*
X301886Y535629D01*
X303214Y532422D01*
X303272Y532154D01*
X303221Y531855D01*
X303058Y531600D01*
X302808Y531428D01*
X302510Y531368D01*
X301593Y531368D01*
X299212Y528987D01*
X299212Y525621D01*
X301593Y523240D01*
X304959Y523240D01*
X304990Y523271D01*
X305232Y523434D01*
X305529Y523494D01*
X308281Y523494D01*
X308538Y523449D01*
X308798Y523292D01*
X308975Y523046D01*
X309043Y522750D01*
X308989Y522452D01*
X308824Y522198D01*
X308572Y522028D01*
X306401Y521129D01*
X303985Y518713D01*
X303755Y518555D01*
X303459Y518490D01*
X303161Y518546D01*
X302908Y518713D01*
X295117Y526504D01*
X293408Y528213D01*
X293312Y528272D01*
X293136Y528520D01*
X293071Y528816D01*
X293127Y529114D01*
X293294Y529367D01*
X295729Y531801D01*
X297314Y535629D01*
X297314Y539771D01*
X295729Y543599D01*
X292799Y546529D01*
X288971Y548114D01*
X284829Y548114D01*
X281001Y546529D01*
X278071Y543598D01*
X277932Y543380D01*
X277687Y543200D01*
X277392Y543130D01*
X277093Y543181D01*
X276838Y543345D01*
X276666Y543595D01*
X276606Y543892D01*
X276606Y545015D01*
X267647Y553974D01*
X102685Y553974D01*
X96805Y548094D01*
X96585Y547941D01*
X96290Y547871D01*
X95991Y547922D01*
X95736Y548085D01*
X95564Y548335D01*
X95504Y548633D01*
X95504Y550323D01*
X93123Y552704D01*
X90925Y552704D01*
X90639Y552760D01*
X90386Y552927D01*
X89339Y553974D01*
X76929Y553974D01*
X76643Y554030D01*
X76390Y554197D01*
X75698Y554889D01*
X75545Y555109D01*
X75475Y555404D01*
X75526Y555703D01*
X75690Y555958D01*
X75940Y556130D01*
X76237Y556190D01*
X400775Y556190D01*
X401038Y556143D01*
X401296Y555984D01*
X401472Y555736D01*
X401537Y555440D01*
X401481Y555142D01*
X401314Y554889D01*
X400622Y554197D01*
X400380Y554034D01*
X400083Y553974D01*
X357193Y553974D01*
X354602Y551383D01*
X354372Y551225D01*
X354075Y551160D01*
X353777Y551215D01*
X353524Y551383D01*
X352203Y552704D01*
X348837Y552704D01*
X346456Y550323D01*
X346456Y546957D01*
X348837Y544576D01*
X352203Y544576D01*
X353758Y546131D01*
X354000Y546294D01*
X354297Y546354D01*
X355187Y546354D01*
X355450Y546307D01*
X355708Y546148D01*
X355884Y545900D01*
X355949Y545604D01*
X355893Y545306D01*
X355726Y545053D01*
X354271Y543599D01*
X352686Y539771D01*
X352686Y535629D01*
X354271Y531801D01*
X357201Y528871D01*
X361029Y527286D01*
X365171Y527286D01*
X368999Y528871D01*
X371929Y531801D01*
X373514Y535629D01*
X373514Y539771D01*
X371929Y543599D01*
X368999Y546529D01*
X365601Y547936D01*
X365380Y548076D01*
X365201Y548321D01*
X365131Y548616D01*
X365182Y548915D01*
X365345Y549170D01*
X365596Y549342D01*
X365893Y549402D01*
X385707Y549402D01*
X385965Y549357D01*
X386224Y549200D01*
X386402Y548954D01*
X386469Y548658D01*
X386416Y548360D01*
X386250Y548106D01*
X385999Y547936D01*
X382601Y546529D01*
X379671Y543599D01*
X378086Y539771D01*
X378086Y535629D01*
X379671Y531801D01*
X382601Y528871D01*
X386429Y527286D01*
X390571Y527286D01*
X394399Y528871D01*
X397329Y531801D01*
X398914Y535629D01*
X398914Y539771D01*
X397329Y543599D01*
X394399Y546529D01*
X391001Y547936D01*
X390780Y548076D01*
X390601Y548321D01*
X390531Y548616D01*
X390582Y548915D01*
X390745Y549170D01*
X390996Y549342D01*
X391293Y549402D01*
X400083Y549402D01*
X400369Y549346D01*
X400622Y549179D01*
X402177Y547624D01*
X405543Y547624D01*
X407924Y550005D01*
X407924Y553371D01*
X406406Y554889D01*
X406253Y555109D01*
X406183Y555404D01*
X406234Y555703D01*
X406398Y555958D01*
X406648Y556130D01*
X406945Y556190D01*
X620000Y556190D01*
X620119Y556181D01*
X627977Y554936D01*
X628204Y554862D01*
X635292Y551251D01*
X635485Y551111D01*
X641111Y545485D01*
X641251Y545292D01*
X644862Y538204D01*
X644936Y537977D01*
X646181Y530119D01*
X646190Y530000D01*
X646190Y30000D01*
X646181Y29881D01*
X644936Y22023D01*
X644862Y21796D01*
X641251Y14708D01*
X641111Y14515D01*
X635485Y8890D01*
X635292Y8749D01*
X628204Y5138D01*
X627977Y5064D01*
X620119Y3819D01*
X620000Y3810D01*
X466238Y3810D01*
X466076Y3827D01*
X465799Y3949D01*
X465591Y4170D01*
X465485Y4455D01*
X465499Y4757D01*
X465630Y5031D01*
X465857Y5232D01*
X468081Y6516D01*
X472969Y11404D01*
X476426Y17391D01*
X478120Y23715D01*
X425800Y23715D01*
X427494Y17391D01*
X430951Y11404D01*
X435839Y6516D01*
X438063Y5232D01*
X438194Y5136D01*
X438374Y4891D01*
X438443Y4596D01*
X438393Y4297D01*
X438229Y4042D01*
X437979Y3870D01*
G37*
%LPC*%
G36*
X538829Y527286D02*
X542971Y527286D01*
X546799Y528871D01*
X549729Y531801D01*
X551314Y535629D01*
X551314Y539771D01*
X549729Y543599D01*
X546799Y546529D01*
X542971Y548114D01*
X538829Y548114D01*
X535001Y546529D01*
X532071Y543599D01*
X530486Y539771D01*
X530486Y535629D01*
X532071Y531801D01*
X535001Y528871D01*
X538829Y527286D01*
G37*
G36*
X513429Y527286D02*
X517571Y527286D01*
X521399Y528871D01*
X524329Y531801D01*
X525914Y535629D01*
X525914Y539771D01*
X524329Y543599D01*
X521399Y546529D01*
X517571Y548114D01*
X513429Y548114D01*
X509601Y546529D01*
X506671Y543599D01*
X505086Y539771D01*
X505086Y535629D01*
X506671Y531801D01*
X509601Y528871D01*
X513429Y527286D01*
G37*
G36*
X437229Y527286D02*
X441371Y527286D01*
X445199Y528871D01*
X448129Y531801D01*
X449714Y535629D01*
X449714Y539771D01*
X448129Y543599D01*
X445199Y546529D01*
X441371Y548114D01*
X437229Y548114D01*
X433401Y546529D01*
X430471Y543599D01*
X428886Y539771D01*
X428886Y535629D01*
X430471Y531801D01*
X433401Y528871D01*
X437229Y527286D01*
G37*
G36*
X462629Y527286D02*
X466771Y527286D01*
X470599Y528871D01*
X473529Y531801D01*
X475114Y535629D01*
X475114Y539771D01*
X473529Y543599D01*
X470599Y546529D01*
X466771Y548114D01*
X462629Y548114D01*
X458801Y546529D01*
X455871Y543599D01*
X454286Y539771D01*
X454286Y535629D01*
X455871Y531801D01*
X458801Y528871D01*
X462629Y527286D01*
G37*
G36*
X411829Y527286D02*
X415971Y527286D01*
X419799Y528871D01*
X422729Y531801D01*
X424314Y535629D01*
X424314Y539771D01*
X422729Y543599D01*
X419799Y546529D01*
X415971Y548114D01*
X411829Y548114D01*
X408001Y546529D01*
X405071Y543599D01*
X403486Y539771D01*
X403486Y535629D01*
X405071Y531801D01*
X408001Y528871D01*
X411829Y527286D01*
G37*
G36*
X564229Y527286D02*
X568371Y527286D01*
X572199Y528871D01*
X575129Y531801D01*
X576714Y535629D01*
X576714Y539771D01*
X575129Y543599D01*
X572199Y546529D01*
X568371Y548114D01*
X564229Y548114D01*
X560401Y546529D01*
X557471Y543599D01*
X555886Y539771D01*
X555886Y535629D01*
X557471Y531801D01*
X560401Y528871D01*
X564229Y527286D01*
G37*
G36*
X488029Y527286D02*
X492171Y527286D01*
X495999Y528871D01*
X498929Y531801D01*
X500514Y535629D01*
X500514Y539771D01*
X498929Y543599D01*
X495999Y546529D01*
X492171Y548114D01*
X488029Y548114D01*
X484201Y546529D01*
X481271Y543599D01*
X479686Y539771D01*
X479686Y535629D01*
X481271Y531801D01*
X484201Y528871D01*
X488029Y527286D01*
G37*
G36*
X611507Y507440D02*
X618493Y507440D01*
X624947Y510113D01*
X629887Y515053D01*
X632560Y521507D01*
X632560Y528493D01*
X629887Y534947D01*
X624947Y539887D01*
X618493Y542560D01*
X611507Y542560D01*
X605053Y539887D01*
X600113Y534947D01*
X597440Y528493D01*
X597440Y521507D01*
X600113Y515053D01*
X605053Y510113D01*
X611507Y507440D01*
G37*
G36*
X437229Y501886D02*
X441371Y501886D01*
X445199Y503471D01*
X448129Y506401D01*
X449714Y510229D01*
X449714Y514371D01*
X448129Y518199D01*
X445199Y521129D01*
X441371Y522714D01*
X437229Y522714D01*
X433401Y521129D01*
X430471Y518199D01*
X428886Y514371D01*
X428886Y510229D01*
X430471Y506401D01*
X433401Y503471D01*
X437229Y501886D01*
G37*
G36*
X538829Y501886D02*
X542971Y501886D01*
X546799Y503471D01*
X549729Y506401D01*
X551314Y510229D01*
X551314Y514371D01*
X549729Y518199D01*
X546799Y521129D01*
X542971Y522714D01*
X538829Y522714D01*
X535001Y521129D01*
X532071Y518199D01*
X530486Y514371D01*
X530486Y510229D01*
X532071Y506401D01*
X535001Y503471D01*
X538829Y501886D01*
G37*
G36*
X513429Y501886D02*
X517571Y501886D01*
X521399Y503471D01*
X524329Y506401D01*
X525914Y510229D01*
X525914Y514371D01*
X524329Y518199D01*
X521399Y521129D01*
X517571Y522714D01*
X513429Y522714D01*
X509601Y521129D01*
X506671Y518199D01*
X505086Y514371D01*
X505086Y510229D01*
X506671Y506401D01*
X509601Y503471D01*
X513429Y501886D01*
G37*
G36*
X564229Y501886D02*
X568371Y501886D01*
X572199Y503471D01*
X575129Y506401D01*
X576714Y510229D01*
X576714Y514371D01*
X575129Y518199D01*
X572199Y521129D01*
X568371Y522714D01*
X564229Y522714D01*
X560401Y521129D01*
X557471Y518199D01*
X555886Y514371D01*
X555886Y510229D01*
X557471Y506401D01*
X560401Y503471D01*
X564229Y501886D01*
G37*
G36*
X563361Y384302D02*
X566939Y384302D01*
X569468Y386831D01*
X569468Y390409D01*
X569437Y390439D01*
X569274Y390681D01*
X569214Y390978D01*
X569214Y418991D01*
X569270Y419277D01*
X569437Y419530D01*
X593245Y443338D01*
X593481Y443498D01*
X593778Y443561D01*
X594076Y443503D01*
X595927Y442736D01*
X600413Y442736D01*
X604556Y444452D01*
X607728Y447624D01*
X609444Y451767D01*
X609444Y456253D01*
X607728Y460396D01*
X604556Y463568D01*
X600413Y465284D01*
X595927Y465284D01*
X591784Y463568D01*
X588612Y460396D01*
X586896Y456253D01*
X586896Y451767D01*
X587663Y449916D01*
X587721Y449636D01*
X587665Y449338D01*
X587498Y449085D01*
X561086Y422673D01*
X561086Y390978D01*
X561030Y390692D01*
X560863Y390439D01*
X560832Y390409D01*
X560832Y386831D01*
X563361Y384302D01*
G37*
G36*
X435930Y452120D02*
X440160Y452120D01*
X440160Y459600D01*
X437418Y459600D01*
X435930Y458112D01*
X435930Y452120D01*
G37*
G36*
X447780Y452120D02*
X452010Y452120D01*
X452010Y458112D01*
X450522Y459600D01*
X447780Y459600D01*
X447780Y452120D01*
G37*
G36*
X386609Y277446D02*
X405871Y277446D01*
X406764Y278339D01*
X406764Y278384D01*
X406815Y278659D01*
X406979Y278914D01*
X407229Y279086D01*
X407526Y279146D01*
X435506Y279146D01*
X435798Y279088D01*
X435933Y279032D01*
X444910Y279032D01*
X446871Y279844D01*
X462252Y295225D01*
X462482Y295383D01*
X462779Y295448D01*
X463077Y295393D01*
X463330Y295225D01*
X464079Y294476D01*
X483341Y294476D01*
X484234Y295369D01*
X484234Y307131D01*
X483341Y308024D01*
X464079Y308024D01*
X463137Y307082D01*
X463135Y307071D01*
X462971Y306816D01*
X462721Y306644D01*
X462424Y306584D01*
X459672Y306584D01*
X457712Y305772D01*
X457165Y305225D01*
X456945Y305072D01*
X456650Y305002D01*
X456351Y305053D01*
X456096Y305216D01*
X455924Y305466D01*
X455864Y305764D01*
X455864Y320531D01*
X454971Y321424D01*
X452299Y321424D01*
X452035Y321471D01*
X451777Y321630D01*
X451602Y321878D01*
X451537Y322174D01*
X451592Y322472D01*
X451760Y322725D01*
X463296Y334261D01*
X463296Y339494D01*
X463352Y339780D01*
X463519Y340033D01*
X466456Y342970D01*
X466687Y343128D01*
X466983Y343193D01*
X467281Y343137D01*
X467534Y342970D01*
X470235Y340268D01*
X474068Y340268D01*
X474343Y340217D01*
X474598Y340053D01*
X474770Y339803D01*
X474830Y339506D01*
X474830Y338409D01*
X475723Y337516D01*
X482877Y337516D01*
X483163Y337460D01*
X483416Y337293D01*
X496101Y324608D01*
X496264Y324366D01*
X496307Y324152D01*
X499895Y320564D01*
X515145Y320564D01*
X518716Y324135D01*
X518716Y324374D01*
X518767Y324649D01*
X518931Y324904D01*
X519181Y325076D01*
X519478Y325136D01*
X529451Y325136D01*
X530344Y326029D01*
X530344Y341991D01*
X529451Y342884D01*
X528656Y342884D01*
X528381Y342935D01*
X528126Y343099D01*
X527954Y343349D01*
X527894Y343646D01*
X527894Y354581D01*
X527001Y355474D01*
X524972Y355474D01*
X524686Y355530D01*
X524433Y355697D01*
X522911Y357219D01*
X522758Y357439D01*
X522688Y357734D01*
X522739Y358033D01*
X522902Y358288D01*
X523152Y358460D01*
X523450Y358520D01*
X527422Y358520D01*
X528910Y360008D01*
X528910Y362110D01*
X519070Y362110D01*
X519070Y373000D01*
X518018Y373000D01*
X516530Y371512D01*
X516530Y365440D01*
X516483Y365176D01*
X516324Y364918D01*
X516076Y364743D01*
X515780Y364678D01*
X515482Y364733D01*
X515229Y364901D01*
X514077Y366053D01*
X513914Y366294D01*
X513854Y366592D01*
X513854Y398148D01*
X513042Y400108D01*
X512751Y400399D01*
X512598Y400619D01*
X512528Y400914D01*
X512579Y401213D01*
X512742Y401468D01*
X512992Y401640D01*
X513290Y401700D01*
X519802Y401700D01*
X521290Y403188D01*
X521290Y405290D01*
X511450Y405290D01*
X511450Y416180D01*
X510398Y416180D01*
X508910Y414692D01*
X508910Y406080D01*
X508863Y405816D01*
X508704Y405558D01*
X508456Y405383D01*
X508160Y405318D01*
X507862Y405373D01*
X507609Y405541D01*
X506312Y406838D01*
X506152Y407074D01*
X506089Y407371D01*
X506147Y407668D01*
X506234Y407879D01*
X506234Y410001D01*
X506132Y410247D01*
X506074Y410539D01*
X506074Y414271D01*
X505181Y415164D01*
X500126Y415164D01*
X499851Y415215D01*
X499596Y415379D01*
X499424Y415629D01*
X499364Y415926D01*
X499364Y419259D01*
X496983Y421640D01*
X494406Y421640D01*
X494131Y421691D01*
X493876Y421855D01*
X493704Y422105D01*
X493644Y422402D01*
X493644Y423540D01*
X481479Y423540D01*
X481479Y430580D01*
X476018Y430580D01*
X475743Y430631D01*
X475488Y430795D01*
X475316Y431045D01*
X475256Y431342D01*
X475256Y437274D01*
X475307Y437549D01*
X475471Y437804D01*
X475721Y437976D01*
X476018Y438036D01*
X479101Y438036D01*
X479994Y438929D01*
X479994Y457691D01*
X479101Y458584D01*
X466839Y458584D01*
X465946Y457691D01*
X465946Y438929D01*
X466839Y438036D01*
X469922Y438036D01*
X470197Y437985D01*
X470452Y437821D01*
X470624Y437571D01*
X470684Y437274D01*
X470684Y412742D01*
X470633Y412467D01*
X470469Y412212D01*
X470219Y412040D01*
X469922Y411980D01*
X458159Y411980D01*
X458159Y355100D01*
X466287Y355100D01*
X466562Y355049D01*
X466817Y354885D01*
X466989Y354635D01*
X467049Y354338D01*
X467049Y350344D01*
X466993Y350058D01*
X466826Y349805D01*
X458723Y341703D01*
X458493Y341545D01*
X458197Y341480D01*
X457899Y341535D01*
X457756Y341630D01*
X454141Y341630D01*
X454111Y341599D01*
X453869Y341436D01*
X453572Y341376D01*
X442300Y341376D01*
X440187Y339263D01*
X439946Y339100D01*
X439648Y339040D01*
X414313Y339040D01*
X397490Y322217D01*
X397248Y322054D01*
X396951Y321994D01*
X386609Y321994D01*
X385716Y321101D01*
X385716Y309483D01*
X385660Y309197D01*
X385493Y308944D01*
X383032Y306483D01*
X383032Y304285D01*
X382976Y303999D01*
X382809Y303746D01*
X366814Y287751D01*
X366573Y287588D01*
X366275Y287528D01*
X364077Y287528D01*
X361696Y285147D01*
X361696Y281781D01*
X364077Y279400D01*
X367443Y279400D01*
X369824Y281781D01*
X369824Y283979D01*
X369880Y284265D01*
X370047Y284518D01*
X386042Y300513D01*
X386283Y300676D01*
X386581Y300736D01*
X388779Y300736D01*
X391160Y303117D01*
X391160Y306483D01*
X390498Y307145D01*
X390345Y307365D01*
X390275Y307660D01*
X390326Y307959D01*
X390490Y308214D01*
X390740Y308386D01*
X391037Y308446D01*
X405871Y308446D01*
X406764Y309339D01*
X406764Y319681D01*
X406820Y319967D01*
X406987Y320220D01*
X417456Y330689D01*
X417698Y330852D01*
X417995Y330912D01*
X443331Y330912D01*
X445444Y333025D01*
X445685Y333188D01*
X445982Y333248D01*
X453572Y333248D01*
X453858Y333192D01*
X454111Y333025D01*
X454314Y332822D01*
X454472Y332591D01*
X454537Y332295D01*
X454481Y331997D01*
X454314Y331744D01*
X446554Y323985D01*
X446554Y322186D01*
X446503Y321911D01*
X446339Y321656D01*
X446089Y321484D01*
X445792Y321424D01*
X442709Y321424D01*
X441816Y320531D01*
X441816Y301769D01*
X442709Y300876D01*
X450976Y300876D01*
X451240Y300829D01*
X451498Y300670D01*
X451673Y300422D01*
X451738Y300126D01*
X451683Y299828D01*
X451515Y299575D01*
X441863Y289923D01*
X441622Y289760D01*
X441324Y289700D01*
X438368Y289700D01*
X438076Y289758D01*
X437941Y289814D01*
X407367Y289814D01*
X407081Y289870D01*
X406828Y290037D01*
X405871Y290994D01*
X386609Y290994D01*
X385716Y290101D01*
X385716Y278339D01*
X386609Y277446D01*
G37*
G36*
X447780Y437020D02*
X450522Y437020D01*
X452010Y438508D01*
X452010Y444500D01*
X447780Y444500D01*
X447780Y437020D01*
G37*
G36*
X437418Y437020D02*
X440160Y437020D01*
X440160Y444500D01*
X435930Y444500D01*
X435930Y438508D01*
X437418Y437020D01*
G37*
G36*
X485979Y428040D02*
X493644Y428040D01*
X493644Y429092D01*
X492156Y430580D01*
X485979Y430580D01*
X485979Y428040D01*
G37*
G36*
X518750Y412590D02*
X521290Y412590D01*
X521290Y414692D01*
X519802Y416180D01*
X518750Y416180D01*
X518750Y412590D01*
G37*
G36*
X595927Y392736D02*
X600413Y392736D01*
X604556Y394452D01*
X607728Y397624D01*
X609444Y401767D01*
X609444Y406253D01*
X607728Y410396D01*
X604556Y413568D01*
X600413Y415284D01*
X595927Y415284D01*
X591784Y413568D01*
X588612Y410396D01*
X586896Y406253D01*
X586896Y401767D01*
X588612Y397624D01*
X591784Y394452D01*
X595927Y392736D01*
G37*
G36*
X437797Y355100D02*
X450539Y355100D01*
X450539Y411980D01*
X437797Y411980D01*
X436309Y410492D01*
X436309Y356588D01*
X437797Y355100D01*
G37*
G36*
X526370Y369410D02*
X528910Y369410D01*
X528910Y371512D01*
X527422Y373000D01*
X526370Y373000D01*
X526370Y369410D01*
G37*
G36*
X595927Y342736D02*
X600413Y342736D01*
X604556Y344452D01*
X607728Y347624D01*
X609444Y351767D01*
X609444Y356253D01*
X607728Y360396D01*
X604556Y363568D01*
X600413Y365284D01*
X595927Y365284D01*
X591784Y363568D01*
X588612Y360396D01*
X586896Y356253D01*
X586896Y351767D01*
X588612Y347624D01*
X591784Y344452D01*
X595927Y342736D01*
G37*
G36*
X423650Y314960D02*
X427880Y314960D01*
X427880Y320952D01*
X426392Y322440D01*
X423650Y322440D01*
X423650Y314960D01*
G37*
G36*
X411800Y314960D02*
X416030Y314960D01*
X416030Y322440D01*
X413288Y322440D01*
X411800Y320952D01*
X411800Y314960D01*
G37*
G36*
X595927Y292736D02*
X600413Y292736D01*
X604556Y294452D01*
X607728Y297624D01*
X609444Y301767D01*
X609444Y306253D01*
X607728Y310396D01*
X604556Y313568D01*
X600413Y315284D01*
X595927Y315284D01*
X591784Y313568D01*
X588612Y310396D01*
X586896Y306253D01*
X586896Y301767D01*
X588612Y297624D01*
X591784Y294452D01*
X595927Y292736D01*
G37*
G36*
X423650Y299860D02*
X426392Y299860D01*
X427880Y301348D01*
X427880Y307340D01*
X423650Y307340D01*
X423650Y299860D01*
G37*
G36*
X413288Y299860D02*
X416030Y299860D01*
X416030Y307340D01*
X411800Y307340D01*
X411800Y301348D01*
X413288Y299860D01*
G37*
G36*
X67906Y264780D02*
X68420Y264780D01*
X68420Y267320D01*
X65580Y267320D01*
X65580Y267106D01*
X67906Y264780D01*
G37*
G36*
X73820Y264780D02*
X74334Y264780D01*
X76660Y267106D01*
X76660Y267320D01*
X73820Y267320D01*
X73820Y264780D01*
G37*
G36*
X595927Y242736D02*
X600413Y242736D01*
X604556Y244452D01*
X607728Y247624D01*
X609444Y251767D01*
X609444Y256253D01*
X607728Y260396D01*
X604556Y263568D01*
X600413Y265284D01*
X595927Y265284D01*
X591784Y263568D01*
X588612Y260396D01*
X586896Y256253D01*
X586896Y251767D01*
X588612Y247624D01*
X591784Y244452D01*
X595927Y242736D01*
G37*
G36*
X435594Y253776D02*
X439824Y253776D01*
X439824Y261256D01*
X437082Y261256D01*
X435594Y259768D01*
X435594Y253776D01*
G37*
G36*
X447444Y253776D02*
X451674Y253776D01*
X451674Y259768D01*
X450186Y261256D01*
X447444Y261256D01*
X447444Y253776D01*
G37*
G36*
X253929Y239132D02*
X257071Y239132D01*
X259974Y240335D01*
X262196Y242557D01*
X263399Y245460D01*
X263399Y248602D01*
X262196Y251505D01*
X259974Y253727D01*
X257071Y254930D01*
X253929Y254930D01*
X251026Y253727D01*
X248804Y251505D01*
X247601Y248602D01*
X247601Y245460D01*
X248804Y242557D01*
X251026Y240335D01*
X253929Y239132D01*
G37*
G36*
X140067Y39878D02*
X144413Y39878D01*
X148427Y41541D01*
X151499Y44613D01*
X153162Y48627D01*
X153162Y52973D01*
X151741Y56403D01*
X151683Y56682D01*
X151739Y56981D01*
X151906Y57233D01*
X217132Y122459D01*
X217373Y122622D01*
X217671Y122682D01*
X243317Y122682D01*
X243580Y122635D01*
X243838Y122476D01*
X244014Y122228D01*
X244079Y121932D01*
X244023Y121634D01*
X243856Y121381D01*
X243786Y121311D01*
X243786Y116049D01*
X244616Y115219D01*
X244774Y114988D01*
X244839Y114692D01*
X244783Y114394D01*
X244616Y114141D01*
X244236Y113761D01*
X243994Y113598D01*
X243697Y113538D01*
X241369Y113538D01*
X235458Y107627D01*
X235458Y79751D01*
X235413Y79493D01*
X235256Y79234D01*
X235010Y79056D01*
X234714Y78989D01*
X234416Y79042D01*
X234162Y79207D01*
X233992Y79459D01*
X232779Y82387D01*
X229707Y85459D01*
X225693Y87122D01*
X221347Y87122D01*
X217333Y85459D01*
X214261Y82387D01*
X212598Y78373D01*
X212598Y74027D01*
X214261Y70013D01*
X217333Y66941D01*
X221347Y65278D01*
X225693Y65278D01*
X226367Y65558D01*
X226623Y65615D01*
X226922Y65569D01*
X227180Y65409D01*
X227356Y65162D01*
X227421Y64866D01*
X227365Y64568D01*
X227198Y64315D01*
X224828Y61945D01*
X224587Y61782D01*
X224289Y61722D01*
X221347Y61722D01*
X217333Y60059D01*
X214261Y56987D01*
X212598Y52973D01*
X212598Y48627D01*
X214261Y44613D01*
X217333Y41541D01*
X221347Y39878D01*
X225693Y39878D01*
X229707Y41541D01*
X232779Y44613D01*
X234442Y48627D01*
X234442Y52973D01*
X232779Y56987D01*
X230096Y59670D01*
X229938Y59900D01*
X229873Y60196D01*
X229929Y60495D01*
X230096Y60747D01*
X240030Y70681D01*
X240030Y105417D01*
X240086Y105703D01*
X240253Y105956D01*
X242527Y108230D01*
X242757Y108388D01*
X243054Y108453D01*
X243352Y108398D01*
X243605Y108230D01*
X244616Y107219D01*
X244774Y106988D01*
X244839Y106692D01*
X244783Y106394D01*
X244616Y106141D01*
X243786Y105311D01*
X243786Y100049D01*
X244616Y99219D01*
X244774Y98988D01*
X244839Y98692D01*
X244783Y98394D01*
X244616Y98141D01*
X243786Y97311D01*
X243786Y92049D01*
X244679Y91156D01*
X254941Y91156D01*
X255834Y92049D01*
X255834Y97311D01*
X255004Y98141D01*
X254846Y98372D01*
X254781Y98668D01*
X254837Y98966D01*
X255004Y99219D01*
X255834Y100049D01*
X255834Y102933D01*
X255890Y103219D01*
X256057Y103472D01*
X257469Y104884D01*
X257689Y105037D01*
X257984Y105107D01*
X258283Y105056D01*
X258538Y104893D01*
X258684Y104680D01*
X272850Y104680D01*
X272850Y105732D01*
X272441Y106141D01*
X272283Y106372D01*
X272218Y106668D01*
X272273Y106966D01*
X272441Y107219D01*
X272850Y107628D01*
X272850Y108680D01*
X263810Y108680D01*
X263810Y112680D01*
X272850Y112680D01*
X272850Y113732D01*
X271723Y114860D01*
X271565Y115090D01*
X271499Y115386D01*
X271555Y115684D01*
X271723Y115937D01*
X271838Y116053D01*
X272069Y116211D01*
X272365Y116276D01*
X272663Y116220D01*
X272916Y116053D01*
X274161Y114808D01*
X277527Y114808D01*
X279908Y117189D01*
X279908Y120555D01*
X277527Y122936D01*
X274161Y122936D01*
X272724Y121499D01*
X272493Y121341D01*
X272197Y121276D01*
X271899Y121332D01*
X271646Y121499D01*
X270941Y122204D01*
X263903Y122204D01*
X263640Y122251D01*
X263382Y122410D01*
X263206Y122658D01*
X263141Y122954D01*
X263144Y122969D01*
X263144Y126651D01*
X262318Y127477D01*
X262160Y127708D01*
X262095Y128004D01*
X262151Y128302D01*
X262318Y128555D01*
X264668Y130905D01*
X264668Y131579D01*
X264724Y131865D01*
X264891Y132118D01*
X270218Y137445D01*
X270459Y137608D01*
X270757Y137668D01*
X272955Y137668D01*
X275336Y140049D01*
X275336Y143415D01*
X272955Y145796D01*
X269589Y145796D01*
X267208Y143415D01*
X267208Y141217D01*
X267152Y140931D01*
X266985Y140678D01*
X264700Y138393D01*
X264480Y138240D01*
X264185Y138170D01*
X263886Y138221D01*
X263631Y138384D01*
X263459Y138634D01*
X263399Y138932D01*
X263399Y152437D01*
X262506Y153330D01*
X248494Y153330D01*
X247601Y152437D01*
X247601Y145994D01*
X247545Y145708D01*
X247378Y145455D01*
X238544Y136621D01*
X238303Y136458D01*
X238005Y136398D01*
X178964Y136398D01*
X178707Y136443D01*
X178447Y136600D01*
X178270Y136846D01*
X178203Y137142D01*
X178256Y137440D01*
X178421Y137695D01*
X178673Y137864D01*
X180774Y138735D01*
X182996Y140957D01*
X184199Y143860D01*
X184199Y147002D01*
X182996Y149905D01*
X180774Y152127D01*
X177865Y153333D01*
X177593Y153386D01*
X177340Y153553D01*
X174721Y156172D01*
X174558Y156413D01*
X174498Y156711D01*
X174498Y160967D01*
X173689Y161776D01*
X173539Y161990D01*
X173466Y162284D01*
X173515Y162584D01*
X173676Y162841D01*
X173925Y163014D01*
X174222Y163077D01*
X174519Y163019D01*
X174729Y162932D01*
X177871Y162932D01*
X180774Y164135D01*
X182996Y166357D01*
X184199Y169260D01*
X184199Y172402D01*
X182996Y175305D01*
X180774Y177527D01*
X177871Y178730D01*
X174729Y178730D01*
X171826Y177527D01*
X169604Y175305D01*
X168401Y172402D01*
X168401Y169260D01*
X168488Y169050D01*
X168545Y168795D01*
X168499Y168495D01*
X168339Y168237D01*
X168092Y168062D01*
X167796Y167997D01*
X167498Y168052D01*
X167245Y168220D01*
X150299Y185166D01*
X123183Y185166D01*
X122897Y185222D01*
X122644Y185389D01*
X97251Y210782D01*
X97088Y211023D01*
X97028Y211321D01*
X97028Y213519D01*
X96259Y214289D01*
X96101Y214519D01*
X96035Y214816D01*
X96070Y215001D01*
X96070Y217170D01*
X84970Y217170D01*
X84970Y228270D01*
X82978Y228270D01*
X81490Y226782D01*
X81490Y226765D01*
X81443Y226502D01*
X81284Y226244D01*
X81036Y226068D01*
X80740Y226003D01*
X80442Y226059D01*
X80189Y226226D01*
X79161Y227254D01*
X76200Y227254D01*
X75925Y227305D01*
X75670Y227469D01*
X75498Y227719D01*
X75438Y228016D01*
X75438Y228023D01*
X71051Y232410D01*
X70555Y232410D01*
X70292Y232457D01*
X70034Y232616D01*
X69858Y232864D01*
X69793Y233160D01*
X69849Y233458D01*
X70016Y233711D01*
X70514Y234209D01*
X70514Y253471D01*
X69621Y254364D01*
X57859Y254364D01*
X56966Y253471D01*
X56966Y234209D01*
X57859Y233316D01*
X61839Y233316D01*
X62125Y233260D01*
X62378Y233093D01*
X67769Y227702D01*
X67927Y227472D01*
X67992Y227175D01*
X67937Y226877D01*
X67769Y226624D01*
X67506Y226361D01*
X67506Y215599D01*
X68399Y214706D01*
X79161Y214706D01*
X80189Y215734D01*
X80409Y215887D01*
X80704Y215957D01*
X81003Y215906D01*
X81258Y215742D01*
X81430Y215492D01*
X81490Y215195D01*
X81490Y215178D01*
X82978Y213690D01*
X88138Y213690D01*
X88413Y213639D01*
X88668Y213475D01*
X88840Y213225D01*
X88900Y212928D01*
X88900Y210153D01*
X91281Y207772D01*
X93479Y207772D01*
X93765Y207716D01*
X94018Y207549D01*
X120973Y180594D01*
X144051Y180594D01*
X144314Y180547D01*
X144572Y180388D01*
X144748Y180140D01*
X144813Y179844D01*
X144757Y179546D01*
X144590Y179293D01*
X143764Y178467D01*
X143764Y174866D01*
X143713Y174591D01*
X143549Y174336D01*
X143299Y174164D01*
X143002Y174104D01*
X141969Y174104D01*
X141076Y173211D01*
X141076Y155081D01*
X141029Y154817D01*
X140870Y154559D01*
X140622Y154384D01*
X140326Y154319D01*
X140028Y154374D01*
X139775Y154542D01*
X127439Y166878D01*
X126386Y166878D01*
X126111Y166929D01*
X125856Y167093D01*
X125684Y167343D01*
X125624Y167640D01*
X125624Y173211D01*
X124731Y174104D01*
X112969Y174104D01*
X112076Y173211D01*
X112076Y167640D01*
X112025Y167365D01*
X111861Y167110D01*
X111611Y166938D01*
X111314Y166878D01*
X80186Y166878D01*
X79911Y166929D01*
X79656Y167093D01*
X79484Y167343D01*
X79424Y167640D01*
X79424Y168395D01*
X78050Y171712D01*
X75512Y174250D01*
X72195Y175624D01*
X68605Y175624D01*
X65288Y174250D01*
X62750Y171712D01*
X61376Y168395D01*
X61376Y164805D01*
X62750Y161488D01*
X65288Y158950D01*
X68605Y157576D01*
X72195Y157576D01*
X75512Y158950D01*
X78050Y161488D01*
X78194Y161836D01*
X78351Y162074D01*
X78601Y162246D01*
X78898Y162306D01*
X111314Y162306D01*
X111589Y162255D01*
X111844Y162091D01*
X112016Y161841D01*
X112076Y161544D01*
X112076Y154449D01*
X112969Y153556D01*
X124731Y153556D01*
X125624Y154449D01*
X125624Y160387D01*
X125671Y160651D01*
X125830Y160909D01*
X126078Y161084D01*
X126374Y161149D01*
X126672Y161094D01*
X126925Y160926D01*
X156025Y131826D01*
X240215Y131826D01*
X246669Y138280D01*
X246899Y138438D01*
X247195Y138503D01*
X247493Y138447D01*
X247746Y138280D01*
X248494Y137532D01*
X257961Y137532D01*
X258224Y137485D01*
X258482Y137326D01*
X258658Y137078D01*
X258723Y136782D01*
X258667Y136484D01*
X258500Y136231D01*
X256540Y134271D01*
X256540Y130905D01*
X257366Y130079D01*
X257524Y129848D01*
X257589Y129552D01*
X257533Y129254D01*
X257366Y129001D01*
X255842Y127477D01*
X255600Y127314D01*
X255303Y127254D01*
X215461Y127254D01*
X148673Y60466D01*
X148437Y60306D01*
X148141Y60243D01*
X147843Y60301D01*
X144413Y61722D01*
X140067Y61722D01*
X136053Y60059D01*
X132981Y56987D01*
X131318Y52973D01*
X131318Y48627D01*
X132981Y44613D01*
X136053Y41541D01*
X140067Y39878D01*
G37*
G36*
X447444Y238676D02*
X450186Y238676D01*
X451674Y240164D01*
X451674Y246156D01*
X447444Y246156D01*
X447444Y238676D01*
G37*
G36*
X437221Y238537D02*
X437345Y238359D01*
X437400Y238444D01*
X437650Y238616D01*
X437947Y238676D01*
X439824Y238676D01*
X439824Y246156D01*
X435594Y246156D01*
X435594Y240164D01*
X437221Y238537D01*
G37*
G36*
X414580Y238640D02*
X417120Y238640D01*
X417120Y239842D01*
X415632Y241330D01*
X414580Y241330D01*
X414580Y238640D01*
G37*
G36*
X405840Y238640D02*
X408380Y238640D01*
X408380Y241330D01*
X407328Y241330D01*
X405840Y239842D01*
X405840Y238640D01*
G37*
G36*
X595927Y192736D02*
X600413Y192736D01*
X604556Y194452D01*
X607728Y197624D01*
X609444Y201767D01*
X609444Y206253D01*
X607728Y210396D01*
X604556Y213568D01*
X600413Y215284D01*
X595927Y215284D01*
X594076Y214517D01*
X593796Y214459D01*
X593498Y214515D01*
X593245Y214682D01*
X576533Y231394D01*
X535758Y231394D01*
X535472Y231450D01*
X535219Y231617D01*
X535189Y231648D01*
X531611Y231648D01*
X529082Y229119D01*
X529082Y225541D01*
X531611Y223012D01*
X535189Y223012D01*
X535219Y223043D01*
X535461Y223206D01*
X535758Y223266D01*
X572851Y223266D01*
X573137Y223210D01*
X573390Y223043D01*
X587498Y208935D01*
X587658Y208699D01*
X587721Y208402D01*
X587663Y208104D01*
X586896Y206253D01*
X586896Y201767D01*
X588612Y197624D01*
X591784Y194452D01*
X595927Y192736D01*
G37*
G36*
X253929Y162932D02*
X257071Y162932D01*
X259974Y164135D01*
X262196Y166357D01*
X263399Y169260D01*
X263399Y172402D01*
X262196Y175305D01*
X259974Y177527D01*
X257071Y178730D01*
X253929Y178730D01*
X251026Y177527D01*
X248804Y175305D01*
X247601Y172402D01*
X247601Y169260D01*
X248804Y166357D01*
X251026Y164135D01*
X253929Y162932D01*
G37*
G36*
X23605Y157576D02*
X27195Y157576D01*
X30512Y158950D01*
X33050Y161488D01*
X34424Y164805D01*
X34424Y168395D01*
X33050Y171712D01*
X30512Y174250D01*
X27195Y175624D01*
X23605Y175624D01*
X20288Y174250D01*
X17750Y171712D01*
X16376Y168395D01*
X16376Y164805D01*
X17750Y161488D01*
X20288Y158950D01*
X23605Y157576D01*
G37*
G36*
X595927Y142736D02*
X600413Y142736D01*
X604556Y144452D01*
X607728Y147624D01*
X609444Y151767D01*
X609444Y156253D01*
X607728Y160396D01*
X604556Y163568D01*
X600413Y165284D01*
X595927Y165284D01*
X591784Y163568D01*
X588612Y160396D01*
X586896Y156253D01*
X586896Y151767D01*
X588612Y147624D01*
X591784Y144452D01*
X595927Y142736D01*
G37*
G36*
X595927Y92736D02*
X600413Y92736D01*
X604556Y94452D01*
X607728Y97624D01*
X609444Y101767D01*
X609444Y106253D01*
X607728Y110396D01*
X604556Y113568D01*
X600413Y115284D01*
X595927Y115284D01*
X591784Y113568D01*
X588612Y110396D01*
X586896Y106253D01*
X586896Y101767D01*
X588612Y97624D01*
X591784Y94452D01*
X595927Y92736D01*
G37*
G36*
X15360Y105410D02*
X21590Y105410D01*
X21590Y111640D01*
X16848Y111640D01*
X15360Y110152D01*
X15360Y105410D01*
G37*
G36*
X29210Y105410D02*
X35440Y105410D01*
X35440Y110152D01*
X33952Y111640D01*
X29210Y111640D01*
X29210Y105410D01*
G37*
G36*
X68605Y92576D02*
X72195Y92576D01*
X75512Y93950D01*
X78050Y96488D01*
X79424Y99805D01*
X79424Y103395D01*
X78050Y106712D01*
X75512Y109250D01*
X72195Y110624D01*
X68605Y110624D01*
X65288Y109250D01*
X62750Y106712D01*
X61376Y103395D01*
X61376Y99805D01*
X62750Y96488D01*
X65288Y93950D01*
X68605Y92576D01*
G37*
G36*
X260679Y91156D02*
X270941Y91156D01*
X271834Y92049D01*
X271834Y97311D01*
X271723Y97423D01*
X271565Y97653D01*
X271499Y97949D01*
X271555Y98248D01*
X271723Y98500D01*
X272850Y99628D01*
X272850Y100680D01*
X258770Y100680D01*
X258770Y99628D01*
X259898Y98500D01*
X260056Y98270D01*
X260121Y97974D01*
X260065Y97676D01*
X259898Y97423D01*
X259786Y97311D01*
X259786Y92049D01*
X260679Y91156D01*
G37*
G36*
X29210Y91560D02*
X33952Y91560D01*
X35440Y93048D01*
X35440Y97790D01*
X29210Y97790D01*
X29210Y91560D01*
G37*
G36*
X16848Y91560D02*
X21590Y91560D01*
X21590Y97790D01*
X15360Y97790D01*
X15360Y93048D01*
X16848Y91560D01*
G37*
G36*
X472800Y61335D02*
X495150Y61335D01*
X495150Y83685D01*
X488826Y81991D01*
X482839Y78534D01*
X477951Y73646D01*
X474494Y67659D01*
X472800Y61335D01*
G37*
G36*
X502770Y61335D02*
X525120Y61335D01*
X523426Y67659D01*
X519969Y73646D01*
X515081Y78534D01*
X509094Y81991D01*
X502770Y83685D01*
X502770Y61335D01*
G37*
G36*
X354589Y54736D02*
X371851Y54736D01*
X372744Y55629D01*
X372744Y60960D01*
X372795Y61235D01*
X372959Y61490D01*
X373209Y61662D01*
X373506Y61722D01*
X384995Y61722D01*
X395186Y71913D01*
X395427Y72076D01*
X395725Y72136D01*
X397923Y72136D01*
X400304Y74517D01*
X400304Y77883D01*
X397923Y80264D01*
X394557Y80264D01*
X392176Y77883D01*
X392176Y75685D01*
X392120Y75399D01*
X391953Y75146D01*
X383324Y66517D01*
X383083Y66354D01*
X382785Y66294D01*
X373506Y66294D01*
X373231Y66345D01*
X372976Y66509D01*
X372804Y66759D01*
X372744Y67056D01*
X372744Y71891D01*
X371851Y72784D01*
X354589Y72784D01*
X353696Y71891D01*
X353696Y55629D01*
X354589Y54736D01*
G37*
G36*
X104669Y59026D02*
X123931Y59026D01*
X124824Y59919D01*
X124824Y71681D01*
X123931Y72574D01*
X104669Y72574D01*
X104309Y72214D01*
X104078Y72056D01*
X103782Y71991D01*
X103484Y72046D01*
X103231Y72214D01*
X101531Y73914D01*
X90856Y73914D01*
X90581Y73965D01*
X90326Y74129D01*
X90154Y74379D01*
X90094Y74676D01*
X90094Y76381D01*
X89201Y77274D01*
X78439Y77274D01*
X77546Y76381D01*
X77546Y65619D01*
X78574Y64591D01*
X78727Y64371D01*
X78797Y64076D01*
X78746Y63777D01*
X78582Y63522D01*
X78332Y63350D01*
X78035Y63290D01*
X78018Y63290D01*
X76530Y61802D01*
X76530Y59810D01*
X91110Y59810D01*
X91110Y61802D01*
X89622Y63290D01*
X89605Y63290D01*
X89342Y63337D01*
X89084Y63496D01*
X88908Y63744D01*
X88843Y64040D01*
X88899Y64338D01*
X89066Y64591D01*
X90094Y65619D01*
X90094Y68580D01*
X90145Y68855D01*
X90309Y69110D01*
X90559Y69282D01*
X90856Y69342D01*
X99321Y69342D01*
X99607Y69286D01*
X99860Y69119D01*
X103553Y65426D01*
X103716Y65185D01*
X103776Y64887D01*
X103776Y59919D01*
X104669Y59026D01*
G37*
G36*
X287877Y44704D02*
X291243Y44704D01*
X293624Y47085D01*
X293624Y49283D01*
X293680Y49569D01*
X293847Y49822D01*
X298538Y54513D01*
X298779Y54676D01*
X299077Y54736D01*
X308351Y54736D01*
X309244Y55629D01*
X309244Y71891D01*
X308351Y72784D01*
X291089Y72784D01*
X290196Y71891D01*
X290196Y55629D01*
X291153Y54672D01*
X291311Y54441D01*
X291376Y54145D01*
X291321Y53847D01*
X291153Y53594D01*
X290614Y53055D01*
X290373Y52892D01*
X290075Y52832D01*
X287877Y52832D01*
X285496Y50451D01*
X285496Y47085D01*
X287877Y44704D01*
G37*
G36*
X190867Y39878D02*
X195213Y39878D01*
X199227Y41541D01*
X202299Y44613D01*
X203962Y48627D01*
X203962Y52973D01*
X202299Y56987D01*
X199227Y60059D01*
X195213Y61722D01*
X190867Y61722D01*
X186853Y60059D01*
X183781Y56987D01*
X182118Y52973D01*
X182118Y48627D01*
X183781Y44613D01*
X186853Y41541D01*
X190867Y39878D01*
G37*
G36*
X165467Y39878D02*
X169813Y39878D01*
X173827Y41541D01*
X176899Y44613D01*
X178562Y48627D01*
X178562Y52973D01*
X176899Y56987D01*
X173827Y60059D01*
X169813Y61722D01*
X165467Y61722D01*
X161453Y60059D01*
X158381Y56987D01*
X156718Y52973D01*
X156718Y48627D01*
X158381Y44613D01*
X161453Y41541D01*
X165467Y39878D01*
G37*
G36*
X502770Y53715D02*
X502770Y31365D01*
X509094Y33059D01*
X515081Y36516D01*
X519969Y41404D01*
X523426Y47391D01*
X525120Y53715D01*
X502770Y53715D01*
G37*
G36*
X488826Y33059D02*
X495150Y31365D01*
X495150Y53715D01*
X472800Y53715D01*
X474494Y47391D01*
X477951Y41404D01*
X482839Y36516D01*
X488826Y33059D01*
G37*
G36*
X425800Y31335D02*
X448150Y31335D01*
X448150Y53685D01*
X441826Y51991D01*
X435839Y48534D01*
X430951Y43646D01*
X427494Y37659D01*
X425800Y31335D01*
G37*
G36*
X455770Y31335D02*
X478120Y31335D01*
X476426Y37659D01*
X472969Y43646D01*
X468081Y48534D01*
X462094Y51991D01*
X455770Y53685D01*
X455770Y31335D01*
G37*
G36*
X31507Y17440D02*
X38493Y17440D01*
X44947Y20113D01*
X49887Y25053D01*
X52560Y31507D01*
X52560Y38493D01*
X49887Y44947D01*
X44947Y49887D01*
X38493Y52560D01*
X31507Y52560D01*
X25053Y49887D01*
X20113Y44947D01*
X17440Y38493D01*
X17440Y31507D01*
X20113Y25053D01*
X25053Y20113D01*
X31507Y17440D01*
G37*
G36*
X611507Y17440D02*
X618493Y17440D01*
X624947Y20113D01*
X629887Y25053D01*
X632560Y31507D01*
X632560Y38493D01*
X629887Y44947D01*
X624947Y49887D01*
X618493Y52560D01*
X611507Y52560D01*
X605053Y49887D01*
X600113Y44947D01*
X597440Y38493D01*
X597440Y31507D01*
X600113Y25053D01*
X605053Y20113D01*
X611507Y17440D01*
G37*
G36*
X87630Y48710D02*
X89622Y48710D01*
X91110Y50198D01*
X91110Y52190D01*
X87630Y52190D01*
X87630Y48710D01*
G37*
G36*
X78018Y48710D02*
X80010Y48710D01*
X80010Y52190D01*
X76530Y52190D01*
X76530Y50198D01*
X78018Y48710D01*
G37*
G36*
X104669Y29026D02*
X123931Y29026D01*
X124824Y29919D01*
X124824Y41037D01*
X124880Y41323D01*
X125047Y41576D01*
X127508Y44037D01*
X127508Y47403D01*
X125127Y49784D01*
X121761Y49784D01*
X119380Y47403D01*
X119380Y45205D01*
X119324Y44919D01*
X119157Y44666D01*
X117288Y42797D01*
X117047Y42634D01*
X116749Y42574D01*
X104669Y42574D01*
X103776Y41681D01*
X103776Y29919D01*
X104669Y29026D01*
G37*
G36*
X303089Y23736D02*
X316351Y23736D01*
X317244Y24629D01*
X317244Y37891D01*
X316351Y38784D01*
X314595Y38784D01*
X314332Y38831D01*
X314074Y38990D01*
X313898Y39238D01*
X313833Y39534D01*
X313889Y39832D01*
X314056Y40085D01*
X314960Y40989D01*
X314960Y44355D01*
X312579Y46736D01*
X309213Y46736D01*
X306832Y44355D01*
X306832Y40989D01*
X307736Y40085D01*
X307889Y39865D01*
X307959Y39570D01*
X307908Y39271D01*
X307744Y39016D01*
X307494Y38844D01*
X307197Y38784D01*
X303089Y38784D01*
X302196Y37891D01*
X302196Y24629D01*
X303089Y23736D01*
G37*
G36*
X382365Y23368D02*
X385731Y23368D01*
X388112Y25749D01*
X388112Y27947D01*
X388168Y28233D01*
X388335Y28486D01*
X392430Y32581D01*
X392430Y35847D01*
X392486Y36133D01*
X392653Y36386D01*
X394208Y37941D01*
X394208Y41307D01*
X391827Y43688D01*
X388461Y43688D01*
X386080Y41307D01*
X386080Y37941D01*
X387635Y36386D01*
X387798Y36144D01*
X387858Y35847D01*
X387858Y34791D01*
X387802Y34505D01*
X387635Y34252D01*
X385102Y31719D01*
X384861Y31556D01*
X384563Y31496D01*
X382365Y31496D01*
X382045Y31176D01*
X381825Y31023D01*
X381530Y30953D01*
X381231Y31004D01*
X380976Y31168D01*
X380804Y31418D01*
X380744Y31715D01*
X380744Y37891D01*
X379851Y38784D01*
X377079Y38784D01*
X376816Y38831D01*
X376558Y38990D01*
X376382Y39238D01*
X376317Y39534D01*
X376373Y39832D01*
X376540Y40085D01*
X377444Y40989D01*
X377444Y44355D01*
X375063Y46736D01*
X371697Y46736D01*
X369316Y44355D01*
X369316Y40989D01*
X370220Y40085D01*
X370373Y39865D01*
X370443Y39570D01*
X370392Y39271D01*
X370228Y39016D01*
X369978Y38844D01*
X369681Y38784D01*
X366589Y38784D01*
X365696Y37891D01*
X365696Y24629D01*
X366589Y23736D01*
X379851Y23736D01*
X380385Y24270D01*
X380616Y24428D01*
X380912Y24493D01*
X381210Y24437D01*
X381463Y24270D01*
X382365Y23368D01*
G37*
G36*
X281180Y35070D02*
X285910Y35070D01*
X285910Y39800D01*
X282668Y39800D01*
X281180Y38312D01*
X281180Y35070D01*
G37*
G36*
X344680Y35070D02*
X349410Y35070D01*
X349410Y39800D01*
X346168Y39800D01*
X344680Y38312D01*
X344680Y35070D01*
G37*
G36*
X357030Y35070D02*
X361760Y35070D01*
X361760Y38312D01*
X360272Y39800D01*
X357030Y39800D01*
X357030Y35070D01*
G37*
G36*
X293530Y35070D02*
X298260Y35070D01*
X298260Y38312D01*
X296772Y39800D01*
X293530Y39800D01*
X293530Y35070D01*
G37*
G36*
X212177Y29210D02*
X234863Y29210D01*
X233641Y32162D01*
X230282Y35521D01*
X225895Y37338D01*
X221145Y37338D01*
X216758Y35521D01*
X213399Y32162D01*
X212177Y29210D01*
G37*
G36*
X140067Y14478D02*
X144413Y14478D01*
X148427Y16141D01*
X151499Y19213D01*
X153162Y23227D01*
X153162Y27573D01*
X151499Y31587D01*
X148427Y34659D01*
X144413Y36322D01*
X140067Y36322D01*
X136053Y34659D01*
X132981Y31587D01*
X131318Y27573D01*
X131318Y23227D01*
X132981Y19213D01*
X136053Y16141D01*
X140067Y14478D01*
G37*
G36*
X165467Y14478D02*
X169813Y14478D01*
X173827Y16141D01*
X176899Y19213D01*
X178562Y23227D01*
X178562Y27573D01*
X176899Y31587D01*
X173827Y34659D01*
X169813Y36322D01*
X165467Y36322D01*
X161453Y34659D01*
X158381Y31587D01*
X156718Y27573D01*
X156718Y23227D01*
X158381Y19213D01*
X161453Y16141D01*
X165467Y14478D01*
G37*
G36*
X190867Y14478D02*
X195213Y14478D01*
X199227Y16141D01*
X202299Y19213D01*
X203962Y23227D01*
X203962Y27573D01*
X202299Y31587D01*
X199227Y34659D01*
X195213Y36322D01*
X190867Y36322D01*
X186853Y34659D01*
X183781Y31587D01*
X182118Y27573D01*
X182118Y23227D01*
X183781Y19213D01*
X186853Y16141D01*
X190867Y14478D01*
G37*
G36*
X357030Y22720D02*
X360272Y22720D01*
X361760Y24208D01*
X361760Y27450D01*
X357030Y27450D01*
X357030Y22720D01*
G37*
G36*
X346168Y22720D02*
X349410Y22720D01*
X349410Y27450D01*
X344680Y27450D01*
X344680Y24208D01*
X346168Y22720D01*
G37*
G36*
X293530Y22720D02*
X296772Y22720D01*
X298260Y24208D01*
X298260Y27450D01*
X293530Y27450D01*
X293530Y22720D01*
G37*
G36*
X282668Y22720D02*
X285910Y22720D01*
X285910Y27450D01*
X281180Y27450D01*
X281180Y24208D01*
X282668Y22720D01*
G37*
G36*
X227330Y21590D02*
X227330Y14057D01*
X230282Y15279D01*
X233641Y18638D01*
X234863Y21590D01*
X227330Y21590D01*
G37*
G36*
X216758Y15279D02*
X219710Y14057D01*
X219710Y21590D01*
X212177Y21590D01*
X213399Y18638D01*
X216758Y15279D01*
G37*
%LPD*%
G36*
X54891Y335559D02*
X54596Y335489D01*
X54297Y335540D01*
X54042Y335703D01*
X53870Y335953D01*
X53810Y336251D01*
X53810Y348771D01*
X51479Y355944D01*
X47046Y362046D01*
X40944Y366479D01*
X33771Y368810D01*
X20000Y368810D01*
X19851Y368825D01*
X13947Y369999D01*
X13673Y370113D01*
X8667Y373457D01*
X8457Y373667D01*
X5113Y378673D01*
X4999Y378947D01*
X3825Y384851D01*
X3810Y385000D01*
X3810Y530000D01*
X3819Y530119D01*
X5064Y537977D01*
X5138Y538204D01*
X8749Y545292D01*
X8890Y545485D01*
X14515Y551111D01*
X14708Y551251D01*
X21796Y554862D01*
X22023Y554936D01*
X29881Y556181D01*
X30000Y556190D01*
X70067Y556190D01*
X70330Y556143D01*
X70588Y555984D01*
X70764Y555736D01*
X70829Y555440D01*
X70773Y555142D01*
X70606Y554889D01*
X69088Y553371D01*
X69088Y550005D01*
X71469Y547624D01*
X74835Y547624D01*
X76390Y549179D01*
X76632Y549342D01*
X76929Y549402D01*
X80907Y549402D01*
X81165Y549357D01*
X81424Y549200D01*
X81602Y548954D01*
X81669Y548658D01*
X81616Y548360D01*
X81450Y548106D01*
X81199Y547936D01*
X77801Y546529D01*
X74871Y543599D01*
X73286Y539771D01*
X73286Y535629D01*
X74871Y531801D01*
X77306Y529367D01*
X77459Y529147D01*
X77528Y528852D01*
X77478Y528553D01*
X77314Y528298D01*
X77064Y528126D01*
X76767Y528066D01*
X72205Y528066D01*
X66586Y522447D01*
X66345Y522284D01*
X66047Y522224D01*
X63849Y522224D01*
X61468Y519843D01*
X61468Y516477D01*
X63849Y514096D01*
X67215Y514096D01*
X69596Y516477D01*
X69596Y518675D01*
X69652Y518961D01*
X69819Y519214D01*
X71985Y521380D01*
X72205Y521533D01*
X72500Y521603D01*
X72799Y521552D01*
X73054Y521389D01*
X73226Y521139D01*
X73286Y520841D01*
X73286Y502779D01*
X74179Y501886D01*
X85877Y501886D01*
X86163Y501830D01*
X86416Y501663D01*
X87026Y501053D01*
X87189Y500812D01*
X87249Y500514D01*
X87249Y484828D01*
X88602Y483475D01*
X88755Y483255D01*
X88825Y482960D01*
X88774Y482661D01*
X88611Y482406D01*
X88361Y482234D01*
X88063Y482174D01*
X86109Y482174D01*
X85216Y481281D01*
X85216Y480060D01*
X85165Y479785D01*
X85001Y479530D01*
X84751Y479358D01*
X84454Y479298D01*
X81936Y479298D01*
X81661Y479349D01*
X81406Y479513D01*
X81234Y479763D01*
X81174Y480060D01*
X81174Y480381D01*
X80281Y481274D01*
X63769Y481274D01*
X62876Y480381D01*
X62876Y479429D01*
X62820Y479143D01*
X62653Y478890D01*
X49530Y465767D01*
X49530Y425306D01*
X49479Y425031D01*
X49315Y424776D01*
X49065Y424604D01*
X48768Y424544D01*
X45159Y424544D01*
X44266Y423651D01*
X44266Y404389D01*
X45159Y403496D01*
X56921Y403496D01*
X57373Y403948D01*
X57593Y404101D01*
X57888Y404171D01*
X58187Y404120D01*
X58442Y403956D01*
X58614Y403706D01*
X58674Y403409D01*
X58674Y402196D01*
X58623Y401921D01*
X58459Y401666D01*
X58209Y401494D01*
X57912Y401434D01*
X45963Y401434D01*
X45400Y400871D01*
X45169Y400713D01*
X44873Y400648D01*
X44575Y400703D01*
X44322Y400871D01*
X36545Y408648D01*
X36382Y408889D01*
X36322Y409187D01*
X36322Y412131D01*
X34659Y416145D01*
X31587Y419217D01*
X27573Y420880D01*
X23227Y420880D01*
X19213Y419217D01*
X16141Y416145D01*
X14478Y412131D01*
X14478Y407785D01*
X16141Y403771D01*
X19213Y400699D01*
X23227Y399036D01*
X27573Y399036D01*
X31587Y400699D01*
X34269Y403381D01*
X34499Y403539D01*
X34795Y403604D01*
X35094Y403548D01*
X35346Y403381D01*
X44847Y393880D01*
X45010Y393639D01*
X45070Y393341D01*
X45070Y381779D01*
X45963Y380886D01*
X57725Y380886D01*
X58618Y381779D01*
X58618Y393397D01*
X58674Y393683D01*
X58841Y393936D01*
X63246Y398341D01*
X63246Y426143D01*
X61945Y427444D01*
X61782Y427685D01*
X61722Y427983D01*
X61722Y433333D01*
X61769Y433596D01*
X61928Y433854D01*
X62176Y434030D01*
X62472Y434095D01*
X62770Y434039D01*
X63023Y433872D01*
X63769Y433126D01*
X70104Y433126D01*
X70379Y433075D01*
X70634Y432911D01*
X70806Y432661D01*
X70866Y432364D01*
X70866Y430345D01*
X75374Y425837D01*
X75532Y425607D01*
X75597Y425310D01*
X75542Y425012D01*
X75374Y424759D01*
X74266Y423651D01*
X74266Y405384D01*
X74215Y405109D01*
X74051Y404854D01*
X73801Y404682D01*
X73786Y404679D01*
X69342Y400235D01*
X69342Y378529D01*
X70643Y377228D01*
X70806Y376987D01*
X70866Y376689D01*
X70866Y361446D01*
X70815Y361171D01*
X70651Y360916D01*
X70401Y360744D01*
X70104Y360684D01*
X64609Y360684D01*
X63716Y359791D01*
X63716Y353913D01*
X63769Y353672D01*
X63713Y353374D01*
X63667Y353304D01*
X63665Y353293D01*
X63501Y353038D01*
X63251Y352866D01*
X62954Y352806D01*
X61537Y352806D01*
X58674Y349943D01*
X58674Y339591D01*
X58618Y339305D01*
X58451Y339052D01*
X55111Y335712D01*
X54891Y335559D01*
G37*
%LPC*%
G36*
X31507Y507440D02*
X38493Y507440D01*
X44947Y510113D01*
X49887Y515053D01*
X52560Y521507D01*
X52560Y528493D01*
X49887Y534947D01*
X44947Y539887D01*
X38493Y542560D01*
X31507Y542560D01*
X25053Y539887D01*
X20113Y534947D01*
X17440Y528493D01*
X17440Y521507D01*
X20113Y515053D01*
X25053Y510113D01*
X31507Y507440D01*
G37*
G36*
X7620Y479750D02*
X14285Y479750D01*
X14285Y482290D01*
X9108Y482290D01*
X7620Y480802D01*
X7620Y479750D01*
G37*
G36*
X21285Y479750D02*
X27950Y479750D01*
X27950Y480802D01*
X26462Y482290D01*
X21285Y482290D01*
X21285Y479750D01*
G37*
G36*
X7620Y467050D02*
X27950Y467050D01*
X27950Y468102D01*
X26691Y469361D01*
X26533Y469592D01*
X26468Y469888D01*
X26523Y470186D01*
X26691Y470439D01*
X27950Y471698D01*
X27950Y472750D01*
X7620Y472750D01*
X7620Y471698D01*
X8879Y470439D01*
X9037Y470208D01*
X9102Y469912D01*
X9047Y469614D01*
X8879Y469361D01*
X7620Y468102D01*
X7620Y467050D01*
G37*
G36*
X7620Y454350D02*
X27950Y454350D01*
X27950Y455402D01*
X26691Y456661D01*
X26533Y456892D01*
X26468Y457188D01*
X26523Y457486D01*
X26691Y457739D01*
X27950Y458998D01*
X27950Y460050D01*
X7620Y460050D01*
X7620Y458998D01*
X8879Y457739D01*
X9037Y457508D01*
X9102Y457212D01*
X9047Y456914D01*
X8879Y456661D01*
X7620Y455402D01*
X7620Y454350D01*
G37*
G36*
X7620Y441650D02*
X27950Y441650D01*
X27950Y442702D01*
X26691Y443961D01*
X26533Y444192D01*
X26468Y444488D01*
X26523Y444786D01*
X26691Y445039D01*
X27950Y446298D01*
X27950Y447350D01*
X7620Y447350D01*
X7620Y446298D01*
X8879Y445039D01*
X9037Y444808D01*
X9102Y444512D01*
X9047Y444214D01*
X8879Y443961D01*
X7620Y442702D01*
X7620Y441650D01*
G37*
G36*
X21285Y432110D02*
X26462Y432110D01*
X27950Y433598D01*
X27950Y434650D01*
X21285Y434650D01*
X21285Y432110D01*
G37*
G36*
X9108Y432110D02*
X14285Y432110D01*
X14285Y434650D01*
X7620Y434650D01*
X7620Y433598D01*
X9108Y432110D01*
G37*
G36*
X14057Y388368D02*
X36743Y388368D01*
X35521Y391320D01*
X32162Y394679D01*
X27775Y396496D01*
X23025Y396496D01*
X18638Y394679D01*
X15279Y391320D01*
X14057Y388368D01*
G37*
G36*
X29210Y380748D02*
X29210Y373215D01*
X32162Y374437D01*
X35521Y377796D01*
X36743Y380748D01*
X29210Y380748D01*
G37*
G36*
X18638Y374437D02*
X21590Y373215D01*
X21590Y380748D01*
X14057Y380748D01*
X15279Y377796D01*
X18638Y374437D01*
G37*
%LPD*%
G36*
X94796Y486341D02*
X94500Y486276D01*
X94202Y486331D01*
X93949Y486499D01*
X92342Y488106D01*
X92308Y488112D01*
X92053Y488276D01*
X91881Y488526D01*
X91821Y488823D01*
X91821Y501124D01*
X91872Y501399D01*
X92036Y501654D01*
X92286Y501826D01*
X92583Y501886D01*
X93221Y501886D01*
X94114Y502779D01*
X94114Y521821D01*
X93221Y522714D01*
X91923Y522714D01*
X91659Y522761D01*
X91401Y522920D01*
X91226Y523168D01*
X91161Y523464D01*
X91216Y523762D01*
X91384Y524015D01*
X98298Y530929D01*
X98298Y532734D01*
X98343Y532992D01*
X98500Y533251D01*
X98746Y533429D01*
X99042Y533496D01*
X99340Y533443D01*
X99595Y533278D01*
X99764Y533026D01*
X100271Y531801D01*
X103201Y528871D01*
X107029Y527286D01*
X111171Y527286D01*
X114999Y528871D01*
X117929Y531801D01*
X119514Y535629D01*
X119514Y539771D01*
X117929Y543599D01*
X114999Y546529D01*
X111601Y547936D01*
X111380Y548076D01*
X111201Y548321D01*
X111131Y548616D01*
X111182Y548915D01*
X111345Y549170D01*
X111596Y549342D01*
X111893Y549402D01*
X129052Y549402D01*
X129310Y549357D01*
X129569Y549200D01*
X129747Y548954D01*
X129814Y548658D01*
X129761Y548360D01*
X129595Y548106D01*
X129344Y547936D01*
X128025Y547390D01*
X124810Y544175D01*
X123070Y539974D01*
X123070Y535426D01*
X124810Y531225D01*
X127743Y528293D01*
X127901Y528063D01*
X127966Y527766D01*
X127910Y527468D01*
X127743Y527215D01*
X119634Y519107D01*
X119634Y517913D01*
X119589Y517655D01*
X119432Y517396D01*
X119186Y517218D01*
X118890Y517151D01*
X118592Y517204D01*
X118338Y517370D01*
X118168Y517621D01*
X117929Y518199D01*
X114999Y521129D01*
X111171Y522714D01*
X107029Y522714D01*
X103201Y521129D01*
X100271Y518199D01*
X98686Y514371D01*
X98686Y510229D01*
X100271Y506401D01*
X103201Y503471D01*
X107029Y501886D01*
X108193Y501886D01*
X108457Y501839D01*
X108715Y501680D01*
X108890Y501432D01*
X108955Y501136D01*
X108900Y500838D01*
X108732Y500585D01*
X95250Y487103D01*
X95250Y487038D01*
X95203Y486774D01*
X95044Y486516D01*
X94796Y486341D01*
G37*
G36*
X184457Y242617D02*
X184162Y242545D01*
X183863Y242593D01*
X183606Y242755D01*
X183433Y243004D01*
X183370Y243300D01*
X183428Y243598D01*
X184199Y245460D01*
X184199Y248602D01*
X182996Y251505D01*
X180774Y253727D01*
X177871Y254930D01*
X174729Y254930D01*
X174330Y254765D01*
X174050Y254707D01*
X173752Y254762D01*
X173499Y254930D01*
X167101Y261328D01*
X166938Y261569D01*
X166878Y261867D01*
X166878Y270706D01*
X166923Y270963D01*
X167080Y271223D01*
X167326Y271400D01*
X167622Y271468D01*
X167920Y271414D01*
X168175Y271249D01*
X168344Y270997D01*
X169604Y267957D01*
X171826Y265735D01*
X174729Y264532D01*
X177871Y264532D01*
X180774Y265735D01*
X182996Y267957D01*
X184199Y270860D01*
X184199Y274002D01*
X182996Y276905D01*
X180774Y279127D01*
X177871Y280330D01*
X175260Y280330D01*
X174985Y280381D01*
X174730Y280545D01*
X174558Y280795D01*
X174498Y281092D01*
X174498Y282082D01*
X143398Y313182D01*
X141036Y313182D01*
X140761Y313233D01*
X140506Y313397D01*
X140334Y313647D01*
X140274Y313944D01*
X140274Y314407D01*
X140221Y314648D01*
X140274Y314932D01*
X140274Y320907D01*
X140221Y321148D01*
X140274Y321432D01*
X140274Y321564D01*
X140325Y321839D01*
X140489Y322094D01*
X140739Y322266D01*
X141036Y322326D01*
X145727Y322326D01*
X151655Y328254D01*
X151853Y328392D01*
X151698Y328617D01*
X151638Y328915D01*
X151638Y330049D01*
X151685Y330312D01*
X151844Y330570D01*
X152092Y330745D01*
X152388Y330810D01*
X152686Y330755D01*
X152939Y330587D01*
X153506Y330020D01*
X153664Y329790D01*
X153729Y329494D01*
X153673Y329196D01*
X153506Y328943D01*
X152939Y328376D01*
X152741Y328238D01*
X152896Y328013D01*
X152956Y327715D01*
X152956Y323407D01*
X154687Y321676D01*
X160273Y321676D01*
X162224Y323627D01*
X162465Y323790D01*
X162763Y323850D01*
X166377Y323850D01*
X166663Y323794D01*
X166916Y323627D01*
X168178Y322365D01*
X168341Y322124D01*
X168401Y321826D01*
X168401Y321660D01*
X169604Y318757D01*
X171826Y316535D01*
X174729Y315332D01*
X177871Y315332D01*
X180774Y316535D01*
X182996Y318757D01*
X184199Y321660D01*
X184199Y324802D01*
X182996Y327705D01*
X180774Y329927D01*
X177871Y331130D01*
X174729Y331130D01*
X171826Y329927D01*
X169992Y328094D01*
X169762Y327936D01*
X169466Y327871D01*
X169168Y327927D01*
X168915Y328094D01*
X168587Y328422D01*
X162291Y328422D01*
X162005Y328478D01*
X161752Y328645D01*
X161454Y328943D01*
X161296Y329173D01*
X161231Y329469D01*
X161287Y329768D01*
X161454Y330020D01*
X163020Y331586D01*
X163020Y331800D01*
X154780Y331800D01*
X154780Y337200D01*
X163020Y337200D01*
X163020Y337414D01*
X161121Y339313D01*
X160968Y339533D01*
X160898Y339828D01*
X160949Y340127D01*
X161112Y340382D01*
X161362Y340554D01*
X161659Y340614D01*
X164853Y340614D01*
X165139Y340558D01*
X165392Y340391D01*
X169741Y336042D01*
X182303Y336042D01*
X189738Y343477D01*
X189738Y357563D01*
X188176Y359125D01*
X180909Y366392D01*
X180751Y366622D01*
X180686Y366918D01*
X180742Y367217D01*
X180909Y367469D01*
X182996Y369557D01*
X184199Y372460D01*
X184199Y375602D01*
X182996Y378505D01*
X180774Y380727D01*
X177871Y381930D01*
X174729Y381930D01*
X171826Y380727D01*
X169604Y378505D01*
X168401Y375602D01*
X168401Y372460D01*
X169604Y369557D01*
X171826Y367335D01*
X174545Y366208D01*
X174792Y366043D01*
X184943Y355892D01*
X185106Y355651D01*
X185166Y355353D01*
X185166Y351699D01*
X185121Y351441D01*
X184964Y351182D01*
X184718Y351004D01*
X184422Y350937D01*
X184124Y350990D01*
X183870Y351155D01*
X183700Y351407D01*
X182996Y353105D01*
X180774Y355327D01*
X177871Y356530D01*
X174729Y356530D01*
X174282Y356345D01*
X174014Y356287D01*
X173715Y356338D01*
X173460Y356501D01*
X173288Y356752D01*
X173228Y357049D01*
X173228Y359823D01*
X170847Y362204D01*
X168649Y362204D01*
X168363Y362260D01*
X168110Y362427D01*
X157919Y372618D01*
X124973Y372618D01*
X124709Y372665D01*
X124451Y372824D01*
X124276Y373072D01*
X124211Y373368D01*
X124266Y373666D01*
X124434Y373919D01*
X131795Y381280D01*
X132015Y381433D01*
X132310Y381503D01*
X132609Y381452D01*
X132864Y381289D01*
X133036Y381039D01*
X133096Y380741D01*
X133096Y377793D01*
X135477Y375412D01*
X138843Y375412D01*
X141304Y377873D01*
X141546Y378036D01*
X141843Y378096D01*
X152961Y378096D01*
X153854Y378989D01*
X153854Y397193D01*
X153910Y397479D01*
X154077Y397732D01*
X162275Y405930D01*
X162495Y406083D01*
X162790Y406153D01*
X163089Y406102D01*
X163344Y405939D01*
X163516Y405689D01*
X163576Y405391D01*
X163576Y405225D01*
X165957Y402844D01*
X168023Y402844D01*
X168292Y402795D01*
X168549Y402634D01*
X168723Y402385D01*
X168785Y402088D01*
X168727Y401790D01*
X168401Y401002D01*
X168401Y397860D01*
X169604Y394957D01*
X171826Y392735D01*
X174729Y391532D01*
X177871Y391532D01*
X180774Y392735D01*
X182996Y394957D01*
X184199Y397860D01*
X184199Y401002D01*
X182996Y403905D01*
X180774Y406127D01*
X177871Y407330D01*
X174729Y407330D01*
X172758Y406514D01*
X172490Y406456D01*
X172191Y406507D01*
X171936Y406670D01*
X171764Y406920D01*
X171704Y407218D01*
X171704Y408591D01*
X171145Y409150D01*
X170987Y409381D01*
X170922Y409677D01*
X170977Y409975D01*
X171145Y410228D01*
X177726Y416809D01*
X177973Y416974D01*
X180774Y418135D01*
X182996Y420357D01*
X184199Y423260D01*
X184199Y426402D01*
X182996Y429305D01*
X180774Y431527D01*
X177871Y432730D01*
X174729Y432730D01*
X174140Y432486D01*
X173885Y432429D01*
X173586Y432475D01*
X173327Y432635D01*
X173152Y432882D01*
X173087Y433178D01*
X173143Y433476D01*
X173310Y433729D01*
X175984Y436403D01*
X176225Y436566D01*
X176523Y436626D01*
X185351Y436626D01*
X253360Y504635D01*
X253590Y504793D01*
X253887Y504858D01*
X254185Y504802D01*
X254437Y504635D01*
X255601Y503471D01*
X259429Y501886D01*
X263571Y501886D01*
X267399Y503471D01*
X270329Y506401D01*
X271914Y510229D01*
X271914Y514371D01*
X270329Y518199D01*
X267399Y521129D01*
X263571Y522714D01*
X259429Y522714D01*
X255601Y521129D01*
X252671Y518199D01*
X251086Y514371D01*
X251086Y510229D01*
X251302Y509708D01*
X251360Y509428D01*
X251304Y509130D01*
X251137Y508877D01*
X183680Y441421D01*
X183439Y441258D01*
X183141Y441198D01*
X178964Y441198D01*
X178707Y441243D01*
X178447Y441400D01*
X178270Y441646D01*
X178203Y441942D01*
X178256Y442240D01*
X178421Y442495D01*
X178673Y442664D01*
X180774Y443535D01*
X182996Y445757D01*
X184199Y448660D01*
X184199Y451802D01*
X182996Y454705D01*
X180774Y456927D01*
X177871Y458130D01*
X174729Y458130D01*
X171826Y456927D01*
X169604Y454705D01*
X168622Y452336D01*
X168466Y452098D01*
X168413Y452061D01*
X165392Y449041D01*
X165151Y448878D01*
X164853Y448818D01*
X161355Y448818D01*
X161091Y448865D01*
X160833Y449024D01*
X160658Y449272D01*
X160593Y449568D01*
X160648Y449866D01*
X160816Y450119D01*
X173008Y462311D01*
X173250Y462474D01*
X173547Y462534D01*
X182303Y462534D01*
X200406Y480637D01*
X200406Y506108D01*
X200451Y506366D01*
X200608Y506625D01*
X200854Y506802D01*
X201150Y506870D01*
X201448Y506817D01*
X201703Y506651D01*
X201870Y506402D01*
X204801Y503471D01*
X208629Y501886D01*
X212771Y501886D01*
X216599Y503471D01*
X219529Y506401D01*
X221114Y510229D01*
X221114Y514371D01*
X219529Y518199D01*
X216599Y521129D01*
X212771Y522714D01*
X208629Y522714D01*
X204801Y521129D01*
X201871Y518198D01*
X201732Y517980D01*
X201487Y517800D01*
X201192Y517730D01*
X200893Y517781D01*
X200638Y517945D01*
X200466Y518195D01*
X200406Y518492D01*
X200406Y522155D01*
X198844Y523717D01*
X192983Y529578D01*
X192825Y529808D01*
X192760Y530105D01*
X192816Y530403D01*
X192983Y530655D01*
X194129Y531801D01*
X195714Y535629D01*
X195714Y539771D01*
X194129Y543599D01*
X191199Y546529D01*
X187801Y547936D01*
X187580Y548076D01*
X187401Y548321D01*
X187331Y548616D01*
X187382Y548915D01*
X187545Y549170D01*
X187796Y549342D01*
X188093Y549402D01*
X207907Y549402D01*
X208165Y549357D01*
X208424Y549200D01*
X208602Y548954D01*
X208669Y548658D01*
X208616Y548360D01*
X208450Y548106D01*
X208199Y547936D01*
X204801Y546529D01*
X201871Y543599D01*
X200286Y539771D01*
X200286Y535629D01*
X201871Y531801D01*
X204801Y528871D01*
X208629Y527286D01*
X212771Y527286D01*
X216599Y528871D01*
X219529Y531801D01*
X221114Y535629D01*
X221114Y539771D01*
X219529Y543599D01*
X216599Y546529D01*
X213201Y547936D01*
X212980Y548076D01*
X212801Y548321D01*
X212731Y548616D01*
X212782Y548915D01*
X212945Y549170D01*
X213196Y549342D01*
X213493Y549402D01*
X233307Y549402D01*
X233565Y549357D01*
X233824Y549200D01*
X234002Y548954D01*
X234069Y548658D01*
X234016Y548360D01*
X233850Y548106D01*
X233599Y547936D01*
X230201Y546529D01*
X227271Y543599D01*
X225686Y539771D01*
X225686Y535629D01*
X227271Y531801D01*
X230201Y528871D01*
X234029Y527286D01*
X238171Y527286D01*
X241999Y528871D01*
X244929Y531801D01*
X246514Y535629D01*
X246514Y539771D01*
X244929Y543599D01*
X241999Y546529D01*
X238601Y547936D01*
X238380Y548076D01*
X238201Y548321D01*
X238131Y548616D01*
X238182Y548915D01*
X238345Y549170D01*
X238596Y549342D01*
X238893Y549402D01*
X258707Y549402D01*
X258965Y549357D01*
X259224Y549200D01*
X259402Y548954D01*
X259469Y548658D01*
X259416Y548360D01*
X259250Y548106D01*
X258999Y547936D01*
X255601Y546529D01*
X252671Y543599D01*
X251086Y539771D01*
X251086Y535629D01*
X252671Y531801D01*
X255601Y528871D01*
X259429Y527286D01*
X263571Y527286D01*
X267399Y528871D01*
X270329Y531801D01*
X270568Y532379D01*
X270708Y532600D01*
X270953Y532779D01*
X271248Y532849D01*
X271547Y532798D01*
X271802Y532635D01*
X271974Y532385D01*
X272034Y532087D01*
X272034Y530929D01*
X279469Y523494D01*
X282881Y523494D01*
X283138Y523449D01*
X283398Y523292D01*
X283575Y523046D01*
X283643Y522750D01*
X283589Y522452D01*
X283424Y522198D01*
X283172Y522028D01*
X281001Y521129D01*
X278071Y518199D01*
X276486Y514371D01*
X276486Y510229D01*
X278071Y506401D01*
X281001Y503471D01*
X284829Y501886D01*
X288971Y501886D01*
X292799Y503471D01*
X295729Y506401D01*
X297314Y510229D01*
X297314Y514371D01*
X296327Y516755D01*
X296269Y517010D01*
X296316Y517310D01*
X296475Y517568D01*
X296722Y517744D01*
X297018Y517809D01*
X297317Y517753D01*
X297569Y517586D01*
X301663Y513492D01*
X301826Y513251D01*
X301886Y512953D01*
X301886Y510229D01*
X303471Y506401D01*
X306401Y503471D01*
X310229Y501886D01*
X314371Y501886D01*
X318199Y503471D01*
X321025Y506298D01*
X321245Y506451D01*
X321540Y506520D01*
X321839Y506470D01*
X322094Y506306D01*
X322266Y506056D01*
X322326Y505759D01*
X322326Y505021D01*
X331285Y496062D01*
X337599Y496062D01*
X337862Y496015D01*
X338120Y495856D01*
X338296Y495608D01*
X338361Y495312D01*
X338305Y495014D01*
X338138Y494761D01*
X336614Y493237D01*
X336372Y493074D01*
X336075Y493014D01*
X312997Y493014D01*
X287312Y467329D01*
X287071Y467166D01*
X286773Y467106D01*
X259391Y467106D01*
X259133Y467151D01*
X258874Y467308D01*
X258696Y467554D01*
X258629Y467850D01*
X258682Y468148D01*
X258848Y468403D01*
X259099Y468572D01*
X259974Y468935D01*
X262196Y471157D01*
X263399Y474060D01*
X263399Y477202D01*
X262196Y480105D01*
X259974Y482327D01*
X257071Y483530D01*
X253929Y483530D01*
X251026Y482327D01*
X248804Y480105D01*
X247601Y477202D01*
X247601Y474060D01*
X248804Y471157D01*
X251026Y468935D01*
X253058Y468093D01*
X253288Y467944D01*
X253463Y467697D01*
X253528Y467401D01*
X253473Y467103D01*
X253305Y466850D01*
X229362Y442907D01*
X229362Y287775D01*
X229306Y287489D01*
X229139Y287236D01*
X184671Y242768D01*
X184457Y242617D01*
G37*
%LPC*%
G36*
X234029Y501886D02*
X238171Y501886D01*
X241999Y503471D01*
X244929Y506401D01*
X246514Y510229D01*
X246514Y514371D01*
X244929Y518199D01*
X241999Y521129D01*
X238171Y522714D01*
X234029Y522714D01*
X230201Y521129D01*
X227271Y518199D01*
X225686Y514371D01*
X225686Y510229D01*
X227271Y506401D01*
X230201Y503471D01*
X234029Y501886D01*
G37*
G36*
X180110Y301641D02*
X184371Y301641D01*
X183858Y302881D01*
X181350Y305389D01*
X180110Y305902D01*
X180110Y301641D01*
G37*
G36*
X168229Y301641D02*
X172490Y301641D01*
X172490Y305902D01*
X171250Y305389D01*
X168742Y302881D01*
X168229Y301641D01*
G37*
G36*
X171250Y290273D02*
X172490Y289760D01*
X172490Y294021D01*
X168229Y294021D01*
X168742Y292781D01*
X171250Y290273D01*
G37*
G36*
X180110Y294021D02*
X180110Y289760D01*
X181350Y290273D01*
X183858Y292781D01*
X184371Y294021D01*
X180110Y294021D01*
G37*
%LPD*%
G36*
X90224Y405950D02*
X89928Y405885D01*
X89630Y405940D01*
X89377Y406108D01*
X89339Y406146D01*
X88576Y406146D01*
X88301Y406197D01*
X88046Y406361D01*
X87874Y406611D01*
X87814Y406908D01*
X87814Y423651D01*
X86921Y424544D01*
X83449Y424544D01*
X83163Y424600D01*
X82910Y424767D01*
X75852Y431825D01*
X75699Y432045D01*
X75629Y432340D01*
X75680Y432639D01*
X75843Y432894D01*
X76093Y433066D01*
X76391Y433126D01*
X80281Y433126D01*
X81174Y434019D01*
X81174Y435864D01*
X81225Y436139D01*
X81389Y436394D01*
X81639Y436566D01*
X81936Y436626D01*
X85093Y436626D01*
X108966Y460499D01*
X108966Y474911D01*
X104610Y479267D01*
X104457Y479487D01*
X104387Y479782D01*
X104438Y480081D01*
X104601Y480336D01*
X104851Y480508D01*
X105149Y480568D01*
X105315Y480568D01*
X107696Y482949D01*
X107696Y485147D01*
X107752Y485433D01*
X107919Y485686D01*
X111983Y489750D01*
X112203Y489903D01*
X112498Y489973D01*
X112797Y489922D01*
X113052Y489759D01*
X113224Y489509D01*
X113284Y489211D01*
X113284Y487521D01*
X113315Y487490D01*
X113478Y487248D01*
X113538Y486951D01*
X113538Y486476D01*
X113487Y486201D01*
X113323Y485946D01*
X113073Y485774D01*
X112776Y485714D01*
X112239Y485714D01*
X111346Y484821D01*
X111346Y468809D01*
X112239Y467916D01*
X114381Y467916D01*
X114644Y467869D01*
X114902Y467710D01*
X115078Y467462D01*
X115143Y467166D01*
X115087Y466868D01*
X114920Y466615D01*
X114808Y466503D01*
X114808Y463137D01*
X116220Y461725D01*
X116378Y461494D01*
X116443Y461198D01*
X116387Y460900D01*
X116220Y460647D01*
X101820Y446247D01*
X101578Y446084D01*
X101281Y446024D01*
X99409Y446024D01*
X97028Y443643D01*
X97028Y440277D01*
X99409Y437896D01*
X102775Y437896D01*
X105156Y440277D01*
X105156Y442802D01*
X105212Y443088D01*
X105379Y443341D01*
X119015Y456977D01*
X119257Y457140D01*
X119554Y457200D01*
X121310Y457200D01*
X130302Y466192D01*
X130302Y467154D01*
X130353Y467429D01*
X130517Y467684D01*
X130767Y467856D01*
X131064Y467916D01*
X131117Y467916D01*
X131358Y467969D01*
X131642Y467916D01*
X132301Y467916D01*
X132587Y467860D01*
X132840Y467693D01*
X141555Y458978D01*
X148068Y458978D01*
X148354Y458922D01*
X148607Y458755D01*
X150162Y457200D01*
X153529Y457200D01*
X155909Y459581D01*
X155909Y463134D01*
X155877Y463272D01*
X155927Y463571D01*
X156091Y463826D01*
X156341Y463998D01*
X156638Y464058D01*
X162491Y464058D01*
X169058Y470625D01*
X169288Y470783D01*
X169584Y470848D01*
X169883Y470792D01*
X170135Y470625D01*
X171826Y468935D01*
X172701Y468572D01*
X172922Y468432D01*
X173101Y468187D01*
X173171Y467892D01*
X173120Y467593D01*
X172957Y467338D01*
X172706Y467166D01*
X172409Y467106D01*
X171337Y467106D01*
X156321Y452089D01*
X156079Y451926D01*
X155782Y451866D01*
X122497Y451866D01*
X95250Y424619D01*
X95250Y411219D01*
X95194Y410933D01*
X95027Y410680D01*
X90455Y406108D01*
X90224Y405950D01*
G37*
G36*
X56837Y424604D02*
X56539Y424544D01*
X54864Y424544D01*
X54589Y424595D01*
X54334Y424759D01*
X54162Y425009D01*
X54102Y425306D01*
X54102Y463557D01*
X54158Y463843D01*
X54325Y464096D01*
X62073Y471844D01*
X62303Y472002D01*
X62600Y472067D01*
X62898Y472012D01*
X63151Y471844D01*
X63769Y471226D01*
X80281Y471226D01*
X81174Y472119D01*
X81174Y473964D01*
X81225Y474239D01*
X81389Y474494D01*
X81639Y474666D01*
X81936Y474726D01*
X84454Y474726D01*
X84729Y474675D01*
X84984Y474511D01*
X85156Y474261D01*
X85216Y473964D01*
X85216Y472719D01*
X86109Y471826D01*
X96771Y471826D01*
X97664Y472719D01*
X97664Y477907D01*
X97711Y478171D01*
X97870Y478429D01*
X98118Y478604D01*
X98414Y478669D01*
X98712Y478614D01*
X98965Y478446D01*
X104171Y473240D01*
X104334Y472999D01*
X104394Y472701D01*
X104394Y462708D01*
X104338Y462422D01*
X104171Y462169D01*
X99981Y457979D01*
X99761Y457826D01*
X99466Y457757D01*
X99167Y457808D01*
X98912Y457971D01*
X98740Y458221D01*
X98680Y458518D01*
X98680Y459150D01*
X95090Y459150D01*
X95090Y456610D01*
X96772Y456610D01*
X97035Y456563D01*
X97293Y456404D01*
X97469Y456156D01*
X97534Y455860D01*
X97478Y455562D01*
X97311Y455309D01*
X83423Y441421D01*
X83181Y441258D01*
X82884Y441198D01*
X81936Y441198D01*
X81661Y441249D01*
X81406Y441413D01*
X81234Y441663D01*
X81174Y441960D01*
X81174Y442281D01*
X80281Y443174D01*
X63769Y443174D01*
X63023Y442428D01*
X62803Y442275D01*
X62508Y442205D01*
X62209Y442256D01*
X61954Y442420D01*
X61782Y442670D01*
X61722Y442967D01*
X61722Y446033D01*
X61769Y446296D01*
X61928Y446554D01*
X62176Y446730D01*
X62472Y446795D01*
X62770Y446739D01*
X63023Y446572D01*
X63769Y445826D01*
X80281Y445826D01*
X81277Y446822D01*
X81510Y446981D01*
X81806Y447045D01*
X81833Y447040D01*
X85503Y447040D01*
X87884Y449421D01*
X87884Y452787D01*
X85467Y455204D01*
X85290Y455168D01*
X82137Y455168D01*
X82101Y455132D01*
X81870Y454974D01*
X81574Y454909D01*
X81276Y454965D01*
X81023Y455132D01*
X80281Y455874D01*
X63769Y455874D01*
X63023Y455128D01*
X62803Y454975D01*
X62508Y454905D01*
X62209Y454956D01*
X61954Y455120D01*
X61782Y455370D01*
X61722Y455667D01*
X61722Y458733D01*
X61769Y458996D01*
X61928Y459254D01*
X62176Y459430D01*
X62472Y459495D01*
X62770Y459439D01*
X63023Y459272D01*
X63769Y458526D01*
X80281Y458526D01*
X81174Y459419D01*
X81174Y467681D01*
X80281Y468574D01*
X63769Y468574D01*
X62876Y467681D01*
X62876Y466344D01*
X62825Y466069D01*
X62661Y465814D01*
X62411Y465642D01*
X62114Y465582D01*
X61537Y465582D01*
X57150Y461195D01*
X57150Y425742D01*
X57231Y425625D01*
X57301Y425330D01*
X57250Y425031D01*
X57087Y424776D01*
X56837Y424604D01*
G37*
%LPC*%
G36*
X84200Y458098D02*
X85724Y456574D01*
X85901Y456610D01*
X87790Y456610D01*
X87790Y466450D01*
X98680Y466450D01*
X98680Y467502D01*
X97192Y468990D01*
X85688Y468990D01*
X84200Y467502D01*
X84200Y458098D01*
G37*
%LPD*%
G36*
X410515Y201990D02*
X410217Y201930D01*
X406647Y201930D01*
X406361Y201986D01*
X406108Y202153D01*
X339275Y268986D01*
X264915Y268986D01*
X264629Y269042D01*
X264376Y269209D01*
X263562Y270023D01*
X263401Y270259D01*
X263339Y270556D01*
X263396Y270854D01*
X263399Y270860D01*
X263399Y274002D01*
X262196Y276905D01*
X259974Y279127D01*
X257071Y280330D01*
X253929Y280330D01*
X251026Y279127D01*
X248804Y276905D01*
X247592Y273980D01*
X247452Y273760D01*
X247207Y273580D01*
X246912Y273510D01*
X246613Y273561D01*
X246358Y273725D01*
X246186Y273975D01*
X246126Y274272D01*
X246126Y295990D01*
X246171Y296248D01*
X246328Y296507D01*
X246574Y296684D01*
X246870Y296752D01*
X247168Y296699D01*
X247423Y296533D01*
X247592Y296282D01*
X248804Y293357D01*
X251026Y291135D01*
X253929Y289932D01*
X257071Y289932D01*
X259974Y291135D01*
X262196Y293357D01*
X263399Y296260D01*
X263399Y299402D01*
X262196Y302305D01*
X259974Y304527D01*
X257071Y305730D01*
X253929Y305730D01*
X251026Y304527D01*
X248804Y302305D01*
X247592Y299380D01*
X247452Y299160D01*
X247207Y298980D01*
X246912Y298910D01*
X246613Y298961D01*
X246358Y299125D01*
X246186Y299375D01*
X246126Y299672D01*
X246126Y318735D01*
X246171Y318993D01*
X246328Y319252D01*
X246574Y319429D01*
X246870Y319497D01*
X247168Y319444D01*
X247423Y319278D01*
X247592Y319027D01*
X247942Y318181D01*
X250450Y315673D01*
X251690Y315160D01*
X251690Y331302D01*
X250450Y330789D01*
X247942Y328281D01*
X247592Y327435D01*
X247452Y327215D01*
X247207Y327035D01*
X246912Y326965D01*
X246613Y327016D01*
X246358Y327180D01*
X246186Y327430D01*
X246126Y327727D01*
X246126Y346790D01*
X246171Y347048D01*
X246328Y347307D01*
X246574Y347484D01*
X246870Y347552D01*
X247168Y347499D01*
X247423Y347333D01*
X247592Y347082D01*
X248804Y344157D01*
X251026Y341935D01*
X253929Y340732D01*
X257071Y340732D01*
X259974Y341935D01*
X260141Y342101D01*
X260371Y342259D01*
X260667Y342324D01*
X260966Y342268D01*
X261218Y342101D01*
X262705Y340614D01*
X264599Y340614D01*
X268948Y344963D01*
X269189Y345126D01*
X269487Y345186D01*
X271474Y345186D01*
X271749Y345135D01*
X272004Y344971D01*
X272176Y344721D01*
X272236Y344424D01*
X272236Y344269D01*
X272348Y344157D01*
X272506Y343927D01*
X272571Y343631D01*
X272515Y343332D01*
X272348Y343080D01*
X271220Y341952D01*
X271220Y340900D01*
X282500Y340900D01*
X282500Y341952D01*
X281373Y343080D01*
X281215Y343310D01*
X281149Y343606D01*
X281205Y343904D01*
X281373Y344157D01*
X281484Y344269D01*
X281484Y344424D01*
X281535Y344699D01*
X281699Y344954D01*
X281949Y345126D01*
X282246Y345186D01*
X290974Y345186D01*
X291249Y345135D01*
X291504Y344971D01*
X291676Y344721D01*
X291736Y344424D01*
X291736Y342549D01*
X292629Y341656D01*
X311891Y341656D01*
X312784Y342549D01*
X312784Y353811D01*
X311891Y354704D01*
X292629Y354704D01*
X291736Y353811D01*
X291736Y350520D01*
X291685Y350245D01*
X291521Y349990D01*
X291271Y349818D01*
X290974Y349758D01*
X282246Y349758D01*
X281971Y349809D01*
X281716Y349973D01*
X281544Y350223D01*
X281484Y350520D01*
X281484Y351131D01*
X280591Y352024D01*
X273129Y352024D01*
X272236Y351131D01*
X272236Y350520D01*
X272185Y350245D01*
X272021Y349990D01*
X271771Y349818D01*
X271474Y349758D01*
X267277Y349758D01*
X264700Y347181D01*
X264480Y347028D01*
X264185Y346958D01*
X263886Y347009D01*
X263631Y347172D01*
X263459Y347422D01*
X263399Y347720D01*
X263399Y350202D01*
X262196Y353105D01*
X259974Y355327D01*
X257071Y356530D01*
X253929Y356530D01*
X251026Y355327D01*
X248804Y353105D01*
X247592Y350180D01*
X247452Y349960D01*
X247207Y349780D01*
X246912Y349710D01*
X246613Y349761D01*
X246358Y349925D01*
X246186Y350175D01*
X246126Y350472D01*
X246126Y372190D01*
X246171Y372448D01*
X246328Y372707D01*
X246574Y372884D01*
X246870Y372952D01*
X247168Y372899D01*
X247423Y372733D01*
X247592Y372482D01*
X248804Y369557D01*
X251026Y367335D01*
X253929Y366132D01*
X257071Y366132D01*
X259974Y367335D01*
X260395Y367755D01*
X260625Y367913D01*
X260921Y367978D01*
X261220Y367922D01*
X261472Y367755D01*
X262705Y366522D01*
X264599Y366522D01*
X268948Y370871D01*
X269189Y371034D01*
X269487Y371094D01*
X271474Y371094D01*
X271749Y371043D01*
X272004Y370879D01*
X272176Y370629D01*
X272236Y370332D01*
X272236Y369669D01*
X272348Y369557D01*
X272506Y369327D01*
X272571Y369031D01*
X272515Y368732D01*
X272348Y368480D01*
X271220Y367352D01*
X271220Y366300D01*
X282500Y366300D01*
X282500Y367352D01*
X281373Y368480D01*
X281215Y368710D01*
X281149Y369006D01*
X281205Y369304D01*
X281373Y369557D01*
X281484Y369669D01*
X281484Y370332D01*
X281535Y370607D01*
X281699Y370862D01*
X281949Y371034D01*
X282246Y371094D01*
X290974Y371094D01*
X291249Y371043D01*
X291504Y370879D01*
X291676Y370629D01*
X291736Y370332D01*
X291736Y367549D01*
X292629Y366656D01*
X311891Y366656D01*
X312784Y367549D01*
X312784Y378811D01*
X311891Y379704D01*
X292629Y379704D01*
X291736Y378811D01*
X291736Y376428D01*
X291685Y376153D01*
X291521Y375898D01*
X291271Y375726D01*
X290974Y375666D01*
X282246Y375666D01*
X281971Y375717D01*
X281716Y375881D01*
X281544Y376131D01*
X281484Y376428D01*
X281484Y376531D01*
X280591Y377424D01*
X273129Y377424D01*
X272236Y376531D01*
X272236Y376428D01*
X272185Y376153D01*
X272021Y375898D01*
X271771Y375726D01*
X271474Y375666D01*
X267277Y375666D01*
X264700Y373089D01*
X264480Y372936D01*
X264185Y372866D01*
X263886Y372917D01*
X263631Y373080D01*
X263459Y373330D01*
X263399Y373628D01*
X263399Y375602D01*
X262196Y378505D01*
X259974Y380727D01*
X257071Y381930D01*
X253929Y381930D01*
X251026Y380727D01*
X248804Y378505D01*
X247592Y375580D01*
X247452Y375360D01*
X247207Y375180D01*
X246912Y375110D01*
X246613Y375161D01*
X246358Y375325D01*
X246186Y375575D01*
X246126Y375872D01*
X246126Y397590D01*
X246171Y397848D01*
X246328Y398107D01*
X246574Y398284D01*
X246870Y398352D01*
X247168Y398299D01*
X247423Y398133D01*
X247592Y397882D01*
X248804Y394957D01*
X251026Y392735D01*
X253929Y391532D01*
X257071Y391532D01*
X259974Y392735D01*
X262196Y394957D01*
X263399Y397860D01*
X263399Y401002D01*
X262196Y403905D01*
X259974Y406127D01*
X257071Y407330D01*
X253929Y407330D01*
X251026Y406127D01*
X248804Y403905D01*
X247592Y400980D01*
X247452Y400760D01*
X247207Y400580D01*
X246912Y400510D01*
X246613Y400561D01*
X246358Y400725D01*
X246186Y400975D01*
X246126Y401272D01*
X246126Y422990D01*
X246171Y423248D01*
X246328Y423507D01*
X246574Y423684D01*
X246870Y423752D01*
X247168Y423699D01*
X247423Y423533D01*
X247592Y423282D01*
X248804Y420357D01*
X251026Y418135D01*
X253929Y416932D01*
X257071Y416932D01*
X259974Y418135D01*
X262196Y420357D01*
X263399Y423260D01*
X263399Y426402D01*
X262196Y429305D01*
X259974Y431527D01*
X257071Y432730D01*
X253929Y432730D01*
X251026Y431527D01*
X248804Y429305D01*
X247592Y426380D01*
X247452Y426160D01*
X247207Y425980D01*
X246912Y425910D01*
X246613Y425961D01*
X246358Y426125D01*
X246186Y426375D01*
X246126Y426672D01*
X246126Y434601D01*
X246182Y434887D01*
X246349Y435140D01*
X253318Y442109D01*
X253559Y442272D01*
X253857Y442332D01*
X257071Y442332D01*
X259974Y443535D01*
X262196Y445757D01*
X263399Y448660D01*
X263399Y451802D01*
X262196Y454705D01*
X259974Y456927D01*
X257071Y458130D01*
X253929Y458130D01*
X252555Y457561D01*
X252300Y457504D01*
X252000Y457550D01*
X251742Y457709D01*
X251567Y457957D01*
X251502Y458253D01*
X251557Y458551D01*
X251725Y458804D01*
X255232Y462311D01*
X255473Y462474D01*
X255771Y462534D01*
X288983Y462534D01*
X289021Y462572D01*
X289241Y462725D01*
X289536Y462795D01*
X289835Y462744D01*
X290090Y462581D01*
X290262Y462331D01*
X290322Y462033D01*
X290322Y457777D01*
X300805Y447294D01*
X305595Y447294D01*
X305858Y447247D01*
X306116Y447088D01*
X306292Y446840D01*
X306357Y446544D01*
X306301Y446246D01*
X306134Y445993D01*
X303784Y443643D01*
X303784Y440277D01*
X306165Y437896D01*
X309531Y437896D01*
X311086Y439451D01*
X311328Y439614D01*
X311625Y439674D01*
X316559Y439674D01*
X316834Y439623D01*
X317089Y439459D01*
X317261Y439209D01*
X317321Y438912D01*
X317321Y433978D01*
X317274Y433715D01*
X317115Y433457D01*
X316867Y433281D01*
X316571Y433216D01*
X316273Y433272D01*
X316020Y433439D01*
X315627Y433832D01*
X312261Y433832D01*
X309880Y431451D01*
X309880Y428085D01*
X312261Y425704D01*
X315627Y425704D01*
X316020Y426097D01*
X316240Y426250D01*
X316535Y426320D01*
X316834Y426269D01*
X317089Y426105D01*
X317261Y425855D01*
X317321Y425558D01*
X317321Y419989D01*
X318214Y419096D01*
X327163Y419096D01*
X327449Y419040D01*
X327702Y418873D01*
X332517Y414058D01*
X332680Y413817D01*
X332740Y413519D01*
X332740Y411321D01*
X335121Y408940D01*
X337319Y408940D01*
X337605Y408884D01*
X337858Y408717D01*
X364782Y381793D01*
X364935Y381573D01*
X365005Y381278D01*
X364954Y380979D01*
X364791Y380724D01*
X364541Y380552D01*
X364243Y380492D01*
X361029Y380492D01*
X358648Y378111D01*
X358648Y374745D01*
X361029Y372364D01*
X363227Y372364D01*
X363513Y372308D01*
X363766Y372141D01*
X368859Y367048D01*
X369017Y366818D01*
X369082Y366521D01*
X369027Y366223D01*
X368859Y365970D01*
X368808Y365919D01*
X368808Y362553D01*
X369540Y361821D01*
X369693Y361601D01*
X369763Y361306D01*
X369712Y361007D01*
X369548Y360752D01*
X369298Y360580D01*
X369001Y360520D01*
X366890Y360520D01*
X366890Y354230D01*
X364390Y354230D01*
X364390Y360520D01*
X361890Y360520D01*
X361890Y350440D01*
X363545Y350440D01*
X363808Y350393D01*
X364066Y350234D01*
X364241Y349986D01*
X364307Y349690D01*
X364251Y349392D01*
X364083Y349139D01*
X359671Y344727D01*
X359430Y344564D01*
X359133Y344504D01*
X358759Y344504D01*
X358679Y344424D01*
X358448Y344266D01*
X358152Y344201D01*
X357854Y344257D01*
X357601Y344424D01*
X357521Y344504D01*
X355139Y344504D01*
X354876Y344551D01*
X354618Y344710D01*
X354442Y344958D01*
X354377Y345254D01*
X354433Y345552D01*
X354584Y345780D01*
X354584Y349155D01*
X353584Y350155D01*
X353431Y350375D01*
X353361Y350670D01*
X353412Y350969D01*
X353576Y351224D01*
X353826Y351396D01*
X354123Y351456D01*
X357006Y351456D01*
X357292Y351400D01*
X357545Y351233D01*
X358338Y350440D01*
X359390Y350440D01*
X359390Y360571D01*
X359389Y360571D01*
X359134Y360735D01*
X358962Y360985D01*
X358902Y361282D01*
X358902Y371279D01*
X351467Y378714D01*
X346525Y378714D01*
X325374Y357563D01*
X325374Y297757D01*
X329469Y293662D01*
X329632Y293421D01*
X329692Y293123D01*
X329692Y290925D01*
X332073Y288544D01*
X335439Y288544D01*
X337522Y290627D01*
X337753Y290785D01*
X338049Y290850D01*
X338347Y290795D01*
X338600Y290627D01*
X339128Y290099D01*
X400355Y228872D01*
X400513Y228642D01*
X400578Y228345D01*
X400523Y228047D01*
X400355Y227794D01*
X399796Y227235D01*
X399796Y223869D01*
X402177Y221488D01*
X405543Y221488D01*
X406346Y222291D01*
X406577Y222449D01*
X406873Y222514D01*
X407171Y222458D01*
X407424Y222291D01*
X407749Y221966D01*
X408432Y221966D01*
X408707Y221915D01*
X408962Y221751D01*
X409134Y221501D01*
X409194Y221204D01*
X409194Y215461D01*
X416852Y207803D01*
X417005Y207583D01*
X417075Y207288D01*
X417024Y206989D01*
X416861Y206734D01*
X416611Y206562D01*
X416313Y206502D01*
X415105Y206502D01*
X410756Y202153D01*
X410515Y201990D01*
G37*
%LPC*%
G36*
X279660Y358160D02*
X281012Y358160D01*
X282500Y359648D01*
X282500Y360700D01*
X279660Y360700D01*
X279660Y358160D01*
G37*
G36*
X272708Y358160D02*
X274060Y358160D01*
X274060Y360700D01*
X271220Y360700D01*
X271220Y359648D01*
X272708Y358160D01*
G37*
G36*
X272708Y332760D02*
X274060Y332760D01*
X274060Y335300D01*
X271220Y335300D01*
X271220Y334248D01*
X272708Y332760D01*
G37*
G36*
X279660Y332760D02*
X281012Y332760D01*
X282500Y334248D01*
X282500Y335300D01*
X279660Y335300D01*
X279660Y332760D01*
G37*
G36*
X259310Y327041D02*
X263571Y327041D01*
X263058Y328281D01*
X260550Y330789D01*
X259310Y331302D01*
X259310Y327041D01*
G37*
G36*
X259310Y319421D02*
X259310Y315160D01*
X260550Y315673D01*
X263058Y318181D01*
X263571Y319421D01*
X259310Y319421D01*
G37*
G36*
X292596Y305750D02*
X295910Y305750D01*
X295910Y309064D01*
X295166Y308756D01*
X292904Y306494D01*
X292596Y305750D01*
G37*
G36*
X303530Y305750D02*
X306844Y305750D01*
X306536Y306494D01*
X304274Y308756D01*
X303530Y309064D01*
X303530Y305750D01*
G37*
G36*
X303530Y298130D02*
X303530Y294816D01*
X304274Y295124D01*
X306536Y297386D01*
X306844Y298130D01*
X303530Y298130D01*
G37*
G36*
X295166Y295124D02*
X295910Y294816D01*
X295910Y298130D01*
X292596Y298130D01*
X292904Y297386D01*
X295166Y295124D01*
G37*
G36*
X293589Y274916D02*
X305851Y274916D01*
X306744Y275809D01*
X306744Y288071D01*
X305851Y288964D01*
X293589Y288964D01*
X292696Y288071D01*
X292696Y275809D01*
X293589Y274916D01*
G37*
%LPD*%
G36*
X124935Y380953D02*
X124640Y380883D01*
X124341Y380934D01*
X124086Y381097D01*
X123914Y381347D01*
X123854Y381645D01*
X123854Y398251D01*
X122961Y399144D01*
X111199Y399144D01*
X110306Y398251D01*
X110306Y394716D01*
X110255Y394441D01*
X110091Y394186D01*
X109841Y394014D01*
X109544Y393954D01*
X95217Y393954D01*
X94931Y394010D01*
X94678Y394177D01*
X93123Y395732D01*
X92957Y395732D01*
X92693Y395779D01*
X92435Y395938D01*
X92260Y396186D01*
X92195Y396482D01*
X92250Y396780D01*
X92418Y397033D01*
X102578Y407193D01*
X102819Y407356D01*
X103117Y407416D01*
X105315Y407416D01*
X107696Y409797D01*
X107696Y411995D01*
X107752Y412281D01*
X107919Y412534D01*
X110045Y414660D01*
X110265Y414813D01*
X110560Y414883D01*
X110859Y414832D01*
X111114Y414669D01*
X111286Y414419D01*
X111346Y414121D01*
X111346Y410049D01*
X112239Y409156D01*
X118117Y409156D01*
X118358Y409209D01*
X118642Y409156D01*
X124617Y409156D01*
X124858Y409209D01*
X125142Y409156D01*
X131117Y409156D01*
X131358Y409209D01*
X131642Y409156D01*
X137617Y409156D01*
X137858Y409209D01*
X138142Y409156D01*
X144117Y409156D01*
X144358Y409209D01*
X144642Y409156D01*
X149486Y409156D01*
X149772Y409100D01*
X150025Y408933D01*
X150818Y408140D01*
X151870Y408140D01*
X151870Y427970D01*
X151130Y427970D01*
X150855Y428021D01*
X150600Y428185D01*
X150428Y428435D01*
X150368Y428732D01*
X150368Y431451D01*
X147987Y433832D01*
X145034Y433832D01*
X144759Y433883D01*
X144504Y434047D01*
X144332Y434297D01*
X144272Y434594D01*
X144272Y436023D01*
X143446Y436849D01*
X143293Y437069D01*
X143223Y437364D01*
X143274Y437663D01*
X143438Y437918D01*
X143688Y438090D01*
X143985Y438150D01*
X148623Y438150D01*
X148909Y438094D01*
X149162Y437927D01*
X150717Y436372D01*
X154083Y436372D01*
X156464Y438753D01*
X156464Y442119D01*
X155638Y442945D01*
X155485Y443165D01*
X155415Y443460D01*
X155466Y443759D01*
X155630Y444014D01*
X155880Y444186D01*
X156177Y444246D01*
X167063Y444246D01*
X168550Y445733D01*
X168780Y445891D01*
X169076Y445956D01*
X169375Y445900D01*
X169627Y445733D01*
X171826Y443535D01*
X174183Y442558D01*
X174413Y442410D01*
X174588Y442162D01*
X174653Y441866D01*
X174598Y441568D01*
X174430Y441315D01*
X162306Y429191D01*
X162306Y412743D01*
X162250Y412457D01*
X162083Y412204D01*
X160211Y410332D01*
X159991Y410179D01*
X159696Y410109D01*
X159397Y410160D01*
X159142Y410323D01*
X158970Y410573D01*
X158910Y410871D01*
X158910Y415805D01*
X156370Y415805D01*
X156370Y408106D01*
X156443Y408093D01*
X156701Y407934D01*
X156876Y407686D01*
X156941Y407390D01*
X156886Y407092D01*
X156718Y406839D01*
X152294Y402415D01*
X152053Y402252D01*
X151755Y402192D01*
X138597Y402192D01*
X129413Y393008D01*
X129413Y385680D01*
X129357Y385394D01*
X129190Y385141D01*
X125155Y381106D01*
X124935Y380953D01*
G37*
%LPC*%
G36*
X156370Y420305D02*
X158910Y420305D01*
X158910Y426482D01*
X157422Y427970D01*
X156370Y427970D01*
X156370Y420305D01*
G37*
%LPD*%
G36*
X168199Y232470D02*
X167901Y232410D01*
X151355Y232410D01*
X151092Y232457D01*
X150834Y232616D01*
X150658Y232864D01*
X150593Y233160D01*
X150649Y233458D01*
X150816Y233711D01*
X151314Y234209D01*
X151314Y240792D01*
X151365Y241067D01*
X151529Y241322D01*
X151779Y241494D01*
X152076Y241554D01*
X152836Y241554D01*
X153122Y241498D01*
X153375Y241331D01*
X154675Y240030D01*
X158253Y240030D01*
X160782Y242559D01*
X160782Y246137D01*
X158253Y248666D01*
X154675Y248666D01*
X152615Y246605D01*
X152395Y246452D01*
X152100Y246383D01*
X151801Y246433D01*
X151546Y246597D01*
X151374Y246847D01*
X151314Y247144D01*
X151314Y253471D01*
X150421Y254364D01*
X138659Y254364D01*
X137851Y253556D01*
X137620Y253398D01*
X137324Y253333D01*
X137026Y253388D01*
X136773Y253556D01*
X125946Y264383D01*
X125793Y264603D01*
X125723Y264898D01*
X125774Y265197D01*
X125937Y265452D01*
X126187Y265624D01*
X126485Y265684D01*
X126651Y265684D01*
X127486Y266519D01*
X127717Y266677D01*
X128013Y266742D01*
X128311Y266687D01*
X128564Y266519D01*
X129287Y265796D01*
X134873Y265796D01*
X136604Y267527D01*
X136604Y272513D01*
X136054Y273063D01*
X135896Y273293D01*
X135831Y273589D01*
X135887Y273888D01*
X136054Y274140D01*
X137620Y275706D01*
X137620Y275920D01*
X126540Y275920D01*
X126540Y275706D01*
X127133Y275113D01*
X127286Y274893D01*
X127356Y274598D01*
X127305Y274299D01*
X127142Y274044D01*
X126892Y273872D01*
X126595Y273812D01*
X123285Y273812D01*
X122459Y272986D01*
X122239Y272833D01*
X121944Y272763D01*
X121645Y272814D01*
X121390Y272978D01*
X121218Y273228D01*
X121158Y273525D01*
X121158Y293570D01*
X121205Y293834D01*
X121364Y294092D01*
X121612Y294267D01*
X121908Y294332D01*
X122206Y294277D01*
X122459Y294109D01*
X122948Y293620D01*
X129125Y293620D01*
X129125Y300660D01*
X141290Y300660D01*
X141290Y301752D01*
X141341Y302027D01*
X141505Y302282D01*
X141755Y302454D01*
X142052Y302514D01*
X142974Y302514D01*
X143260Y302458D01*
X143513Y302291D01*
X162083Y283721D01*
X162246Y283479D01*
X162306Y283182D01*
X162306Y259657D01*
X169494Y252469D01*
X169654Y252233D01*
X169717Y251937D01*
X169659Y251639D01*
X168401Y248602D01*
X168401Y245460D01*
X169604Y242557D01*
X171826Y240335D01*
X173824Y239507D01*
X174054Y239359D01*
X174229Y239111D01*
X174294Y238815D01*
X174239Y238517D01*
X174071Y238264D01*
X168440Y232633D01*
X168199Y232470D01*
G37*
%LPC*%
G36*
X133625Y293620D02*
X139802Y293620D01*
X141290Y295108D01*
X141290Y296160D01*
X133625Y296160D01*
X133625Y293620D01*
G37*
G36*
X134780Y281320D02*
X137620Y281320D01*
X137620Y281534D01*
X135294Y283860D01*
X134780Y283860D01*
X134780Y281320D01*
G37*
G36*
X126540Y281320D02*
X129380Y281320D01*
X129380Y283860D01*
X128866Y283860D01*
X126540Y281534D01*
X126540Y281320D01*
G37*
%LPD*%
G36*
X364228Y180654D02*
X363931Y180594D01*
X353307Y180594D01*
X353021Y180650D01*
X352768Y180817D01*
X270472Y263113D01*
X270319Y263333D01*
X270249Y263628D01*
X270300Y263927D01*
X270463Y264182D01*
X270713Y264354D01*
X271011Y264414D01*
X337065Y264414D01*
X337351Y264358D01*
X337604Y264191D01*
X383070Y218725D01*
X383223Y218505D01*
X383293Y218210D01*
X383242Y217911D01*
X383079Y217656D01*
X382829Y217484D01*
X382531Y217424D01*
X382365Y217424D01*
X379984Y215043D01*
X379984Y211677D01*
X380543Y211118D01*
X380701Y210887D01*
X380766Y210591D01*
X380711Y210293D01*
X380543Y210040D01*
X371094Y200591D01*
X371094Y199865D01*
X372580Y199865D01*
X372580Y185610D01*
X361105Y185610D01*
X361530Y184582D01*
X363932Y182180D01*
X364223Y182060D01*
X364443Y181920D01*
X364623Y181675D01*
X364693Y181380D01*
X364642Y181081D01*
X364478Y180826D01*
X364228Y180654D01*
G37*
%LPC*%
G36*
X361105Y193230D02*
X364960Y193230D01*
X364960Y197085D01*
X363932Y196660D01*
X361530Y194258D01*
X361105Y193230D01*
G37*
%LPD*%
G36*
X344427Y92919D02*
X344129Y92859D01*
X334637Y92859D01*
X334351Y92915D01*
X334098Y93082D01*
X324393Y102787D01*
X324230Y103028D01*
X324170Y103326D01*
X324170Y181134D01*
X324221Y181409D01*
X324385Y181664D01*
X324635Y181836D01*
X324932Y181896D01*
X325401Y181896D01*
X326294Y182789D01*
X326294Y194413D01*
X326341Y194677D01*
X326500Y194935D01*
X326748Y195110D01*
X327044Y195175D01*
X327342Y195120D01*
X327595Y194952D01*
X378529Y144018D01*
X419296Y144018D01*
X419560Y143971D01*
X419818Y143812D01*
X419993Y143564D01*
X420058Y143268D01*
X420003Y142970D01*
X419835Y142717D01*
X419830Y142712D01*
X419830Y141660D01*
X439660Y141660D01*
X439660Y142712D01*
X438867Y143505D01*
X438704Y143747D01*
X438644Y144044D01*
X438644Y148907D01*
X438591Y149148D01*
X438644Y149432D01*
X438644Y155407D01*
X438591Y155648D01*
X438644Y155932D01*
X438644Y161907D01*
X438591Y162148D01*
X438644Y162432D01*
X438644Y168407D01*
X438591Y168648D01*
X438644Y168932D01*
X438644Y174907D01*
X438591Y175148D01*
X438644Y175432D01*
X438644Y181407D01*
X438591Y181648D01*
X438644Y181932D01*
X438644Y187907D01*
X438591Y188148D01*
X438644Y188432D01*
X438644Y189731D01*
X438700Y190017D01*
X438867Y190270D01*
X439784Y191187D01*
X440004Y191340D01*
X440299Y191410D01*
X440598Y191359D01*
X440853Y191196D01*
X441025Y190946D01*
X441085Y190648D01*
X441085Y154708D01*
X442573Y153220D01*
X455315Y153220D01*
X455315Y210100D01*
X445297Y210100D01*
X445033Y210147D01*
X444775Y210306D01*
X444600Y210554D01*
X444535Y210850D01*
X444590Y211148D01*
X444758Y211401D01*
X462534Y229177D01*
X462534Y263181D01*
X462581Y263444D01*
X462740Y263702D01*
X462988Y263878D01*
X463284Y263943D01*
X463582Y263887D01*
X463835Y263720D01*
X464079Y263476D01*
X475858Y263476D01*
X476144Y263420D01*
X476397Y263253D01*
X478109Y261541D01*
X478262Y261321D01*
X478331Y261026D01*
X478281Y260727D01*
X478117Y260472D01*
X477867Y260300D01*
X477570Y260240D01*
X466503Y260240D01*
X465610Y259347D01*
X465610Y240585D01*
X466503Y239692D01*
X469586Y239692D01*
X469861Y239641D01*
X470116Y239477D01*
X470288Y239227D01*
X470348Y238930D01*
X470348Y211837D01*
X470784Y211401D01*
X470937Y211181D01*
X471007Y210886D01*
X470956Y210587D01*
X470793Y210332D01*
X470543Y210160D01*
X470245Y210100D01*
X462935Y210100D01*
X462935Y153220D01*
X475796Y153220D01*
X476071Y153169D01*
X476326Y153005D01*
X476498Y152755D01*
X476558Y152458D01*
X476558Y152447D01*
X476502Y152161D01*
X476335Y151908D01*
X456476Y132049D01*
X456235Y131886D01*
X455937Y131826D01*
X405983Y131826D01*
X388655Y114498D01*
X388425Y114340D01*
X388128Y114275D01*
X387830Y114330D01*
X387704Y114414D01*
X375399Y114414D01*
X374506Y113521D01*
X374506Y94759D01*
X375105Y94160D01*
X375258Y93940D01*
X375328Y93645D01*
X375277Y93346D01*
X375113Y93091D01*
X374863Y92919D01*
X374566Y92859D01*
X360931Y92859D01*
X360667Y92906D01*
X360409Y93065D01*
X360234Y93313D01*
X360169Y93609D01*
X360224Y93907D01*
X360392Y94160D01*
X360570Y94338D01*
X360570Y100330D01*
X344490Y100330D01*
X344490Y94338D01*
X344668Y94160D01*
X344821Y93940D01*
X344891Y93645D01*
X344840Y93346D01*
X344677Y93091D01*
X344427Y92919D01*
G37*
%LPC*%
G36*
X421318Y134620D02*
X427495Y134620D01*
X427495Y137160D01*
X419830Y137160D01*
X419830Y136108D01*
X421318Y134620D01*
G37*
G36*
X431995Y134620D02*
X438172Y134620D01*
X439660Y136108D01*
X439660Y137160D01*
X431995Y137160D01*
X431995Y134620D01*
G37*
G36*
X356340Y107950D02*
X360570Y107950D01*
X360570Y113942D01*
X359082Y115430D01*
X356340Y115430D01*
X356340Y107950D01*
G37*
G36*
X344490Y107950D02*
X348720Y107950D01*
X348720Y115430D01*
X345978Y115430D01*
X344490Y113942D01*
X344490Y107950D01*
G37*
%LPD*%
G36*
X479152Y210188D02*
X478856Y210123D01*
X478558Y210178D01*
X478305Y210346D01*
X475143Y213508D01*
X474980Y213749D01*
X474920Y214046D01*
X474920Y238930D01*
X474971Y239205D01*
X475135Y239460D01*
X475385Y239632D01*
X475682Y239692D01*
X478765Y239692D01*
X479658Y240585D01*
X479658Y258152D01*
X479705Y258415D01*
X479864Y258673D01*
X480112Y258849D01*
X480408Y258914D01*
X480706Y258858D01*
X480959Y258691D01*
X516607Y223043D01*
X516760Y222823D01*
X516829Y222528D01*
X516779Y222229D01*
X516615Y221974D01*
X516365Y221802D01*
X516068Y221742D01*
X499545Y221742D01*
X499545Y221660D01*
X478590Y221660D01*
X478590Y220608D01*
X479383Y219815D01*
X479546Y219574D01*
X479606Y219276D01*
X479606Y214413D01*
X479659Y214172D01*
X479606Y213888D01*
X479606Y210884D01*
X479559Y210621D01*
X479400Y210363D01*
X479152Y210188D01*
G37*
%LPC*%
G36*
X478590Y226160D02*
X486255Y226160D01*
X486255Y228700D01*
X480078Y228700D01*
X478590Y227212D01*
X478590Y226160D01*
G37*
G36*
X490755Y226160D02*
X498420Y226160D01*
X498420Y227212D01*
X496932Y228700D01*
X490755Y228700D01*
X490755Y226160D01*
G37*
%LPD*%
G36*
X173933Y212658D02*
X173636Y212598D01*
X143590Y212598D01*
X143326Y212645D01*
X143068Y212804D01*
X142893Y213052D01*
X142828Y213348D01*
X142883Y213646D01*
X143051Y213899D01*
X144330Y215178D01*
X144330Y217170D01*
X133230Y217170D01*
X133230Y224790D01*
X144330Y224790D01*
X144330Y227076D01*
X144381Y227351D01*
X144545Y227606D01*
X144795Y227778D01*
X145092Y227838D01*
X169497Y227838D01*
X169760Y227791D01*
X170018Y227632D01*
X170193Y227384D01*
X170258Y227088D01*
X170203Y226790D01*
X170035Y226537D01*
X169604Y226105D01*
X168401Y223202D01*
X168401Y220060D01*
X169604Y217157D01*
X171826Y214935D01*
X173927Y214064D01*
X174148Y213924D01*
X174328Y213679D01*
X174397Y213384D01*
X174346Y213085D01*
X174183Y212830D01*
X173933Y212658D01*
G37*
G36*
X538025Y155052D02*
X537730Y154983D01*
X537431Y155033D01*
X537176Y155197D01*
X537004Y155447D01*
X536944Y155744D01*
X536944Y164238D01*
X536132Y166198D01*
X525451Y176879D01*
X525298Y177099D01*
X525228Y177394D01*
X525279Y177693D01*
X525442Y177948D01*
X525692Y178120D01*
X525990Y178180D01*
X529962Y178180D01*
X531450Y179668D01*
X531450Y181770D01*
X521610Y181770D01*
X521610Y189070D01*
X531450Y189070D01*
X531450Y191172D01*
X529962Y192660D01*
X520558Y192660D01*
X519070Y191172D01*
X519070Y185100D01*
X519023Y184836D01*
X518864Y184578D01*
X518616Y184403D01*
X518320Y184338D01*
X518022Y184393D01*
X517769Y184561D01*
X516617Y185713D01*
X516454Y185954D01*
X516394Y186252D01*
X516394Y195744D01*
X516441Y196008D01*
X516600Y196266D01*
X516848Y196441D01*
X517144Y196506D01*
X517442Y196451D01*
X517695Y196283D01*
X518018Y195960D01*
X527422Y195960D01*
X528910Y197448D01*
X528910Y203633D01*
X528957Y203897D01*
X529116Y204155D01*
X529364Y204330D01*
X529660Y204395D01*
X529958Y204340D01*
X530211Y204172D01*
X532943Y201440D01*
X533101Y201210D01*
X533166Y200913D01*
X533111Y200615D01*
X532943Y200362D01*
X532384Y199803D01*
X532384Y196437D01*
X534765Y194056D01*
X538318Y194056D01*
X538456Y194089D01*
X538755Y194038D01*
X539010Y193874D01*
X539182Y193624D01*
X539242Y193327D01*
X539242Y156518D01*
X539186Y156232D01*
X539019Y155979D01*
X538245Y155205D01*
X538025Y155052D01*
G37*
D10*
X69551Y271289D02*
X72689Y271289D01*
X72689Y268751D01*
X69551Y268751D01*
X69551Y271289D01*
X69551Y279889D02*
X72689Y279889D01*
X72689Y277351D01*
X69551Y277351D01*
X69551Y279889D01*
D11*
X515100Y408940D03*
X500900Y408940D03*
D12*
X411480Y235540D03*
X411480Y226740D03*
D13*
X523720Y334010D03*
X507520Y334010D03*
D11*
X508520Y349250D03*
X522720Y349250D03*
X522720Y203200D03*
X508520Y203200D03*
D14*
X318770Y189420D03*
D15*
X368770Y189420D03*
D11*
X522720Y365760D03*
X508520Y365760D03*
D16*
X419780Y441960D03*
X428580Y441960D03*
D17*
X91440Y462800D03*
X91440Y477000D03*
D10*
X130511Y277351D02*
X133649Y277351D01*
X130511Y277351D02*
X130511Y279889D01*
X133649Y279889D01*
X133649Y277351D01*
X133649Y268751D02*
X130511Y268751D01*
X130511Y271289D01*
X133649Y271289D01*
X133649Y268751D01*
D18*
X276860Y363500D03*
X276860Y373100D03*
X276860Y338100D03*
X276860Y347700D03*
D19*
X299720Y281940D03*
D20*
X299720Y301940D03*
D10*
X159049Y327169D02*
X155911Y327169D01*
X159049Y327169D02*
X159049Y324631D01*
X155911Y324631D01*
X155911Y327169D01*
X155911Y335769D02*
X159049Y335769D01*
X159049Y333231D01*
X155911Y333231D01*
X155911Y335769D01*
D13*
X530070Y137160D03*
X513870Y137160D03*
D11*
X517410Y156210D03*
X531610Y156210D03*
X525260Y185420D03*
X511060Y185420D03*
D21*
X115120Y418055D03*
X121620Y418055D03*
X128120Y418055D03*
X134620Y418055D03*
X141120Y418055D03*
X147620Y418055D03*
X154120Y418055D03*
X154120Y476815D03*
X147620Y476815D03*
X141120Y476815D03*
X134620Y476815D03*
X128120Y476815D03*
X121620Y476815D03*
X115120Y476815D03*
D22*
X72615Y356910D03*
X72615Y350410D03*
X72615Y343910D03*
X72615Y337410D03*
X72615Y330910D03*
X72615Y324410D03*
X72615Y317910D03*
X72615Y311410D03*
X72615Y304910D03*
X72615Y298410D03*
X131375Y298410D03*
X131375Y304910D03*
X131375Y311410D03*
X131375Y317910D03*
X131375Y324410D03*
X131375Y330910D03*
X131375Y337410D03*
X131375Y343910D03*
X131375Y350410D03*
X131375Y356910D03*
X326220Y481370D03*
X326220Y474870D03*
X326220Y468370D03*
X326220Y461870D03*
X326220Y455370D03*
X326220Y448870D03*
X326220Y442370D03*
X326220Y435870D03*
X326220Y429370D03*
X326220Y422870D03*
X384980Y422870D03*
X384980Y429370D03*
X384980Y435870D03*
X384980Y442370D03*
X384980Y448870D03*
X384980Y455370D03*
X384980Y461870D03*
X384980Y468370D03*
X384980Y474870D03*
X384980Y481370D03*
X488505Y139410D03*
X488505Y145910D03*
X488505Y152410D03*
X488505Y158910D03*
X488505Y165410D03*
X488505Y171910D03*
X488505Y178410D03*
X488505Y184910D03*
X488505Y191410D03*
X488505Y197910D03*
X488505Y204410D03*
X488505Y210910D03*
X488505Y217410D03*
X488505Y223910D03*
X429745Y223910D03*
X429745Y217410D03*
X429745Y210910D03*
X429745Y204410D03*
X429745Y197910D03*
X429745Y191410D03*
X429745Y184910D03*
X429745Y178410D03*
X429745Y171910D03*
X429745Y165410D03*
X429745Y158910D03*
X429745Y152410D03*
X429745Y145910D03*
X429745Y139410D03*
D23*
X459125Y181660D03*
D22*
X483729Y341290D03*
X483729Y347790D03*
X483729Y354290D03*
X483729Y360790D03*
X483729Y367290D03*
X483729Y373790D03*
X483729Y380290D03*
X483729Y386790D03*
X483729Y393290D03*
X483729Y399790D03*
X483729Y406290D03*
X483729Y412790D03*
X483729Y419290D03*
X483729Y425790D03*
X424969Y425790D03*
X424969Y419290D03*
X424969Y412790D03*
X424969Y406290D03*
X424969Y399790D03*
X424969Y393290D03*
X424969Y386790D03*
X424969Y380290D03*
X424969Y373790D03*
X424969Y367290D03*
X424969Y360790D03*
X424969Y354290D03*
X424969Y347790D03*
X424969Y341290D03*
D23*
X454349Y383540D03*
D24*
X17785Y476250D03*
X17785Y463550D03*
X17785Y450850D03*
X17785Y438150D03*
X72025Y438150D03*
X72025Y450850D03*
X72025Y463550D03*
X72025Y476250D03*
D25*
X451960Y87525D03*
X451960Y27525D03*
X498960Y57525D03*
D26*
X598170Y104010D03*
X598170Y154010D03*
X598170Y204010D03*
X598170Y254010D03*
X598170Y304010D03*
X598170Y354010D03*
X598170Y404010D03*
X598170Y454010D03*
D27*
X25400Y384558D03*
X25400Y409958D03*
D28*
X83820Y56000D03*
X83820Y71000D03*
X88780Y220980D03*
X73780Y220980D03*
X137040Y220980D03*
X122040Y220980D03*
D29*
X443634Y249966D03*
X472634Y249966D03*
X352530Y104140D03*
X381530Y104140D03*
D30*
X396240Y315220D03*
X396240Y284220D03*
D29*
X443970Y448310D03*
X472970Y448310D03*
X419840Y311150D03*
X448840Y311150D03*
D31*
X51844Y391160D03*
X80844Y391160D03*
D32*
X117080Y388620D03*
X147080Y388620D03*
X81040Y414020D03*
X51040Y414020D03*
D31*
X118850Y163830D03*
X147850Y163830D03*
D32*
X63740Y243840D03*
X93740Y243840D03*
X114540Y243840D03*
X144540Y243840D03*
D30*
X114300Y35800D03*
X114300Y65800D03*
X473710Y270250D03*
X473710Y301250D03*
D33*
X25400Y101600D03*
D34*
X25400Y166600D03*
X70400Y101600D03*
X70400Y166600D03*
D35*
X255500Y145431D03*
D36*
X255500Y170831D03*
X255500Y297831D03*
X255500Y323231D03*
X255500Y196231D03*
X255500Y221631D03*
X255500Y272431D03*
X255500Y247031D03*
X255500Y348631D03*
X255500Y374031D03*
X255500Y399431D03*
X255500Y424831D03*
X255500Y450231D03*
X255500Y475631D03*
X176300Y475631D03*
X176300Y450231D03*
X176300Y424831D03*
X176300Y399431D03*
X176300Y374031D03*
X176300Y348631D03*
X176300Y323231D03*
X176300Y297831D03*
X176300Y272431D03*
X176300Y247031D03*
X176300Y221631D03*
X176300Y196231D03*
X176300Y170831D03*
X176300Y145431D03*
D37*
X83700Y512300D03*
D38*
X83700Y537700D03*
X109100Y512300D03*
X109100Y537700D03*
X134500Y512300D03*
X134500Y537700D03*
X159900Y512300D03*
X159900Y537700D03*
X185300Y512300D03*
X185300Y537700D03*
X210700Y512300D03*
X210700Y537700D03*
X236100Y512300D03*
X236100Y537700D03*
X261500Y512300D03*
X261500Y537700D03*
X286900Y512300D03*
X286900Y537700D03*
X312300Y512300D03*
X312300Y537700D03*
X337700Y512300D03*
X337700Y537700D03*
X363100Y512300D03*
X363100Y537700D03*
X388500Y512300D03*
X388500Y537700D03*
X413900Y512300D03*
X413900Y537700D03*
X439300Y512300D03*
X439300Y537700D03*
X464700Y512300D03*
X464700Y537700D03*
X490100Y512300D03*
X490100Y537700D03*
X515500Y512300D03*
X515500Y537700D03*
X540900Y512300D03*
X540900Y537700D03*
X566300Y512300D03*
X566300Y537700D03*
D39*
X302260Y373180D03*
X302260Y348180D03*
D27*
X193040Y50800D03*
X193040Y25400D03*
X167640Y50800D03*
X167640Y25400D03*
X142240Y50800D03*
X142240Y25400D03*
D14*
X289720Y31260D03*
D40*
X299720Y63760D03*
D14*
X309720Y31260D03*
X353220Y31260D03*
D40*
X363220Y63760D03*
D14*
X373220Y31260D03*
D27*
X223520Y25400D03*
X223520Y50800D03*
X223520Y76200D03*
D41*
X339770Y340480D03*
D42*
X345640Y340480D03*
X350640Y340480D03*
X355640Y340480D03*
X360640Y340480D03*
X365640Y340480D03*
X370640Y340480D03*
D41*
X376510Y340480D03*
X376510Y355480D03*
D42*
X370640Y355480D03*
X365640Y355480D03*
X360640Y355480D03*
X355640Y355480D03*
X350640Y355480D03*
X345640Y355480D03*
D41*
X339770Y355480D03*
D43*
X249810Y118680D03*
X265810Y118680D03*
X249810Y110680D03*
X265810Y110680D03*
X249810Y102680D03*
X265810Y102680D03*
X249810Y94680D03*
X265810Y94680D03*
D44*
X131064Y269748D02*
X124968Y269748D01*
X131064Y269748D02*
X132080Y270020D01*
X132588Y350520D02*
X161544Y350520D01*
X166116Y345948D01*
X167640Y345948D01*
X170688Y348996D01*
X175260Y348996D01*
X132588Y350520D02*
X131375Y350410D01*
X175260Y348996D02*
X176300Y348631D01*
X147828Y176784D02*
X147828Y164592D01*
X147850Y163830D01*
X123444Y45720D02*
X114300Y36576D01*
X114300Y35800D01*
X115824Y477012D02*
X115824Y487680D01*
X117348Y489204D01*
X150876Y489204D01*
X153924Y486156D01*
X153924Y477012D01*
X115824Y477012D02*
X115120Y476815D01*
X153924Y477012D02*
X154120Y476815D01*
X365760Y339852D02*
X365760Y336804D01*
X362712Y333756D01*
X365760Y339852D02*
X365640Y340480D01*
X385572Y475488D02*
X394716Y475488D01*
X397764Y472440D01*
X385572Y475488D02*
X384980Y474870D01*
D45*
X124968Y269748D03*
X147828Y176784D03*
X123444Y45720D03*
X117348Y489204D03*
X362712Y333756D03*
X397764Y472440D03*
D44*
X275844Y118872D02*
X266700Y118872D01*
X265810Y118680D01*
X114300Y417576D02*
X109728Y417576D01*
X103632Y411480D02*
X82296Y390144D01*
X103632Y411480D02*
X109728Y417576D01*
X114300Y417576D02*
X115120Y418055D01*
X82296Y390144D02*
X80844Y391160D01*
X70104Y278892D02*
X65532Y278892D01*
X56388Y288036D01*
X56388Y327660D01*
X54864Y329184D01*
X54864Y332232D01*
X60960Y338328D01*
X60960Y348996D01*
X62484Y350520D01*
X71628Y350520D01*
X70104Y278892D02*
X71120Y278620D01*
X72615Y350410D02*
X71628Y350520D01*
X80772Y364236D02*
X80772Y390144D01*
X80772Y364236D02*
X83820Y361188D01*
X83820Y352044D01*
X82296Y350520D01*
X73152Y350520D01*
X80772Y390144D02*
X80844Y391160D01*
X73152Y350520D02*
X72615Y350410D01*
X329184Y420624D02*
X335280Y414528D01*
X336804Y413004D01*
X329184Y420624D02*
X329184Y422148D01*
X327660Y423672D01*
X361188Y341376D02*
X360640Y340480D01*
X326220Y422870D02*
X327660Y423672D01*
X327660Y475488D02*
X338328Y475488D01*
X350520Y470916D02*
X350520Y445008D01*
X338328Y432816D01*
X338328Y417576D01*
X335280Y414528D01*
X326220Y474870D02*
X327660Y475488D01*
X91440Y477012D02*
X73152Y477012D01*
X72025Y476250D01*
X51816Y464820D02*
X51816Y414528D01*
X51816Y464820D02*
X64008Y477012D01*
X71628Y477012D01*
X51816Y414528D02*
X51040Y414020D01*
X72025Y476250D02*
X71628Y477012D01*
X73152Y298704D02*
X85344Y298704D01*
X73152Y298704D02*
X72615Y298410D01*
X137160Y379476D02*
X146304Y388620D01*
X147080Y388620D01*
X83820Y507492D02*
X83820Y512064D01*
X91440Y477012D02*
X91440Y477000D01*
X83820Y512064D02*
X83700Y512300D01*
D45*
X275844Y118872D03*
X338328Y475488D03*
X350520Y470916D03*
X85344Y298704D03*
X137160Y379476D03*
X336804Y413004D03*
X103632Y411480D03*
D44*
X91440Y485775D02*
X89535Y485775D01*
X91440Y485775D02*
X91440Y477012D01*
X89535Y501777D02*
X83820Y507492D01*
X89535Y501777D02*
X89535Y485775D01*
X361188Y343011D02*
X368871Y350694D01*
X361188Y343011D02*
X361188Y341376D01*
X381000Y368808D02*
X336804Y413004D01*
X380921Y352033D02*
X379582Y350694D01*
X380921Y359331D02*
X381000Y359410D01*
X379582Y350694D02*
X368871Y350694D01*
X380921Y352033D02*
X380921Y359331D01*
X381000Y359410D02*
X381000Y368808D01*
X121920Y419100D02*
X121920Y428244D01*
X120396Y429768D01*
X121920Y419100D02*
X121620Y418055D01*
D45*
X120396Y429768D03*
D44*
X128016Y429768D02*
X128016Y419100D01*
X128120Y418055D01*
D45*
X128016Y429768D03*
D44*
X134112Y428244D02*
X134112Y419100D01*
X134112Y428244D02*
X140208Y434340D01*
X134112Y419100D02*
X134620Y418055D01*
D45*
X140208Y434340D03*
D44*
X141732Y428244D02*
X141732Y419100D01*
X141732Y428244D02*
X143256Y429768D01*
X146304Y429768D01*
X141732Y419100D02*
X141120Y418055D01*
D45*
X146304Y429768D03*
D44*
X164592Y428244D02*
X164592Y411480D01*
X164592Y428244D02*
X175260Y438912D01*
X184404Y438912D01*
X257556Y512064D01*
X260604Y512064D01*
X73152Y344424D02*
X72615Y343910D01*
X260604Y512064D02*
X261500Y512300D01*
X131699Y384417D02*
X91706Y344424D01*
X73152Y344424D01*
X131699Y392061D02*
X139544Y399906D01*
X153018Y399906D01*
X131699Y392061D02*
X131699Y384417D01*
X153018Y399906D02*
X164592Y411480D01*
X85344Y336804D02*
X73152Y336804D01*
X65532Y518160D02*
X73152Y525780D01*
X79248Y525780D01*
X80772Y524256D01*
X86868Y524256D01*
X88392Y525780D01*
X89916Y525780D01*
X96012Y531876D01*
X96012Y544068D01*
X103632Y551688D01*
X266700Y551688D01*
X274320Y544068D01*
X274320Y531876D01*
X280416Y525780D01*
X292608Y525780D01*
X304800Y513588D01*
X310896Y513588D01*
X73152Y336804D02*
X72615Y337410D01*
X310896Y513588D02*
X312300Y512300D01*
D45*
X85344Y336804D03*
X65532Y518160D03*
D44*
X60960Y330708D02*
X71628Y330708D01*
X73152Y551688D02*
X88392Y551688D01*
X91440Y548640D01*
X321564Y547116D02*
X324612Y544068D01*
X324612Y528828D01*
X336804Y516636D01*
X336804Y513588D01*
X72615Y330910D02*
X71628Y330708D01*
X336804Y513588D02*
X337700Y512300D01*
D45*
X60960Y330708D03*
X73152Y551688D03*
X91440Y548640D03*
X321564Y547116D03*
D44*
X71628Y324612D02*
X62484Y324612D01*
X60960Y323088D01*
X60960Y294132D01*
X68580Y286512D01*
X92964Y286512D01*
X134112Y245364D01*
X134112Y233172D01*
X137160Y230124D01*
X140208Y230124D01*
X141732Y231648D01*
X143256Y231648D01*
X144780Y230124D01*
X169164Y230124D01*
X175260Y236220D01*
X181356Y236220D01*
X231648Y286512D01*
X231648Y441960D01*
X254508Y464820D01*
X288036Y464820D01*
X313944Y490728D01*
X339852Y490728D01*
X72615Y324410D02*
X71628Y324612D01*
D45*
X339852Y490728D03*
D44*
X73152Y437388D02*
X73152Y431292D01*
X80772Y423672D01*
X80772Y414528D01*
X73152Y437388D02*
X72025Y438150D01*
X80772Y414528D02*
X81040Y414020D01*
X97536Y483108D02*
X97536Y486156D01*
X110998Y499618D01*
X115570Y499618D01*
X121920Y505968D01*
X121920Y518160D01*
X129540Y525780D01*
X144780Y525780D01*
X303276Y527304D02*
X304800Y525780D01*
X316992Y525780D01*
X324612Y518160D01*
X324612Y505968D01*
X332232Y498348D01*
X345948Y498348D01*
X350520Y502920D01*
X353568Y502920D01*
X358140Y498348D01*
X396240Y498348D01*
X409956Y512064D01*
X413004Y512064D01*
X73152Y438912D02*
X72025Y438150D01*
X413004Y512064D02*
X413900Y512300D01*
D45*
X144780Y525780D03*
X303276Y527304D03*
D44*
X84146Y438912D02*
X73152Y438912D01*
X84146Y438912D02*
X106680Y461446D01*
X106680Y473964D02*
X97536Y483108D01*
X106680Y473964D02*
X106680Y461446D01*
X82296Y310896D02*
X73152Y310896D01*
X82296Y310896D02*
X109728Y338328D01*
X109728Y355092D01*
X124968Y370332D01*
X156972Y370332D01*
X169164Y358140D01*
X391668Y413004D02*
X409956Y431292D01*
X409956Y451104D01*
X463296Y504444D01*
X463296Y512064D01*
X73152Y310896D02*
X72615Y311410D01*
X463296Y512064D02*
X464700Y512300D01*
D45*
X169164Y358140D03*
X391668Y413004D03*
D44*
X82296Y304800D02*
X73152Y304800D01*
X82296Y304800D02*
X112776Y335280D01*
X112776Y353568D01*
X123444Y364236D01*
X155448Y364236D01*
X384048Y413004D02*
X390144Y406908D01*
X393192Y406908D01*
X409956Y423672D01*
X409956Y426720D01*
X413004Y429768D01*
X413004Y449580D01*
X461772Y498348D01*
X472440Y498348D01*
X486156Y512064D01*
X489204Y512064D01*
X73152Y304800D02*
X72615Y304910D01*
X489204Y512064D02*
X490100Y512300D01*
D45*
X155448Y364236D03*
X384048Y413004D03*
D44*
X345948Y481584D02*
X327660Y481584D01*
X326220Y481370D01*
D45*
X345948Y481584D03*
D44*
X326136Y467868D02*
X310896Y467868D01*
X304800Y461772D01*
X301752Y461772D01*
X350520Y548640D02*
X355092Y548640D01*
X358140Y551688D01*
X403860Y551688D01*
X326220Y468370D02*
X326136Y467868D01*
D45*
X301752Y461772D03*
X350520Y548640D03*
X403860Y551688D03*
D44*
X73152Y377952D02*
X73152Y358140D01*
X73152Y377952D02*
X71628Y379476D01*
X71628Y399288D01*
X74676Y402336D01*
X86868Y402336D01*
X88392Y403860D01*
X89916Y402336D01*
X97536Y409956D01*
X97536Y423672D01*
X181356Y464820D02*
X198120Y481584D01*
X198120Y521208D01*
X185928Y533400D01*
X185928Y536448D01*
X73152Y358140D02*
X72615Y356910D01*
X185928Y536448D02*
X185300Y537700D01*
X123444Y449580D02*
X97536Y423672D01*
X123444Y449580D02*
X157044Y449580D01*
X172284Y464820D01*
X181356Y464820D01*
X313944Y429768D02*
X326136Y429768D01*
X326220Y429370D01*
D45*
X313944Y429768D03*
D44*
X83820Y451104D02*
X73152Y451104D01*
X91440Y391668D02*
X112776Y391668D01*
X115824Y388620D01*
X73152Y451104D02*
X72025Y450850D01*
X115824Y388620D02*
X117080Y388620D01*
D45*
X83820Y451104D03*
X91440Y391668D03*
D44*
X307848Y441960D02*
X326136Y441960D01*
X326220Y442370D01*
D45*
X307848Y441960D03*
D44*
X301752Y449580D02*
X326136Y449580D01*
X301752Y449580D02*
X292608Y458724D01*
X292608Y464820D01*
X315468Y487680D01*
X335280Y487680D01*
X338328Y484632D01*
X341376Y484632D01*
X352044Y495300D01*
X352044Y496824D01*
X326136Y449580D02*
X326220Y448870D01*
D45*
X352044Y496824D03*
D44*
X338328Y455676D02*
X327660Y455676D01*
X326220Y455370D01*
D45*
X338328Y455676D03*
D44*
X336804Y461772D02*
X327660Y461772D01*
X336804Y461772D02*
X344424Y469392D01*
X344424Y472440D01*
X359664Y487680D01*
X397764Y487680D01*
X403860Y481584D01*
X327660Y461772D02*
X326220Y461870D01*
D45*
X403860Y481584D03*
D44*
X117348Y164592D02*
X73152Y164592D01*
X71628Y166116D01*
X117348Y164592D02*
X118850Y163830D01*
X71628Y166116D02*
X70400Y166600D01*
X417576Y217932D02*
X428244Y217932D01*
X429745Y217410D01*
X425196Y419100D02*
X437388Y419100D01*
X441960Y219456D02*
X440436Y217932D01*
X429768Y217932D01*
X425196Y419100D02*
X424969Y419290D01*
X429768Y217932D02*
X429745Y217410D01*
X126492Y164592D02*
X118872Y164592D01*
X126492Y164592D02*
X156972Y134112D01*
X239268Y134112D01*
X249936Y144780D01*
X254508Y144780D01*
X118850Y163830D02*
X118872Y164592D01*
X254508Y144780D02*
X255500Y145431D01*
D45*
X417576Y217932D03*
X437388Y419100D03*
X441960Y219456D03*
D44*
X121920Y182880D02*
X92964Y211836D01*
X121920Y182880D02*
X149352Y182880D01*
X172212Y160020D01*
X172212Y155448D01*
X175260Y152400D01*
X175260Y146304D01*
X128016Y475488D02*
X128120Y476815D01*
X175260Y146304D02*
X176300Y145431D01*
D45*
X92964Y211836D03*
X101092Y441960D03*
D44*
X102870Y443738D01*
X102870Y444064D01*
X128016Y467139D02*
X128016Y475488D01*
X128016Y467139D02*
X120363Y459486D01*
X118292Y459486D02*
X102870Y444064D01*
X118292Y459486D02*
X120363Y459486D01*
X121920Y466344D02*
X121920Y475488D01*
X121920Y466344D02*
X120396Y464820D01*
X118872Y464820D01*
X124968Y438912D02*
X137160Y438912D01*
X138684Y440436D01*
X152400Y440436D01*
X237744Y422148D02*
X237744Y268224D01*
X192024Y222504D01*
X121920Y475488D02*
X121620Y476815D01*
D45*
X118872Y464820D03*
X124968Y438912D03*
X152400Y440436D03*
X237744Y422148D03*
X192024Y222504D03*
D44*
X416052Y385572D02*
X423672Y385572D01*
X416052Y385572D02*
X414528Y384048D01*
X408432Y384048D01*
X405384Y387096D01*
X224028Y269748D02*
X184404Y230124D01*
X423672Y385572D02*
X424969Y386790D01*
D45*
X405384Y387096D03*
X362712Y376428D03*
X224028Y269748D03*
X184404Y230124D03*
X372872Y364236D03*
D44*
X372872Y366268D02*
X362712Y376428D01*
X372872Y366268D02*
X372872Y364236D01*
X416052Y393192D02*
X423672Y393192D01*
X416052Y393192D02*
X413004Y390144D01*
X387096Y304800D02*
X365760Y283464D01*
X196596Y234696D02*
X182880Y220980D01*
X176784Y220980D01*
X423672Y393192D02*
X424969Y393290D01*
X176784Y220980D02*
X176300Y221631D01*
D45*
X413004Y390144D03*
X387096Y304800D03*
X365760Y283464D03*
X196596Y234696D03*
D44*
X277368Y373380D02*
X301752Y373380D01*
X277368Y373380D02*
X276860Y373100D01*
X301752Y373380D02*
X302260Y373180D01*
X275844Y373380D02*
X268224Y373380D01*
X263652Y368808D01*
X259080Y373380D01*
X256032Y373380D01*
X275844Y373380D02*
X276860Y373100D01*
X256032Y373380D02*
X255500Y374031D01*
X277368Y347472D02*
X301752Y347472D01*
X277368Y347472D02*
X276860Y347700D01*
X301752Y347472D02*
X302260Y348180D01*
X275844Y347472D02*
X268224Y347472D01*
X263652Y342900D01*
X259080Y347472D01*
X256032Y347472D01*
X275844Y347472D02*
X276860Y347700D01*
X256032Y347472D02*
X255500Y348631D01*
X144780Y324612D02*
X132588Y324612D01*
X144780Y324612D02*
X149352Y329184D01*
X149352Y338328D01*
X153924Y342900D01*
X166116Y342900D01*
X170688Y338328D01*
X181356Y338328D01*
X187452Y344424D01*
X187452Y356616D01*
X176784Y367284D01*
X176784Y373380D01*
X132588Y324612D02*
X131375Y324410D01*
X176784Y373380D02*
X176300Y374031D01*
X143256Y330708D02*
X132588Y330708D01*
X131375Y330910D01*
D45*
X143256Y330708D03*
D44*
X141732Y336804D02*
X132588Y336804D01*
X141732Y336804D02*
X143256Y338328D01*
X167640Y406908D02*
X167640Y409956D01*
X176784Y419100D01*
X176784Y423672D01*
X132588Y336804D02*
X131375Y337410D01*
X176784Y423672D02*
X176300Y424831D01*
D45*
X143256Y338328D03*
X167640Y406908D03*
D44*
X131064Y344424D02*
X118872Y344424D01*
X105156Y423672D02*
X105156Y426720D01*
X124968Y446532D01*
X166116Y446532D01*
X169164Y449580D01*
X175260Y449580D01*
X131064Y344424D02*
X131375Y343910D01*
X175260Y449580D02*
X176300Y450231D01*
D45*
X118872Y344424D03*
X105156Y423672D03*
D44*
X141732Y466344D02*
X141732Y475488D01*
X170688Y475488D02*
X175260Y475488D01*
X141732Y475488D02*
X141120Y476815D01*
X175260Y475488D02*
X176300Y475631D01*
X170688Y475488D02*
X161544Y466344D01*
X141732Y466344D01*
X429768Y192024D02*
X437388Y192024D01*
X440436Y195072D01*
X440436Y208788D01*
X441960Y210312D01*
X440436Y211836D01*
X441960Y213360D01*
X443484Y213360D01*
X460248Y230124D01*
X460248Y272796D01*
X429768Y192024D02*
X429745Y191410D01*
X134112Y475488D02*
X134620Y476815D01*
D45*
X460248Y272796D03*
X151845Y461264D03*
D44*
X142501Y461264D01*
X134112Y469653D01*
X134112Y475488D01*
X131064Y318516D02*
X120396Y318516D01*
X118872Y316992D01*
X118872Y268224D01*
X143256Y243840D01*
X131375Y317910D02*
X131064Y318516D01*
X143256Y243840D02*
X144540Y243840D01*
D46*
X156464Y244348D03*
D44*
X155956Y243840D02*
X144540Y243840D01*
X155956Y243840D02*
X156464Y244348D01*
X155448Y356616D02*
X132588Y356616D01*
X105156Y254508D02*
X94488Y243840D01*
X131375Y356910D02*
X132588Y356616D01*
X94488Y243840D02*
X93740Y243840D01*
X246888Y195072D02*
X254508Y195072D01*
X246888Y195072D02*
X245364Y193548D01*
X193548Y193548D01*
X176784Y210312D01*
X117348Y210312D01*
X92964Y234696D01*
X92964Y243840D01*
X254508Y195072D02*
X255500Y196231D01*
X93740Y243840D02*
X92964Y243840D01*
D45*
X155448Y356616D03*
X105156Y254508D03*
D44*
X403860Y381000D02*
X423672Y381000D01*
X403860Y381000D02*
X348996Y435864D01*
X423672Y381000D02*
X424969Y380290D01*
D45*
X348996Y435864D03*
D44*
X419100Y184404D02*
X428244Y184404D01*
X419100Y184404D02*
X417576Y185928D01*
X417576Y187452D01*
X379476Y164592D02*
X365760Y178308D01*
X352044Y178308D01*
X268224Y262128D01*
X249936Y262128D01*
X243840Y268224D01*
X243840Y435864D01*
X254508Y446532D01*
X254508Y449580D01*
X428244Y184404D02*
X429745Y184910D01*
X255500Y450231D02*
X254508Y449580D01*
D45*
X417576Y187452D03*
X379476Y164592D03*
D44*
X121920Y220980D02*
X121920Y225552D01*
X112776Y234696D01*
X112776Y242316D01*
X114300Y243840D01*
X121920Y220980D02*
X122040Y220980D01*
X114540Y243840D02*
X114300Y243840D01*
X100584Y71628D02*
X83820Y71628D01*
X100584Y71628D02*
X105156Y67056D01*
X114300Y67056D01*
X83820Y71000D02*
X83820Y71628D01*
X114300Y67056D02*
X114300Y65800D01*
D47*
X488505Y158910D02*
X488553Y158862D01*
D48*
X511060Y185420D02*
X511060Y200660D01*
X508520Y203200D01*
X508000Y203720D01*
X508000Y213360D01*
D49*
X508000Y213360D03*
X436880Y284480D03*
D48*
X396500Y284480D01*
X396240Y284220D01*
D50*
X522720Y349250D02*
X522720Y350765D01*
X508370Y365114D01*
D48*
X443849Y284366D02*
X436994Y284366D01*
X436880Y284480D01*
X460733Y301250D02*
X473710Y301250D01*
X460733Y301250D02*
X443849Y284366D01*
X511060Y185420D02*
X510213Y184573D01*
X531610Y163177D02*
X531610Y156210D01*
X521891Y172895D02*
X510213Y184573D01*
X521891Y172895D02*
X531610Y163177D01*
D47*
X497563Y204596D02*
X498012Y205045D01*
X497563Y204596D02*
X488691Y204596D01*
X498012Y205045D02*
X506675Y205045D01*
X508000Y203720D01*
D49*
X508000Y158242D03*
D47*
X507380Y158862D02*
X488553Y158862D01*
X507380Y158862D02*
X508000Y158242D01*
D48*
X501864Y358608D02*
X497840Y358608D01*
D46*
X497840Y358608D03*
D47*
X496044Y358608D01*
X494048Y360604D01*
X484632Y360604D01*
D48*
X498783Y406823D02*
X500900Y408940D01*
X498783Y406823D02*
X508520Y397087D01*
X508520Y365760D01*
D47*
X498360Y406400D02*
X500900Y408940D01*
X498360Y406400D02*
X488950Y406400D01*
D51*
X483839Y406400D02*
X483729Y406290D01*
X483839Y406400D02*
X488950Y406400D01*
D48*
X318770Y189420D02*
X318836Y189354D01*
X318836Y100801D01*
X332112Y87525D01*
X451960Y87525D01*
D44*
X508520Y365760D02*
X509016Y365760D01*
X508370Y365114D01*
X484632Y361188D02*
X483729Y360790D01*
X484632Y360604D02*
X484632Y361188D01*
X521891Y172895D02*
X509016Y160020D01*
X508000Y158242D01*
D48*
X501864Y358608D02*
X508370Y365114D01*
D51*
X488691Y204596D02*
X488505Y204410D01*
D44*
X82296Y318516D02*
X73152Y318516D01*
X82296Y318516D02*
X85344Y321564D01*
X146304Y505968D02*
X146304Y510540D01*
X147828Y512064D01*
X147828Y521208D01*
X158496Y531876D01*
X158496Y536448D01*
X73152Y318516D02*
X72615Y317910D01*
X158496Y536448D02*
X159900Y537700D01*
D45*
X85344Y321564D03*
X103632Y484632D03*
D44*
X115570Y496570D01*
X136906Y496570D02*
X146304Y505968D01*
X136906Y496570D02*
X115570Y496570D01*
X158496Y326136D02*
X167640Y326136D01*
X170688Y323088D01*
X175260Y323088D01*
X158496Y326136D02*
X157480Y325900D01*
X175260Y323088D02*
X176300Y323231D01*
D52*
X488505Y139410D02*
X493590Y139410D01*
X530070Y137160D02*
X530070Y136600D01*
X520233Y126762D01*
X506238Y126762D01*
X493590Y139410D01*
X497143Y144708D02*
X489707Y144708D01*
X488505Y145910D01*
X504691Y137159D02*
X513870Y137160D01*
X504691Y137159D02*
X497143Y144708D01*
X504133Y152410D02*
X505159Y151384D01*
X504133Y152410D02*
X488505Y152410D01*
X512584Y151384D02*
X517410Y156210D01*
X512584Y151384D02*
X505159Y151384D01*
X536523Y148462D02*
X538308Y150248D01*
X538308Y150958D01*
X542290Y154940D01*
X525158Y148462D02*
X517410Y156210D01*
X525158Y148462D02*
X536523Y148462D01*
X542290Y154940D02*
X542290Y201670D01*
X473710Y270250D01*
D46*
X506730Y166370D03*
D51*
X488818Y165723D02*
X488505Y165410D01*
X488818Y165723D02*
X497511Y165723D01*
X498158Y166370D01*
X506730Y166370D01*
D47*
X497377Y178410D02*
X488505Y178410D01*
X497377Y178410D02*
X499944Y175843D01*
D46*
X501650Y173101D03*
D47*
X499944Y174807D02*
X499944Y175843D01*
X499944Y174807D02*
X501650Y173101D01*
D51*
X499870Y184910D02*
X488505Y184910D01*
D47*
X499870Y184910D02*
X500380Y185420D01*
D46*
X500380Y185420D03*
D47*
X498050Y197910D02*
X488505Y197910D01*
X498050Y197910D02*
X501650Y194310D01*
D46*
X501650Y194310D03*
X533400Y227330D03*
D47*
X574850Y227330D01*
X598170Y204010D01*
D44*
X488505Y191410D02*
X486831Y193084D01*
X472634Y212784D02*
X472634Y249966D01*
X472634Y212784D02*
X476911Y208507D01*
X480473Y193084D02*
X486831Y193084D01*
X480473Y193084D02*
X476911Y196646D01*
X476911Y208507D01*
X406930Y129540D02*
X381530Y104140D01*
X406930Y129540D02*
X457200Y129540D01*
X478844Y151184D01*
X478844Y168607D02*
X482147Y171910D01*
X478844Y168607D02*
X478844Y151184D01*
X482147Y171910D02*
X488505Y171910D01*
X252984Y103632D02*
X249936Y103632D01*
X252984Y103632D02*
X257556Y108204D01*
X257556Y120396D01*
X259080Y121920D01*
X257556Y123444D02*
X256032Y124968D01*
X257556Y123444D02*
X259080Y121920D01*
X256032Y124968D02*
X216408Y124968D01*
X142240Y50800D01*
X249810Y102680D02*
X249936Y103632D01*
X417576Y152400D02*
X428244Y152400D01*
X259080Y124968D02*
X257556Y123444D01*
X428244Y152400D02*
X429745Y152410D01*
X423672Y355092D02*
X413004Y355092D01*
X384048Y213360D02*
X384048Y210312D01*
X373380Y199644D01*
X373380Y196596D01*
X417576Y152400D01*
X424969Y354290D02*
X423672Y355092D01*
D45*
X417576Y152400D03*
X259080Y124968D03*
X413004Y355092D03*
X384048Y213360D03*
D44*
X385572Y339852D02*
X390144Y339852D01*
X385572Y339852D02*
X377952Y339852D01*
X390144Y339852D02*
X411480Y361188D01*
X423672Y361188D01*
X377952Y339852D02*
X376510Y340480D01*
X423672Y361188D02*
X424969Y360790D01*
X428244Y158496D02*
X419100Y158496D01*
X381000Y196596D01*
X381000Y198120D02*
X381000Y199644D01*
X381000Y198120D02*
X381000Y196596D01*
X381000Y199644D02*
X387096Y205740D01*
X385572Y338328D02*
X385572Y339852D01*
X429745Y158910D02*
X428244Y158496D01*
X262128Y132588D02*
X260604Y132588D01*
X262128Y132588D02*
X271272Y141732D01*
X379476Y198120D02*
X381000Y198120D01*
D45*
X387096Y205740D03*
X385572Y338328D03*
X260604Y132588D03*
X271272Y141732D03*
X379476Y198120D03*
D44*
X370332Y333756D02*
X370332Y339852D01*
X413004Y367284D02*
X423672Y367284D01*
X370640Y340480D02*
X370332Y339852D01*
X423672Y367284D02*
X424969Y367290D01*
X428244Y166116D02*
X419100Y166116D01*
X387096Y198120D01*
X428244Y166116D02*
X429745Y165410D01*
D45*
X370332Y333756D03*
X413004Y367284D03*
X387096Y198120D03*
D44*
X249936Y117348D02*
X249936Y111252D01*
X249810Y110680D01*
X249936Y117348D02*
X249810Y118680D01*
X248412Y111252D02*
X242316Y111252D01*
X237744Y106680D01*
X237744Y71628D01*
X224028Y57912D01*
X224028Y51816D01*
X248412Y111252D02*
X249810Y110680D01*
X224028Y51816D02*
X223520Y50800D01*
X417576Y198120D02*
X428244Y198120D01*
X390144Y39624D02*
X390144Y33528D01*
X384048Y27432D01*
X428244Y198120D02*
X429745Y197910D01*
X423672Y399288D02*
X414528Y399288D01*
X413004Y397764D01*
X420624Y248412D02*
X435864Y233172D01*
X423672Y399288D02*
X424969Y399790D01*
D45*
X417576Y198120D03*
X390144Y39624D03*
X384048Y27432D03*
X413004Y397764D03*
X420624Y248412D03*
X435864Y233172D03*
D52*
X513883Y323612D02*
X515668Y325398D01*
X513883Y323612D02*
X501158Y323612D01*
X499372Y325398D01*
X515668Y325958D02*
X523720Y334010D01*
X515668Y325958D02*
X515668Y325398D01*
X499372Y325398D02*
X499372Y325647D01*
X483729Y341290D01*
X484931Y346588D02*
X492367Y346588D01*
X484931Y346588D02*
X483729Y347790D01*
X504945Y334010D02*
X507520Y334010D01*
X504945Y334010D02*
X492367Y346588D01*
X494999Y351750D02*
X492459Y354290D01*
X483729Y354290D01*
X506020Y351750D02*
X508520Y349250D01*
X506020Y351750D02*
X494999Y351750D01*
D47*
X415996Y334976D02*
X396240Y315220D01*
X415996Y334976D02*
X441647Y334976D01*
D52*
X473306Y351303D02*
X476294Y354290D01*
X483729Y354290D01*
D46*
X455930Y337312D03*
X472024Y344586D03*
D52*
X473306Y347664D02*
X473306Y351303D01*
X472024Y346382D02*
X472024Y344586D01*
X472024Y346382D02*
X473306Y347664D01*
D47*
X443983Y337312D02*
X441647Y334976D01*
X443983Y337312D02*
X455930Y337312D01*
D44*
X482055Y372116D02*
X483729Y373790D01*
X475697Y372116D02*
X474068Y370487D01*
X475697Y372116D02*
X482055Y372116D01*
X474068Y370487D02*
X474068Y358062D01*
X469335Y353329D02*
X469335Y349082D01*
X469335Y353329D02*
X474068Y358062D01*
X469335Y349082D02*
X461010Y340757D01*
X461010Y335208D01*
X448840Y323038D02*
X448840Y311150D01*
X448840Y323038D02*
X461010Y335208D01*
X483729Y393290D02*
X482055Y394964D01*
X475697Y394964D01*
X472970Y397691D01*
X472970Y448310D01*
D47*
X483729Y367290D02*
X494290Y367290D01*
X497840Y370840D01*
D46*
X497840Y370840D03*
D51*
X498550Y380290D02*
X483729Y380290D01*
D47*
X498550Y380290D02*
X499110Y379730D01*
D46*
X499110Y379730D03*
D47*
X496010Y386790D02*
X483729Y386790D01*
X496010Y386790D02*
X497840Y388620D01*
D46*
X497840Y388620D03*
X565150Y388620D03*
D47*
X565150Y420990D01*
X598170Y454010D01*
D46*
X497840Y396240D03*
D47*
X494290Y399790D02*
X483729Y399790D01*
X494290Y399790D02*
X497840Y396240D01*
D44*
X71628Y463296D02*
X62484Y463296D01*
X59436Y460248D01*
X59436Y426720D01*
X60960Y425196D01*
X60960Y399288D01*
X53340Y391668D01*
X71628Y463296D02*
X72025Y463550D01*
X53340Y391668D02*
X51844Y391160D01*
X32004Y409956D02*
X25908Y409956D01*
X32004Y409956D02*
X51816Y390144D01*
X25908Y409956D02*
X25400Y409958D01*
X51844Y391160D02*
X51816Y390144D01*
X73152Y227076D02*
X73152Y220980D01*
X73152Y227076D02*
X70104Y230124D01*
X68580Y230124D01*
X64008Y234696D01*
X64008Y243840D01*
X73152Y220980D02*
X73780Y220980D01*
X64008Y243840D02*
X63740Y243840D01*
X484632Y224028D02*
X487680Y224028D01*
X484632Y224028D02*
X478536Y230124D01*
X466344Y217932D02*
X466344Y214884D01*
X469392Y211836D01*
X469392Y192024D01*
X460248Y182880D01*
X487680Y224028D02*
X488505Y223910D01*
X460248Y182880D02*
X459125Y181660D01*
D45*
X478536Y230124D03*
X466344Y217932D03*
D48*
X154940Y220980D02*
X137040Y220980D01*
D46*
X154940Y220980D03*
X154940Y200660D03*
D47*
X522720Y203200D02*
X527050Y203200D01*
X527050Y195580D01*
X488505Y223910D02*
X488505Y234950D01*
X499110Y234950D01*
D46*
X499110Y234950D03*
X521970Y236220D03*
D47*
X134500Y537700D02*
X122689Y537700D01*
X122689Y528320D01*
D46*
X83049Y470042D03*
D47*
X83968Y462800D02*
X91440Y462800D01*
D46*
X95250Y491490D03*
X83968Y491490D03*
D47*
X411480Y243840D02*
X411480Y235540D01*
X411480Y243840D02*
X400050Y243840D01*
D46*
X400050Y243840D03*
X372110Y222250D03*
D47*
X143510Y298410D02*
X131375Y298410D01*
D46*
X143510Y298342D03*
D47*
X143510Y298410D01*
D46*
X158750Y307340D03*
X156210Y236220D03*
D48*
X525260Y185420D02*
X534670Y185420D01*
D46*
X534670Y185420D03*
X549910Y185420D03*
D44*
X376510Y355480D02*
X374770Y355480D01*
X367030Y363220D01*
X370640Y355480D02*
X376510Y355480D01*
X360640Y355480D02*
X360640Y350480D01*
X358140Y347980D01*
D46*
X358140Y347980D03*
X355850Y333662D03*
D53*
X454349Y383540D02*
X454349Y407981D01*
X453390Y408940D01*
X454349Y383540D02*
X454349Y355289D01*
X453390Y354330D01*
X459125Y203815D02*
X459125Y181660D01*
X459125Y203815D02*
X458470Y204470D01*
X459125Y181660D02*
X459125Y155595D01*
X457200Y153670D01*
D46*
X101600Y463550D03*
X107950Y441960D03*
D47*
X120650Y454660D01*
X154940Y454660D01*
D46*
X154940Y454660D03*
X162560Y440690D03*
D47*
X154120Y428440D02*
X154120Y418055D01*
D46*
X195580Y440690D03*
D44*
X339852Y341376D02*
X344424Y341376D01*
X339852Y341376D02*
X339770Y340480D01*
X344424Y341376D02*
X345640Y340480D01*
X411480Y225552D02*
X417576Y225552D01*
X419100Y224028D01*
X428244Y224028D01*
X411480Y225552D02*
X411480Y226740D01*
X428244Y224028D02*
X429745Y223910D01*
X339852Y292608D02*
X339852Y339852D01*
X339852Y292608D02*
X405384Y227076D01*
X408432Y227076D02*
X411480Y227076D01*
X408432Y227076D02*
X405384Y227076D01*
X339852Y339852D02*
X339770Y340480D01*
X411480Y227076D02*
X411480Y226740D01*
X310896Y42672D02*
X310896Y32004D01*
X403860Y225552D02*
X405384Y227076D01*
X310896Y32004D02*
X309720Y31260D01*
X417576Y210312D02*
X428244Y210312D01*
X417576Y210312D02*
X411480Y216408D01*
X411480Y224028D01*
X408432Y227076D01*
X428244Y210312D02*
X429745Y210910D01*
X411480Y226740D02*
X408432Y227076D01*
D45*
X310896Y42672D03*
X403860Y225552D03*
D44*
X489204Y216408D02*
X489204Y211836D01*
X488505Y210910D01*
X489204Y216408D02*
X488505Y217410D01*
X298704Y62484D02*
X298704Y57912D01*
X289560Y48768D01*
X536448Y198120D02*
X536448Y201168D01*
X518160Y219456D01*
X498348Y219456D01*
X496824Y217932D01*
X489204Y217932D01*
X299720Y63760D02*
X298704Y62484D01*
X488505Y217410D02*
X489204Y217932D01*
D45*
X289560Y48768D03*
X536448Y198120D03*
D44*
X338328Y355092D02*
X335280Y355092D01*
X333756Y353568D01*
X333756Y350520D01*
X338328Y355092D02*
X339770Y355480D01*
X175260Y275844D02*
X172212Y278892D01*
X175260Y275844D02*
X175260Y272796D01*
X132588Y310896D02*
X131375Y311410D01*
X175260Y272796D02*
X176300Y272431D01*
X397764Y406908D02*
X423672Y406908D01*
X397764Y406908D02*
X391668Y400812D01*
X348996Y370332D02*
X339852Y361188D01*
X339852Y358140D01*
X341376Y356616D01*
X339852Y355092D01*
X423672Y406908D02*
X424969Y406290D01*
X339770Y355480D02*
X339852Y355092D01*
D45*
X333756Y350520D03*
X391668Y400812D03*
X348996Y370332D03*
D44*
X172212Y281135D02*
X172212Y278892D01*
X172212Y281135D02*
X142451Y310896D01*
X132588Y310896D01*
X345948Y350520D02*
X345948Y355092D01*
X345948Y350520D02*
X342900Y347472D01*
X338328Y347472D01*
X333756Y342900D01*
X333756Y307848D01*
X345948Y355092D02*
X345640Y355480D01*
X176784Y248412D02*
X164592Y260604D01*
X132588Y304800D02*
X131375Y304910D01*
X176784Y248412D02*
X176300Y247031D01*
X403860Y348996D02*
X423672Y348996D01*
X403860Y348996D02*
X365760Y310896D01*
X423672Y348996D02*
X424969Y347790D01*
D45*
X333756Y307848D03*
X365760Y310896D03*
D44*
X164592Y284444D02*
X164592Y260604D01*
X164592Y284444D02*
X144236Y304800D01*
X132588Y304800D01*
X356616Y356616D02*
X356616Y370332D01*
X350520Y376428D01*
X347472Y376428D01*
X327660Y356616D01*
X327660Y298704D01*
X333756Y292608D01*
X355640Y355480D02*
X356616Y356616D01*
X379476Y146304D02*
X428244Y146304D01*
X379476Y146304D02*
X309372Y216408D01*
X263652Y216408D01*
X259080Y220980D01*
X256032Y220980D01*
X428244Y146304D02*
X429745Y145910D01*
X256032Y220980D02*
X255500Y221631D01*
D45*
X333756Y292608D03*
D44*
X419100Y178308D02*
X428244Y178308D01*
X419100Y178308D02*
X411480Y185928D01*
X411480Y199644D01*
X416052Y204216D01*
X428244Y204216D01*
X429745Y178410D02*
X428244Y178308D01*
X428244Y204216D02*
X429745Y204410D01*
X350520Y356616D02*
X350520Y362712D01*
X350520Y356616D02*
X350640Y355480D01*
X405384Y199644D02*
X411480Y199644D01*
X405384Y199644D02*
X338328Y266700D01*
X263652Y266700D01*
X259080Y271272D01*
X256032Y271272D01*
X255500Y272431D01*
D45*
X350520Y362712D03*
D44*
X350520Y341376D02*
X355092Y341376D01*
X355640Y340480D01*
X429768Y428244D02*
X429768Y432816D01*
X429768Y441960D01*
X429768Y428244D02*
X428244Y426720D01*
X425196Y426720D01*
X428580Y441960D02*
X429768Y441960D01*
X425196Y426720D02*
X424969Y425790D01*
X350520Y347472D02*
X350520Y341376D01*
X350640Y340480D01*
X373380Y42672D02*
X373380Y32004D01*
X373220Y31260D01*
X414528Y413004D02*
X423672Y413004D01*
X414528Y413004D02*
X413004Y414528D01*
X413004Y423672D01*
X414528Y425196D01*
X423672Y425196D01*
X423672Y413004D02*
X424969Y412790D01*
X423672Y425196D02*
X424969Y425790D01*
D45*
X350520Y347472D03*
X429768Y432816D03*
X373380Y42672D03*
D44*
X484632Y413004D02*
X484632Y419100D01*
X484632Y413004D02*
X483729Y412790D01*
X384048Y64008D02*
X364236Y64008D01*
X384048Y64008D02*
X396240Y76200D01*
X495300Y417576D02*
X493776Y419100D01*
X484632Y419100D01*
X364236Y64008D02*
X363220Y63760D01*
X483729Y419290D02*
X484632Y419100D01*
D45*
X396240Y76200D03*
X495300Y417576D03*
M02*
