G04 EAGLE Gerber RS-274X export*
G75*
%MOMM*%
%FSLAX34Y34*%
%LPD*%
%INSoldermask Bottom*%
%IPPOS*%
%AMOC8*
5,1,8,0,0,1.08239X$1,22.5*%
G01*
G04 Define Apertures*
%ADD10R,1.327000X1.327000*%
%ADD11C,1.327000*%
%ADD12R,1.227000X1.227000*%
%ADD13C,1.227000*%
%ADD14C,4.870000*%
%ADD15C,2.077000*%
%ADD16C,2.006600*%
%ADD17R,1.627000X1.627000*%
%ADD18C,1.627000*%
%ADD19R,1.402000X1.402000*%
%ADD20C,1.402000*%
%ADD21C,2.877000*%
%ADD22R,1.905000X1.905000*%
%ADD23C,1.905000*%
%ADD24C,6.400000*%
%ADD25C,0.635000*%
%ADD26C,0.685800*%
%ADD27C,0.889000*%
D10*
X318770Y189420D03*
D11*
X368770Y189420D03*
D12*
X299720Y281940D03*
D13*
X299720Y301940D03*
D14*
X451960Y87525D03*
X451960Y27525D03*
X498960Y57525D03*
D15*
X598170Y104010D03*
X598170Y154010D03*
X598170Y204010D03*
X598170Y254010D03*
X598170Y304010D03*
X598170Y354010D03*
X598170Y404010D03*
X598170Y454010D03*
D16*
X25400Y384558D03*
X25400Y409958D03*
D17*
X25400Y101600D03*
D18*
X25400Y166600D03*
X70400Y101600D03*
X70400Y166600D03*
D19*
X255500Y145431D03*
D20*
X255500Y170831D03*
X255500Y297831D03*
X255500Y323231D03*
X255500Y196231D03*
X255500Y221631D03*
X255500Y272431D03*
X255500Y247031D03*
X255500Y348631D03*
X255500Y374031D03*
X255500Y399431D03*
X255500Y424831D03*
X255500Y450231D03*
X255500Y475631D03*
X176300Y475631D03*
X176300Y450231D03*
X176300Y424831D03*
X176300Y399431D03*
X176300Y374031D03*
X176300Y348631D03*
X176300Y323231D03*
X176300Y297831D03*
X176300Y272431D03*
X176300Y247031D03*
X176300Y221631D03*
X176300Y196231D03*
X176300Y170831D03*
X176300Y145431D03*
D21*
X35000Y35000D03*
X35000Y525000D03*
X615000Y35000D03*
X615000Y525000D03*
D22*
X83700Y512300D03*
D23*
X83700Y537700D03*
X109100Y512300D03*
X109100Y537700D03*
X134500Y512300D03*
X134500Y537700D03*
X159900Y512300D03*
X159900Y537700D03*
X185300Y512300D03*
X185300Y537700D03*
X210700Y512300D03*
X210700Y537700D03*
X236100Y512300D03*
X236100Y537700D03*
X261500Y512300D03*
X261500Y537700D03*
X286900Y512300D03*
X286900Y537700D03*
X312300Y512300D03*
X312300Y537700D03*
X337700Y512300D03*
X337700Y537700D03*
X363100Y512300D03*
X363100Y537700D03*
X388500Y512300D03*
X388500Y537700D03*
X413900Y512300D03*
X413900Y537700D03*
X439300Y512300D03*
X439300Y537700D03*
X464700Y512300D03*
X464700Y537700D03*
X490100Y512300D03*
X490100Y537700D03*
X515500Y512300D03*
X515500Y537700D03*
X540900Y512300D03*
X540900Y537700D03*
X566300Y512300D03*
X566300Y537700D03*
D24*
X35000Y525000D03*
X615000Y525000D03*
X615000Y35000D03*
X35000Y35000D03*
D16*
X193040Y50800D03*
X193040Y25400D03*
X167640Y50800D03*
X167640Y25400D03*
X142240Y50800D03*
X142240Y25400D03*
X223520Y25400D03*
X223520Y50800D03*
X223520Y76200D03*
D25*
X124968Y269748D03*
X147828Y176784D03*
X123444Y45720D03*
X117348Y489204D03*
X362712Y333756D03*
X397764Y472440D03*
X275844Y118872D03*
X338328Y475488D03*
X350520Y470916D03*
X85344Y298704D03*
X137160Y379476D03*
X336804Y413004D03*
X103632Y411480D03*
X120396Y429768D03*
X128016Y429768D03*
X140208Y434340D03*
X146304Y429768D03*
X85344Y336804D03*
X65532Y518160D03*
X60960Y330708D03*
X73152Y551688D03*
X91440Y548640D03*
X321564Y547116D03*
X339852Y490728D03*
X144780Y525780D03*
X303276Y527304D03*
X169164Y358140D03*
X391668Y413004D03*
X155448Y364236D03*
X384048Y413004D03*
X345948Y481584D03*
X301752Y461772D03*
X350520Y548640D03*
X403860Y551688D03*
X313944Y429768D03*
X83820Y451104D03*
X91440Y391668D03*
X307848Y441960D03*
X352044Y496824D03*
X338328Y455676D03*
X403860Y481584D03*
X417576Y217932D03*
X437388Y419100D03*
X441960Y219456D03*
X92964Y211836D03*
X101092Y441960D03*
X118872Y464820D03*
X124968Y438912D03*
X152400Y440436D03*
X237744Y422148D03*
X192024Y222504D03*
X405384Y387096D03*
X362712Y376428D03*
X224028Y269748D03*
X184404Y230124D03*
X372872Y364236D03*
X413004Y390144D03*
X387096Y304800D03*
X365760Y283464D03*
X196596Y234696D03*
X143256Y330708D03*
X143256Y338328D03*
X167640Y406908D03*
X118872Y344424D03*
X105156Y423672D03*
X460248Y272796D03*
X151845Y461264D03*
D26*
X156464Y244348D03*
D25*
X155448Y356616D03*
X105156Y254508D03*
X348996Y435864D03*
X417576Y187452D03*
X379476Y164592D03*
D27*
X508000Y213360D03*
X436880Y284480D03*
X508000Y158242D03*
D26*
X497840Y358608D03*
D25*
X85344Y321564D03*
X103632Y484632D03*
D26*
X506730Y166370D03*
X501650Y173101D03*
X500380Y185420D03*
X501650Y194310D03*
X533400Y227330D03*
D25*
X417576Y152400D03*
X259080Y124968D03*
X413004Y355092D03*
X384048Y213360D03*
X387096Y205740D03*
X385572Y338328D03*
X260604Y132588D03*
X271272Y141732D03*
X379476Y198120D03*
X370332Y333756D03*
X413004Y367284D03*
X387096Y198120D03*
X417576Y198120D03*
X390144Y39624D03*
X384048Y27432D03*
X413004Y397764D03*
X420624Y248412D03*
X435864Y233172D03*
D26*
X455930Y337312D03*
X472024Y344586D03*
X497840Y370840D03*
X499110Y379730D03*
X497840Y388620D03*
X565150Y388620D03*
X497840Y396240D03*
D25*
X478536Y230124D03*
X466344Y217932D03*
D26*
X154940Y220980D03*
X154940Y200660D03*
X499110Y234950D03*
X521970Y236220D03*
X83049Y470042D03*
X95250Y491490D03*
X83968Y491490D03*
X400050Y243840D03*
X372110Y222250D03*
X143510Y298342D03*
X158750Y307340D03*
X156210Y236220D03*
X534670Y185420D03*
X549910Y185420D03*
X358140Y347980D03*
X355850Y333662D03*
X101600Y463550D03*
X107950Y441960D03*
X154940Y454660D03*
X162560Y440690D03*
X195580Y440690D03*
D25*
X310896Y42672D03*
X403860Y225552D03*
X289560Y48768D03*
X536448Y198120D03*
X333756Y350520D03*
X391668Y400812D03*
X348996Y370332D03*
X333756Y307848D03*
X365760Y310896D03*
X333756Y292608D03*
X350520Y362712D03*
X350520Y347472D03*
X429768Y432816D03*
X373380Y42672D03*
X396240Y76200D03*
X495300Y417576D03*
M02*
