G04 EAGLE Gerber RS-274X export*
G75*
%MOMM*%
%FSLAX34Y34*%
%LPD*%
%INSoldermask Top*%
%IPPOS*%
%AMOC8*
5,1,8,0,0,1.08239X$1,22.5*%
G01*
G04 Define Apertures*
%ADD10C,0.413538*%
%ADD11R,0.857000X1.067000*%
%ADD12R,0.747000X0.777000*%
%ADD13R,1.147000X1.597000*%
%ADD14R,1.327000X1.327000*%
%ADD15C,1.327000*%
%ADD16R,0.777000X0.747000*%
%ADD17R,1.067000X0.857000*%
%ADD18R,0.747000X0.687000*%
%ADD19R,1.227000X1.227000*%
%ADD20C,1.227000*%
%ADD21R,0.577000X1.602000*%
%ADD22R,1.602000X0.577000*%
%ADD23R,3.227000X5.307000*%
%ADD24R,1.652000X0.827000*%
%ADD25C,4.870000*%
%ADD26C,2.077000*%
%ADD27C,2.006600*%
%ADD28R,1.077000X1.077000*%
%ADD29R,1.227000X1.877000*%
%ADD30R,1.927000X1.177000*%
%ADD31R,1.177000X1.877000*%
%ADD32R,1.177000X1.927000*%
%ADD33R,1.627000X1.627000*%
%ADD34C,1.627000*%
%ADD35R,1.402000X1.402000*%
%ADD36C,1.402000*%
%ADD37C,2.877000*%
%ADD38R,1.905000X1.905000*%
%ADD39C,1.905000*%
%ADD40C,6.400000*%
%ADD41R,1.927000X1.127000*%
%ADD42R,1.727000X1.627000*%
%ADD43R,0.552000X0.627000*%
%ADD44R,0.377000X0.627000*%
%ADD45R,1.027000X0.527000*%
%ADD46C,0.635000*%
%ADD47C,0.685800*%
%ADD48C,0.889000*%
D10*
X69552Y271288D02*
X72688Y271288D01*
X72688Y268752D01*
X69552Y268752D01*
X69552Y271288D01*
X69552Y279888D02*
X72688Y279888D01*
X72688Y277352D01*
X69552Y277352D01*
X69552Y279888D01*
D11*
X515100Y408940D03*
X500900Y408940D03*
D12*
X411480Y235540D03*
X411480Y226740D03*
D13*
X523720Y334010D03*
X507520Y334010D03*
D11*
X508520Y349250D03*
X522720Y349250D03*
X522720Y203200D03*
X508520Y203200D03*
D14*
X318770Y189420D03*
D15*
X368770Y189420D03*
D11*
X522720Y365760D03*
X508520Y365760D03*
D16*
X419780Y441960D03*
X428580Y441960D03*
D17*
X91440Y462800D03*
X91440Y477000D03*
D10*
X130512Y277352D02*
X133648Y277352D01*
X130512Y277352D02*
X130512Y279888D01*
X133648Y279888D01*
X133648Y277352D01*
X133648Y268752D02*
X130512Y268752D01*
X130512Y271288D01*
X133648Y271288D01*
X133648Y268752D01*
D18*
X276860Y363500D03*
X276860Y373100D03*
X276860Y338100D03*
X276860Y347700D03*
D19*
X299720Y281940D03*
D20*
X299720Y301940D03*
D10*
X159048Y327168D02*
X155912Y327168D01*
X159048Y327168D02*
X159048Y324632D01*
X155912Y324632D01*
X155912Y327168D01*
X155912Y335768D02*
X159048Y335768D01*
X159048Y333232D01*
X155912Y333232D01*
X155912Y335768D01*
D13*
X530070Y137160D03*
X513870Y137160D03*
D11*
X517410Y156210D03*
X531610Y156210D03*
X525260Y185420D03*
X511060Y185420D03*
D21*
X115120Y418055D03*
X121620Y418055D03*
X128120Y418055D03*
X134620Y418055D03*
X141120Y418055D03*
X147620Y418055D03*
X154120Y418055D03*
X154120Y476815D03*
X147620Y476815D03*
X141120Y476815D03*
X134620Y476815D03*
X128120Y476815D03*
X121620Y476815D03*
X115120Y476815D03*
D22*
X72615Y356910D03*
X72615Y350410D03*
X72615Y343910D03*
X72615Y337410D03*
X72615Y330910D03*
X72615Y324410D03*
X72615Y317910D03*
X72615Y311410D03*
X72615Y304910D03*
X72615Y298410D03*
X131375Y298410D03*
X131375Y304910D03*
X131375Y311410D03*
X131375Y317910D03*
X131375Y324410D03*
X131375Y330910D03*
X131375Y337410D03*
X131375Y343910D03*
X131375Y350410D03*
X131375Y356910D03*
X326220Y481370D03*
X326220Y474870D03*
X326220Y468370D03*
X326220Y461870D03*
X326220Y455370D03*
X326220Y448870D03*
X326220Y442370D03*
X326220Y435870D03*
X326220Y429370D03*
X326220Y422870D03*
X384980Y422870D03*
X384980Y429370D03*
X384980Y435870D03*
X384980Y442370D03*
X384980Y448870D03*
X384980Y455370D03*
X384980Y461870D03*
X384980Y468370D03*
X384980Y474870D03*
X384980Y481370D03*
X488505Y139410D03*
X488505Y145910D03*
X488505Y152410D03*
X488505Y158910D03*
X488505Y165410D03*
X488505Y171910D03*
X488505Y178410D03*
X488505Y184910D03*
X488505Y191410D03*
X488505Y197910D03*
X488505Y204410D03*
X488505Y210910D03*
X488505Y217410D03*
X488505Y223910D03*
X429745Y223910D03*
X429745Y217410D03*
X429745Y210910D03*
X429745Y204410D03*
X429745Y197910D03*
X429745Y191410D03*
X429745Y184910D03*
X429745Y178410D03*
X429745Y171910D03*
X429745Y165410D03*
X429745Y158910D03*
X429745Y152410D03*
X429745Y145910D03*
X429745Y139410D03*
D23*
X459125Y181660D03*
D22*
X483729Y341290D03*
X483729Y347790D03*
X483729Y354290D03*
X483729Y360790D03*
X483729Y367290D03*
X483729Y373790D03*
X483729Y380290D03*
X483729Y386790D03*
X483729Y393290D03*
X483729Y399790D03*
X483729Y406290D03*
X483729Y412790D03*
X483729Y419290D03*
X483729Y425790D03*
X424969Y425790D03*
X424969Y419290D03*
X424969Y412790D03*
X424969Y406290D03*
X424969Y399790D03*
X424969Y393290D03*
X424969Y386790D03*
X424969Y380290D03*
X424969Y373790D03*
X424969Y367290D03*
X424969Y360790D03*
X424969Y354290D03*
X424969Y347790D03*
X424969Y341290D03*
D23*
X454349Y383540D03*
D24*
X17785Y476250D03*
X17785Y463550D03*
X17785Y450850D03*
X17785Y438150D03*
X72025Y438150D03*
X72025Y450850D03*
X72025Y463550D03*
X72025Y476250D03*
D25*
X451960Y87525D03*
X451960Y27525D03*
X498960Y57525D03*
D26*
X598170Y104010D03*
X598170Y154010D03*
X598170Y204010D03*
X598170Y254010D03*
X598170Y304010D03*
X598170Y354010D03*
X598170Y404010D03*
X598170Y454010D03*
D27*
X25400Y384558D03*
X25400Y409958D03*
D28*
X83820Y56000D03*
X83820Y71000D03*
X88780Y220980D03*
X73780Y220980D03*
X137040Y220980D03*
X122040Y220980D03*
D29*
X443634Y249966D03*
X472634Y249966D03*
X352530Y104140D03*
X381530Y104140D03*
D30*
X396240Y315220D03*
X396240Y284220D03*
D29*
X443970Y448310D03*
X472970Y448310D03*
X419840Y311150D03*
X448840Y311150D03*
D31*
X51844Y391160D03*
X80844Y391160D03*
D32*
X117080Y388620D03*
X147080Y388620D03*
X81040Y414020D03*
X51040Y414020D03*
D31*
X118850Y163830D03*
X147850Y163830D03*
D32*
X63740Y243840D03*
X93740Y243840D03*
X114540Y243840D03*
X144540Y243840D03*
D30*
X114300Y35800D03*
X114300Y65800D03*
X473710Y270250D03*
X473710Y301250D03*
D33*
X25400Y101600D03*
D34*
X25400Y166600D03*
X70400Y101600D03*
X70400Y166600D03*
D35*
X255500Y145431D03*
D36*
X255500Y170831D03*
X255500Y297831D03*
X255500Y323231D03*
X255500Y196231D03*
X255500Y221631D03*
X255500Y272431D03*
X255500Y247031D03*
X255500Y348631D03*
X255500Y374031D03*
X255500Y399431D03*
X255500Y424831D03*
X255500Y450231D03*
X255500Y475631D03*
X176300Y475631D03*
X176300Y450231D03*
X176300Y424831D03*
X176300Y399431D03*
X176300Y374031D03*
X176300Y348631D03*
X176300Y323231D03*
X176300Y297831D03*
X176300Y272431D03*
X176300Y247031D03*
X176300Y221631D03*
X176300Y196231D03*
X176300Y170831D03*
X176300Y145431D03*
D37*
X35000Y35000D03*
X35000Y525000D03*
X615000Y35000D03*
X615000Y525000D03*
D38*
X83700Y512300D03*
D39*
X83700Y537700D03*
X109100Y512300D03*
X109100Y537700D03*
X134500Y512300D03*
X134500Y537700D03*
X159900Y512300D03*
X159900Y537700D03*
X185300Y512300D03*
X185300Y537700D03*
X210700Y512300D03*
X210700Y537700D03*
X236100Y512300D03*
X236100Y537700D03*
X261500Y512300D03*
X261500Y537700D03*
X286900Y512300D03*
X286900Y537700D03*
X312300Y512300D03*
X312300Y537700D03*
X337700Y512300D03*
X337700Y537700D03*
X363100Y512300D03*
X363100Y537700D03*
X388500Y512300D03*
X388500Y537700D03*
X413900Y512300D03*
X413900Y537700D03*
X439300Y512300D03*
X439300Y537700D03*
X464700Y512300D03*
X464700Y537700D03*
X490100Y512300D03*
X490100Y537700D03*
X515500Y512300D03*
X515500Y537700D03*
X540900Y512300D03*
X540900Y537700D03*
X566300Y512300D03*
X566300Y537700D03*
D40*
X35000Y525000D03*
X615000Y525000D03*
X35000Y35000D03*
X615000Y35000D03*
D41*
X302260Y373180D03*
X302260Y348180D03*
D27*
X193040Y50800D03*
X193040Y25400D03*
X167640Y50800D03*
X167640Y25400D03*
X142240Y50800D03*
X142240Y25400D03*
D14*
X289720Y31260D03*
D42*
X299720Y63760D03*
D14*
X309720Y31260D03*
X353220Y31260D03*
D42*
X363220Y63760D03*
D14*
X373220Y31260D03*
D27*
X223520Y25400D03*
X223520Y50800D03*
X223520Y76200D03*
D43*
X339770Y340480D03*
D44*
X345640Y340480D03*
X350640Y340480D03*
X355640Y340480D03*
X360640Y340480D03*
X365640Y340480D03*
X370640Y340480D03*
D43*
X376510Y340480D03*
X376510Y355480D03*
D44*
X370640Y355480D03*
X365640Y355480D03*
X360640Y355480D03*
X355640Y355480D03*
X350640Y355480D03*
X345640Y355480D03*
D43*
X339770Y355480D03*
D45*
X249810Y118680D03*
X265810Y118680D03*
X249810Y110680D03*
X265810Y110680D03*
X249810Y102680D03*
X265810Y102680D03*
X249810Y94680D03*
X265810Y94680D03*
D46*
X124968Y269748D03*
X147828Y176784D03*
X123444Y45720D03*
X117348Y489204D03*
X362712Y333756D03*
X397764Y472440D03*
X275844Y118872D03*
X338328Y475488D03*
X350520Y470916D03*
X85344Y298704D03*
X137160Y379476D03*
X336804Y413004D03*
X103632Y411480D03*
X120396Y429768D03*
X128016Y429768D03*
X140208Y434340D03*
X146304Y429768D03*
X85344Y336804D03*
X65532Y518160D03*
X60960Y330708D03*
X73152Y551688D03*
X91440Y548640D03*
X321564Y547116D03*
X339852Y490728D03*
X144780Y525780D03*
X303276Y527304D03*
X169164Y358140D03*
X391668Y413004D03*
X155448Y364236D03*
X384048Y413004D03*
X345948Y481584D03*
X301752Y461772D03*
X350520Y548640D03*
X403860Y551688D03*
X313944Y429768D03*
X83820Y451104D03*
X91440Y391668D03*
X307848Y441960D03*
X352044Y496824D03*
X338328Y455676D03*
X403860Y481584D03*
X417576Y217932D03*
X437388Y419100D03*
X441960Y219456D03*
X92964Y211836D03*
X101092Y441960D03*
X118872Y464820D03*
X124968Y438912D03*
X152400Y440436D03*
X237744Y422148D03*
X192024Y222504D03*
X405384Y387096D03*
X362712Y376428D03*
X224028Y269748D03*
X184404Y230124D03*
X372872Y364236D03*
X413004Y390144D03*
X387096Y304800D03*
X365760Y283464D03*
X196596Y234696D03*
X143256Y330708D03*
X143256Y338328D03*
X167640Y406908D03*
X118872Y344424D03*
X105156Y423672D03*
X460248Y272796D03*
X151845Y461264D03*
D47*
X156464Y244348D03*
D46*
X155448Y356616D03*
X105156Y254508D03*
X348996Y435864D03*
X417576Y187452D03*
X379476Y164592D03*
D48*
X508000Y213360D03*
X436880Y284480D03*
X508000Y158242D03*
D47*
X497840Y358608D03*
D46*
X85344Y321564D03*
X103632Y484632D03*
D47*
X506730Y166370D03*
X501650Y173101D03*
X500380Y185420D03*
X501650Y194310D03*
X533400Y227330D03*
D46*
X417576Y152400D03*
X259080Y124968D03*
X413004Y355092D03*
X384048Y213360D03*
X387096Y205740D03*
X385572Y338328D03*
X260604Y132588D03*
X271272Y141732D03*
X379476Y198120D03*
X370332Y333756D03*
X413004Y367284D03*
X387096Y198120D03*
X417576Y198120D03*
X390144Y39624D03*
X384048Y27432D03*
X413004Y397764D03*
X420624Y248412D03*
X435864Y233172D03*
D47*
X455930Y337312D03*
X472024Y344586D03*
X497840Y370840D03*
X499110Y379730D03*
X497840Y388620D03*
X565150Y388620D03*
X497840Y396240D03*
D46*
X478536Y230124D03*
X466344Y217932D03*
D47*
X154940Y220980D03*
X154940Y200660D03*
X499110Y234950D03*
X521970Y236220D03*
X83049Y470042D03*
X95250Y491490D03*
X83968Y491490D03*
X400050Y243840D03*
X372110Y222250D03*
X143510Y298342D03*
X158750Y307340D03*
X156210Y236220D03*
X534670Y185420D03*
X549910Y185420D03*
X358140Y347980D03*
X355850Y333662D03*
X101600Y463550D03*
X107950Y441960D03*
X154940Y454660D03*
X162560Y440690D03*
X195580Y440690D03*
D46*
X310896Y42672D03*
X403860Y225552D03*
X289560Y48768D03*
X536448Y198120D03*
X333756Y350520D03*
X391668Y400812D03*
X348996Y370332D03*
X333756Y307848D03*
X365760Y310896D03*
X333756Y292608D03*
X350520Y362712D03*
X350520Y347472D03*
X429768Y432816D03*
X373380Y42672D03*
X396240Y76200D03*
X495300Y417576D03*
M02*
