G04 EAGLE Gerber RS-274X export*
G75*
%MOMM*%
%FSLAX34Y34*%
%LPD*%
%INSolderpaste Top*%
%IPPOS*%
%AMOC8*
5,1,8,0,0,1.08239X$1,22.5*%
G01*
G04 Define Apertures*
%ADD10C,0.286200*%
%ADD11R,0.730000X0.940000*%
%ADD12R,0.620000X0.650000*%
%ADD13R,1.020000X1.470000*%
%ADD14R,0.650000X0.620000*%
%ADD15R,0.940000X0.730000*%
%ADD16R,0.620000X0.560000*%
%ADD17R,0.450000X1.475000*%
%ADD18R,1.475000X0.450000*%
%ADD19R,3.100000X5.180000*%
%ADD20R,1.525000X0.700000*%
%ADD21R,0.950000X0.950000*%
%ADD22R,1.100000X1.750000*%
%ADD23R,1.800000X1.050000*%
%ADD24R,1.050000X1.750000*%
%ADD25R,1.050000X1.800000*%
%ADD26R,1.800000X1.000000*%
%ADD27R,1.200000X1.200000*%
%ADD28R,1.600000X1.500000*%
%ADD29R,0.425000X0.500000*%
%ADD30R,0.250000X0.500000*%
%ADD31R,0.900000X0.400000*%
D10*
X69551Y271289D02*
X72689Y271289D01*
X72689Y268751D01*
X69551Y268751D01*
X69551Y271289D01*
X69551Y279889D02*
X72689Y279889D01*
X72689Y277351D01*
X69551Y277351D01*
X69551Y279889D01*
D11*
X515100Y408940D03*
X500900Y408940D03*
D12*
X411480Y235540D03*
X411480Y226740D03*
D13*
X523720Y334010D03*
X507520Y334010D03*
D11*
X508520Y349250D03*
X522720Y349250D03*
X522720Y203200D03*
X508520Y203200D03*
X522720Y365760D03*
X508520Y365760D03*
D14*
X419780Y441960D03*
X428580Y441960D03*
D15*
X91440Y462800D03*
X91440Y477000D03*
D10*
X130511Y277351D02*
X133649Y277351D01*
X130511Y277351D02*
X130511Y279889D01*
X133649Y279889D01*
X133649Y277351D01*
X133649Y268751D02*
X130511Y268751D01*
X130511Y271289D01*
X133649Y271289D01*
X133649Y268751D01*
D16*
X276860Y363500D03*
X276860Y373100D03*
X276860Y338100D03*
X276860Y347700D03*
D10*
X159049Y327169D02*
X155911Y327169D01*
X159049Y327169D02*
X159049Y324631D01*
X155911Y324631D01*
X155911Y327169D01*
X155911Y335769D02*
X159049Y335769D01*
X159049Y333231D01*
X155911Y333231D01*
X155911Y335769D01*
D13*
X530070Y137160D03*
X513870Y137160D03*
D11*
X517410Y156210D03*
X531610Y156210D03*
X525260Y185420D03*
X511060Y185420D03*
D17*
X115120Y418055D03*
X121620Y418055D03*
X128120Y418055D03*
X134620Y418055D03*
X141120Y418055D03*
X147620Y418055D03*
X154120Y418055D03*
X154120Y476815D03*
X147620Y476815D03*
X141120Y476815D03*
X134620Y476815D03*
X128120Y476815D03*
X121620Y476815D03*
X115120Y476815D03*
D18*
X72615Y356910D03*
X72615Y350410D03*
X72615Y343910D03*
X72615Y337410D03*
X72615Y330910D03*
X72615Y324410D03*
X72615Y317910D03*
X72615Y311410D03*
X72615Y304910D03*
X72615Y298410D03*
X131375Y298410D03*
X131375Y304910D03*
X131375Y311410D03*
X131375Y317910D03*
X131375Y324410D03*
X131375Y330910D03*
X131375Y337410D03*
X131375Y343910D03*
X131375Y350410D03*
X131375Y356910D03*
X326220Y481370D03*
X326220Y474870D03*
X326220Y468370D03*
X326220Y461870D03*
X326220Y455370D03*
X326220Y448870D03*
X326220Y442370D03*
X326220Y435870D03*
X326220Y429370D03*
X326220Y422870D03*
X384980Y422870D03*
X384980Y429370D03*
X384980Y435870D03*
X384980Y442370D03*
X384980Y448870D03*
X384980Y455370D03*
X384980Y461870D03*
X384980Y468370D03*
X384980Y474870D03*
X384980Y481370D03*
X488505Y139410D03*
X488505Y145910D03*
X488505Y152410D03*
X488505Y158910D03*
X488505Y165410D03*
X488505Y171910D03*
X488505Y178410D03*
X488505Y184910D03*
X488505Y191410D03*
X488505Y197910D03*
X488505Y204410D03*
X488505Y210910D03*
X488505Y217410D03*
X488505Y223910D03*
X429745Y223910D03*
X429745Y217410D03*
X429745Y210910D03*
X429745Y204410D03*
X429745Y197910D03*
X429745Y191410D03*
X429745Y184910D03*
X429745Y178410D03*
X429745Y171910D03*
X429745Y165410D03*
X429745Y158910D03*
X429745Y152410D03*
X429745Y145910D03*
X429745Y139410D03*
D19*
X459125Y181660D03*
D18*
X483729Y341290D03*
X483729Y347790D03*
X483729Y354290D03*
X483729Y360790D03*
X483729Y367290D03*
X483729Y373790D03*
X483729Y380290D03*
X483729Y386790D03*
X483729Y393290D03*
X483729Y399790D03*
X483729Y406290D03*
X483729Y412790D03*
X483729Y419290D03*
X483729Y425790D03*
X424969Y425790D03*
X424969Y419290D03*
X424969Y412790D03*
X424969Y406290D03*
X424969Y399790D03*
X424969Y393290D03*
X424969Y386790D03*
X424969Y380290D03*
X424969Y373790D03*
X424969Y367290D03*
X424969Y360790D03*
X424969Y354290D03*
X424969Y347790D03*
X424969Y341290D03*
D19*
X454349Y383540D03*
D20*
X17785Y476250D03*
X17785Y463550D03*
X17785Y450850D03*
X17785Y438150D03*
X72025Y438150D03*
X72025Y450850D03*
X72025Y463550D03*
X72025Y476250D03*
D21*
X83820Y56000D03*
X83820Y71000D03*
X88780Y220980D03*
X73780Y220980D03*
X137040Y220980D03*
X122040Y220980D03*
D22*
X443634Y249966D03*
X472634Y249966D03*
X352530Y104140D03*
X381530Y104140D03*
D23*
X396240Y315220D03*
X396240Y284220D03*
D22*
X443970Y448310D03*
X472970Y448310D03*
X419840Y311150D03*
X448840Y311150D03*
D24*
X51844Y391160D03*
X80844Y391160D03*
D25*
X117080Y388620D03*
X147080Y388620D03*
X81040Y414020D03*
X51040Y414020D03*
D24*
X118850Y163830D03*
X147850Y163830D03*
D25*
X63740Y243840D03*
X93740Y243840D03*
X114540Y243840D03*
X144540Y243840D03*
D23*
X114300Y35800D03*
X114300Y65800D03*
X473710Y270250D03*
X473710Y301250D03*
D26*
X302260Y373180D03*
X302260Y348180D03*
D27*
X289720Y31260D03*
D28*
X299720Y63760D03*
D27*
X309720Y31260D03*
X353220Y31260D03*
D28*
X363220Y63760D03*
D27*
X373220Y31260D03*
D29*
X339770Y340480D03*
D30*
X345640Y340480D03*
X350640Y340480D03*
X355640Y340480D03*
X360640Y340480D03*
X365640Y340480D03*
X370640Y340480D03*
D29*
X376510Y340480D03*
X376510Y355480D03*
D30*
X370640Y355480D03*
X365640Y355480D03*
X360640Y355480D03*
X355640Y355480D03*
X350640Y355480D03*
X345640Y355480D03*
D29*
X339770Y355480D03*
D31*
X249810Y118680D03*
X265810Y118680D03*
X249810Y110680D03*
X265810Y110680D03*
X249810Y102680D03*
X265810Y102680D03*
X249810Y94680D03*
X265810Y94680D03*
M02*
